<svg  height="100%" viewBox="0 0 380 55" fill="none" xmlns="http://www.w3.org/2000/svg">
<rect y="36" width="12" height="6" rx="2" fill="#CDDFEA"/>
<rect x="16" y="39" width="12" height="3" rx="1.5" fill="#DEEEF8"/>
<rect x="32" y="36" width="12" height="6" rx="2" fill="#CDDFEA"/>
<rect x="48" y="36" width="12" height="6" rx="2" fill="#CDDFEA"/>
<rect x="64" y="39" width="12" height="3" rx="1.5" fill="#D9E9F2"/>
<rect x="80" y="39" width="12" height="3" rx="1.5" fill="#D9E9F2"/>
<rect x="96" y="33" width="12" height="9" rx="2" fill="#B2E3DD"/>
<rect x="112" y="31" width="12" height="11" rx="2" fill="#A4D5C9"/>
<rect x="128" y="33" width="12" height="9" rx="2" fill="#A4D5C9"/>
<rect x="144" y="22" width="12" height="20" rx="2" fill="#8AC1B7"/>
<rect x="160" y="17" width="12" height="25" rx="2" fill="#AFB98A"/>
<rect x="176" y="13" width="12" height="29" rx="2" fill="#CDBC62"/>
<rect x="192" y="13" width="12" height="29" rx="2" fill="#CD933B"/>
<rect x="208" width="12" height="42" rx="2" fill="#BE5B31"/>
<rect x="224" y="17" width="12" height="25" rx="2" fill="#CDDFEA"/>
<rect x="240" y="22" width="12" height="20" rx="2" fill="#CDDFEA"/>
<rect x="256" y="17" width="12" height="25" rx="2" fill="#CDDFEA"/>
<rect x="272" y="10" width="12" height="32" rx="2" fill="#CDDFEA"/>
<rect x="288" y="10" width="12" height="32" rx="2" fill="#CDDFEA"/>
<rect x="304" y="22" width="12" height="20" rx="2" fill="#CDDFEA"/>
<rect x="320" y="28" width="12" height="14" rx="2" fill="#CDDFEA"/>
<rect x="336" y="36" width="12" height="6" rx="2" fill="#CDDFEA"/>
<rect x="352" y="31" width="12" height="11" rx="2" fill="#CDDFEA"/>
<rect x="368" y="36" width="12" height="6" rx="2" fill="#CDDFEA"/>
<path d="M7.62695 48.9048C7.62695 49.6203 7.49251 50.1603 7.22363 50.5249C6.95703 50.8872 6.55029 51.0684 6.00342 51.0684C5.46566 51.0684 5.06006 50.8918 4.78662 50.5386C4.51546 50.1831 4.37646 49.6579 4.36963 48.9629V48.1016C4.36963 47.3861 4.50293 46.8494 4.76953 46.4917C5.03841 46.134 5.44743 45.9551 5.99658 45.9551C6.54118 45.9551 6.94678 46.1294 7.21338 46.478C7.48226 46.8267 7.62012 47.3485 7.62695 48.0435V48.9048ZM6.79639 47.9751C6.79639 47.508 6.73258 47.1662 6.60498 46.9497C6.47738 46.731 6.27458 46.6216 5.99658 46.6216C5.72542 46.6216 5.52604 46.7253 5.39844 46.9326C5.27083 47.1377 5.20361 47.459 5.19678 47.8965V49.0244C5.19678 49.4893 5.26172 49.8356 5.3916 50.0635C5.52148 50.2913 5.72542 50.4053 6.00342 50.4053C6.27002 50.4053 6.46712 50.3005 6.59473 50.0908C6.72233 49.8789 6.78955 49.5485 6.79639 49.0996V47.9751Z" fill="#888888"/>
<path d="M22.6323 51H21.8052V47.0044L20.585 47.4214V46.7207L22.5264 46.0063H22.6323V51Z" fill="#888888"/>
<path d="M39.7295 51H36.3833V50.4292L38.041 48.6211C38.2803 48.3545 38.45 48.1323 38.5503 47.9546C38.6528 47.7746 38.7041 47.5946 38.7041 47.4146C38.7041 47.1776 38.6369 46.9862 38.5024 46.8403C38.3703 46.6945 38.1914 46.6216 37.9658 46.6216C37.6969 46.6216 37.4884 46.7036 37.3403 46.8677C37.1922 47.0317 37.1182 47.2562 37.1182 47.541H36.2876C36.2876 47.238 36.356 46.9657 36.4927 46.7241C36.6317 46.4803 36.8288 46.2912 37.084 46.1567C37.3415 46.0223 37.6377 45.9551 37.9727 45.9551C38.4557 45.9551 38.8363 46.077 39.1143 46.3208C39.3945 46.5623 39.5347 46.8973 39.5347 47.3257C39.5347 47.5741 39.464 47.835 39.3228 48.1084C39.1838 48.3796 38.9548 48.6883 38.6357 49.0347L37.4189 50.3369H39.7295V51Z" fill="#888888"/>
<path d="M53.3438 48.1323H53.8496C54.1048 48.13 54.3065 48.064 54.4546 47.9341C54.605 47.8042 54.6802 47.6162 54.6802 47.3701C54.6802 47.1331 54.6175 46.9497 54.4922 46.8198C54.3691 46.6877 54.18 46.6216 53.9248 46.6216C53.7015 46.6216 53.5181 46.6865 53.3745 46.8164C53.231 46.944 53.1592 47.1115 53.1592 47.3188H52.3286C52.3286 47.0636 52.3958 46.8312 52.5303 46.6216C52.667 46.4119 52.8561 46.249 53.0977 46.1328C53.3415 46.0143 53.6138 45.9551 53.9146 45.9551C54.4113 45.9551 54.8009 46.0804 55.0835 46.3311C55.3683 46.5794 55.5107 46.9258 55.5107 47.3701C55.5107 47.5934 55.439 47.8042 55.2954 48.0024C55.1541 48.1984 54.9707 48.3465 54.7451 48.4468C55.0186 48.5402 55.2259 48.6872 55.3672 48.8877C55.5107 49.0882 55.5825 49.3275 55.5825 49.6055C55.5825 50.0521 55.4287 50.4076 55.1211 50.6719C54.8158 50.9362 54.4136 51.0684 53.9146 51.0684C53.436 51.0684 53.0441 50.9408 52.7388 50.6855C52.4334 50.4303 52.2808 50.0908 52.2808 49.667H53.1113C53.1113 49.8857 53.1842 50.0635 53.3301 50.2002C53.4782 50.3369 53.6764 50.4053 53.9248 50.4053C54.1823 50.4053 54.3851 50.3369 54.5332 50.2002C54.6813 50.0635 54.7554 49.8652 54.7554 49.6055C54.7554 49.3434 54.6779 49.1418 54.5229 49.0005C54.368 48.8592 54.1379 48.7886 53.8325 48.7886H53.3438V48.1323Z" fill="#888888"/>
<path d="M71.1929 49.2261H71.8115V49.8926H71.1929V51H70.3623V49.8926H68.2124L68.1885 49.3867L70.335 46.0234H71.1929V49.2261ZM69.0601 49.2261H70.3623V47.1479L70.3008 47.2573L69.0601 49.2261Z" fill="#888888"/>
<path d="M84.6055 48.5322L84.8755 46.0234H87.5483V46.7412H85.5659L85.4292 47.9307C85.6593 47.7985 85.9191 47.7324 86.2085 47.7324C86.6825 47.7324 87.0505 47.884 87.3125 48.187C87.5768 48.4901 87.709 48.8979 87.709 49.4106C87.709 49.9165 87.5632 50.3198 87.2715 50.6206C86.9798 50.9191 86.5799 51.0684 86.0718 51.0684C85.616 51.0684 85.2378 50.9396 84.937 50.6821C84.6385 50.4224 84.4767 50.0806 84.4517 49.6567H85.2549C85.2868 49.8983 85.3734 50.084 85.5146 50.2139C85.6559 50.3415 85.8405 50.4053 86.0684 50.4053C86.3236 50.4053 86.5218 50.3141 86.6631 50.1318C86.8066 49.9495 86.8784 49.7012 86.8784 49.3867C86.8784 49.0837 86.7998 48.8444 86.6426 48.6689C86.4854 48.4912 86.2689 48.4023 85.9932 48.4023C85.8428 48.4023 85.7152 48.4229 85.6104 48.4639C85.5055 48.5026 85.3916 48.5801 85.2686 48.6963L84.6055 48.5322Z" fill="#888888"/>
<path d="M102.967 45.9995V46.6865H102.865C102.4 46.6934 102.028 46.821 101.75 47.0693C101.472 47.3177 101.307 47.6698 101.255 48.1255C101.521 47.8452 101.862 47.7051 102.277 47.7051C102.717 47.7051 103.063 47.86 103.316 48.1699C103.571 48.4798 103.699 48.8797 103.699 49.3696C103.699 49.8755 103.549 50.2856 103.251 50.6001C102.955 50.9123 102.565 51.0684 102.082 51.0684C101.585 51.0684 101.182 50.8849 100.872 50.5181C100.564 50.1512 100.411 49.6704 100.411 49.0757V48.792C100.411 47.9193 100.623 47.2357 101.046 46.7412C101.472 46.2467 102.084 45.9995 102.882 45.9995H102.967ZM102.075 48.375C101.893 48.375 101.725 48.4263 101.573 48.5288C101.422 48.6313 101.312 48.7681 101.241 48.939V49.1919C101.241 49.561 101.319 49.855 101.474 50.0737C101.629 50.2902 101.829 50.3984 102.075 50.3984C102.321 50.3984 102.516 50.3062 102.66 50.1216C102.803 49.937 102.875 49.6943 102.875 49.3936C102.875 49.0928 102.802 48.8478 102.656 48.6587C102.51 48.4696 102.317 48.375 102.075 48.375Z" fill="#888888"/>
<path d="M119.695 46.4849L117.706 51H116.834L118.82 46.6899H116.247V46.0234H119.695V46.4849Z" fill="#888888"/>
<path d="M135.518 47.3359C135.518 47.5798 135.455 47.7974 135.33 47.9888C135.204 48.1779 135.033 48.3271 134.817 48.4365C135.077 48.5573 135.276 48.7225 135.415 48.9321C135.556 49.1418 135.627 49.3787 135.627 49.6431C135.627 50.0806 135.479 50.4281 135.183 50.6855C134.886 50.9408 134.492 51.0684 134 51.0684C133.506 51.0684 133.109 50.9396 132.811 50.6821C132.514 50.4246 132.366 50.0783 132.366 49.6431C132.366 49.3765 132.437 49.1372 132.578 48.9253C132.719 48.7134 132.918 48.5505 133.173 48.4365C132.959 48.3271 132.789 48.1779 132.664 47.9888C132.541 47.7974 132.479 47.5798 132.479 47.3359C132.479 46.9121 132.616 46.576 132.889 46.3276C133.163 46.0793 133.532 45.9551 133.997 45.9551C134.464 45.9551 134.834 46.0793 135.107 46.3276C135.381 46.576 135.518 46.9121 135.518 47.3359ZM134.796 49.6021C134.796 49.356 134.722 49.1577 134.574 49.0073C134.428 48.8547 134.235 48.7783 133.993 48.7783C133.752 48.7783 133.558 48.8535 133.412 49.0039C133.269 49.1543 133.197 49.3537 133.197 49.6021C133.197 49.8459 133.267 50.0407 133.409 50.1865C133.552 50.3324 133.749 50.4053 134 50.4053C134.251 50.4053 134.445 50.3346 134.584 50.1934C134.726 50.0521 134.796 49.855 134.796 49.6021ZM134.69 47.3667C134.69 47.1502 134.628 46.9725 134.502 46.8335C134.377 46.6922 134.208 46.6216 133.997 46.6216C133.785 46.6216 133.617 46.6888 133.494 46.8232C133.371 46.9554 133.31 47.1366 133.31 47.3667C133.31 47.5946 133.371 47.7757 133.494 47.9102C133.619 48.0446 133.788 48.1118 134 48.1118C134.212 48.1118 134.379 48.0446 134.502 47.9102C134.628 47.7757 134.69 47.5946 134.69 47.3667Z" fill="#888888"/>
<path d="M150.738 48.9185C150.46 49.2124 150.136 49.3594 149.764 49.3594C149.327 49.3594 148.978 49.2067 148.718 48.9014C148.458 48.5938 148.329 48.1904 148.329 47.6914C148.329 47.3633 148.395 47.0659 148.527 46.7993C148.659 46.5327 148.847 46.3254 149.091 46.1772C149.335 46.0291 149.617 45.9551 149.938 45.9551C150.44 45.9551 150.837 46.1419 151.131 46.5156C151.425 46.8893 151.572 47.3895 151.572 48.0161V48.2485C151.572 49.1463 151.369 49.8311 150.964 50.3027C150.558 50.7744 149.953 51.0137 149.149 51.0205H149.05V50.3335H149.169C149.659 50.3267 150.035 50.2093 150.297 49.9814C150.559 49.7513 150.706 49.397 150.738 48.9185ZM149.938 48.71C150.105 48.71 150.261 48.6621 150.407 48.5664C150.553 48.4707 150.665 48.3385 150.745 48.1699V47.8452C150.745 47.4784 150.67 47.1833 150.52 46.96C150.369 46.7367 150.174 46.625 149.935 46.625C149.696 46.625 149.504 46.7241 149.361 46.9224C149.22 47.1183 149.149 47.3667 149.149 47.6675C149.149 47.9797 149.221 48.2314 149.364 48.4229C149.508 48.6143 149.699 48.71 149.938 48.71Z" fill="#888888"/>
<path d="M164.293 51H163.466V47.0044L162.246 47.4214V46.7207L164.187 46.0063H164.293V51ZM169.966 48.9048C169.966 49.6203 169.832 50.1603 169.563 50.5249C169.296 50.8872 168.89 51.0684 168.343 51.0684C167.805 51.0684 167.399 50.8918 167.126 50.5386C166.855 50.1831 166.716 49.6579 166.709 48.9629V48.1016C166.709 47.3861 166.842 46.8494 167.109 46.4917C167.378 46.134 167.787 45.9551 168.336 45.9551C168.88 45.9551 169.286 46.1294 169.553 46.478C169.822 46.8267 169.959 47.3485 169.966 48.0435V48.9048ZM169.136 47.9751C169.136 47.508 169.072 47.1662 168.944 46.9497C168.817 46.731 168.614 46.6216 168.336 46.6216C168.065 46.6216 167.865 46.7253 167.738 46.9326C167.61 47.1377 167.543 47.459 167.536 47.8965V49.0244C167.536 49.4893 167.601 49.8356 167.731 50.0635C167.861 50.2913 168.065 50.4053 168.343 50.4053C168.609 50.4053 168.806 50.3005 168.934 50.0908C169.062 49.8789 169.129 49.5485 169.136 49.0996V47.9751Z" fill="#888888"/>
<path d="M180.293 51H179.466V47.0044L178.246 47.4214V46.7207L180.187 46.0063H180.293V51ZM184.972 51H184.144V47.0044L182.924 47.4214V46.7207L184.866 46.0063H184.972V51Z" fill="#888888"/>
<path d="M196.293 51H195.466V47.0044L194.246 47.4214V46.7207L196.187 46.0063H196.293V51ZM202.069 51H198.723V50.4292L200.38 48.6211C200.62 48.3545 200.789 48.1323 200.89 47.9546C200.992 47.7746 201.043 47.5946 201.043 47.4146C201.043 47.1776 200.976 46.9862 200.842 46.8403C200.71 46.6945 200.531 46.6216 200.305 46.6216C200.036 46.6216 199.828 46.7036 199.68 46.8677C199.531 47.0317 199.457 47.2562 199.457 47.541H198.627C198.627 47.238 198.695 46.9657 198.832 46.7241C198.971 46.4803 199.168 46.2912 199.423 46.1567C199.681 46.0223 199.977 45.9551 200.312 45.9551C200.795 45.9551 201.176 46.077 201.454 46.3208C201.734 46.5623 201.874 46.8973 201.874 47.3257C201.874 47.5741 201.803 47.835 201.662 48.1084C201.523 48.3796 201.294 48.6883 200.975 49.0347L199.758 50.3369H202.069V51Z" fill="#888888"/>
<path d="M212.293 51H211.466V47.0044L210.246 47.4214V46.7207L212.187 46.0063H212.293V51ZM215.683 48.1323H216.189C216.444 48.13 216.646 48.064 216.794 47.9341C216.944 47.8042 217.019 47.6162 217.019 47.3701C217.019 47.1331 216.957 46.9497 216.831 46.8198C216.708 46.6877 216.519 46.6216 216.264 46.6216C216.041 46.6216 215.857 46.6865 215.714 46.8164C215.57 46.944 215.498 47.1115 215.498 47.3188H214.668C214.668 47.0636 214.735 46.8312 214.87 46.6216C215.006 46.4119 215.195 46.249 215.437 46.1328C215.681 46.0143 215.953 45.9551 216.254 45.9551C216.751 45.9551 217.14 46.0804 217.423 46.3311C217.708 46.5794 217.85 46.9258 217.85 47.3701C217.85 47.5934 217.778 47.8042 217.635 48.0024C217.493 48.1984 217.31 48.3465 217.084 48.4468C217.358 48.5402 217.565 48.6872 217.706 48.8877C217.85 49.0882 217.922 49.3275 217.922 49.6055C217.922 50.0521 217.768 50.4076 217.46 50.6719C217.155 50.9362 216.753 51.0684 216.254 51.0684C215.775 51.0684 215.383 50.9408 215.078 50.6855C214.773 50.4303 214.62 50.0908 214.62 49.667H215.451C215.451 49.8857 215.524 50.0635 215.669 50.2002C215.817 50.3369 216.016 50.4053 216.264 50.4053C216.522 50.4053 216.724 50.3369 216.872 50.2002C217.021 50.0635 217.095 49.8652 217.095 49.6055C217.095 49.3434 217.017 49.1418 216.862 49.0005C216.707 48.8592 216.477 48.7886 216.172 48.7886H215.683V48.1323Z" fill="#888888"/>
<path d="M228.293 51H227.466V47.0044L226.246 47.4214V46.7207L228.187 46.0063H228.293V51ZM233.532 49.2261H234.151V49.8926H233.532V51H232.702V49.8926H230.552L230.528 49.3867L232.674 46.0234H233.532V49.2261ZM231.399 49.2261H232.702V47.1479L232.64 47.2573L231.399 49.2261Z" fill="#888888"/>
<path d="M244.293 51H243.466V47.0044L242.246 47.4214V46.7207L244.187 46.0063H244.293V51ZM246.945 48.5322L247.215 46.0234H249.888V46.7412H247.905L247.768 47.9307C247.999 47.7985 248.258 47.7324 248.548 47.7324C249.022 47.7324 249.39 47.884 249.652 48.187C249.916 48.4901 250.048 48.8979 250.048 49.4106C250.048 49.9165 249.902 50.3198 249.611 50.6206C249.319 50.9191 248.919 51.0684 248.411 51.0684C247.955 51.0684 247.577 50.9396 247.276 50.6821C246.978 50.4224 246.816 50.0806 246.791 49.6567H247.594C247.626 49.8983 247.713 50.084 247.854 50.2139C247.995 50.3415 248.18 50.4053 248.408 50.4053C248.663 50.4053 248.861 50.3141 249.002 50.1318C249.146 49.9495 249.218 49.7012 249.218 49.3867C249.218 49.0837 249.139 48.8444 248.982 48.6689C248.825 48.4912 248.608 48.4023 248.332 48.4023C248.182 48.4023 248.054 48.4229 247.95 48.4639C247.845 48.5026 247.731 48.5801 247.608 48.6963L246.945 48.5322Z" fill="#888888"/>
<path d="M260.293 51H259.466V47.0044L258.246 47.4214V46.7207L260.187 46.0063H260.293V51ZM265.307 45.9995V46.6865H265.204C264.739 46.6934 264.368 46.821 264.09 47.0693C263.812 47.3177 263.647 47.6698 263.594 48.1255C263.861 47.8452 264.201 47.7051 264.616 47.7051C265.056 47.7051 265.402 47.86 265.655 48.1699C265.91 48.4798 266.038 48.8797 266.038 49.3696C266.038 49.8755 265.889 50.2856 265.59 50.6001C265.294 50.9123 264.904 51.0684 264.421 51.0684C263.925 51.0684 263.521 50.8849 263.211 50.5181C262.904 50.1512 262.75 49.6704 262.75 49.0757V48.792C262.75 47.9193 262.962 47.2357 263.386 46.7412C263.812 46.2467 264.424 45.9995 265.221 45.9995H265.307ZM264.414 48.375C264.232 48.375 264.065 48.4263 263.912 48.5288C263.762 48.6313 263.651 48.7681 263.58 48.939V49.1919C263.58 49.561 263.658 49.855 263.813 50.0737C263.968 50.2902 264.168 50.3984 264.414 50.3984C264.661 50.3984 264.855 50.3062 264.999 50.1216C265.142 49.937 265.214 49.6943 265.214 49.3936C265.214 49.0928 265.141 48.8478 264.996 48.6587C264.85 48.4696 264.656 48.375 264.414 48.375Z" fill="#888888"/>
<path d="M276.293 51H275.466V47.0044L274.246 47.4214V46.7207L276.187 46.0063H276.293V51ZM282.035 46.4849L280.045 51H279.174L281.16 46.6899H278.586V46.0234H282.035V46.4849Z" fill="#888888"/>
<path d="M292.293 51H291.466V47.0044L290.246 47.4214V46.7207L292.187 46.0063H292.293V51ZM297.857 47.3359C297.857 47.5798 297.794 47.7974 297.669 47.9888C297.544 48.1779 297.373 48.3271 297.156 48.4365C297.416 48.5573 297.615 48.7225 297.754 48.9321C297.896 49.1418 297.966 49.3787 297.966 49.6431C297.966 50.0806 297.818 50.4281 297.522 50.6855C297.226 50.9408 296.831 51.0684 296.339 51.0684C295.845 51.0684 295.448 50.9396 295.15 50.6821C294.854 50.4246 294.705 50.0783 294.705 49.6431C294.705 49.3765 294.776 49.1372 294.917 48.9253C295.059 48.7134 295.257 48.5505 295.512 48.4365C295.298 48.3271 295.128 48.1779 295.003 47.9888C294.88 47.7974 294.818 47.5798 294.818 47.3359C294.818 46.9121 294.955 46.576 295.228 46.3276C295.502 46.0793 295.871 45.9551 296.336 45.9551C296.803 45.9551 297.173 46.0793 297.447 46.3276C297.72 46.576 297.857 46.9121 297.857 47.3359ZM297.136 49.6021C297.136 49.356 297.062 49.1577 296.913 49.0073C296.768 48.8547 296.574 48.7783 296.332 48.7783C296.091 48.7783 295.897 48.8535 295.751 49.0039C295.608 49.1543 295.536 49.3537 295.536 49.6021C295.536 49.8459 295.607 50.0407 295.748 50.1865C295.892 50.3324 296.089 50.4053 296.339 50.4053C296.59 50.4053 296.785 50.3346 296.924 50.1934C297.065 50.0521 297.136 49.855 297.136 49.6021ZM297.03 47.3667C297.03 47.1502 296.967 46.9725 296.842 46.8335C296.716 46.6922 296.548 46.6216 296.336 46.6216C296.124 46.6216 295.956 46.6888 295.833 46.8232C295.71 46.9554 295.649 47.1366 295.649 47.3667C295.649 47.5946 295.71 47.7757 295.833 47.9102C295.959 48.0446 296.127 48.1118 296.339 48.1118C296.551 48.1118 296.719 48.0446 296.842 47.9102C296.967 47.7757 297.03 47.5946 297.03 47.3667Z" fill="#888888"/>
<path d="M308.293 51H307.466V47.0044L306.246 47.4214V46.7207L308.187 46.0063H308.293V51ZM313.078 48.9185C312.8 49.2124 312.475 49.3594 312.103 49.3594C311.666 49.3594 311.317 49.2067 311.058 48.9014C310.798 48.5938 310.668 48.1904 310.668 47.6914C310.668 47.3633 310.734 47.0659 310.866 46.7993C310.998 46.5327 311.186 46.3254 311.43 46.1772C311.674 46.0291 311.956 45.9551 312.278 45.9551C312.779 45.9551 313.177 46.1419 313.471 46.5156C313.765 46.8893 313.912 47.3895 313.912 48.0161V48.2485C313.912 49.1463 313.709 49.8311 313.303 50.3027C312.898 50.7744 312.293 51.0137 311.488 51.0205H311.389V50.3335H311.509C311.999 50.3267 312.375 50.2093 312.637 49.9814C312.899 49.7513 313.046 49.397 313.078 48.9185ZM312.278 48.71C312.444 48.71 312.6 48.6621 312.746 48.5664C312.892 48.4707 313.005 48.3385 313.084 48.1699V47.8452C313.084 47.4784 313.009 47.1833 312.859 46.96C312.708 46.7367 312.514 46.625 312.274 46.625C312.035 46.625 311.844 46.7241 311.7 46.9224C311.559 47.1183 311.488 47.3667 311.488 47.6675C311.488 47.9797 311.56 48.2314 311.704 48.4229C311.847 48.6143 312.038 48.71 312.278 48.71Z" fill="#888888"/>
<path d="M325.39 51H322.044V50.4292L323.702 48.6211C323.941 48.3545 324.111 48.1323 324.211 47.9546C324.314 47.7746 324.365 47.5946 324.365 47.4146C324.365 47.1776 324.298 46.9862 324.163 46.8403C324.031 46.6945 323.852 46.6216 323.627 46.6216C323.358 46.6216 323.149 46.7036 323.001 46.8677C322.853 47.0317 322.779 47.2562 322.779 47.541H321.948C321.948 47.238 322.017 46.9657 322.153 46.7241C322.292 46.4803 322.49 46.2912 322.745 46.1567C323.002 46.0223 323.298 45.9551 323.633 45.9551C324.116 45.9551 324.497 46.077 324.775 46.3208C325.055 46.5623 325.195 46.8973 325.195 47.3257C325.195 47.5741 325.125 47.835 324.983 48.1084C324.844 48.3796 324.615 48.6883 324.296 49.0347L323.08 50.3369H325.39V51ZM329.966 48.9048C329.966 49.6203 329.832 50.1603 329.563 50.5249C329.296 50.8872 328.89 51.0684 328.343 51.0684C327.805 51.0684 327.399 50.8918 327.126 50.5386C326.855 50.1831 326.716 49.6579 326.709 48.9629V48.1016C326.709 47.3861 326.842 46.8494 327.109 46.4917C327.378 46.134 327.787 45.9551 328.336 45.9551C328.88 45.9551 329.286 46.1294 329.553 46.478C329.822 46.8267 329.959 47.3485 329.966 48.0435V48.9048ZM329.136 47.9751C329.136 47.508 329.072 47.1662 328.944 46.9497C328.817 46.731 328.614 46.6216 328.336 46.6216C328.065 46.6216 327.865 46.7253 327.738 46.9326C327.61 47.1377 327.543 47.459 327.536 47.8965V49.0244C327.536 49.4893 327.601 49.8356 327.731 50.0635C327.861 50.2913 328.065 50.4053 328.343 50.4053C328.609 50.4053 328.806 50.3005 328.934 50.0908C329.062 49.8789 329.129 49.5485 329.136 49.0996V47.9751Z" fill="#888888"/>
<path d="M341.39 51H338.044V50.4292L339.702 48.6211C339.941 48.3545 340.111 48.1323 340.211 47.9546C340.314 47.7746 340.365 47.5946 340.365 47.4146C340.365 47.1776 340.298 46.9862 340.163 46.8403C340.031 46.6945 339.852 46.6216 339.627 46.6216C339.358 46.6216 339.149 46.7036 339.001 46.8677C338.853 47.0317 338.779 47.2562 338.779 47.541H337.948C337.948 47.238 338.017 46.9657 338.153 46.7241C338.292 46.4803 338.49 46.2912 338.745 46.1567C339.002 46.0223 339.298 45.9551 339.633 45.9551C340.116 45.9551 340.497 46.077 340.775 46.3208C341.055 46.5623 341.195 46.8973 341.195 47.3257C341.195 47.5741 341.125 47.835 340.983 48.1084C340.844 48.3796 340.615 48.6883 340.296 49.0347L339.08 50.3369H341.39V51ZM344.972 51H344.144V47.0044L342.924 47.4214V46.7207L344.866 46.0063H344.972V51Z" fill="#888888"/>
<path d="M357.39 51H354.044V50.4292L355.702 48.6211C355.941 48.3545 356.111 48.1323 356.211 47.9546C356.314 47.7746 356.365 47.5946 356.365 47.4146C356.365 47.1776 356.298 46.9862 356.163 46.8403C356.031 46.6945 355.852 46.6216 355.627 46.6216C355.358 46.6216 355.149 46.7036 355.001 46.8677C354.853 47.0317 354.779 47.2562 354.779 47.541H353.948C353.948 47.238 354.017 46.9657 354.153 46.7241C354.292 46.4803 354.49 46.2912 354.745 46.1567C355.002 46.0223 355.298 45.9551 355.633 45.9551C356.116 45.9551 356.497 46.077 356.775 46.3208C357.055 46.5623 357.195 46.8973 357.195 47.3257C357.195 47.5741 357.125 47.835 356.983 48.1084C356.844 48.3796 356.615 48.6883 356.296 49.0347L355.08 50.3369H357.39V51ZM362.069 51H358.723V50.4292L360.38 48.6211C360.62 48.3545 360.789 48.1323 360.89 47.9546C360.992 47.7746 361.043 47.5946 361.043 47.4146C361.043 47.1776 360.976 46.9862 360.842 46.8403C360.71 46.6945 360.531 46.6216 360.305 46.6216C360.036 46.6216 359.828 46.7036 359.68 46.8677C359.531 47.0317 359.457 47.2562 359.457 47.541H358.627C358.627 47.238 358.695 46.9657 358.832 46.7241C358.971 46.4803 359.168 46.2912 359.423 46.1567C359.681 46.0223 359.977 45.9551 360.312 45.9551C360.795 45.9551 361.176 46.077 361.454 46.3208C361.734 46.5623 361.874 46.8973 361.874 47.3257C361.874 47.5741 361.803 47.835 361.662 48.1084C361.523 48.3796 361.294 48.6883 360.975 49.0347L359.758 50.3369H362.069V51Z" fill="#888888"/>
<path d="M373.39 51H370.044V50.4292L371.702 48.6211C371.941 48.3545 372.111 48.1323 372.211 47.9546C372.314 47.7746 372.365 47.5946 372.365 47.4146C372.365 47.1776 372.298 46.9862 372.163 46.8403C372.031 46.6945 371.852 46.6216 371.627 46.6216C371.358 46.6216 371.149 46.7036 371.001 46.8677C370.853 47.0317 370.779 47.2562 370.779 47.541H369.948C369.948 47.238 370.017 46.9657 370.153 46.7241C370.292 46.4803 370.49 46.2912 370.745 46.1567C371.002 46.0223 371.298 45.9551 371.633 45.9551C372.116 45.9551 372.497 46.077 372.775 46.3208C373.055 46.5623 373.195 46.8973 373.195 47.3257C373.195 47.5741 373.125 47.835 372.983 48.1084C372.844 48.3796 372.615 48.6883 372.296 49.0347L371.08 50.3369H373.39V51ZM375.683 48.1323H376.189C376.444 48.13 376.646 48.064 376.794 47.9341C376.944 47.8042 377.019 47.6162 377.019 47.3701C377.019 47.1331 376.957 46.9497 376.831 46.8198C376.708 46.6877 376.519 46.6216 376.264 46.6216C376.041 46.6216 375.857 46.6865 375.714 46.8164C375.57 46.944 375.498 47.1115 375.498 47.3188H374.668C374.668 47.0636 374.735 46.8312 374.87 46.6216C375.006 46.4119 375.195 46.249 375.437 46.1328C375.681 46.0143 375.953 45.9551 376.254 45.9551C376.751 45.9551 377.14 46.0804 377.423 46.3311C377.708 46.5794 377.85 46.9258 377.85 47.3701C377.85 47.5934 377.778 47.8042 377.635 48.0024C377.493 48.1984 377.31 48.3465 377.084 48.4468C377.358 48.5402 377.565 48.6872 377.706 48.8877C377.85 49.0882 377.922 49.3275 377.922 49.6055C377.922 50.0521 377.768 50.4076 377.46 50.6719C377.155 50.9362 376.753 51.0684 376.254 51.0684C375.775 51.0684 375.383 50.9408 375.078 50.6855C374.773 50.4303 374.62 50.0908 374.62 49.667H375.451C375.451 49.8857 375.524 50.0635 375.669 50.2002C375.817 50.3369 376.016 50.4053 376.264 50.4053C376.522 50.4053 376.724 50.3369 376.872 50.2002C377.021 50.0635 377.095 49.8652 377.095 49.6055C377.095 49.3434 377.017 49.1418 376.862 49.0005C376.707 48.8592 376.477 48.7886 376.172 48.7886H375.683V48.1323Z" fill="#888888"/>
</svg>
