<svg width="80%"  viewBox="0 0 236 77" fill="none" xmlns="http://www.w3.org/2000/svg">
<rect x="4" y="16" width="12" height="29" rx="2" fill="#CDBC62"/>
<rect x="40" y="16" width="12" height="29" rx="2" fill="#CD933B"/>
<rect x="76" y="3" width="12" height="42" rx="2" fill="#B875ED"/>
<rect x="112" y="20" width="12" height="25" rx="2" fill="#84C6EC"/>
<rect x="148" y="25" width="12" height="20" rx="2" fill="#84C6EC"/>
<rect x="184" y="20" width="12" height="25" rx="2" fill="#E5E5E5"/>
<rect x="220" y="13" width="12" height="32" rx="2" fill="#E5E5E5"/>
<path d="M3.53047 52.1509V54H2.66572V49.0234H4.56953C5.12552 49.0234 5.56644 49.1681 5.89229 49.4575C6.22041 49.7469 6.38447 50.1297 6.38447 50.606C6.38447 51.0936 6.22383 51.473 5.90254 51.7441C5.58353 52.0153 5.13577 52.1509 4.55928 52.1509H3.53047ZM3.53047 51.457H4.56953C4.87715 51.457 5.11185 51.3853 5.27363 51.2417C5.43542 51.0959 5.51631 50.8862 5.51631 50.6128C5.51631 50.3439 5.43428 50.1297 5.27022 49.9702C5.10615 49.8084 4.88057 49.7253 4.59346 49.7207H3.53047V51.457ZM11.8149 51.6416C11.8149 52.1292 11.7306 52.5576 11.562 52.9268C11.3934 53.2936 11.1519 53.5762 10.8374 53.7744C10.5252 53.9704 10.1652 54.0684 9.75732 54.0684C9.354 54.0684 8.99398 53.9704 8.67725 53.7744C8.36279 53.5762 8.11898 53.2948 7.9458 52.9302C7.7749 52.5656 7.68831 52.1452 7.68604 51.6689V51.3887C7.68604 50.9033 7.77148 50.4749 7.94238 50.1035C8.11556 49.7321 8.35824 49.4484 8.67041 49.2524C8.98486 49.0542 9.34489 48.9551 9.75049 48.9551C10.1561 48.9551 10.515 49.0531 10.8271 49.249C11.1416 49.4427 11.3843 49.723 11.5552 50.0898C11.7261 50.4544 11.8127 50.8794 11.8149 51.3647V51.6416ZM10.9502 51.3818C10.9502 50.8304 10.8454 50.4077 10.6357 50.1138C10.4284 49.8198 10.1333 49.6729 9.75049 49.6729C9.37679 49.6729 9.08398 49.8198 8.87207 50.1138C8.66243 50.4054 8.55534 50.819 8.55078 51.3545V51.6416C8.55078 52.1885 8.65674 52.6112 8.86865 52.9097C9.08285 53.2082 9.37907 53.3574 9.75732 53.3574C10.1401 53.3574 10.4341 53.2116 10.6392 52.9199C10.8465 52.6283 10.9502 52.2021 10.9502 51.6416V51.3818ZM17.324 54H16.4593L14.241 50.4692V54H13.3763V49.0234H14.241L16.4661 52.5679V49.0234H17.324V54Z" fill="#888888"/>
<path d="M42.111 52.7695L42.8767 49.0234H43.7346L42.5861 54H41.759L40.8122 50.3667L39.8449 54H39.0144L37.8659 49.0234H38.7238L39.4963 52.7627L40.4465 49.0234H41.1711L42.111 52.7695ZM48.7104 49.7207H47.1587V54H46.3008V49.7207H44.7627V49.0234H48.7104V49.7207ZM53.9427 51.6416C53.9427 52.1292 53.8584 52.5576 53.6897 52.9268C53.5211 53.2936 53.2796 53.5762 52.9651 53.7744C52.653 53.9704 52.2929 54.0684 51.8851 54.0684C51.4817 54.0684 51.1217 53.9704 50.805 53.7744C50.4905 53.5762 50.2467 53.2948 50.0735 52.9302C49.9026 52.5656 49.816 52.1452 49.8138 51.6689V51.3887C49.8138 50.9033 49.8992 50.4749 50.0701 50.1035C50.2433 49.7321 50.486 49.4484 50.7981 49.2524C51.1126 49.0542 51.4726 48.9551 51.8782 48.9551C52.2838 48.9551 52.6427 49.0531 52.9549 49.249C53.2693 49.4427 53.512 49.723 53.6829 50.0898C53.8538 50.4544 53.9404 50.8794 53.9427 51.3647V51.6416ZM53.0779 51.3818C53.0779 50.8304 52.9731 50.4077 52.7635 50.1138C52.5561 49.8198 52.261 49.6729 51.8782 49.6729C51.5045 49.6729 51.2117 49.8198 50.9998 50.1138C50.7902 50.4054 50.6831 50.819 50.6785 51.3545V51.6416C50.6785 52.1885 50.7845 52.6112 50.9964 52.9097C51.2106 53.2082 51.5068 53.3574 51.8851 53.3574C52.2679 53.3574 52.5618 53.2116 52.7669 52.9199C52.9743 52.6283 53.0779 52.2021 53.0779 51.6416V51.3818Z" fill="#888888"/>
<path d="M77.694 52.7183C77.694 52.4995 77.6166 52.3309 77.4616 52.2124C77.309 52.0939 77.0321 51.9743 76.6311 51.8535C76.23 51.7327 75.911 51.5983 75.674 51.4502C75.2206 51.1654 74.9938 50.7939 74.9938 50.3359C74.9938 49.9349 75.1568 49.6045 75.4826 49.3447C75.8107 49.085 76.2357 48.9551 76.7575 48.9551C77.1039 48.9551 77.4126 49.0189 77.6838 49.1465C77.9549 49.2741 78.168 49.4564 78.3229 49.6934C78.4779 49.9281 78.5554 50.189 78.5554 50.4761H77.694C77.694 50.2163 77.612 50.0135 77.4479 49.8677C77.2862 49.7196 77.0537 49.6455 76.7507 49.6455C76.4681 49.6455 76.2482 49.7059 76.091 49.8267C75.9361 49.9474 75.8586 50.116 75.8586 50.3325C75.8586 50.5148 75.9429 50.6675 76.1115 50.7905C76.2801 50.9113 76.5581 51.0298 76.9455 51.146C77.3329 51.2599 77.6439 51.391 77.8786 51.5391C78.1133 51.6849 78.2854 51.8535 78.3947 52.0449C78.5041 52.234 78.5588 52.4562 78.5588 52.7114C78.5588 53.1261 78.3993 53.4565 78.0803 53.7026C77.7635 53.9465 77.3329 54.0684 76.7883 54.0684C76.4283 54.0684 76.0967 54.0023 75.7937 53.8701C75.4929 53.7357 75.2582 53.5511 75.0896 53.3164C74.9232 53.0817 74.84 52.8083 74.84 52.4961H75.7048C75.7048 52.7786 75.7982 52.9974 75.9851 53.1523C76.1719 53.3073 76.4396 53.3848 76.7883 53.3848C77.0891 53.3848 77.3146 53.3244 77.465 53.2036C77.6177 53.0806 77.694 52.9188 77.694 52.7183ZM76.9968 47.6904H77.9436L76.9968 48.7261H76.3303L76.9968 47.6904ZM81.8462 52.0825H80.8823V54H80.0176V49.0234H81.7676C82.3418 49.0234 82.785 49.1522 83.0972 49.4097C83.4093 49.6672 83.5654 50.0397 83.5654 50.5273C83.5654 50.86 83.4845 51.1392 83.3228 51.3647C83.1632 51.5881 82.9399 51.7601 82.6528 51.8809L83.7705 53.9556V54H82.8442L81.8462 52.0825ZM80.8823 51.3887H81.771C82.0627 51.3887 82.2905 51.3158 82.4546 51.1699C82.6187 51.0218 82.7007 50.8201 82.7007 50.5649C82.7007 50.2983 82.6243 50.0921 82.4717 49.9463C82.3213 49.8005 82.0957 49.7253 81.7949 49.7207H80.8823V51.3887ZM89.0574 51.6416C89.0574 52.1292 88.9731 52.5576 88.8045 52.9268C88.6359 53.2936 88.3943 53.5762 88.0799 53.7744C87.7677 53.9704 87.4077 54.0684 86.9998 54.0684C86.5965 54.0684 86.2365 53.9704 85.9197 53.7744C85.6053 53.5762 85.3615 53.2948 85.1883 52.9302C85.0174 52.5656 84.9308 52.1452 84.9285 51.6689V51.3887C84.9285 50.9033 85.014 50.4749 85.1849 50.1035C85.358 49.7321 85.6007 49.4484 85.9129 49.2524C86.2273 49.0542 86.5874 48.9551 86.993 48.9551C87.3986 48.9551 87.7575 49.0531 88.0696 49.249C88.3841 49.4427 88.6268 49.723 88.7977 50.0898C88.9686 50.4544 89.0551 50.8794 89.0574 51.3647V51.6416ZM88.1927 51.3818C88.1927 50.8304 88.0879 50.4077 87.8782 50.1138C87.6709 49.8198 87.3758 49.6729 86.993 49.6729C86.6193 49.6729 86.3265 49.8198 86.1146 50.1138C85.9049 50.4054 85.7978 50.819 85.7933 51.3545V51.6416C85.7933 52.1885 85.8992 52.6112 86.1111 52.9097C86.3253 53.2082 86.6215 53.3574 86.9998 53.3574C87.3826 53.3574 87.6766 53.2116 87.8816 52.9199C88.089 52.6283 88.1927 52.2021 88.1927 51.6416V51.3818Z" fill="#888888"/>
<path d="M114.128 52.3799C114.078 52.9108 113.882 53.3255 113.54 53.624C113.198 53.9202 112.744 54.0684 112.176 54.0684C111.78 54.0684 111.43 53.9749 111.127 53.7881C110.826 53.599 110.594 53.3312 110.43 52.9849C110.266 52.6385 110.18 52.2363 110.174 51.7783V51.3135C110.174 50.8441 110.257 50.4305 110.423 50.0728C110.589 49.715 110.828 49.4393 111.137 49.2456C111.45 49.0519 111.81 48.9551 112.217 48.9551C112.767 48.9551 113.209 49.1043 113.544 49.4028C113.879 49.7013 114.073 50.1229 114.128 50.6675H113.267C113.226 50.3097 113.121 50.0522 112.952 49.895C112.786 49.7355 112.541 49.6558 112.217 49.6558C111.842 49.6558 111.552 49.7936 111.349 50.0693C111.149 50.3428 111.046 50.745 111.042 51.2759V51.7168C111.042 52.2546 111.137 52.6647 111.329 52.9473C111.522 53.2298 111.805 53.3711 112.176 53.3711C112.516 53.3711 112.771 53.2948 112.942 53.1421C113.113 52.9894 113.221 52.7354 113.267 52.3799H114.128ZM116.417 53.3096H119.077V54H115.372V53.4395L117.945 49.7207H115.389V49.0234H118.995V49.5703L116.417 53.3096ZM124.425 52.7695L125.191 49.0234H126.049L124.9 54H124.073L123.126 50.3667L122.159 54H121.328L120.18 49.0234H121.038L121.81 52.7627L122.761 49.0234H123.485L124.425 52.7695Z" fill="#888888"/>
<path d="M149.082 52.1509V54H148.217V49.0234H150.121C150.677 49.0234 151.118 49.1681 151.444 49.4575C151.772 49.7469 151.936 50.1297 151.936 50.606C151.936 51.0936 151.776 51.473 151.454 51.7441C151.135 52.0153 150.688 52.1509 150.111 52.1509H149.082ZM149.082 51.457H150.121C150.429 51.457 150.664 51.3853 150.825 51.2417C150.987 51.0959 151.068 50.8862 151.068 50.6128C151.068 50.3439 150.986 50.1297 150.822 49.9702C150.658 49.8084 150.432 49.7253 150.145 49.7207H149.082V51.457ZM154.308 54H153.446V49.0234H154.308V54ZM158.344 49.0234L160.227 54H160.015C159.817 54.1276 159.675 54.245 159.591 54.3521C159.507 54.4591 159.465 54.5685 159.465 54.6802C159.465 54.8351 159.546 54.9126 159.707 54.9126C159.808 54.9126 159.91 54.8864 160.015 54.834L160.087 55.3193C159.92 55.4196 159.732 55.4697 159.523 55.4697C159.306 55.4697 159.132 55.4071 159 55.2817C158.868 55.1564 158.802 54.9901 158.802 54.7827C158.802 54.4614 158.971 54.1891 159.311 53.9658L158.918 52.8413H156.99L156.587 54H155.688L157.568 49.0234H158.344ZM157.233 52.144H158.675L157.954 50.0796L157.233 52.144Z" fill="#888888"/>
<path d="M185.67 52.7183C185.67 52.4995 185.593 52.3309 185.438 52.2124C185.285 52.0939 185.008 51.9743 184.607 51.8535C184.206 51.7327 183.887 51.5983 183.65 51.4502C183.197 51.1654 182.97 50.7939 182.97 50.3359C182.97 49.9349 183.133 49.6045 183.459 49.3447C183.787 49.085 184.212 48.9551 184.734 48.9551C185.08 48.9551 185.389 49.0189 185.66 49.1465C185.931 49.2741 186.144 49.4564 186.299 49.6934C186.454 49.9281 186.531 50.189 186.531 50.4761H185.67C185.67 50.2163 185.588 50.0135 185.424 49.8677C185.262 49.7196 185.03 49.6455 184.727 49.6455C184.444 49.6455 184.224 49.7059 184.067 49.8267C183.912 49.9474 183.835 50.116 183.835 50.3325C183.835 50.5148 183.919 50.6675 184.088 50.7905C184.256 50.9113 184.534 51.0298 184.922 51.146C185.309 51.2599 185.62 51.391 185.855 51.5391C186.089 51.6849 186.261 51.8535 186.371 52.0449C186.48 52.234 186.535 52.4562 186.535 52.7114C186.535 53.1261 186.375 53.4565 186.056 53.7026C185.74 53.9465 185.309 54.0684 184.764 54.0684C184.404 54.0684 184.073 54.0023 183.77 53.8701C183.469 53.7357 183.234 53.5511 183.066 53.3164C182.899 53.0817 182.816 52.8083 182.816 52.4961H183.681C183.681 52.7786 183.774 52.9974 183.961 53.1523C184.148 53.3073 184.416 53.3848 184.764 53.3848C185.065 53.3848 185.291 53.3244 185.441 53.2036C185.594 53.0806 185.67 52.9188 185.67 52.7183ZM191.965 51.6416C191.965 52.1292 191.881 52.5576 191.712 52.9268C191.544 53.2936 191.302 53.5762 190.988 53.7744C190.676 53.9704 190.316 54.0684 189.908 54.0684C189.504 54.0684 189.144 53.9704 188.828 53.7744C188.513 53.5762 188.269 53.2948 188.096 52.9302C187.925 52.5656 187.839 52.1452 187.836 51.6689V51.3887C187.836 50.9033 187.922 50.4749 188.093 50.1035C188.266 49.7321 188.509 49.4484 188.821 49.2524C189.135 49.0542 189.495 48.9551 189.901 48.9551C190.306 48.9551 190.665 49.0531 190.978 49.249C191.292 49.4427 191.535 49.723 191.706 50.0898C191.876 50.4544 191.963 50.8794 191.965 51.3647V51.6416ZM191.101 51.3818C191.101 50.8304 190.996 50.4077 190.786 50.1138C190.579 49.8198 190.284 49.6729 189.901 49.6729C189.527 49.6729 189.234 49.8198 189.022 50.1138C188.813 50.4054 188.706 50.819 188.701 51.3545V51.6416C188.701 52.1885 188.807 52.6112 189.019 52.9097C189.233 53.2082 189.529 53.3574 189.908 53.3574C190.291 53.3574 190.584 53.2116 190.79 52.9199C190.997 52.6283 191.101 52.2021 191.101 51.6416V51.3818ZM193.527 54V49.0234H195.232C195.795 49.0234 196.223 49.1362 196.517 49.3618C196.811 49.5874 196.958 49.9235 196.958 50.3701C196.958 50.598 196.897 50.8031 196.774 50.9854C196.651 51.1676 196.471 51.3089 196.234 51.4092C196.503 51.4821 196.71 51.62 196.856 51.8228C197.004 52.0233 197.078 52.2648 197.078 52.5474C197.078 53.0145 196.928 53.3734 196.627 53.624C196.328 53.8747 195.9 54 195.342 54H193.527ZM194.391 51.7544V53.3096H195.352C195.623 53.3096 195.835 53.2424 195.988 53.1079C196.14 52.9735 196.217 52.7866 196.217 52.5474C196.217 52.0301 195.952 51.7658 195.424 51.7544H194.391ZM194.391 51.1187H195.239C195.508 51.1187 195.718 51.0583 195.868 50.9375C196.021 50.8145 196.097 50.6413 196.097 50.418C196.097 50.1719 196.026 49.9941 195.885 49.8848C195.746 49.7754 195.528 49.7207 195.232 49.7207H194.391V51.1187Z" fill="#888888"/>
<path d="M221.665 54H220.801L218.582 50.4692V54H217.718V49.0234H218.582L220.807 52.5679V49.0234H221.665V54ZM224.3 54H223.439V49.0234H224.3V54ZM228.972 51.7783H226.928V53.3096H229.317V54H226.063V49.0234H229.293V49.7207H226.928V51.0947H228.972V51.7783ZM230.721 54V49.0234H232.191C232.63 49.0234 233.02 49.1214 233.36 49.3174C233.701 49.5133 233.966 49.7913 234.153 50.1514C234.339 50.5114 234.433 50.9238 234.433 51.3887V51.6382C234.433 52.1099 234.338 52.5246 234.149 52.8823C233.962 53.2401 233.695 53.5158 233.346 53.7095C233 53.9032 232.602 54 232.153 54H230.721ZM231.586 49.7207V53.3096H232.15C232.603 53.3096 232.951 53.1683 233.192 52.8857C233.436 52.6009 233.56 52.193 233.565 51.6621V51.3853C233.565 50.8452 233.447 50.4328 233.213 50.1479C232.978 49.8631 232.637 49.7207 232.191 49.7207H231.586Z" fill="#888888"/>
<circle cx="10" cy="69" r="5" fill="white" stroke="#888888" stroke-width="2"/>
<circle cx="46" cy="69" r="5" fill="white" stroke="#888888" stroke-width="2"/>
<circle cx="82" cy="69" r="5" fill="white" stroke="#888888" stroke-width="2"/>
<circle cx="118" cy="69" r="5" fill="white" stroke="#888888" stroke-width="2"/>
<circle cx="154" cy="69" r="5" fill="white" stroke="#888888" stroke-width="2"/>
<circle cx="190" cy="69" r="5" fill="white" stroke="#888888" stroke-width="2"/>
<circle cx="226" cy="69" r="5" fill="white" stroke="#888888" stroke-width="2"/>
<circle cx="10" cy="69" r="3" fill="#001AFF"/>
<circle cx="46" cy="69" r="3" fill="#001AFF"/>
<circle cx="82" cy="69" r="3" fill="#001AFF"/>
<circle cx="118" cy="69" r="3" fill="#001AFF"/>
<circle cx="154" cy="69" r="3" fill="#001AFF"/>
</svg>
