<svg width="872" height="348" viewBox="0 0 872 348" fill="none" xmlns="http://www.w3.org/2000/svg">
<path d="M399.78 148.539C249.081 148.539 213.654 75 27 75V127.57C187.216 127.57 244.851 167.145 399.78 167.145C523.722 167.145 748.236 189 845 189V178.073C704.348 178.073 550.478 148.539 399.78 148.539Z" fill="#888888"/>
<path d="M399.78 165.559C249.081 165.559 213.654 128 27 128V202.984C187.216 202.984 244.851 239 399.78 239C523.722 239 748.236 231.324 845 231.324V180.404C744.535 180.404 550.478 165.559 399.78 165.559Z" fill="#B4B4B4"/>
<path d="M399.78 187.407C249.081 187.407 213.654 203 27 203V263C187.216 263 244.851 341.729 399.78 341.729C523.722 341.729 748.236 236.22 845 236.22V229.102C744.535 229.102 550.478 187.407 399.78 187.407Z" fill="#D9D9D9"/>
<rect width="129" height="348" fill="url(#paint0_linear_22_862)"/>
<rect x="872" y="300" width="129" height="159" transform="rotate(-180 872 300)" fill="url(#paint1_linear_22_862)"/>
<path d="M192 342L192 75" stroke="#222222" stroke-linecap="round" stroke-linejoin="round"/>
<path d="M44 342L44 75" stroke="#E5E5E5" stroke-linecap="round" stroke-linejoin="round"/>
<path d="M840 342L840 75" stroke="#E5E5E5" stroke-linecap="round" stroke-linejoin="round"/>
<path d="M60.6328 112H52.6953V110.281L56.3516 106.438C57.2526 105.411 57.7031 104.596 57.7031 103.992C57.7031 103.503 57.5964 103.13 57.3828 102.875C57.1693 102.62 56.8594 102.492 56.4531 102.492C56.0521 102.492 55.7266 102.664 55.4766 103.008C55.2266 103.346 55.1016 103.771 55.1016 104.281H52.4609C52.4609 103.583 52.6354 102.94 52.9844 102.352C53.3333 101.758 53.8177 101.294 54.4375 100.961C55.0573 100.628 55.75 100.461 56.5156 100.461C57.7448 100.461 58.6901 100.745 59.3516 101.312C60.0182 101.88 60.3516 102.695 60.3516 103.758C60.3516 104.206 60.2682 104.643 60.1016 105.07C59.9349 105.492 59.6745 105.938 59.3203 106.406C58.9714 106.87 58.4062 107.492 57.625 108.273L56.1562 109.969H60.6328V112ZM68.9141 107.555H70.0703V109.586H68.9141V112H66.2812V109.586H61.8828L61.7266 107.977L66.2812 100.648V100.625H68.9141V107.555ZM64.2344 107.555H66.2812V104.055L66.1172 104.32L64.2344 107.555ZM70.9707 106.258C70.9707 105.818 71.1139 105.464 71.4004 105.193C71.6868 104.923 72.071 104.788 72.5527 104.788C73.041 104.788 73.4268 104.923 73.71 105.193C73.9932 105.46 74.1348 105.823 74.1348 106.282V106.634C74.1348 107.073 73.9932 107.426 73.71 107.693C73.4268 107.96 73.0443 108.094 72.5625 108.094C72.084 108.094 71.6982 107.962 71.4053 107.698C71.1156 107.431 70.9707 107.067 70.9707 106.604V106.258ZM72.0303 106.634C72.0303 106.803 72.0775 106.941 72.1719 107.049C72.2663 107.153 72.3965 107.205 72.5625 107.205C72.9043 107.205 73.0752 106.987 73.0752 106.551V106.258C73.0752 106.089 73.0296 105.95 72.9385 105.843C72.8473 105.732 72.7188 105.677 72.5527 105.677C72.3932 105.677 72.2663 105.73 72.1719 105.838C72.0775 105.942 72.0303 106.085 72.0303 106.268V106.634ZM74.3496 110.257C74.3496 109.814 74.4928 109.459 74.7793 109.192C75.069 108.925 75.4531 108.792 75.9316 108.792C76.4167 108.792 76.8024 108.924 77.0889 109.188C77.3753 109.451 77.5186 109.819 77.5186 110.291V110.633C77.5186 111.076 77.377 111.43 77.0938 111.697C76.8105 111.964 76.4264 112.098 75.9414 112.098C75.4629 112.098 75.0771 111.966 74.7842 111.702C74.4945 111.435 74.3496 111.071 74.3496 110.608V110.257ZM75.4043 110.633C75.4043 110.786 75.4564 110.921 75.5605 111.038C75.6647 111.152 75.7917 111.209 75.9414 111.209C76.2572 111.209 76.4281 111.059 76.4541 110.76L76.459 110.257C76.459 110.084 76.4118 109.946 76.3174 109.842C76.223 109.734 76.0944 109.681 75.9316 109.681C75.7754 109.681 75.6501 109.731 75.5557 109.832C75.4613 109.93 75.4108 110.063 75.4043 110.232V110.633ZM72.875 111.468L72.1084 111.082L75.5801 105.525L76.3467 105.911L72.875 111.468Z" fill="#888888"/>
<path d="M823.945 171H816.008V169.281L819.664 165.438C820.565 164.411 821.016 163.596 821.016 162.992C821.016 162.503 820.909 162.13 820.695 161.875C820.482 161.62 820.172 161.492 819.766 161.492C819.365 161.492 819.039 161.664 818.789 162.008C818.539 162.346 818.414 162.771 818.414 163.281H815.773C815.773 162.583 815.948 161.94 816.297 161.352C816.646 160.758 817.13 160.294 817.75 159.961C818.37 159.628 819.062 159.461 819.828 159.461C821.057 159.461 822.003 159.745 822.664 160.312C823.331 160.88 823.664 161.695 823.664 162.758C823.664 163.206 823.581 163.643 823.414 164.07C823.247 164.492 822.987 164.938 822.633 165.406C822.284 165.87 821.719 166.492 820.938 167.273L819.469 168.969H823.945V171ZM825.018 165.258C825.018 164.818 825.161 164.464 825.447 164.193C825.734 163.923 826.118 163.788 826.6 163.788C827.088 163.788 827.474 163.923 827.757 164.193C828.04 164.46 828.182 164.823 828.182 165.282V165.634C828.182 166.073 828.04 166.426 827.757 166.693C827.474 166.96 827.091 167.094 826.609 167.094C826.131 167.094 825.745 166.962 825.452 166.698C825.162 166.431 825.018 166.067 825.018 165.604V165.258ZM826.077 165.634C826.077 165.803 826.124 165.941 826.219 166.049C826.313 166.153 826.443 166.205 826.609 166.205C826.951 166.205 827.122 165.987 827.122 165.551V165.258C827.122 165.089 827.076 164.95 826.985 164.843C826.894 164.732 826.766 164.677 826.6 164.677C826.44 164.677 826.313 164.73 826.219 164.838C826.124 164.942 826.077 165.085 826.077 165.268V165.634ZM828.396 169.257C828.396 168.814 828.54 168.459 828.826 168.192C829.116 167.925 829.5 167.792 829.979 167.792C830.464 167.792 830.849 167.924 831.136 168.188C831.422 168.451 831.565 168.819 831.565 169.291V169.633C831.565 170.076 831.424 170.43 831.141 170.697C830.857 170.964 830.473 171.098 829.988 171.098C829.51 171.098 829.124 170.966 828.831 170.702C828.541 170.435 828.396 170.071 828.396 169.608V169.257ZM829.451 169.633C829.451 169.786 829.503 169.921 829.607 170.038C829.712 170.152 829.839 170.209 829.988 170.209C830.304 170.209 830.475 170.059 830.501 169.76L830.506 169.257C830.506 169.084 830.459 168.946 830.364 168.842C830.27 168.734 830.141 168.681 829.979 168.681C829.822 168.681 829.697 168.731 829.603 168.832C829.508 168.93 829.458 169.063 829.451 169.232V169.633ZM826.922 170.468L826.155 170.082L829.627 164.525L830.394 164.911L826.922 170.468Z" fill="#888888"/>
<path d="M59.6484 170.555H60.8047V172.586H59.6484V175H57.0156V172.586H52.6172L52.4609 170.977L57.0156 163.648V163.625H59.6484V170.555ZM54.9688 170.555H57.0156V167.055L56.8516 167.32L54.9688 170.555ZM67.7969 175H65.1562V166.594L62.5625 167.352V165.352L67.5547 163.625H67.7969V175ZM70.9707 169.258C70.9707 168.818 71.1139 168.464 71.4004 168.193C71.6868 167.923 72.071 167.788 72.5527 167.788C73.041 167.788 73.4268 167.923 73.71 168.193C73.9932 168.46 74.1348 168.823 74.1348 169.282V169.634C74.1348 170.073 73.9932 170.426 73.71 170.693C73.4268 170.96 73.0443 171.094 72.5625 171.094C72.084 171.094 71.6982 170.962 71.4053 170.698C71.1156 170.431 70.9707 170.067 70.9707 169.604V169.258ZM72.0303 169.634C72.0303 169.803 72.0775 169.941 72.1719 170.049C72.2663 170.153 72.3965 170.205 72.5625 170.205C72.9043 170.205 73.0752 169.987 73.0752 169.551V169.258C73.0752 169.089 73.0296 168.95 72.9385 168.843C72.8473 168.732 72.7188 168.677 72.5527 168.677C72.3932 168.677 72.2663 168.73 72.1719 168.838C72.0775 168.942 72.0303 169.085 72.0303 169.268V169.634ZM74.3496 173.257C74.3496 172.814 74.4928 172.459 74.7793 172.192C75.069 171.925 75.4531 171.792 75.9316 171.792C76.4167 171.792 76.8024 171.924 77.0889 172.188C77.3753 172.451 77.5186 172.819 77.5186 173.291V173.633C77.5186 174.076 77.377 174.43 77.0938 174.697C76.8105 174.964 76.4264 175.098 75.9414 175.098C75.4629 175.098 75.0771 174.966 74.7842 174.702C74.4945 174.435 74.3496 174.071 74.3496 173.608V173.257ZM75.4043 173.633C75.4043 173.786 75.4564 173.921 75.5605 174.038C75.6647 174.152 75.7917 174.209 75.9414 174.209C76.2572 174.209 76.4281 174.059 76.4541 173.76L76.459 173.257C76.459 173.084 76.4118 172.946 76.3174 172.842C76.223 172.734 76.0944 172.681 75.9316 172.681C75.7754 172.681 75.6501 172.731 75.5557 172.832C75.4613 172.93 75.4108 173.063 75.4043 173.232V173.633ZM72.875 174.468L72.1084 174.082L75.5801 168.525L76.3467 168.911L72.875 174.468Z" fill="#888888"/>
<path d="M812.578 214H809.938V205.594L807.344 206.352V204.352L812.336 202.625H812.578V214ZM822.367 202.461V204.531H822.25C821.266 204.531 820.456 204.768 819.82 205.242C819.19 205.711 818.802 206.365 818.656 207.203C819.25 206.62 820 206.328 820.906 206.328C821.891 206.328 822.674 206.688 823.258 207.406C823.841 208.125 824.133 209.068 824.133 210.234C824.133 210.958 823.961 211.622 823.617 212.227C823.279 212.831 822.802 213.305 822.188 213.648C821.578 213.987 820.901 214.156 820.156 214.156C819.349 214.156 818.628 213.974 817.992 213.609C817.357 213.24 816.862 212.714 816.508 212.031C816.154 211.349 815.971 210.562 815.961 209.672V208.617C815.961 207.445 816.211 206.393 816.711 205.461C817.216 204.523 817.935 203.789 818.867 203.258C819.799 202.727 820.833 202.461 821.969 202.461H822.367ZM819.992 208.344C819.643 208.344 819.352 208.424 819.117 208.586C818.883 208.747 818.708 208.945 818.594 209.18V209.969C818.594 211.406 819.091 212.125 820.086 212.125C820.487 212.125 820.82 211.945 821.086 211.586C821.357 211.227 821.492 210.776 821.492 210.234C821.492 209.677 821.354 209.224 821.078 208.875C820.807 208.521 820.445 208.344 819.992 208.344ZM825.018 208.258C825.018 207.818 825.161 207.464 825.447 207.193C825.734 206.923 826.118 206.788 826.6 206.788C827.088 206.788 827.474 206.923 827.757 207.193C828.04 207.46 828.182 207.823 828.182 208.282V208.634C828.182 209.073 828.04 209.426 827.757 209.693C827.474 209.96 827.091 210.094 826.609 210.094C826.131 210.094 825.745 209.962 825.452 209.698C825.162 209.431 825.018 209.067 825.018 208.604V208.258ZM826.077 208.634C826.077 208.803 826.124 208.941 826.219 209.049C826.313 209.153 826.443 209.205 826.609 209.205C826.951 209.205 827.122 208.987 827.122 208.551V208.258C827.122 208.089 827.076 207.95 826.985 207.843C826.894 207.732 826.766 207.677 826.6 207.677C826.44 207.677 826.313 207.73 826.219 207.838C826.124 207.942 826.077 208.085 826.077 208.268V208.634ZM828.396 212.257C828.396 211.814 828.54 211.459 828.826 211.192C829.116 210.925 829.5 210.792 829.979 210.792C830.464 210.792 830.849 210.924 831.136 211.188C831.422 211.451 831.565 211.819 831.565 212.291V212.633C831.565 213.076 831.424 213.43 831.141 213.697C830.857 213.964 830.473 214.098 829.988 214.098C829.51 214.098 829.124 213.966 828.831 213.702C828.541 213.435 828.396 213.071 828.396 212.608V212.257ZM829.451 212.633C829.451 212.786 829.503 212.921 829.607 213.038C829.712 213.152 829.839 213.209 829.988 213.209C830.304 213.209 830.475 213.059 830.501 212.76L830.506 212.257C830.506 212.084 830.459 211.946 830.364 211.842C830.27 211.734 830.141 211.681 829.979 211.681C829.822 211.681 829.697 211.731 829.603 211.832C829.508 211.93 829.458 212.063 829.451 212.232V212.633ZM826.922 213.468L826.155 213.082L829.627 207.525L830.394 207.911L826.922 213.468Z" fill="#888888"/>
<path d="M55.1016 235.211H56.3438C57.3281 235.211 57.8203 234.729 57.8203 233.766C57.8203 233.391 57.7031 233.086 57.4688 232.852C57.2344 232.612 56.9036 232.492 56.4766 232.492C56.1276 232.492 55.8229 232.594 55.5625 232.797C55.3073 233 55.1797 233.253 55.1797 233.555H52.5469C52.5469 232.956 52.7135 232.422 53.0469 231.953C53.3802 231.484 53.8411 231.12 54.4297 230.859C55.0234 230.594 55.6745 230.461 56.3828 230.461C57.6484 230.461 58.6432 230.75 59.3672 231.328C60.0911 231.906 60.4531 232.701 60.4531 233.711C60.4531 234.201 60.3021 234.664 60 235.102C59.7031 235.534 59.2682 235.885 58.6953 236.156C59.2995 236.375 59.7734 236.708 60.1172 237.156C60.4609 237.599 60.6328 238.148 60.6328 238.805C60.6328 239.82 60.2422 240.633 59.4609 241.242C58.6797 241.852 57.6536 242.156 56.3828 242.156C55.638 242.156 54.9453 242.016 54.3047 241.734C53.6693 241.448 53.1875 241.055 52.8594 240.555C52.5312 240.049 52.3672 239.477 52.3672 238.836H55.0156C55.0156 239.185 55.1562 239.487 55.4375 239.742C55.7188 239.997 56.0651 240.125 56.4766 240.125C56.9401 240.125 57.3099 239.997 57.5859 239.742C57.862 239.482 58 239.151 58 238.75C58 238.177 57.8568 237.771 57.5703 237.531C57.2839 237.292 56.888 237.172 56.3828 237.172H55.1016V235.211ZM68.9141 237.555H70.0703V239.586H68.9141V242H66.2812V239.586H61.8828L61.7266 237.977L66.2812 230.648V230.625H68.9141V237.555ZM64.2344 237.555H66.2812V234.055L66.1172 234.32L64.2344 237.555ZM70.9707 236.258C70.9707 235.818 71.1139 235.464 71.4004 235.193C71.6868 234.923 72.071 234.788 72.5527 234.788C73.041 234.788 73.4268 234.923 73.71 235.193C73.9932 235.46 74.1348 235.823 74.1348 236.282V236.634C74.1348 237.073 73.9932 237.426 73.71 237.693C73.4268 237.96 73.0443 238.094 72.5625 238.094C72.084 238.094 71.6982 237.962 71.4053 237.698C71.1156 237.431 70.9707 237.067 70.9707 236.604V236.258ZM72.0303 236.634C72.0303 236.803 72.0775 236.941 72.1719 237.049C72.2663 237.153 72.3965 237.205 72.5625 237.205C72.9043 237.205 73.0752 236.987 73.0752 236.551V236.258C73.0752 236.089 73.0296 235.95 72.9385 235.843C72.8473 235.732 72.7188 235.677 72.5527 235.677C72.3932 235.677 72.2663 235.73 72.1719 235.838C72.0775 235.942 72.0303 236.085 72.0303 236.268V236.634ZM74.3496 240.257C74.3496 239.814 74.4928 239.459 74.7793 239.192C75.069 238.925 75.4531 238.792 75.9316 238.792C76.4167 238.792 76.8024 238.924 77.0889 239.188C77.3753 239.451 77.5186 239.819 77.5186 240.291V240.633C77.5186 241.076 77.377 241.43 77.0938 241.697C76.8105 241.964 76.4264 242.098 75.9414 242.098C75.4629 242.098 75.0771 241.966 74.7842 241.702C74.4945 241.435 74.3496 241.071 74.3496 240.608V240.257ZM75.4043 240.633C75.4043 240.786 75.4564 240.921 75.5605 241.038C75.6647 241.152 75.7917 241.209 75.9414 241.209C76.2572 241.209 76.4281 241.059 76.4541 240.76L76.459 240.257C76.459 240.084 76.4118 239.946 76.3174 239.842C76.223 239.734 76.0944 239.681 75.9316 239.681C75.7754 239.681 75.6501 239.731 75.5557 239.832C75.4613 239.93 75.4108 240.063 75.4043 240.232V240.633ZM72.875 241.468L72.1084 241.082L75.5801 235.525L76.3467 235.911L72.875 241.468Z" fill="#888888"/>
<path d="M818.414 254.211H819.656C820.641 254.211 821.133 253.729 821.133 252.766C821.133 252.391 821.016 252.086 820.781 251.852C820.547 251.612 820.216 251.492 819.789 251.492C819.44 251.492 819.135 251.594 818.875 251.797C818.62 252 818.492 252.253 818.492 252.555H815.859C815.859 251.956 816.026 251.422 816.359 250.953C816.693 250.484 817.154 250.12 817.742 249.859C818.336 249.594 818.987 249.461 819.695 249.461C820.961 249.461 821.956 249.75 822.68 250.328C823.404 250.906 823.766 251.701 823.766 252.711C823.766 253.201 823.615 253.664 823.312 254.102C823.016 254.534 822.581 254.885 822.008 255.156C822.612 255.375 823.086 255.708 823.43 256.156C823.773 256.599 823.945 257.148 823.945 257.805C823.945 258.82 823.555 259.633 822.773 260.242C821.992 260.852 820.966 261.156 819.695 261.156C818.951 261.156 818.258 261.016 817.617 260.734C816.982 260.448 816.5 260.055 816.172 259.555C815.844 259.049 815.68 258.477 815.68 257.836H818.328C818.328 258.185 818.469 258.487 818.75 258.742C819.031 258.997 819.378 259.125 819.789 259.125C820.253 259.125 820.622 258.997 820.898 258.742C821.174 258.482 821.312 258.151 821.312 257.75C821.312 257.177 821.169 256.771 820.883 256.531C820.596 256.292 820.201 256.172 819.695 256.172H818.414V254.211ZM825.018 255.258C825.018 254.818 825.161 254.464 825.447 254.193C825.734 253.923 826.118 253.788 826.6 253.788C827.088 253.788 827.474 253.923 827.757 254.193C828.04 254.46 828.182 254.823 828.182 255.282V255.634C828.182 256.073 828.04 256.426 827.757 256.693C827.474 256.96 827.091 257.094 826.609 257.094C826.131 257.094 825.745 256.962 825.452 256.698C825.162 256.431 825.018 256.067 825.018 255.604V255.258ZM826.077 255.634C826.077 255.803 826.124 255.941 826.219 256.049C826.313 256.153 826.443 256.205 826.609 256.205C826.951 256.205 827.122 255.987 827.122 255.551V255.258C827.122 255.089 827.076 254.95 826.985 254.843C826.894 254.732 826.766 254.677 826.6 254.677C826.44 254.677 826.313 254.73 826.219 254.838C826.124 254.942 826.077 255.085 826.077 255.268V255.634ZM828.396 259.257C828.396 258.814 828.54 258.459 828.826 258.192C829.116 257.925 829.5 257.792 829.979 257.792C830.464 257.792 830.849 257.924 831.136 258.188C831.422 258.451 831.565 258.819 831.565 259.291V259.633C831.565 260.076 831.424 260.43 831.141 260.697C830.857 260.964 830.473 261.098 829.988 261.098C829.51 261.098 829.124 260.966 828.831 260.702C828.541 260.435 828.396 260.071 828.396 259.608V259.257ZM829.451 259.633C829.451 259.786 829.503 259.921 829.607 260.038C829.712 260.152 829.839 260.209 829.988 260.209C830.304 260.209 830.475 260.059 830.501 259.76L830.506 259.257C830.506 259.084 830.459 258.946 830.364 258.842C830.27 258.734 830.141 258.681 829.979 258.681C829.822 258.681 829.697 258.731 829.603 258.832C829.508 258.93 829.458 259.063 829.451 259.232V259.633ZM826.922 260.468L826.155 260.082L829.627 254.525L830.394 254.911L826.922 260.468Z" fill="#888888"/>
<path d="M56.4092 93.7695L57.1748 90.0234H58.0327L56.8843 95H56.0571L55.1104 91.3667L54.1431 95H53.3125L52.1641 90.0234H53.022L53.7944 93.7627L54.7446 90.0234H55.4692L56.4092 93.7695ZM61.9661 93.7183C61.9661 93.4995 61.8886 93.3309 61.7337 93.2124C61.581 93.0939 61.3042 92.9743 60.9031 92.8535C60.5021 92.7327 60.1831 92.5983 59.9461 92.4502C59.4926 92.1654 59.2659 91.7939 59.2659 91.3359C59.2659 90.9349 59.4288 90.6045 59.7547 90.3447C60.0828 90.085 60.5078 89.9551 61.0296 89.9551C61.3759 89.9551 61.6847 90.0189 61.9559 90.1465C62.227 90.2741 62.4401 90.4564 62.595 90.6934C62.75 90.9281 62.8274 91.189 62.8274 91.4761H61.9661C61.9661 91.2163 61.8841 91.0135 61.72 90.8677C61.5582 90.7196 61.3258 90.6455 61.0228 90.6455C60.7402 90.6455 60.5203 90.7059 60.3631 90.8267C60.2081 90.9474 60.1307 91.116 60.1307 91.3325C60.1307 91.5148 60.215 91.6675 60.3836 91.7905C60.5522 91.9113 60.8302 92.0298 61.2176 92.146C61.6049 92.2599 61.916 92.391 62.1507 92.5391C62.3854 92.6849 62.5574 92.8535 62.6668 93.0449C62.7762 93.234 62.8309 93.4562 62.8309 93.7114C62.8309 94.1261 62.6714 94.4565 62.3523 94.7026C62.0356 94.9465 61.6049 95.0684 61.0604 95.0684C60.7003 95.0684 60.3688 95.0023 60.0657 94.8701C59.7649 94.7357 59.5302 94.5511 59.3616 94.3164C59.1953 94.0817 59.1121 93.8083 59.1121 93.4961H59.9769C59.9769 93.7786 60.0703 93.9974 60.2571 94.1523C60.444 94.3073 60.7117 94.3848 61.0604 94.3848C61.3611 94.3848 61.5867 94.3244 61.7371 94.2036C61.8898 94.0806 61.9661 93.9188 61.9661 93.7183ZM65.2022 95H64.3409V90.0234H65.2022V95ZM69.8124 93.8413H67.8847L67.4813 95H66.5824L68.4623 90.0234H69.2382L71.1215 95H70.2191L69.8124 93.8413ZM68.1273 93.144H69.5697L68.8485 91.0796L68.1273 93.144ZM72.3889 95V90.0234H73.8586C74.2984 90.0234 74.688 90.1214 75.0275 90.3174C75.3693 90.5133 75.6337 90.7913 75.8205 91.1514C76.0074 91.5114 76.1008 91.9238 76.1008 92.3887V92.6382C76.1008 93.1099 76.0062 93.5246 75.8171 93.8823C75.6302 94.2401 75.3625 94.5158 75.0139 94.7095C74.6675 94.9032 74.2699 95 73.821 95H72.3889ZM73.2536 90.7207V94.3096H73.8176C74.271 94.3096 74.6185 94.1683 74.8601 93.8857C75.1039 93.6009 75.2281 93.193 75.2326 92.6621V92.3853C75.2326 91.8452 75.1153 91.4328 74.8806 91.1479C74.6459 90.8631 74.3052 90.7207 73.8586 90.7207H73.2536ZM78.5815 92.0229L79.3813 91.7803V92.2827L78.5815 92.5254V94.3096H80.8408V95H77.7168V92.7886L77.2725 92.9219V92.4194L77.7168 92.2861V90.0234H78.5815V92.0229ZM86.1756 92.6416C86.1756 93.1292 86.0913 93.5576 85.9227 93.9268C85.754 94.2936 85.5125 94.5762 85.198 94.7744C84.8859 94.9704 84.5258 95.0684 84.118 95.0684C83.7146 95.0684 83.3546 94.9704 83.0379 94.7744C82.7234 94.5762 82.4796 94.2948 82.3064 93.9302C82.1355 93.5656 82.049 93.1452 82.0467 92.6689V92.3887C82.0467 91.9033 82.1321 91.4749 82.303 91.1035C82.4762 90.7321 82.7189 90.4484 83.0311 90.2524C83.3455 90.0542 83.7055 89.9551 84.1111 89.9551C84.5167 89.9551 84.8756 90.0531 85.1878 90.249C85.5022 90.4427 85.7449 90.723 85.9158 91.0898C86.0867 91.4544 86.1733 91.8794 86.1756 92.3647V92.6416ZM85.3108 92.3818C85.3108 91.8304 85.206 91.4077 84.9964 91.1138C84.789 90.8198 84.4939 90.6729 84.1111 90.6729C83.7374 90.6729 83.4446 90.8198 83.2327 91.1138C83.0231 91.4054 82.916 91.819 82.9114 92.3545V92.6416C82.9114 93.1885 83.0174 93.6112 83.2293 93.9097C83.4435 94.2082 83.7397 94.3574 84.118 94.3574C84.5008 94.3574 84.7947 94.2116 84.9998 93.9199C85.2072 93.6283 85.3108 93.2021 85.3108 92.6416V92.3818Z" fill="#888888"/>
<path d="M796.967 152.77L797.733 149.023H798.591L797.442 154H796.615L795.668 150.367L794.701 154H793.871L792.722 149.023H793.58L794.352 152.763L795.303 149.023H796.027L796.967 152.77ZM801.547 151.382L802.692 149.023H803.649L801.981 152.168V154H801.112V152.168L799.441 149.023H800.402L801.547 151.382ZM807.435 152.718C807.435 152.5 807.358 152.331 807.203 152.212C807.05 152.094 806.773 151.974 806.372 151.854C805.971 151.733 805.652 151.598 805.415 151.45C804.962 151.165 804.735 150.794 804.735 150.336C804.735 149.935 804.898 149.604 805.224 149.345C805.552 149.085 805.977 148.955 806.499 148.955C806.845 148.955 807.154 149.019 807.425 149.146C807.696 149.274 807.909 149.456 808.064 149.693C808.219 149.928 808.296 150.189 808.296 150.476H807.435C807.435 150.216 807.353 150.014 807.189 149.868C807.027 149.72 806.795 149.646 806.492 149.646C806.209 149.646 805.989 149.706 805.832 149.827C805.677 149.947 805.6 150.116 805.6 150.333C805.6 150.515 805.684 150.667 805.853 150.791C806.021 150.911 806.299 151.03 806.687 151.146C807.074 151.26 807.385 151.391 807.62 151.539C807.854 151.685 808.026 151.854 808.136 152.045C808.245 152.234 808.3 152.456 808.3 152.711C808.3 153.126 808.14 153.457 807.821 153.703C807.505 153.946 807.074 154.068 806.529 154.068C806.169 154.068 805.838 154.002 805.535 153.87C805.234 153.736 804.999 153.551 804.831 153.316C804.664 153.082 804.581 152.808 804.581 152.496H805.446C805.446 152.779 805.539 152.997 805.726 153.152C805.913 153.307 806.181 153.385 806.529 153.385C806.83 153.385 807.056 153.324 807.206 153.204C807.359 153.081 807.435 152.919 807.435 152.718ZM810.671 154H809.81V149.023H810.671V154ZM815.281 152.841H813.354L812.95 154H812.051L813.931 149.023H814.707L816.59 154H815.688L815.281 152.841ZM813.596 152.144H815.039L814.317 150.08L813.596 152.144ZM817.858 154V149.023H819.328C819.767 149.023 820.157 149.121 820.496 149.317C820.838 149.513 821.103 149.791 821.289 150.151C821.476 150.511 821.57 150.924 821.57 151.389V151.638C821.57 152.11 821.475 152.525 821.286 152.882C821.099 153.24 820.831 153.516 820.483 153.709C820.136 153.903 819.739 154 819.29 154H817.858ZM818.723 149.721V153.31H819.287C819.74 153.31 820.087 153.168 820.329 152.886C820.573 152.601 820.697 152.193 820.702 151.662V151.385C820.702 150.845 820.584 150.433 820.35 150.148C820.115 149.863 819.774 149.721 819.328 149.721H818.723ZM824.05 151.023L824.85 150.78V151.283L824.05 151.525V153.31H826.31V154H823.186V151.789L822.741 151.922V151.419L823.186 151.286V149.023H824.05V151.023ZM831.645 151.642C831.645 152.129 831.56 152.558 831.392 152.927C831.223 153.294 830.981 153.576 830.667 153.774C830.355 153.97 829.995 154.068 829.587 154.068C829.184 154.068 828.824 153.97 828.507 153.774C828.192 153.576 827.949 153.295 827.775 152.93C827.604 152.566 827.518 152.145 827.516 151.669V151.389C827.516 150.903 827.601 150.475 827.772 150.104C827.945 149.732 828.188 149.448 828.5 149.252C828.814 149.054 829.174 148.955 829.58 148.955C829.986 148.955 830.345 149.053 830.657 149.249C830.971 149.443 831.214 149.723 831.385 150.09C831.556 150.454 831.642 150.879 831.645 151.365V151.642ZM830.78 151.382C830.78 150.83 830.675 150.408 830.465 150.114C830.258 149.82 829.963 149.673 829.58 149.673C829.206 149.673 828.914 149.82 828.702 150.114C828.492 150.405 828.385 150.819 828.38 151.354V151.642C828.38 152.188 828.486 152.611 828.698 152.91C828.912 153.208 829.209 153.357 829.587 153.357C829.97 153.357 830.264 153.212 830.469 152.92C830.676 152.628 830.78 152.202 830.78 151.642V151.382Z" fill="#888888"/>
<path d="M56.4092 156.77L57.1748 153.023H58.0327L56.8843 158H56.0571L55.1104 154.367L54.1431 158H53.3125L52.1641 153.023H53.022L53.7944 156.763L54.7446 153.023H55.4692L56.4092 156.77ZM61.9661 156.718C61.9661 156.5 61.8886 156.331 61.7337 156.212C61.581 156.094 61.3042 155.974 60.9031 155.854C60.5021 155.733 60.1831 155.598 59.9461 155.45C59.4926 155.165 59.2659 154.794 59.2659 154.336C59.2659 153.935 59.4288 153.604 59.7547 153.345C60.0828 153.085 60.5078 152.955 61.0296 152.955C61.3759 152.955 61.6847 153.019 61.9559 153.146C62.227 153.274 62.4401 153.456 62.595 153.693C62.75 153.928 62.8274 154.189 62.8274 154.476H61.9661C61.9661 154.216 61.8841 154.014 61.72 153.868C61.5582 153.72 61.3258 153.646 61.0228 153.646C60.7402 153.646 60.5203 153.706 60.3631 153.827C60.2081 153.947 60.1307 154.116 60.1307 154.333C60.1307 154.515 60.215 154.667 60.3836 154.791C60.5522 154.911 60.8302 155.03 61.2176 155.146C61.6049 155.26 61.916 155.391 62.1507 155.539C62.3854 155.685 62.5574 155.854 62.6668 156.045C62.7762 156.234 62.8309 156.456 62.8309 156.711C62.8309 157.126 62.6714 157.457 62.3523 157.703C62.0356 157.946 61.6049 158.068 61.0604 158.068C60.7003 158.068 60.3688 158.002 60.0657 157.87C59.7649 157.736 59.5302 157.551 59.3616 157.316C59.1953 157.082 59.1121 156.808 59.1121 156.496H59.9769C59.9769 156.779 60.0703 156.997 60.2571 157.152C60.444 157.307 60.7117 157.385 61.0604 157.385C61.3611 157.385 61.5867 157.324 61.7371 157.204C61.8898 157.081 61.9661 156.919 61.9661 156.718ZM65.2022 158H64.3409V153.023H65.2022V158ZM69.8124 156.841H67.8847L67.4813 158H66.5824L68.4623 153.023H69.2382L71.1215 158H70.2191L69.8124 156.841ZM68.1273 156.144H69.5697L68.8485 154.08L68.1273 156.144ZM72.3889 158V153.023H73.8586C74.2984 153.023 74.688 153.121 75.0275 153.317C75.3693 153.513 75.6337 153.791 75.8205 154.151C76.0074 154.511 76.1008 154.924 76.1008 155.389V155.638C76.1008 156.11 76.0062 156.525 75.8171 156.882C75.6302 157.24 75.3625 157.516 75.0139 157.709C74.6675 157.903 74.2699 158 73.821 158H72.3889ZM73.2536 153.721V157.31H73.8176C74.271 157.31 74.6185 157.168 74.8601 156.886C75.1039 156.601 75.2281 156.193 75.2326 155.662V155.385C75.2326 154.845 75.1153 154.433 74.8806 154.148C74.6459 153.863 74.3052 153.721 73.8586 153.721H73.2536ZM78.5815 155.023L79.3813 154.78V155.283L78.5815 155.525V157.31H80.8408V158H77.7168V155.789L77.2725 155.922V155.419L77.7168 155.286V153.023H78.5815V155.023ZM86.1756 155.642C86.1756 156.129 86.0913 156.558 85.9227 156.927C85.754 157.294 85.5125 157.576 85.198 157.774C84.8859 157.97 84.5258 158.068 84.118 158.068C83.7146 158.068 83.3546 157.97 83.0379 157.774C82.7234 157.576 82.4796 157.295 82.3064 156.93C82.1355 156.566 82.049 156.145 82.0467 155.669V155.389C82.0467 154.903 82.1321 154.475 82.303 154.104C82.4762 153.732 82.7189 153.448 83.0311 153.252C83.3455 153.054 83.7055 152.955 84.1111 152.955C84.5167 152.955 84.8756 153.053 85.1878 153.249C85.5022 153.443 85.7449 153.723 85.9158 154.09C86.0867 154.454 86.1733 154.879 86.1756 155.365V155.642ZM85.3108 155.382C85.3108 154.83 85.206 154.408 84.9964 154.114C84.789 153.82 84.4939 153.673 84.1111 153.673C83.7374 153.673 83.4446 153.82 83.2327 154.114C83.0231 154.405 82.916 154.819 82.9114 155.354V155.642C82.9114 156.188 83.0174 156.611 83.2293 156.91C83.4435 157.208 83.7397 157.357 84.118 157.357C84.5008 157.357 84.7947 157.212 84.9998 156.92C85.2072 156.628 85.3108 156.202 85.3108 155.642V155.382Z" fill="#888888"/>
<path d="M796.967 195.77L797.733 192.023H798.591L797.442 197H796.615L795.668 193.367L794.701 197H793.871L792.722 192.023H793.58L794.352 195.763L795.303 192.023H796.027L796.967 195.77ZM801.547 194.382L802.692 192.023H803.649L801.981 195.168V197H801.112V195.168L799.441 192.023H800.402L801.547 194.382ZM807.435 195.718C807.435 195.5 807.358 195.331 807.203 195.212C807.05 195.094 806.773 194.974 806.372 194.854C805.971 194.733 805.652 194.598 805.415 194.45C804.962 194.165 804.735 193.794 804.735 193.336C804.735 192.935 804.898 192.604 805.224 192.345C805.552 192.085 805.977 191.955 806.499 191.955C806.845 191.955 807.154 192.019 807.425 192.146C807.696 192.274 807.909 192.456 808.064 192.693C808.219 192.928 808.296 193.189 808.296 193.476H807.435C807.435 193.216 807.353 193.014 807.189 192.868C807.027 192.72 806.795 192.646 806.492 192.646C806.209 192.646 805.989 192.706 805.832 192.827C805.677 192.947 805.6 193.116 805.6 193.333C805.6 193.515 805.684 193.667 805.853 193.791C806.021 193.911 806.299 194.03 806.687 194.146C807.074 194.26 807.385 194.391 807.62 194.539C807.854 194.685 808.026 194.854 808.136 195.045C808.245 195.234 808.3 195.456 808.3 195.711C808.3 196.126 808.14 196.457 807.821 196.703C807.505 196.946 807.074 197.068 806.529 197.068C806.169 197.068 805.838 197.002 805.535 196.87C805.234 196.736 804.999 196.551 804.831 196.316C804.664 196.082 804.581 195.808 804.581 195.496H805.446C805.446 195.779 805.539 195.997 805.726 196.152C805.913 196.307 806.181 196.385 806.529 196.385C806.83 196.385 807.056 196.324 807.206 196.204C807.359 196.081 807.435 195.919 807.435 195.718ZM810.671 197H809.81V192.023H810.671V197ZM815.281 195.841H813.354L812.95 197H812.051L813.931 192.023H814.707L816.59 197H815.688L815.281 195.841ZM813.596 195.144H815.039L814.317 193.08L813.596 195.144ZM817.858 197V192.023H819.328C819.767 192.023 820.157 192.121 820.496 192.317C820.838 192.513 821.103 192.791 821.289 193.151C821.476 193.511 821.57 193.924 821.57 194.389V194.638C821.57 195.11 821.475 195.525 821.286 195.882C821.099 196.24 820.831 196.516 820.483 196.709C820.136 196.903 819.739 197 819.29 197H817.858ZM818.723 192.721V196.31H819.287C819.74 196.31 820.087 196.168 820.329 195.886C820.573 195.601 820.697 195.193 820.702 194.662V194.385C820.702 193.845 820.584 193.433 820.35 193.148C820.115 192.863 819.774 192.721 819.328 192.721H818.723ZM824.05 194.023L824.85 193.78V194.283L824.05 194.525V196.31H826.31V197H823.186V194.789L822.741 194.922V194.419L823.186 194.286V192.023H824.05V194.023ZM831.645 194.642C831.645 195.129 831.56 195.558 831.392 195.927C831.223 196.294 830.981 196.576 830.667 196.774C830.355 196.97 829.995 197.068 829.587 197.068C829.184 197.068 828.824 196.97 828.507 196.774C828.192 196.576 827.949 196.295 827.775 195.93C827.604 195.566 827.518 195.145 827.516 194.669V194.389C827.516 193.903 827.601 193.475 827.772 193.104C827.945 192.732 828.188 192.448 828.5 192.252C828.814 192.054 829.174 191.955 829.58 191.955C829.986 191.955 830.345 192.053 830.657 192.249C830.971 192.443 831.214 192.723 831.385 193.09C831.556 193.454 831.642 193.879 831.645 194.365V194.642ZM830.78 194.382C830.78 193.83 830.675 193.408 830.465 193.114C830.258 192.82 829.963 192.673 829.58 192.673C829.206 192.673 828.914 192.82 828.702 193.114C828.492 193.405 828.385 193.819 828.38 194.354V194.642C828.38 195.188 828.486 195.611 828.698 195.91C828.912 196.208 829.209 196.357 829.587 196.357C829.97 196.357 830.264 196.212 830.469 195.92C830.676 195.628 830.78 195.202 830.78 194.642V194.382Z" fill="#888888"/>
<path d="M56.4092 223.77L57.1748 220.023H58.0327L56.8843 225H56.0571L55.1104 221.367L54.1431 225H53.3125L52.1641 220.023H53.022L53.7944 223.763L54.7446 220.023H55.4692L56.4092 223.77ZM61.9661 223.718C61.9661 223.5 61.8886 223.331 61.7337 223.212C61.581 223.094 61.3042 222.974 60.9031 222.854C60.5021 222.733 60.1831 222.598 59.9461 222.45C59.4926 222.165 59.2659 221.794 59.2659 221.336C59.2659 220.935 59.4288 220.604 59.7547 220.345C60.0828 220.085 60.5078 219.955 61.0296 219.955C61.3759 219.955 61.6847 220.019 61.9559 220.146C62.227 220.274 62.4401 220.456 62.595 220.693C62.75 220.928 62.8274 221.189 62.8274 221.476H61.9661C61.9661 221.216 61.8841 221.014 61.72 220.868C61.5582 220.72 61.3258 220.646 61.0228 220.646C60.7402 220.646 60.5203 220.706 60.3631 220.827C60.2081 220.947 60.1307 221.116 60.1307 221.333C60.1307 221.515 60.215 221.667 60.3836 221.791C60.5522 221.911 60.8302 222.03 61.2176 222.146C61.6049 222.26 61.916 222.391 62.1507 222.539C62.3854 222.685 62.5574 222.854 62.6668 223.045C62.7762 223.234 62.8309 223.456 62.8309 223.711C62.8309 224.126 62.6714 224.457 62.3523 224.703C62.0356 224.946 61.6049 225.068 61.0604 225.068C60.7003 225.068 60.3688 225.002 60.0657 224.87C59.7649 224.736 59.5302 224.551 59.3616 224.316C59.1953 224.082 59.1121 223.808 59.1121 223.496H59.9769C59.9769 223.779 60.0703 223.997 60.2571 224.152C60.444 224.307 60.7117 224.385 61.0604 224.385C61.3611 224.385 61.5867 224.324 61.7371 224.204C61.8898 224.081 61.9661 223.919 61.9661 223.718ZM65.2022 225H64.3409V220.023H65.2022V225ZM69.8124 223.841H67.8847L67.4813 225H66.5824L68.4623 220.023H69.2382L71.1215 225H70.2191L69.8124 223.841ZM68.1273 223.144H69.5697L68.8485 221.08L68.1273 223.144ZM72.3889 225V220.023H73.8586C74.2984 220.023 74.688 220.121 75.0275 220.317C75.3693 220.513 75.6337 220.791 75.8205 221.151C76.0074 221.511 76.1008 221.924 76.1008 222.389V222.638C76.1008 223.11 76.0062 223.525 75.8171 223.882C75.6302 224.24 75.3625 224.516 75.0139 224.709C74.6675 224.903 74.2699 225 73.821 225H72.3889ZM73.2536 220.721V224.31H73.8176C74.271 224.31 74.6185 224.168 74.8601 223.886C75.1039 223.601 75.2281 223.193 75.2326 222.662V222.385C75.2326 221.845 75.1153 221.433 74.8806 221.148C74.6459 220.863 74.3052 220.721 73.8586 220.721H73.2536ZM78.5815 222.023L79.3813 221.78V222.283L78.5815 222.525V224.31H80.8408V225H77.7168V222.789L77.2725 222.922V222.419L77.7168 222.286V220.023H78.5815V222.023ZM86.1756 222.642C86.1756 223.129 86.0913 223.558 85.9227 223.927C85.754 224.294 85.5125 224.576 85.198 224.774C84.8859 224.97 84.5258 225.068 84.118 225.068C83.7146 225.068 83.3546 224.97 83.0379 224.774C82.7234 224.576 82.4796 224.295 82.3064 223.93C82.1355 223.566 82.049 223.145 82.0467 222.669V222.389C82.0467 221.903 82.1321 221.475 82.303 221.104C82.4762 220.732 82.7189 220.448 83.0311 220.252C83.3455 220.054 83.7055 219.955 84.1111 219.955C84.5167 219.955 84.8756 220.053 85.1878 220.249C85.5022 220.443 85.7449 220.723 85.9158 221.09C86.0867 221.454 86.1733 221.879 86.1756 222.365V222.642ZM85.3108 222.382C85.3108 221.83 85.206 221.408 84.9964 221.114C84.789 220.82 84.4939 220.673 84.1111 220.673C83.7374 220.673 83.4446 220.82 83.2327 221.114C83.0231 221.405 82.916 221.819 82.9114 222.354V222.642C82.9114 223.188 83.0174 223.611 83.2293 223.91C83.4435 224.208 83.7397 224.357 84.118 224.357C84.5008 224.357 84.7947 224.212 84.9998 223.92C85.2072 223.628 85.3108 223.202 85.3108 222.642V222.382Z" fill="#888888"/>
<path d="M796.967 242.77L797.733 239.023H798.591L797.442 244H796.615L795.668 240.367L794.701 244H793.871L792.722 239.023H793.58L794.352 242.763L795.303 239.023H796.027L796.967 242.77ZM801.547 241.382L802.692 239.023H803.649L801.981 242.168V244H801.112V242.168L799.441 239.023H800.402L801.547 241.382ZM807.435 242.718C807.435 242.5 807.358 242.331 807.203 242.212C807.05 242.094 806.773 241.974 806.372 241.854C805.971 241.733 805.652 241.598 805.415 241.45C804.962 241.165 804.735 240.794 804.735 240.336C804.735 239.935 804.898 239.604 805.224 239.345C805.552 239.085 805.977 238.955 806.499 238.955C806.845 238.955 807.154 239.019 807.425 239.146C807.696 239.274 807.909 239.456 808.064 239.693C808.219 239.928 808.296 240.189 808.296 240.476H807.435C807.435 240.216 807.353 240.014 807.189 239.868C807.027 239.72 806.795 239.646 806.492 239.646C806.209 239.646 805.989 239.706 805.832 239.827C805.677 239.947 805.6 240.116 805.6 240.333C805.6 240.515 805.684 240.667 805.853 240.791C806.021 240.911 806.299 241.03 806.687 241.146C807.074 241.26 807.385 241.391 807.62 241.539C807.854 241.685 808.026 241.854 808.136 242.045C808.245 242.234 808.3 242.456 808.3 242.711C808.3 243.126 808.14 243.457 807.821 243.703C807.505 243.946 807.074 244.068 806.529 244.068C806.169 244.068 805.838 244.002 805.535 243.87C805.234 243.736 804.999 243.551 804.831 243.316C804.664 243.082 804.581 242.808 804.581 242.496H805.446C805.446 242.779 805.539 242.997 805.726 243.152C805.913 243.307 806.181 243.385 806.529 243.385C806.83 243.385 807.056 243.324 807.206 243.204C807.359 243.081 807.435 242.919 807.435 242.718ZM810.671 244H809.81V239.023H810.671V244ZM815.281 242.841H813.354L812.95 244H812.051L813.931 239.023H814.707L816.59 244H815.688L815.281 242.841ZM813.596 242.144H815.039L814.317 240.08L813.596 242.144ZM817.858 244V239.023H819.328C819.767 239.023 820.157 239.121 820.496 239.317C820.838 239.513 821.103 239.791 821.289 240.151C821.476 240.511 821.57 240.924 821.57 241.389V241.638C821.57 242.11 821.475 242.525 821.286 242.882C821.099 243.24 820.831 243.516 820.483 243.709C820.136 243.903 819.739 244 819.29 244H817.858ZM818.723 239.721V243.31H819.287C819.74 243.31 820.087 243.168 820.329 242.886C820.573 242.601 820.697 242.193 820.702 241.662V241.385C820.702 240.845 820.584 240.433 820.35 240.148C820.115 239.863 819.774 239.721 819.328 239.721H818.723ZM824.05 241.023L824.85 240.78V241.283L824.05 241.525V243.31H826.31V244H823.186V241.789L822.741 241.922V241.419L823.186 241.286V239.023H824.05V241.023ZM831.645 241.642C831.645 242.129 831.56 242.558 831.392 242.927C831.223 243.294 830.981 243.576 830.667 243.774C830.355 243.97 829.995 244.068 829.587 244.068C829.184 244.068 828.824 243.97 828.507 243.774C828.192 243.576 827.949 243.295 827.775 242.93C827.604 242.566 827.518 242.145 827.516 241.669V241.389C827.516 240.903 827.601 240.475 827.772 240.104C827.945 239.732 828.188 239.448 828.5 239.252C828.814 239.054 829.174 238.955 829.58 238.955C829.986 238.955 830.345 239.053 830.657 239.249C830.971 239.443 831.214 239.723 831.385 240.09C831.556 240.454 831.642 240.879 831.645 241.365V241.642ZM830.78 241.382C830.78 240.83 830.675 240.408 830.465 240.114C830.258 239.82 829.963 239.673 829.58 239.673C829.206 239.673 828.914 239.82 828.702 240.114C828.492 240.405 828.385 240.819 828.38 241.354V241.642C828.38 242.188 828.486 242.611 828.698 242.91C828.912 243.208 829.209 243.357 829.587 243.357C829.97 243.357 830.264 243.212 830.469 242.92C830.676 242.628 830.78 242.202 830.78 241.642V241.382Z" fill="#888888"/>
<circle cx="192" cy="167" r="6" fill="#222222"/>
<path d="M50.7188 28.9844V37H46.0312V14.25H54.9062C56.6146 14.25 58.1146 14.5625 59.4062 15.1875C60.7083 15.8125 61.7083 16.7031 62.4062 17.8594C63.1042 19.0052 63.4531 20.3125 63.4531 21.7812C63.4531 24.0104 62.6875 25.7708 61.1562 27.0625C59.6354 28.3438 57.526 28.9844 54.8281 28.9844H50.7188ZM50.7188 25.1875H54.9062C56.1458 25.1875 57.0885 24.8958 57.7344 24.3125C58.3906 23.7292 58.7188 22.8958 58.7188 21.8125C58.7188 20.6979 58.3906 19.7969 57.7344 19.1094C57.0781 18.4219 56.1719 18.0677 55.0156 18.0469H50.7188V25.1875ZM75.8906 24.3281C75.276 24.2448 74.7344 24.2031 74.2656 24.2031C72.5573 24.2031 71.4375 24.7812 70.9062 25.9375V37H66.3906V20.0938H70.6562L70.7812 22.1094C71.6875 20.5573 72.9427 19.7812 74.5469 19.7812C75.0469 19.7812 75.5156 19.849 75.9531 19.9844L75.8906 24.3281ZM83.2656 33.3594H91.5312V37H77.5V34.25L85.4531 23.75H77.7344V20.0938H91.2812V22.7656L83.2656 33.3594ZM101.891 37.3125C99.4115 37.3125 97.3906 36.5521 95.8281 35.0312C94.276 33.5104 93.5 31.4844 93.5 28.9531V28.5156C93.5 26.8177 93.8281 25.3021 94.4844 23.9688C95.1406 22.625 96.0677 21.5938 97.2656 20.875C98.474 20.1458 99.849 19.7812 101.391 19.7812C103.703 19.7812 105.521 20.5104 106.844 21.9688C108.177 23.4271 108.844 25.4948 108.844 28.1719V30.0156H98.0781C98.224 31.1198 98.6615 32.0052 99.3906 32.6719C100.13 33.3385 101.062 33.6719 102.188 33.6719C103.927 33.6719 105.286 33.0417 106.266 31.7812L108.484 34.2656C107.807 35.224 106.891 35.974 105.734 36.5156C104.578 37.0469 103.297 37.3125 101.891 37.3125ZM101.375 23.4375C100.479 23.4375 99.75 23.7396 99.1875 24.3438C98.6354 24.9479 98.2812 25.8125 98.125 26.9375H104.406V26.5781C104.385 25.5781 104.115 24.8073 103.594 24.2656C103.073 23.7135 102.333 23.4375 101.375 23.4375ZM126.641 28.7031C126.641 31.3073 126.047 33.3958 124.859 34.9688C123.682 36.5312 122.089 37.3125 120.078 37.3125C118.37 37.3125 116.99 36.7188 115.938 35.5312V43.5H111.422V20.0938H115.609L115.766 21.75C116.859 20.4375 118.286 19.7812 120.047 19.7812C122.13 19.7812 123.75 20.5521 124.906 22.0938C126.062 23.6354 126.641 25.7604 126.641 28.4688V28.7031ZM122.125 28.375C122.125 26.8021 121.844 25.5885 121.281 24.7344C120.729 23.8802 119.922 23.4531 118.859 23.4531C117.443 23.4531 116.469 23.9948 115.938 25.0781V32C116.49 33.1146 117.474 33.6719 118.891 33.6719C121.047 33.6719 122.125 31.9062 122.125 28.375ZM134.766 22.7812L136.984 22.0469V24.6406L134.766 25.375V37H130.25V26.875L128.188 27.5625V24.9688L130.25 24.2812V13H134.766V22.7812ZM145.547 30.6094L148.672 20.0938H153.516L146.719 39.625L146.344 40.5156C145.333 42.724 143.667 43.8281 141.344 43.8281C140.688 43.8281 140.021 43.7292 139.344 43.5312V40.1094L140.031 40.125C140.885 40.125 141.521 39.9948 141.938 39.7344C142.365 39.474 142.698 39.0417 142.938 38.4375L143.469 37.0469L137.547 20.0938H142.406L145.547 30.6094ZM170 30.8594L172.219 20.0938H176.578L172.266 37H168.484L165.281 26.3594L162.078 37H158.312L154 20.0938H158.359L160.562 30.8438L163.656 20.0938H166.922L170 30.8594ZM185.141 30.6094L188.266 20.0938H193.109L186.312 39.625L185.938 40.5156C184.927 42.724 183.26 43.8281 180.938 43.8281C180.281 43.8281 179.615 43.7292 178.938 43.5312V40.1094L179.625 40.125C180.479 40.125 181.115 39.9948 181.531 39.7344C181.958 39.474 182.292 39.0417 182.531 38.4375L183.062 37.0469L177.141 20.0938H182L185.141 30.6094ZM202.156 28.4219C202.156 25.7865 202.745 23.6875 203.922 22.125C205.109 20.5625 206.729 19.7812 208.781 19.7812C210.427 19.7812 211.786 20.3958 212.859 21.625V13H217.391V37H213.312L213.094 35.2031C211.969 36.6094 210.521 37.3125 208.75 37.3125C206.76 37.3125 205.161 36.5312 203.953 34.9688C202.755 33.3958 202.156 31.2135 202.156 28.4219ZM206.672 28.75C206.672 30.3333 206.948 31.5469 207.5 32.3906C208.052 33.2344 208.854 33.6562 209.906 33.6562C211.302 33.6562 212.286 33.0677 212.859 31.8906V25.2188C212.297 24.0417 211.323 23.4531 209.938 23.4531C207.76 23.4531 206.672 25.2188 206.672 28.75ZM225.656 37H221.125V13H225.656V37ZM239.188 37C238.979 36.5938 238.828 36.0885 238.734 35.4844C237.641 36.7031 236.219 37.3125 234.469 37.3125C232.812 37.3125 231.438 36.8333 230.344 35.875C229.26 34.9167 228.719 33.7083 228.719 32.25C228.719 30.4583 229.38 29.0833 230.703 28.125C232.036 27.1667 233.958 26.6823 236.469 26.6719H238.547V25.7031C238.547 24.9219 238.344 24.2969 237.938 23.8281C237.542 23.3594 236.911 23.125 236.047 23.125C235.286 23.125 234.688 23.3073 234.25 23.6719C233.823 24.0365 233.609 24.5365 233.609 25.1719H229.094C229.094 24.1927 229.396 23.2865 230 22.4531C230.604 21.6198 231.458 20.9688 232.562 20.5C233.667 20.0208 234.906 19.7812 236.281 19.7812C238.365 19.7812 240.016 20.3073 241.234 21.3594C242.464 22.401 243.078 23.8698 243.078 25.7656V33.0938C243.089 34.6979 243.312 35.9115 243.75 36.7344V37H239.188ZM235.453 33.8594C236.12 33.8594 236.734 33.7135 237.297 33.4219C237.859 33.1198 238.276 32.7188 238.547 32.2188V29.3125H236.859C234.599 29.3125 233.396 30.0938 233.25 31.6562L233.234 31.9219C233.234 32.4844 233.432 32.9479 233.828 33.3125C234.224 33.6771 234.766 33.8594 235.453 33.8594ZM259.281 37H254.75V13H259.281V37ZM267.781 37H263.25V20.0938H267.781V37ZM262.984 15.7188C262.984 15.0417 263.208 14.4844 263.656 14.0469C264.115 13.6094 264.734 13.3906 265.516 13.3906C266.286 13.3906 266.901 13.6094 267.359 14.0469C267.818 14.4844 268.047 15.0417 268.047 15.7188C268.047 16.4062 267.812 16.9688 267.344 17.4062C266.885 17.8438 266.276 18.0625 265.516 18.0625C264.755 18.0625 264.141 17.8438 263.672 17.4062C263.214 16.9688 262.984 16.4062 262.984 15.7188ZM275.672 20.0938L275.812 22.0469C277.021 20.5365 278.641 19.7812 280.672 19.7812C282.464 19.7812 283.797 20.3073 284.672 21.3594C285.547 22.4115 285.995 23.9844 286.016 26.0781V37H281.5V26.1875C281.5 25.2292 281.292 24.5365 280.875 24.1094C280.458 23.6719 279.766 23.4531 278.797 23.4531C277.526 23.4531 276.573 23.9948 275.938 25.0781V37H271.422V20.0938H275.672ZM294.219 37H289.688V20.0938H294.219V37ZM289.422 15.7188C289.422 15.0417 289.646 14.4844 290.094 14.0469C290.552 13.6094 291.172 13.3906 291.953 13.3906C292.724 13.3906 293.339 13.6094 293.797 14.0469C294.255 14.4844 294.484 15.0417 294.484 15.7188C294.484 16.4062 294.25 16.9688 293.781 17.4062C293.323 17.8438 292.714 18.0625 291.953 18.0625C291.193 18.0625 290.578 17.8438 290.109 17.4062C289.651 16.9688 289.422 16.4062 289.422 15.7188ZM302.719 37H298.188V20.0938H302.719V37ZM297.922 15.7188C297.922 15.0417 298.146 14.4844 298.594 14.0469C299.052 13.6094 299.672 13.3906 300.453 13.3906C301.224 13.3906 301.839 13.6094 302.297 14.0469C302.755 14.4844 302.984 15.0417 302.984 15.7188C302.984 16.4062 302.75 16.9688 302.281 17.4062C301.823 17.8438 301.214 18.0625 300.453 18.0625C299.693 18.0625 299.078 17.8438 298.609 17.4062C298.151 16.9688 297.922 16.4062 297.922 15.7188Z" fill="#222222"/>
<path d="M50.2988 52.2422L51.3926 46.8906H52.6182L50.9775 54H49.7959L48.4434 48.8096L47.0615 54H45.875L44.2344 46.8906H45.46L46.5635 52.2324L47.9209 46.8906H48.9561L50.2988 52.2422ZM59.9707 53.0771C59.7135 53.4124 59.3571 53.6663 58.9014 53.8389C58.4456 54.0114 57.9281 54.0977 57.3486 54.0977C56.7529 54.0977 56.2256 53.9626 55.7666 53.6924C55.3076 53.4222 54.9528 53.0365 54.7021 52.5352C54.4548 52.0306 54.3262 51.443 54.3164 50.7725V50.2158C54.3164 49.1416 54.5736 48.3034 55.0879 47.7012C55.6022 47.0957 56.32 46.793 57.2412 46.793C58.0322 46.793 58.6605 46.9883 59.126 47.3789C59.5915 47.7695 59.8714 48.3327 59.9658 49.0684H58.7549C58.6182 48.2122 58.1217 47.7842 57.2656 47.7842C56.7122 47.7842 56.2907 47.9844 56.001 48.3848C55.7145 48.7819 55.5664 49.3662 55.5566 50.1377V50.6846C55.5566 51.4528 55.7178 52.0501 56.04 52.4766C56.3656 52.8997 56.8164 53.1113 57.3926 53.1113C58.0241 53.1113 58.4733 52.9681 58.7402 52.6816V51.29H57.2754V50.3525H59.9707V53.0771ZM67.0537 51.3584V54H65.8184V46.8906H68.5381C69.3324 46.8906 69.9622 47.0973 70.4277 47.5107C70.8965 47.9242 71.1309 48.471 71.1309 49.1514C71.1309 49.848 70.9014 50.39 70.4424 50.7773C69.9867 51.1647 69.347 51.3584 68.5234 51.3584H67.0537ZM67.0537 50.3672H68.5381C68.9775 50.3672 69.3128 50.2646 69.5439 50.0596C69.7751 49.8512 69.8906 49.5518 69.8906 49.1611C69.8906 48.777 69.7734 48.471 69.5391 48.2432C69.3047 48.012 68.9824 47.8932 68.5723 47.8867H67.0537V50.3672ZM75.8271 51.2607H74.4502V54H73.2148V46.8906H75.7148C76.5352 46.8906 77.1683 47.0745 77.6143 47.4424C78.0602 47.8102 78.2832 48.3424 78.2832 49.0391C78.2832 49.5143 78.1676 49.9131 77.9365 50.2354C77.7087 50.5544 77.3896 50.8001 76.9795 50.9727L78.5762 53.9365V54H77.2529L75.8271 51.2607ZM74.4502 50.2695H75.7197C76.1364 50.2695 76.4619 50.1654 76.6963 49.957C76.9307 49.7454 77.0479 49.4574 77.0479 49.0928C77.0479 48.7119 76.9388 48.4173 76.7207 48.209C76.5059 48.0007 76.1836 47.8932 75.7539 47.8867H74.4502V50.2695ZM81.6172 53.0137H85.416V54H80.123V53.1992L83.7998 47.8867H80.1475V46.8906H85.2988V47.6719L81.6172 53.0137ZM89.7998 50.2598L91.4355 46.8906H92.8027L90.4199 51.3828V54H89.1797V51.3828L86.792 46.8906H88.1641L89.7998 50.2598ZM98.2119 52.1689C98.2119 51.8564 98.1012 51.6156 97.8799 51.4463C97.6618 51.277 97.2663 51.1061 96.6934 50.9336C96.1204 50.7611 95.6647 50.569 95.3262 50.3574C94.6784 49.9505 94.3545 49.4199 94.3545 48.7656C94.3545 48.1927 94.5872 47.7207 95.0527 47.3496C95.5215 46.9785 96.1286 46.793 96.874 46.793C97.3688 46.793 97.8099 46.8841 98.1973 47.0664C98.5846 47.2487 98.889 47.5091 99.1104 47.8477C99.3317 48.1829 99.4424 48.5557 99.4424 48.9658H98.2119C98.2119 48.5947 98.0947 48.305 97.8604 48.0967C97.6292 47.8851 97.2972 47.7793 96.8643 47.7793C96.4606 47.7793 96.1465 47.8656 95.9219 48.0381C95.7005 48.2106 95.5898 48.4515 95.5898 48.7607C95.5898 49.0212 95.7103 49.2393 95.9512 49.415C96.1921 49.5876 96.5892 49.7568 97.1426 49.9229C97.696 50.0856 98.1403 50.2728 98.4756 50.4844C98.8109 50.6927 99.0566 50.9336 99.2129 51.207C99.3691 51.4772 99.4473 51.7946 99.4473 52.1592C99.4473 52.7516 99.2194 53.2236 98.7637 53.5752C98.3112 53.9235 97.696 54.0977 96.918 54.0977C96.4036 54.0977 95.93 54.0033 95.4971 53.8145C95.0674 53.6224 94.7321 53.3587 94.4912 53.0234C94.2536 52.6882 94.1348 52.2975 94.1348 51.8516H95.3701C95.3701 52.2552 95.5036 52.5677 95.7705 52.7891C96.0374 53.0104 96.4199 53.1211 96.918 53.1211C97.3477 53.1211 97.6699 53.0348 97.8848 52.8623C98.1029 52.6865 98.2119 52.4554 98.2119 52.1689ZM106.668 47.8867H104.451V54H103.226V47.8867H101.028V46.8906H106.668V47.8867ZM111.999 52.3447H109.245L108.669 54H107.385L110.07 46.8906H111.179L113.869 54H112.58L111.999 52.3447ZM109.592 51.3486H111.652L110.622 48.3994L109.592 51.3486ZM121.319 54H120.084L116.915 48.9561V54H115.68V46.8906H116.915L120.094 51.9541V46.8906H121.319V54ZM125.82 50.9287L125.015 51.7832V54H123.779V46.8906H125.015V50.2256L125.698 49.3809L127.778 46.8906H129.272L126.631 50.04L129.424 54H127.959L125.82 50.9287ZM136.605 50.6309C136.605 51.3275 136.485 51.9395 136.244 52.4668C136.003 52.9909 135.658 53.3945 135.209 53.6777C134.763 53.9577 134.249 54.0977 133.666 54.0977C133.09 54.0977 132.576 53.9577 132.123 53.6777C131.674 53.3945 131.326 52.9925 131.078 52.4717C130.834 51.9508 130.71 51.3503 130.707 50.6699V50.2695C130.707 49.5762 130.829 48.9642 131.073 48.4336C131.321 47.903 131.667 47.4977 132.113 47.2178C132.562 46.9346 133.077 46.793 133.656 46.793C134.236 46.793 134.748 46.9329 135.194 47.2129C135.644 47.4896 135.99 47.89 136.234 48.4141C136.479 48.9349 136.602 49.542 136.605 50.2354V50.6309ZM135.37 50.2598C135.37 49.472 135.22 48.8682 134.921 48.4482C134.625 48.0283 134.203 47.8184 133.656 47.8184C133.122 47.8184 132.704 48.0283 132.401 48.4482C132.102 48.8649 131.949 49.4557 131.942 50.2207V50.6309C131.942 51.4121 132.094 52.016 132.396 52.4424C132.702 52.8688 133.126 53.082 133.666 53.082C134.213 53.082 134.633 52.8737 134.926 52.457C135.222 52.0404 135.37 51.4316 135.37 50.6309V50.2598ZM134.018 44.9863H135.37L134.018 46.4658H133.065L134.018 44.9863ZM144.412 52.2422L145.506 46.8906H146.731L145.091 54H143.909L142.557 48.8096L141.175 54H139.988L138.348 46.8906H139.573L140.677 52.2324L142.034 46.8906H143.069L144.412 52.2422Z" fill="#888888"/>
<path d="M53.958 336.358V339H52.7227V331.891H55.4424C56.2367 331.891 56.8665 332.097 57.332 332.511C57.8008 332.924 58.0352 333.471 58.0352 334.151C58.0352 334.848 57.8057 335.39 57.3467 335.777C56.891 336.165 56.2513 336.358 55.4277 336.358H53.958ZM53.958 335.367H55.4424C55.8818 335.367 56.2171 335.265 56.4482 335.06C56.6794 334.851 56.7949 334.552 56.7949 334.161C56.7949 333.777 56.6777 333.471 56.4434 333.243C56.209 333.012 55.8867 332.893 55.4766 332.887H53.958V335.367ZM65.793 335.631C65.793 336.327 65.6725 336.939 65.4316 337.467C65.1908 337.991 64.8457 338.395 64.3965 338.678C63.9505 338.958 63.4362 339.098 62.8535 339.098C62.2773 339.098 61.763 338.958 61.3105 338.678C60.8613 338.395 60.513 337.993 60.2656 337.472C60.0215 336.951 59.8978 336.35 59.8945 335.67V335.27C59.8945 334.576 60.0166 333.964 60.2607 333.434C60.5081 332.903 60.8548 332.498 61.3008 332.218C61.75 331.935 62.2643 331.793 62.8438 331.793C63.4232 331.793 63.9359 331.933 64.3818 332.213C64.8311 332.49 65.1777 332.89 65.4219 333.414C65.666 333.935 65.7897 334.542 65.793 335.235V335.631ZM64.5576 335.26C64.5576 334.472 64.4079 333.868 64.1084 333.448C63.8122 333.028 63.3906 332.818 62.8438 332.818C62.3099 332.818 61.8916 333.028 61.5889 333.448C61.2894 333.865 61.1364 334.456 61.1299 335.221V335.631C61.1299 336.412 61.2812 337.016 61.584 337.442C61.89 337.869 62.3132 338.082 62.8535 338.082C63.4004 338.082 63.8203 337.874 64.1133 337.457C64.4095 337.04 64.5576 336.432 64.5576 335.631V335.26ZM73.4482 336.686C73.3766 337.444 73.0967 338.036 72.6084 338.463C72.1201 338.886 71.4707 339.098 70.6602 339.098C70.0938 339.098 69.5941 338.964 69.1611 338.697C68.7314 338.427 68.3994 338.045 68.165 337.55C67.9307 337.055 67.8086 336.48 67.7988 335.826V335.162C67.7988 334.492 67.9176 333.901 68.1553 333.39C68.3929 332.879 68.7331 332.485 69.1758 332.208C69.6217 331.931 70.1361 331.793 70.7188 331.793C71.5033 331.793 72.1348 332.006 72.6133 332.433C73.0918 332.859 73.3701 333.461 73.4482 334.239H72.2178C72.1592 333.728 72.0094 333.36 71.7686 333.136C71.5309 332.908 71.181 332.794 70.7188 332.794C70.1816 332.794 69.7682 332.991 69.4785 333.385C69.1921 333.775 69.0456 334.35 69.0391 335.108V335.738C69.0391 336.507 69.1758 337.092 69.4492 337.496C69.7259 337.9 70.1296 338.102 70.6602 338.102C71.1452 338.102 71.5098 337.993 71.7539 337.774C71.998 337.556 72.1527 337.193 72.2178 336.686H73.4482ZM76.7188 338.014H80.5176V339H75.2246V338.199L78.9014 332.887H75.249V331.891H80.4004V332.672L76.7188 338.014ZM85.8096 331.891L88.5 339H88.1973C87.9141 339.182 87.7122 339.35 87.5918 339.503C87.4714 339.656 87.4111 339.812 87.4111 339.972C87.4111 340.193 87.5267 340.304 87.7578 340.304C87.901 340.304 88.0475 340.266 88.1973 340.191L88.2998 340.885C88.0622 341.028 87.7936 341.1 87.4941 341.1C87.1849 341.1 86.9359 341.01 86.7471 340.831C86.5583 340.652 86.4639 340.414 86.4639 340.118C86.4639 339.659 86.7064 339.27 87.1914 338.951L86.6299 337.345H83.876L83.2998 339H82.0156L84.7012 331.891H85.8096ZM84.2227 336.349H86.2832L85.2529 333.399L84.2227 336.349ZM94.8613 332.887H92.6445V339H91.4189V332.887H89.2217V331.891H94.8613V332.887ZM100.954 335.826H98.0342V338.014H101.447V339H96.7988V331.891H101.413V332.887H98.0342V334.85H100.954V335.826ZM105.494 335.929L104.688 336.783V339H103.453V331.891H104.688V335.226L105.372 334.381L107.452 331.891H108.946L106.305 335.04L109.098 339H107.633L105.494 335.929Z" fill="#888888"/>
<path d="M794.598 335.929L793.792 336.783V339H792.557V331.891H793.792V335.226L794.476 334.381L796.556 331.891H798.05L795.408 335.04L798.201 339H796.736L794.598 335.929ZM805.383 335.631C805.383 336.327 805.262 336.939 805.021 337.467C804.781 337.991 804.436 338.395 803.986 338.678C803.54 338.958 803.026 339.098 802.443 339.098C801.867 339.098 801.353 338.958 800.9 338.678C800.451 338.395 800.103 337.993 799.855 337.472C799.611 336.951 799.488 336.35 799.484 335.67V335.27C799.484 334.576 799.606 333.964 799.851 333.434C800.098 332.903 800.445 332.498 800.891 332.218C801.34 331.935 801.854 331.793 802.434 331.793C803.013 331.793 803.526 331.933 803.972 332.213C804.421 332.49 804.768 332.89 805.012 333.414C805.256 333.935 805.38 334.542 805.383 335.235V335.631ZM804.147 335.26C804.147 334.472 803.998 333.868 803.698 333.448C803.402 333.028 802.98 332.818 802.434 332.818C801.9 332.818 801.481 333.028 801.179 333.448C800.879 333.865 800.726 334.456 800.72 335.221V335.631C800.72 336.412 800.871 337.016 801.174 337.442C801.48 337.869 801.903 338.082 802.443 338.082C802.99 338.082 803.41 337.874 803.703 337.457C803.999 337.04 804.147 336.432 804.147 335.631V335.26ZM813.253 339H812.018L808.849 333.956V339H807.613V331.891H808.849L812.027 336.954V331.891H813.253V339ZM817.017 339H815.786V331.891H817.017V339ZM823.69 335.826H820.771V338.014H824.184V339H819.535V331.891H824.149V332.887H820.771V334.85H823.69V335.826ZM831.614 336.686C831.543 337.444 831.263 338.036 830.774 338.463C830.286 338.886 829.637 339.098 828.826 339.098C828.26 339.098 827.76 338.964 827.327 338.697C826.897 338.427 826.565 338.045 826.331 337.55C826.097 337.055 825.975 336.48 825.965 335.826V335.162C825.965 334.492 826.084 333.901 826.321 333.39C826.559 332.879 826.899 332.485 827.342 332.208C827.788 331.931 828.302 331.793 828.885 331.793C829.669 331.793 830.301 332.006 830.779 332.433C831.258 332.859 831.536 333.461 831.614 334.239H830.384C830.325 333.728 830.175 333.36 829.935 333.136C829.697 332.908 829.347 332.794 828.885 332.794C828.348 332.794 827.934 332.991 827.645 333.385C827.358 333.775 827.212 334.35 827.205 335.108V335.738C827.205 336.507 827.342 337.092 827.615 337.496C827.892 337.9 828.296 338.102 828.826 338.102C829.311 338.102 829.676 337.993 829.92 337.774C830.164 337.556 830.319 337.193 830.384 336.686H831.614Z" fill="#888888"/>
<path d="M203.335 336.261H201.958V339H200.723V331.891H203.223C204.043 331.891 204.676 332.075 205.122 332.442C205.568 332.81 205.791 333.342 205.791 334.039C205.791 334.514 205.675 334.913 205.444 335.235C205.216 335.554 204.897 335.8 204.487 335.973L206.084 338.937V339H204.761L203.335 336.261ZM201.958 335.27H203.228C203.644 335.27 203.97 335.165 204.204 334.957C204.438 334.745 204.556 334.457 204.556 334.093C204.556 333.712 204.447 333.417 204.229 333.209C204.014 333.001 203.691 332.893 203.262 332.887H201.958V335.27ZM211.942 337.345H209.188L208.612 339H207.328L210.014 331.891H211.122L213.812 339H212.523L211.942 337.345ZM209.535 336.349H211.596L210.565 333.399L209.535 336.349ZM220.94 336.686C220.869 337.444 220.589 338.036 220.101 338.463C219.612 338.886 218.963 339.098 218.152 339.098C217.586 339.098 217.086 338.964 216.653 338.697C216.224 338.427 215.892 338.045 215.657 337.55C215.423 337.055 215.301 336.48 215.291 335.826V335.162C215.291 334.492 215.41 333.901 215.647 333.39C215.885 332.879 216.225 332.485 216.668 332.208C217.114 331.931 217.628 331.793 218.211 331.793C218.995 331.793 219.627 332.006 220.105 332.433C220.584 332.859 220.862 333.461 220.94 334.239H219.71C219.651 333.728 219.502 333.36 219.261 333.136C219.023 332.908 218.673 332.794 218.211 332.794C217.674 332.794 217.26 332.991 216.971 333.385C216.684 333.775 216.538 334.35 216.531 335.108V335.738C216.531 336.507 216.668 337.092 216.941 337.496C217.218 337.9 217.622 338.102 218.152 338.102C218.637 338.102 219.002 337.993 219.246 337.774C219.49 337.556 219.645 337.193 219.71 336.686H220.94ZM224.353 339H223.122V331.891H224.353V339ZM226.871 339V331.891H229.308C230.112 331.891 230.724 332.052 231.144 332.374C231.563 332.696 231.773 333.176 231.773 333.814C231.773 334.14 231.686 334.433 231.51 334.693C231.334 334.954 231.077 335.156 230.738 335.299C231.122 335.403 231.419 335.6 231.627 335.89C231.839 336.176 231.944 336.521 231.944 336.925C231.944 337.592 231.729 338.105 231.3 338.463C230.873 338.821 230.261 339 229.464 339H226.871ZM228.106 335.792V338.014H229.479C229.866 338.014 230.169 337.918 230.387 337.726C230.605 337.534 230.714 337.267 230.714 336.925C230.714 336.186 230.336 335.808 229.581 335.792H228.106ZM228.106 334.884H229.317C229.701 334.884 230.001 334.798 230.216 334.625C230.434 334.449 230.543 334.202 230.543 333.883C230.543 333.531 230.442 333.277 230.24 333.121C230.042 332.965 229.731 332.887 229.308 332.887H228.106V334.884ZM239.854 335.631C239.854 336.327 239.733 336.939 239.492 337.467C239.251 337.991 238.906 338.395 238.457 338.678C238.011 338.958 237.497 339.098 236.914 339.098C236.338 339.098 235.824 338.958 235.371 338.678C234.922 338.395 234.574 337.993 234.326 337.472C234.082 336.951 233.958 336.35 233.955 335.67V335.27C233.955 334.576 234.077 333.964 234.321 333.434C234.569 332.903 234.915 332.498 235.361 332.218C235.811 331.935 236.325 331.793 236.904 331.793C237.484 331.793 237.996 331.933 238.442 332.213C238.892 332.49 239.238 332.89 239.482 333.414C239.727 333.935 239.85 334.542 239.854 335.235V335.631ZM238.618 335.26C238.618 334.472 238.468 333.868 238.169 333.448C237.873 333.028 237.451 332.818 236.904 332.818C236.37 332.818 235.952 333.028 235.649 333.448C235.35 333.865 235.197 334.456 235.19 335.221V335.631C235.19 336.412 235.342 337.016 235.645 337.442C235.951 337.869 236.374 338.082 236.914 338.082C237.461 338.082 237.881 337.874 238.174 337.457C238.47 337.04 238.618 336.432 238.618 335.631V335.26ZM244.696 336.261H243.319V339H242.084V331.891H244.584C245.404 331.891 246.037 332.075 246.483 332.442C246.929 332.81 247.152 333.342 247.152 334.039C247.152 334.514 247.037 334.913 246.806 335.235C246.578 335.554 246.259 335.8 245.849 335.973L247.445 338.937V339H246.122L244.696 336.261ZM243.319 335.27H244.589C245.006 335.27 245.331 335.165 245.565 334.957C245.8 334.745 245.917 334.457 245.917 334.093C245.917 333.712 245.808 333.417 245.59 333.209C245.375 333.001 245.053 332.893 244.623 332.887H243.319V335.27ZM253.04 337.169C253.04 336.856 252.929 336.616 252.708 336.446C252.49 336.277 252.094 336.106 251.521 335.934C250.949 335.761 250.493 335.569 250.154 335.357C249.507 334.951 249.183 334.42 249.183 333.766C249.183 333.193 249.415 332.721 249.881 332.35C250.35 331.979 250.957 331.793 251.702 331.793C252.197 331.793 252.638 331.884 253.025 332.066C253.413 332.249 253.717 332.509 253.938 332.848C254.16 333.183 254.271 333.556 254.271 333.966H253.04C253.04 333.595 252.923 333.305 252.688 333.097C252.457 332.885 252.125 332.779 251.692 332.779C251.289 332.779 250.975 332.866 250.75 333.038C250.529 333.211 250.418 333.451 250.418 333.761C250.418 334.021 250.538 334.239 250.779 334.415C251.02 334.588 251.417 334.757 251.971 334.923C252.524 335.086 252.968 335.273 253.304 335.484C253.639 335.693 253.885 335.934 254.041 336.207C254.197 336.477 254.275 336.795 254.275 337.159C254.275 337.752 254.048 338.224 253.592 338.575C253.139 338.924 252.524 339.098 251.746 339.098C251.232 339.098 250.758 339.003 250.325 338.814C249.896 338.622 249.56 338.359 249.319 338.023C249.082 337.688 248.963 337.298 248.963 336.852H250.198C250.198 337.255 250.332 337.568 250.599 337.789C250.866 338.01 251.248 338.121 251.746 338.121C252.176 338.121 252.498 338.035 252.713 337.862C252.931 337.687 253.04 337.455 253.04 337.169ZM258.4 335.929L257.595 336.783V339H256.359V331.891H257.595V335.226L258.278 334.381L260.358 331.891H261.853L259.211 335.04L262.004 339H260.539L258.4 335.929ZM267.647 337.345H264.894L264.317 339H263.033L265.719 331.891H266.827L269.518 339H268.229L267.647 337.345ZM265.24 336.349H267.301L266.271 333.399L265.24 336.349ZM279.262 336.007C279.262 337.029 279.07 337.8 278.686 338.321C278.305 338.839 277.724 339.098 276.942 339.098C276.174 339.098 275.595 338.845 275.204 338.341C274.817 337.833 274.618 337.083 274.608 336.09V334.859C274.608 333.837 274.799 333.071 275.18 332.56C275.564 332.049 276.148 331.793 276.933 331.793C277.711 331.793 278.29 332.042 278.671 332.54C279.055 333.038 279.252 333.784 279.262 334.776V336.007ZM278.075 334.679C278.075 334.011 277.984 333.523 277.802 333.214C277.619 332.901 277.33 332.745 276.933 332.745C276.545 332.745 276.26 332.893 276.078 333.189C275.896 333.482 275.8 333.941 275.79 334.566V336.178C275.79 336.842 275.883 337.337 276.068 337.662C276.254 337.988 276.545 338.15 276.942 338.15C277.323 338.15 277.605 338.001 277.787 337.701C277.969 337.398 278.065 336.926 278.075 336.285V334.679ZM284.524 339H283.343V333.292L281.6 333.888V332.887L284.373 331.866H284.524V339Z" fill="#222222"/>
<circle cx="570" cy="51" r="6" fill="#888888"/>
<path d="M587.335 51.2607H585.958V54H584.723V46.8906H587.223C588.043 46.8906 588.676 47.0745 589.122 47.4424C589.568 47.8102 589.791 48.3424 589.791 49.0391C589.791 49.5143 589.675 49.9131 589.444 50.2354C589.216 50.5544 588.897 50.8001 588.487 50.9727L590.084 53.9365V54H588.761L587.335 51.2607ZM585.958 50.2695H587.228C587.644 50.2695 587.97 50.1654 588.204 49.957C588.438 49.7454 588.556 49.4574 588.556 49.0928C588.556 48.7119 588.447 48.4173 588.229 48.209C588.014 48.0007 587.691 47.8932 587.262 47.8867H585.958V50.2695ZM595.942 52.3447H593.188L592.612 54H591.328L594.014 46.8906H595.122L597.812 54H596.523L595.942 52.3447ZM593.535 51.3486H595.596L594.565 48.3994L593.535 51.3486ZM605.263 54H604.027L600.858 48.9561V54H599.623V46.8906H600.858L604.037 51.9541V46.8906H605.263V54ZM613.396 50.6309C613.396 51.3275 613.276 51.9395 613.035 52.4668C612.794 52.9909 612.449 53.3945 612 53.6777C611.554 53.9577 611.04 54.0977 610.457 54.0977C609.881 54.0977 609.367 53.9577 608.914 53.6777C608.465 53.3945 608.117 52.9925 607.869 52.4717C607.625 51.9508 607.501 51.3503 607.498 50.6699V50.2695C607.498 49.5762 607.62 48.9642 607.864 48.4336C608.112 47.903 608.458 47.4977 608.904 47.2178C609.354 46.9346 609.868 46.793 610.447 46.793C611.027 46.793 611.539 46.9329 611.985 47.2129C612.435 47.4896 612.781 47.89 613.025 48.4141C613.27 48.9349 613.393 49.542 613.396 50.2354V50.6309ZM612.161 50.2598C612.161 49.472 612.011 48.8682 611.712 48.4482C611.416 48.0283 610.994 47.8184 610.447 47.8184C609.913 47.8184 609.495 48.0283 609.192 48.4482C608.893 48.8649 608.74 49.4557 608.733 50.2207V50.6309C608.733 51.4121 608.885 52.016 609.188 52.4424C609.493 52.8688 609.917 53.082 610.457 53.082C611.004 53.082 611.424 52.8737 611.717 52.457C612.013 52.0404 612.161 51.4316 612.161 50.6309V50.2598Z" fill="#888888"/>
<circle cx="644" cy="51" r="6" fill="#B4B4B4"/>
<path d="M659.958 51.3584V54H658.723V46.8906H661.442C662.237 46.8906 662.867 47.0973 663.332 47.5107C663.801 47.9242 664.035 48.471 664.035 49.1514C664.035 49.848 663.806 50.39 663.347 50.7773C662.891 51.1647 662.251 51.3584 661.428 51.3584H659.958ZM659.958 50.3672H661.442C661.882 50.3672 662.217 50.2646 662.448 50.0596C662.679 49.8512 662.795 49.5518 662.795 49.1611C662.795 48.777 662.678 48.471 662.443 48.2432C662.209 48.012 661.887 47.8932 661.477 47.8867H659.958V50.3672ZM671.793 50.6309C671.793 51.3275 671.673 51.9395 671.432 52.4668C671.191 52.9909 670.846 53.3945 670.396 53.6777C669.951 53.9577 669.436 54.0977 668.854 54.0977C668.277 54.0977 667.763 53.9577 667.311 53.6777C666.861 53.3945 666.513 52.9925 666.266 52.4717C666.021 51.9508 665.898 51.3503 665.895 50.6699V50.2695C665.895 49.5762 666.017 48.9642 666.261 48.4336C666.508 47.903 666.855 47.4977 667.301 47.2178C667.75 46.9346 668.264 46.793 668.844 46.793C669.423 46.793 669.936 46.9329 670.382 47.2129C670.831 47.4896 671.178 47.89 671.422 48.4141C671.666 48.9349 671.79 49.542 671.793 50.2354V50.6309ZM670.558 50.2598C670.558 49.472 670.408 48.8682 670.108 48.4482C669.812 48.0283 669.391 47.8184 668.844 47.8184C668.31 47.8184 667.892 48.0283 667.589 48.4482C667.289 48.8649 667.136 49.4557 667.13 50.2207V50.6309C667.13 51.4121 667.281 52.016 667.584 52.4424C667.89 52.8688 668.313 53.082 668.854 53.082C669.4 53.082 669.82 52.8737 670.113 52.457C670.41 52.0404 670.558 51.4316 670.558 50.6309V50.2598ZM683.188 50.6309C683.188 51.3275 683.067 51.9395 682.826 52.4668C682.585 52.9909 682.24 53.3945 681.791 53.6777C681.345 53.9577 680.831 54.0977 680.248 54.0977C679.672 54.0977 679.158 53.9577 678.705 53.6777C678.256 53.3945 677.908 52.9925 677.66 52.4717C677.416 51.9508 677.292 51.3503 677.289 50.6699V50.2695C677.289 49.5762 677.411 48.9642 677.655 48.4336C677.903 47.903 678.249 47.4977 678.695 47.2178C679.145 46.9346 679.659 46.793 680.238 46.793C680.818 46.793 681.33 46.9329 681.776 47.2129C682.226 47.4896 682.572 47.89 682.816 48.4141C683.061 48.9349 683.184 49.542 683.188 50.2354V50.6309ZM681.952 50.2598C681.952 49.472 681.802 48.8682 681.503 48.4482C681.207 48.0283 680.785 47.8184 680.238 47.8184C679.704 47.8184 679.286 48.0283 678.983 48.4482C678.684 48.8649 678.531 49.4557 678.524 50.2207V50.6309C678.524 51.4121 678.676 52.016 678.979 52.4424C679.285 52.8688 679.708 53.082 680.248 53.082C680.795 53.082 681.215 52.8737 681.508 52.457C681.804 52.0404 681.952 51.4316 681.952 50.6309V50.2598ZM685.418 54V46.8906H687.854C688.659 46.8906 689.271 47.0518 689.69 47.374C690.11 47.6963 690.32 48.1764 690.32 48.8145C690.32 49.14 690.232 49.4329 690.057 49.6934C689.881 49.9538 689.624 50.1556 689.285 50.2988C689.669 50.403 689.965 50.5999 690.174 50.8896C690.385 51.1761 690.491 51.5212 690.491 51.9248C690.491 52.5921 690.276 53.1048 689.847 53.4629C689.42 53.821 688.808 54 688.011 54H685.418ZM686.653 50.792V53.0137H688.025C688.413 53.0137 688.715 52.9176 688.934 52.7256C689.152 52.5335 689.261 52.2666 689.261 51.9248C689.261 51.1859 688.883 50.8083 688.128 50.792H686.653ZM686.653 49.8838H687.864C688.248 49.8838 688.548 49.7975 688.763 49.625C688.981 49.4492 689.09 49.2018 689.09 48.8828C689.09 48.5312 688.989 48.2773 688.787 48.1211C688.589 47.9648 688.278 47.8867 687.854 47.8867H686.653V49.8838ZM694.03 54H692.8V46.8906H694.03V54ZM700.704 50.8262H697.784V53.0137H701.197V54H696.549V46.8906H701.163V47.8867H697.784V49.8496H700.704V50.8262ZM703.203 54V46.8906H705.303C705.931 46.8906 706.488 47.0306 706.973 47.3105C707.461 47.5905 707.839 47.9876 708.105 48.502C708.372 49.0163 708.506 49.6055 708.506 50.2695V50.626C708.506 51.2998 708.371 51.8923 708.101 52.4033C707.834 52.9144 707.451 53.3083 706.953 53.585C706.458 53.8617 705.89 54 705.249 54H703.203ZM704.438 47.8867V53.0137H705.244C705.892 53.0137 706.388 52.8118 706.733 52.4082C707.082 52.0013 707.259 51.4186 707.266 50.6602V50.2646C707.266 49.4932 707.098 48.904 706.763 48.4971C706.427 48.0902 705.941 47.8867 705.303 47.8867H704.438ZM711.781 53.0137H715.58V54H710.287V53.1992L713.964 47.8867H710.312V46.8906H715.463V47.6719L711.781 53.0137ZM718.948 54H717.718V46.8906H718.948V54ZM725.622 50.8262H722.702V53.0137H726.115V54H721.467V46.8906H726.081V47.8867H722.702V49.8496H725.622V50.8262Z" fill="#888888"/>
<circle cx="760" cy="51" r="6" fill="#D9D9D9"/>
<path d="M780.299 52.2422L781.393 46.8906H782.618L780.978 54H779.796L778.443 48.8096L777.062 54H775.875L774.234 46.8906H775.46L776.563 52.2324L777.921 46.8906H778.956L780.299 52.2422ZM785.825 54H784.595V46.8906H785.825V54ZM792.499 50.8262H789.579V53.0137H792.992V54H788.344V46.8906H792.958V47.8867H789.579V49.8496H792.499V50.8262ZM800.423 51.6855C800.351 52.444 800.071 53.0365 799.583 53.4629C799.095 53.8861 798.445 54.0977 797.635 54.0977C797.068 54.0977 796.569 53.9642 796.136 53.6973C795.706 53.4271 795.374 53.0446 795.14 52.5498C794.905 52.055 794.783 51.4805 794.773 50.8262V50.1621C794.773 49.4915 794.892 48.9007 795.13 48.3896C795.368 47.8786 795.708 47.4847 796.15 47.208C796.596 46.9313 797.111 46.793 797.693 46.793C798.478 46.793 799.109 47.0062 799.588 47.4326C800.066 47.859 800.345 48.4613 800.423 49.2393H799.192C799.134 48.7282 798.984 48.3604 798.743 48.1357C798.506 47.9079 798.156 47.7939 797.693 47.7939C797.156 47.7939 796.743 47.9909 796.453 48.3848C796.167 48.7754 796.02 49.3499 796.014 50.1084V50.7383C796.014 51.5065 796.15 52.0924 796.424 52.4961C796.701 52.8997 797.104 53.1016 797.635 53.1016C798.12 53.1016 798.484 52.9925 798.729 52.7744C798.973 52.5563 799.127 52.1934 799.192 51.6855H800.423ZM803.693 53.0137H807.492V54H802.199V53.1992L805.876 47.8867H802.224V46.8906H807.375V47.6719L803.693 53.0137ZM815.104 50.6309C815.104 51.3275 814.983 51.9395 814.742 52.4668C814.501 52.9909 814.156 53.3945 813.707 53.6777C813.261 53.9577 812.747 54.0977 812.164 54.0977C811.588 54.0977 811.074 53.9577 810.621 53.6777C810.172 53.3945 809.824 52.9925 809.576 52.4717C809.332 51.9508 809.208 51.3503 809.205 50.6699V50.2695C809.205 49.5762 809.327 48.9642 809.571 48.4336C809.819 47.903 810.165 47.4977 810.611 47.2178C811.061 46.9346 811.575 46.793 812.154 46.793C812.734 46.793 813.246 46.9329 813.692 47.2129C814.142 47.4896 814.488 47.89 814.732 48.4141C814.977 48.9349 815.1 49.542 815.104 50.2354V50.6309ZM813.868 50.2598C813.868 49.472 813.718 48.8682 813.419 48.4482C813.123 48.0283 812.701 47.8184 812.154 47.8184C811.62 47.8184 811.202 48.0283 810.899 48.4482C810.6 48.8649 810.447 49.4557 810.44 50.2207V50.6309C810.44 51.4121 810.592 52.016 810.895 52.4424C811.201 52.8688 811.624 53.082 812.164 53.082C812.711 53.082 813.131 52.8737 813.424 52.457C813.72 52.0404 813.868 51.4316 813.868 50.6309V50.2598ZM819.946 51.2607H818.569V54H817.334V46.8906H819.834C820.654 46.8906 821.287 47.0745 821.733 47.4424C822.179 47.8102 822.402 48.3424 822.402 49.0391C822.402 49.5143 822.287 49.9131 822.056 50.2354C821.828 50.5544 821.509 50.8001 821.099 50.9727L822.695 53.9365V54H821.372L819.946 51.2607ZM818.569 50.2695H819.839C820.256 50.2695 820.581 50.1654 820.815 49.957C821.05 49.7454 821.167 49.4574 821.167 49.0928C821.167 48.7119 821.058 48.4173 820.84 48.209C820.625 48.0007 820.303 47.8932 819.873 47.8867H818.569V50.2695ZM828.729 50.8262H825.81V53.0137H829.223V54H824.574V46.8906H829.188V47.8867H825.81V49.8496H828.729V50.8262ZM832.83 46.8906L834.881 52.3398L836.927 46.8906H838.523V54H837.293V51.6562L837.415 48.5215L835.315 54H834.432L832.337 48.5264L832.459 51.6562V54H831.229V46.8906H832.83Z" fill="#888888"/>
<g filter="url(#filter0_d_22_862)">
<rect x="112" y="116" width="160" height="40" rx="6" fill="white"/>
<rect x="192" y="142" width="16" height="16" rx="4" transform="rotate(45 192 142)" fill="white"/>
<path d="M166.055 134.461V136.531H165.938C164.953 136.531 164.143 136.768 163.508 137.242C162.878 137.711 162.49 138.365 162.344 139.203C162.938 138.62 163.688 138.328 164.594 138.328C165.578 138.328 166.362 138.688 166.945 139.406C167.529 140.125 167.82 141.068 167.82 142.234C167.82 142.958 167.648 143.622 167.305 144.227C166.966 144.831 166.49 145.305 165.875 145.648C165.266 145.987 164.589 146.156 163.844 146.156C163.036 146.156 162.315 145.974 161.68 145.609C161.044 145.24 160.549 144.714 160.195 144.031C159.841 143.349 159.659 142.562 159.648 141.672V140.617C159.648 139.445 159.898 138.393 160.398 137.461C160.904 136.523 161.622 135.789 162.555 135.258C163.487 134.727 164.521 134.461 165.656 134.461H166.055ZM163.68 140.344C163.331 140.344 163.039 140.424 162.805 140.586C162.57 140.747 162.396 140.945 162.281 141.18V141.969C162.281 143.406 162.779 144.125 163.773 144.125C164.174 144.125 164.508 143.945 164.773 143.586C165.044 143.227 165.18 142.776 165.18 142.234C165.18 141.677 165.042 141.224 164.766 140.875C164.495 140.521 164.133 140.344 163.68 140.344ZM176.898 146H168.961V144.281L172.617 140.438C173.518 139.411 173.969 138.596 173.969 137.992C173.969 137.503 173.862 137.13 173.648 136.875C173.435 136.62 173.125 136.492 172.719 136.492C172.318 136.492 171.992 136.664 171.742 137.008C171.492 137.346 171.367 137.771 171.367 138.281H168.727C168.727 137.583 168.901 136.94 169.25 136.352C169.599 135.758 170.083 135.294 170.703 134.961C171.323 134.628 172.016 134.461 172.781 134.461C174.01 134.461 174.956 134.745 175.617 135.312C176.284 135.88 176.617 136.695 176.617 137.758C176.617 138.206 176.534 138.643 176.367 139.07C176.201 139.492 175.94 139.938 175.586 140.406C175.237 140.87 174.672 141.492 173.891 142.273L172.422 143.969H176.898V146ZM186.125 141.352C186.125 142.888 185.779 144.073 185.086 144.906C184.398 145.74 183.427 146.156 182.172 146.156C180.906 146.156 179.927 145.737 179.234 144.898C178.542 144.06 178.195 142.878 178.195 141.352V139.273C178.195 137.737 178.539 136.552 179.227 135.719C179.919 134.885 180.896 134.469 182.156 134.469C183.417 134.469 184.393 134.888 185.086 135.727C185.779 136.565 186.125 137.75 186.125 139.281V141.352ZM183.492 138.938C183.492 138.12 183.385 137.51 183.172 137.109C182.958 136.703 182.62 136.5 182.156 136.5C181.703 136.5 181.372 136.688 181.164 137.062C180.961 137.438 180.852 138.005 180.836 138.766V141.672C180.836 142.521 180.943 143.143 181.156 143.539C181.37 143.93 181.708 144.125 182.172 144.125C182.62 144.125 182.951 143.935 183.164 143.555C183.378 143.169 183.487 142.568 183.492 141.75V138.938Z" fill="#222222"/>
<path d="M217.648 141.555H218.805V143.586H217.648V146H215.016V143.586H210.617L210.461 141.977L215.016 134.648V134.625H217.648V141.555ZM212.969 141.555H215.016V138.055L214.852 138.32L212.969 141.555ZM227.898 146H219.961V144.281L223.617 140.438C224.518 139.411 224.969 138.596 224.969 137.992C224.969 137.503 224.862 137.13 224.648 136.875C224.435 136.62 224.125 136.492 223.719 136.492C223.318 136.492 222.992 136.664 222.742 137.008C222.492 137.346 222.367 137.771 222.367 138.281H219.727C219.727 137.583 219.901 136.94 220.25 136.352C220.599 135.758 221.083 135.294 221.703 134.961C222.323 134.628 223.016 134.461 223.781 134.461C225.01 134.461 225.956 134.745 226.617 135.312C227.284 135.88 227.617 136.695 227.617 137.758C227.617 138.206 227.534 138.643 227.367 139.07C227.201 139.492 226.94 139.938 226.586 140.406C226.237 140.87 225.672 141.492 224.891 142.273L223.422 143.969H227.898V146ZM234.414 141.602C233.846 142.112 233.211 142.367 232.508 142.367C231.477 142.367 230.659 142.018 230.055 141.32C229.451 140.622 229.148 139.69 229.148 138.523C229.148 137.794 229.318 137.117 229.656 136.492C229.995 135.867 230.469 135.372 231.078 135.008C231.693 134.643 232.37 134.461 233.109 134.461C233.859 134.461 234.536 134.651 235.141 135.031C235.75 135.406 236.224 135.94 236.562 136.633C236.901 137.32 237.076 138.115 237.086 139.016V140.023C237.086 141.279 236.839 142.367 236.344 143.289C235.854 144.211 235.154 144.919 234.242 145.414C233.331 145.909 232.268 146.156 231.055 146.156H230.891V144.047L231.391 144.039C233.203 143.951 234.211 143.138 234.414 141.602ZM233.219 140.469C233.792 140.469 234.203 140.221 234.453 139.727V138.633C234.453 137.904 234.331 137.365 234.086 137.016C233.841 136.667 233.51 136.492 233.094 136.492C232.724 136.492 232.414 136.69 232.164 137.086C231.914 137.482 231.789 137.961 231.789 138.523C231.789 139.117 231.917 139.591 232.172 139.945C232.427 140.294 232.776 140.469 233.219 140.469Z" fill="#222222"/>
<path d="M163.409 127.77L164.175 124.023H165.033L163.884 129H163.057L162.11 125.367L161.143 129H160.312L159.164 124.023H160.022L160.794 127.763L161.745 124.023H162.469L163.409 127.77ZM168.966 127.718C168.966 127.5 168.889 127.331 168.734 127.212C168.581 127.094 168.304 126.974 167.903 126.854C167.502 126.733 167.183 126.598 166.946 126.45C166.493 126.165 166.266 125.794 166.266 125.336C166.266 124.935 166.429 124.604 166.755 124.345C167.083 124.085 167.508 123.955 168.03 123.955C168.376 123.955 168.685 124.019 168.956 124.146C169.227 124.274 169.44 124.456 169.595 124.693C169.75 124.928 169.827 125.189 169.827 125.476H168.966C168.966 125.216 168.884 125.014 168.72 124.868C168.558 124.72 168.326 124.646 168.023 124.646C167.74 124.646 167.52 124.706 167.363 124.827C167.208 124.947 167.131 125.116 167.131 125.333C167.131 125.515 167.215 125.667 167.384 125.791C167.552 125.911 167.83 126.03 168.218 126.146C168.605 126.26 168.916 126.391 169.151 126.539C169.385 126.685 169.557 126.854 169.667 127.045C169.776 127.234 169.831 127.456 169.831 127.711C169.831 128.126 169.671 128.457 169.352 128.703C169.036 128.946 168.605 129.068 168.06 129.068C167.7 129.068 167.369 129.002 167.066 128.87C166.765 128.736 166.53 128.551 166.362 128.316C166.195 128.082 166.112 127.808 166.112 127.496H166.977C166.977 127.779 167.07 127.997 167.257 128.152C167.444 128.307 167.712 128.385 168.06 128.385C168.361 128.385 168.587 128.324 168.737 128.204C168.89 128.081 168.966 127.919 168.966 127.718ZM172.202 129H171.341V124.023H172.202V129ZM176.812 127.841H174.885L174.481 129H173.582L175.462 124.023H176.238L178.121 129H177.219L176.812 127.841ZM175.127 127.144H176.57L175.849 125.08L175.127 127.144ZM179.389 129V124.023H180.859C181.298 124.023 181.688 124.121 182.028 124.317C182.369 124.513 182.634 124.791 182.821 125.151C183.007 125.511 183.101 125.924 183.101 126.389V126.638C183.101 127.11 183.006 127.525 182.817 127.882C182.63 128.24 182.362 128.516 182.014 128.709C181.668 128.903 181.27 129 180.821 129H179.389ZM180.254 124.721V128.31H180.818C181.271 128.31 181.619 128.168 181.86 127.886C182.104 127.601 182.228 127.193 182.233 126.662V126.385C182.233 125.845 182.115 125.433 181.881 125.148C181.646 124.863 181.305 124.721 180.859 124.721H180.254ZM185.582 126.023L186.381 125.78V126.283L185.582 126.525V128.31H187.841V129H184.717V126.789L184.272 126.922V126.419L184.717 126.286V124.023H185.582V126.023ZM193.176 126.642C193.176 127.129 193.091 127.558 192.923 127.927C192.754 128.294 192.513 128.576 192.198 128.774C191.886 128.97 191.526 129.068 191.118 129.068C190.715 129.068 190.355 128.97 190.038 128.774C189.723 128.576 189.48 128.295 189.306 127.93C189.136 127.566 189.049 127.145 189.047 126.669V126.389C189.047 125.903 189.132 125.475 189.303 125.104C189.476 124.732 189.719 124.448 190.031 124.252C190.346 124.054 190.706 123.955 191.111 123.955C191.517 123.955 191.876 124.053 192.188 124.249C192.502 124.443 192.745 124.723 192.916 125.09C193.087 125.454 193.173 125.879 193.176 126.365V126.642ZM192.311 126.382C192.311 125.83 192.206 125.408 191.996 125.114C191.789 124.82 191.494 124.673 191.111 124.673C190.737 124.673 190.445 124.82 190.233 125.114C190.023 125.405 189.916 125.819 189.911 126.354V126.642C189.911 127.188 190.017 127.611 190.229 127.91C190.443 128.208 190.74 128.357 191.118 128.357C191.501 128.357 191.795 128.212 192 127.92C192.207 127.628 192.311 127.202 192.311 126.642V126.382Z" fill="#888888"/>
<path d="M214.409 127.77L215.175 124.023H216.033L214.884 129H214.057L213.11 125.367L212.143 129H211.312L210.164 124.023H211.022L211.794 127.763L212.745 124.023H213.469L214.409 127.77ZM218.989 126.382L220.134 124.023H221.091L219.423 127.168V129H218.554V127.168L216.883 124.023H217.844L218.989 126.382ZM224.877 127.718C224.877 127.5 224.8 127.331 224.645 127.212C224.492 127.094 224.215 126.974 223.814 126.854C223.413 126.733 223.094 126.598 222.857 126.45C222.404 126.165 222.177 125.794 222.177 125.336C222.177 124.935 222.34 124.604 222.666 124.345C222.994 124.085 223.419 123.955 223.941 123.955C224.287 123.955 224.596 124.019 224.867 124.146C225.138 124.274 225.351 124.456 225.506 124.693C225.661 124.928 225.738 125.189 225.738 125.476H224.877C224.877 125.216 224.795 125.014 224.631 124.868C224.469 124.72 224.237 124.646 223.934 124.646C223.651 124.646 223.431 124.706 223.274 124.827C223.119 124.947 223.042 125.116 223.042 125.333C223.042 125.515 223.126 125.667 223.295 125.791C223.463 125.911 223.741 126.03 224.129 126.146C224.516 126.26 224.827 126.391 225.062 126.539C225.296 126.685 225.468 126.854 225.578 127.045C225.687 127.234 225.742 127.456 225.742 127.711C225.742 128.126 225.582 128.457 225.263 128.703C224.947 128.946 224.516 129.068 223.971 129.068C223.611 129.068 223.28 129.002 222.977 128.87C222.676 128.736 222.441 128.551 222.273 128.316C222.106 128.082 222.023 127.808 222.023 127.496H222.888C222.888 127.779 222.981 127.997 223.168 128.152C223.355 128.307 223.623 128.385 223.971 128.385C224.272 128.385 224.498 128.324 224.648 128.204C224.801 128.081 224.877 127.919 224.877 127.718ZM228.113 129H227.252V124.023H228.113V129ZM232.723 127.841H230.796L230.392 129H229.493L231.373 124.023H232.149L234.032 129H233.13L232.723 127.841ZM231.038 127.144H232.481L231.759 125.08L231.038 127.144ZM235.3 129V124.023H236.77C237.209 124.023 237.599 124.121 237.938 124.317C238.28 124.513 238.545 124.791 238.731 125.151C238.918 125.511 239.012 125.924 239.012 126.389V126.638C239.012 127.11 238.917 127.525 238.728 127.882C238.541 128.24 238.273 128.516 237.925 128.709C237.578 128.903 237.181 129 236.732 129H235.3ZM236.165 124.721V128.31H236.729C237.182 128.31 237.529 128.168 237.771 127.886C238.015 127.601 238.139 127.193 238.144 126.662V126.385C238.144 125.845 238.026 125.433 237.792 125.148C237.557 124.863 237.216 124.721 236.77 124.721H236.165ZM241.492 126.023L242.292 125.78V126.283L241.492 126.525V128.31H243.752V129H240.628V126.789L240.183 126.922V126.419L240.628 126.286V124.023H241.492V126.023ZM249.087 126.642C249.087 127.129 249.002 127.558 248.834 127.927C248.665 128.294 248.423 128.576 248.109 128.774C247.797 128.97 247.437 129.068 247.029 129.068C246.626 129.068 246.266 128.97 245.949 128.774C245.634 128.576 245.391 128.295 245.217 127.93C245.046 127.566 244.96 127.145 244.958 126.669V126.389C244.958 125.903 245.043 125.475 245.214 125.104C245.387 124.732 245.63 124.448 245.942 124.252C246.256 124.054 246.616 123.955 247.022 123.955C247.428 123.955 247.787 124.053 248.099 124.249C248.413 124.443 248.656 124.723 248.827 125.09C248.998 125.454 249.084 125.879 249.087 126.365V126.642ZM248.222 126.382C248.222 125.83 248.117 125.408 247.907 125.114C247.7 124.82 247.405 124.673 247.022 124.673C246.648 124.673 246.356 124.82 246.144 125.114C245.934 125.405 245.827 125.819 245.822 126.354V126.642C245.822 127.188 245.928 127.611 246.14 127.91C246.354 128.208 246.651 128.357 247.029 128.357C247.412 128.357 247.706 128.212 247.911 127.92C248.118 127.628 248.222 127.202 248.222 126.642V126.382Z" fill="#888888"/>
<rect x="201" y="124" width="1" height="24" fill="#E5E5E5"/>
<rect x="116" y="120" width="32" height="32" rx="4" fill="#CD933B"/>
<path d="M128.667 141.667H126.667C126.313 141.667 125.974 141.526 125.724 141.276C125.474 141.026 125.333 140.687 125.333 140.333V135.667C125.333 135.313 125.474 134.974 125.724 134.724C125.974 134.474 126.313 134.333 126.667 134.333H128.667M133.333 133V130.333C133.333 129.803 133.123 129.294 132.748 128.919C132.372 128.544 131.864 128.333 131.333 128.333L128.667 134.333V141.667H136.187C136.508 141.67 136.82 141.558 137.065 141.349C137.31 141.141 137.472 140.851 137.52 140.533L138.44 134.533C138.469 134.342 138.456 134.147 138.402 133.962C138.348 133.776 138.255 133.604 138.128 133.458C138.001 133.313 137.844 133.196 137.668 133.117C137.491 133.038 137.3 132.998 137.107 133H133.333Z" stroke="white" stroke-width="2" stroke-linecap="round" stroke-linejoin="round"/>
</g>
<defs>
<filter id="filter0_d_22_862" x="104" y="108" width="176" height="65" filterUnits="userSpaceOnUse" color-interpolation-filters="sRGB">
<feFlood flood-opacity="0" result="BackgroundImageFix"/>
<feColorMatrix in="SourceAlpha" type="matrix" values="0 0 0 0 0 0 0 0 0 0 0 0 0 0 0 0 0 0 127 0" result="hardAlpha"/>
<feOffset/>
<feGaussianBlur stdDeviation="4"/>
<feComposite in2="hardAlpha" operator="out"/>
<feColorMatrix type="matrix" values="0 0 0 0 0 0 0 0 0 0 0 0 0 0 0 0 0 0 0.1 0"/>
<feBlend mode="normal" in2="BackgroundImageFix" result="effect1_dropShadow_22_862"/>
<feBlend mode="normal" in="SourceGraphic" in2="effect1_dropShadow_22_862" result="shape"/>
</filter>
<linearGradient id="paint0_linear_22_862" x1="41.1702" y1="158.775" x2="128.987" y2="160.507" gradientUnits="userSpaceOnUse">
<stop stop-color="#FCFCFC"/>
<stop offset="1" stop-color="#FCFCFC" stop-opacity="0"/>
</linearGradient>
<linearGradient id="paint1_linear_22_862" x1="913.17" y1="372.544" x2="1000.86" y2="376.328" gradientUnits="userSpaceOnUse">
<stop stop-color="#FCFCFC"/>
<stop offset="1" stop-color="#FCFCFC" stop-opacity="0"/>
</linearGradient>
</defs>
</svg>
