<svg width="169" height="473" viewBox="0 0 169 473" fill="none" xmlns="http://www.w3.org/2000/svg">
<path d="M3.50391 186.197C2.53906 185.92 1.83594 185.58 1.39453 185.178C0.957031 184.771 0.738281 184.271 0.738281 183.678C0.738281 183.006 1.00586 182.451 1.54102 182.014C2.08008 181.572 2.7793 181.352 3.63867 181.352C4.22461 181.352 4.74609 181.465 5.20312 181.691C5.66406 181.918 6.01953 182.23 6.26953 182.629C6.52344 183.027 6.65039 183.463 6.65039 183.936H5.51953C5.51953 183.42 5.35547 183.016 5.02734 182.723C4.69922 182.426 4.23633 182.277 3.63867 182.277C3.08398 182.277 2.65039 182.4 2.33789 182.646C2.0293 182.889 1.875 183.227 1.875 183.66C1.875 184.008 2.02148 184.303 2.31445 184.545C2.61133 184.783 3.11328 185.002 3.82031 185.201C4.53125 185.4 5.08594 185.621 5.48438 185.863C5.88672 186.102 6.18359 186.381 6.375 186.701C6.57031 187.021 6.66797 187.398 6.66797 187.832C6.66797 188.523 6.39844 189.078 5.85938 189.496C5.32031 189.91 4.59961 190.117 3.69727 190.117C3.11133 190.117 2.56445 190.006 2.05664 189.783C1.54883 189.557 1.15625 189.248 0.878906 188.857C0.605469 188.467 0.46875 188.023 0.46875 187.527H1.59961C1.59961 188.043 1.78906 188.451 2.16797 188.752C2.55078 189.049 3.06055 189.197 3.69727 189.197C4.29102 189.197 4.74609 189.076 5.0625 188.834C5.37891 188.592 5.53711 188.262 5.53711 187.844C5.53711 187.426 5.39062 187.104 5.09766 186.877C4.80469 186.646 4.27344 186.42 3.50391 186.197ZM9.41602 182.125V183.66H10.5996V184.498H9.41602V188.43C9.41602 188.684 9.46875 188.875 9.57422 189.004C9.67969 189.129 9.85938 189.191 10.1133 189.191C10.2383 189.191 10.4102 189.168 10.6289 189.121V190C10.3438 190.078 10.0664 190.117 9.79688 190.117C9.3125 190.117 8.94727 189.971 8.70117 189.678C8.45508 189.385 8.33203 188.969 8.33203 188.43V184.498H7.17773V183.66H8.33203V182.125H9.41602ZM15.7852 190C15.7227 189.875 15.6719 189.652 15.6328 189.332C15.1289 189.855 14.5273 190.117 13.8281 190.117C13.2031 190.117 12.6895 189.941 12.2871 189.59C11.8887 189.234 11.6895 188.785 11.6895 188.242C11.6895 187.582 11.9395 187.07 12.4395 186.707C12.9434 186.34 13.6504 186.156 14.5605 186.156H15.6152V185.658C15.6152 185.279 15.502 184.979 15.2754 184.756C15.0488 184.529 14.7148 184.416 14.2734 184.416C13.8867 184.416 13.5625 184.514 13.3008 184.709C13.0391 184.904 12.9082 185.141 12.9082 185.418H11.8184C11.8184 185.102 11.9297 184.797 12.1523 184.504C12.3789 184.207 12.6836 183.973 13.0664 183.801C13.4531 183.629 13.877 183.543 14.3379 183.543C15.0684 183.543 15.6406 183.727 16.0547 184.094C16.4688 184.457 16.6836 184.959 16.6992 185.6V188.518C16.6992 189.1 16.7734 189.562 16.9219 189.906V190H15.7852ZM13.9863 189.174C14.3262 189.174 14.6484 189.086 14.9531 188.91C15.2578 188.734 15.4785 188.506 15.6152 188.225V186.924H14.7656C13.4375 186.924 12.7734 187.312 12.7734 188.09C12.7734 188.43 12.8867 188.695 13.1133 188.887C13.3398 189.078 13.6309 189.174 13.9863 189.174ZM19.8691 182.125V183.66H21.0527V184.498H19.8691V188.43C19.8691 188.684 19.9219 188.875 20.0273 189.004C20.1328 189.129 20.3125 189.191 20.5664 189.191C20.6914 189.191 20.8633 189.168 21.082 189.121V190C20.7969 190.078 20.5195 190.117 20.25 190.117C19.7656 190.117 19.4004 189.971 19.1543 189.678C18.9082 189.385 18.7852 188.969 18.7852 188.43V184.498H17.6309V183.66H18.7852V182.125H19.8691ZM24.3984 188.412L25.875 183.66H27.0352L24.4863 190.979C24.0918 192.033 23.4648 192.561 22.6055 192.561L22.4004 192.543L21.9961 192.467V191.588L22.2891 191.611C22.6562 191.611 22.9414 191.537 23.1445 191.389C23.3516 191.24 23.5215 190.969 23.6543 190.574L23.8945 189.93L21.6328 183.66H22.8164L24.3984 188.412ZM31.6992 188.318C31.6992 188.025 31.5879 187.799 31.3652 187.639C31.1465 187.475 30.7617 187.334 30.2109 187.217C29.6641 187.1 29.2285 186.959 28.9043 186.795C28.584 186.631 28.3457 186.436 28.1895 186.209C28.0371 185.982 27.9609 185.713 27.9609 185.4C27.9609 184.881 28.1797 184.441 28.6172 184.082C29.0586 183.723 29.6211 183.543 30.3047 183.543C31.0234 183.543 31.6055 183.729 32.0508 184.1C32.5 184.471 32.7246 184.945 32.7246 185.523H31.6348C31.6348 185.227 31.5078 184.971 31.2539 184.756C31.0039 184.541 30.6875 184.434 30.3047 184.434C29.9102 184.434 29.6016 184.52 29.3789 184.691C29.1562 184.863 29.0449 185.088 29.0449 185.365C29.0449 185.627 29.1484 185.824 29.3555 185.957C29.5625 186.09 29.9355 186.217 30.4746 186.338C31.0176 186.459 31.457 186.604 31.793 186.771C32.1289 186.939 32.377 187.143 32.5371 187.381C32.7012 187.615 32.7832 187.902 32.7832 188.242C32.7832 188.809 32.5566 189.264 32.1035 189.607C31.6504 189.947 31.0625 190.117 30.3398 190.117C29.832 190.117 29.3828 190.027 28.9922 189.848C28.6016 189.668 28.2949 189.418 28.0723 189.098C27.8535 188.773 27.7441 188.424 27.7441 188.049H28.8281C28.8477 188.412 28.9922 188.701 29.2617 188.916C29.5352 189.127 29.8945 189.232 30.3398 189.232C30.75 189.232 31.0781 189.15 31.3242 188.986C31.5742 188.818 31.6992 188.596 31.6992 188.318ZM35.666 182.125V183.66H36.8496V184.498H35.666V188.43C35.666 188.684 35.7188 188.875 35.8242 189.004C35.9297 189.129 36.1094 189.191 36.3633 189.191C36.4883 189.191 36.6602 189.168 36.8789 189.121V190C36.5938 190.078 36.3164 190.117 36.0469 190.117C35.5625 190.117 35.1973 189.971 34.9512 189.678C34.7051 189.385 34.582 188.969 34.582 188.43V184.498H33.4277V183.66H34.582V182.125H35.666ZM40.1953 188.412L41.6719 183.66H42.832L40.2832 190.979C39.8887 192.033 39.2617 192.561 38.4023 192.561L38.1973 192.543L37.793 192.467V191.588L38.0859 191.611C38.4531 191.611 38.7383 191.537 38.9414 191.389C39.1484 191.24 39.3184 190.969 39.4512 190.574L39.6914 189.93L37.4297 183.66H38.6133L40.1953 188.412ZM45.5742 187.064L44.8945 187.773V190H43.8105V181H44.8945V186.443L45.4746 185.746L47.4492 183.66H48.7676L46.3008 186.309L49.0547 190H47.7832L45.5742 187.064ZM51.0645 190H49.9805V183.66H51.0645V190ZM49.8926 181.979C49.8926 181.803 49.9453 181.654 50.0508 181.533C50.1602 181.412 50.3203 181.352 50.5312 181.352C50.7422 181.352 50.9023 181.412 51.0117 181.533C51.1211 181.654 51.1758 181.803 51.1758 181.979C51.1758 182.154 51.1211 182.301 51.0117 182.418C50.9023 182.535 50.7422 182.594 50.5312 182.594C50.3203 182.594 50.1602 182.535 50.0508 182.418C49.9453 182.301 49.8926 182.154 49.8926 181.979Z" fill="#222222"/>
<path d="M40.9902 287V278.469H43.7793C44.7051 278.469 45.4004 278.66 45.8652 279.043C46.334 279.426 46.5684 279.992 46.5684 280.742C46.5684 281.141 46.4551 281.494 46.2285 281.803C46.002 282.107 45.6934 282.344 45.3027 282.512C45.7637 282.641 46.127 282.887 46.3926 283.25C46.6621 283.609 46.7969 284.039 46.7969 284.539C46.7969 285.305 46.5488 285.906 46.0527 286.344C45.5566 286.781 44.8555 287 43.9492 287H40.9902ZM42.1152 283.01V286.08H43.9727C44.4961 286.08 44.9082 285.945 45.209 285.676C45.5137 285.402 45.666 285.027 45.666 284.551C45.666 283.523 45.1074 283.01 43.9902 283.01H42.1152ZM42.1152 282.107H43.8145C44.3066 282.107 44.6992 281.984 44.9922 281.738C45.2891 281.492 45.4375 281.158 45.4375 280.736C45.4375 280.268 45.3008 279.928 45.0273 279.717C44.7539 279.502 44.3379 279.395 43.7793 279.395H42.1152V282.107ZM49.4746 287H48.3906V280.66H49.4746V287ZM48.3027 278.979C48.3027 278.803 48.3555 278.654 48.4609 278.533C48.5703 278.412 48.7305 278.352 48.9414 278.352C49.1523 278.352 49.3125 278.412 49.4219 278.533C49.5312 278.654 49.5859 278.803 49.5859 278.979C49.5859 279.154 49.5312 279.301 49.4219 279.418C49.3125 279.535 49.1523 279.594 48.9414 279.594C48.7305 279.594 48.5703 279.535 48.4609 279.418C48.3555 279.301 48.3027 279.154 48.3027 278.979ZM52.3926 287H51.3086V278H52.3926V287ZM56.7637 287.117C55.9043 287.117 55.2051 286.836 54.666 286.273C54.127 285.707 53.8574 284.951 53.8574 284.006V283.807C53.8574 283.178 53.9766 282.617 54.2148 282.125C54.457 281.629 54.793 281.242 55.2227 280.965C55.6562 280.684 56.125 280.543 56.6289 280.543C57.4531 280.543 58.0938 280.814 58.5508 281.357C59.0078 281.9 59.2363 282.678 59.2363 283.689V284.141H54.9414C54.957 284.766 55.1387 285.271 55.4863 285.658C55.8379 286.041 56.2832 286.232 56.8223 286.232C57.2051 286.232 57.5293 286.154 57.7949 285.998C58.0605 285.842 58.293 285.635 58.4922 285.377L59.1543 285.893C58.623 286.709 57.8262 287.117 56.7637 287.117ZM56.6289 281.434C56.1914 281.434 55.8242 281.594 55.5273 281.914C55.2305 282.23 55.0469 282.676 54.9766 283.25H58.1523V283.168C58.1211 282.617 57.9727 282.191 57.707 281.891C57.4414 281.586 57.082 281.434 56.6289 281.434ZM61.9668 279.125V280.66H63.1504V281.498H61.9668V285.43C61.9668 285.684 62.0195 285.875 62.125 286.004C62.2305 286.129 62.4102 286.191 62.6641 286.191C62.7891 286.191 62.9609 286.168 63.1797 286.121V287C62.8945 287.078 62.6172 287.117 62.3477 287.117C61.8633 287.117 61.498 286.971 61.252 286.678C61.0059 286.385 60.8828 285.969 60.8828 285.43V281.498H59.7285V280.66H60.8828V279.125H61.9668ZM64.0176 283.771C64.0176 283.15 64.1387 282.592 64.3809 282.096C64.627 281.6 64.9668 281.217 65.4004 280.947C65.8379 280.678 66.3359 280.543 66.8945 280.543C67.7578 280.543 68.4551 280.842 68.9863 281.439C69.5215 282.037 69.7891 282.832 69.7891 283.824V283.9C69.7891 284.518 69.6699 285.072 69.4316 285.564C69.1973 286.053 68.8594 286.434 68.418 286.707C67.9805 286.98 67.4766 287.117 66.9062 287.117C66.0469 287.117 65.3496 286.818 64.8145 286.221C64.2832 285.623 64.0176 284.832 64.0176 283.848V283.771ZM65.1074 283.9C65.1074 284.604 65.2695 285.168 65.5938 285.594C65.9219 286.02 66.3594 286.232 66.9062 286.232C67.457 286.232 67.8945 286.018 68.2188 285.588C68.543 285.154 68.7051 284.549 68.7051 283.771C68.7051 283.076 68.5391 282.514 68.207 282.084C67.8789 281.65 67.4414 281.434 66.8945 281.434C66.3594 281.434 65.9277 281.646 65.5996 282.072C65.2715 282.498 65.1074 283.107 65.1074 283.9ZM67.3867 278H68.6992L67.1289 279.723H66.2559L67.3867 278ZM76.7617 285.506L77.9805 280.66H79.0645L77.2188 287H76.3398L74.7988 282.195L73.2988 287H72.4199L70.5801 280.66H71.6582L72.9062 285.406L74.3828 280.66H75.2559L76.7617 285.506ZM86.8398 285.318C86.8398 285.025 86.7285 284.799 86.5059 284.639C86.2871 284.475 85.9023 284.334 85.3516 284.217C84.8047 284.1 84.3691 283.959 84.0449 283.795C83.7246 283.631 83.4863 283.436 83.3301 283.209C83.1777 282.982 83.1016 282.713 83.1016 282.4C83.1016 281.881 83.3203 281.441 83.7578 281.082C84.1992 280.723 84.7617 280.543 85.4453 280.543C86.1641 280.543 86.7461 280.729 87.1914 281.1C87.6406 281.471 87.8652 281.945 87.8652 282.523H86.7754C86.7754 282.227 86.6484 281.971 86.3945 281.756C86.1445 281.541 85.8281 281.434 85.4453 281.434C85.0508 281.434 84.7422 281.52 84.5195 281.691C84.2969 281.863 84.1855 282.088 84.1855 282.365C84.1855 282.627 84.2891 282.824 84.4961 282.957C84.7031 283.09 85.0762 283.217 85.6152 283.338C86.1582 283.459 86.5977 283.604 86.9336 283.771C87.2695 283.939 87.5176 284.143 87.6777 284.381C87.8418 284.615 87.9238 284.902 87.9238 285.242C87.9238 285.809 87.6973 286.264 87.2441 286.607C86.791 286.947 86.2031 287.117 85.4805 287.117C84.9727 287.117 84.5234 287.027 84.1328 286.848C83.7422 286.668 83.4355 286.418 83.2129 286.098C82.9941 285.773 82.8848 285.424 82.8848 285.049H83.9688C83.9883 285.412 84.1328 285.701 84.4023 285.916C84.6758 286.127 85.0352 286.232 85.4805 286.232C85.8906 286.232 86.2188 286.15 86.4648 285.986C86.7148 285.818 86.8398 285.596 86.8398 285.318ZM90.5137 287H89.4297V280.66H90.5137V287ZM89.3418 278.979C89.3418 278.803 89.3945 278.654 89.5 278.533C89.6094 278.412 89.7695 278.352 89.9805 278.352C90.1914 278.352 90.3516 278.412 90.4609 278.533C90.5703 278.654 90.625 278.803 90.625 278.979C90.625 279.154 90.5703 279.301 90.4609 279.418C90.3516 279.535 90.1914 279.594 89.9805 279.594C89.7695 279.594 89.6094 279.535 89.5 279.418C89.3945 279.301 89.3418 279.154 89.3418 278.979ZM94.8848 287.117C94.0254 287.117 93.3262 286.836 92.7871 286.273C92.248 285.707 91.9785 284.951 91.9785 284.006V283.807C91.9785 283.178 92.0977 282.617 92.3359 282.125C92.5781 281.629 92.9141 281.242 93.3438 280.965C93.7773 280.684 94.2461 280.543 94.75 280.543C95.5742 280.543 96.2148 280.814 96.6719 281.357C97.1289 281.9 97.3574 282.678 97.3574 283.689V284.141H93.0625C93.0781 284.766 93.2598 285.271 93.6074 285.658C93.959 286.041 94.4043 286.232 94.9434 286.232C95.3262 286.232 95.6504 286.154 95.916 285.998C96.1816 285.842 96.4141 285.635 96.6133 285.377L97.2754 285.893C96.7441 286.709 95.9473 287.117 94.8848 287.117ZM94.75 281.434C94.3125 281.434 93.9453 281.594 93.6484 281.914C93.3516 282.23 93.168 282.676 93.0977 283.25H96.2734V283.168C96.2422 282.617 96.0938 282.191 95.8281 281.891C95.5625 281.586 95.2031 281.434 94.75 281.434ZM101.16 286.232C101.547 286.232 101.885 286.115 102.174 285.881C102.463 285.646 102.623 285.354 102.654 285.002H103.68C103.66 285.365 103.535 285.711 103.305 286.039C103.074 286.367 102.766 286.629 102.379 286.824C101.996 287.02 101.59 287.117 101.16 287.117C100.297 287.117 99.6094 286.83 99.0977 286.256C98.5898 285.678 98.3359 284.889 98.3359 283.889V283.707C98.3359 283.09 98.4492 282.541 98.6758 282.061C98.9023 281.58 99.2266 281.207 99.6484 280.941C100.074 280.676 100.576 280.543 101.154 280.543C101.865 280.543 102.455 280.756 102.924 281.182C103.396 281.607 103.648 282.16 103.68 282.84H102.654C102.623 282.43 102.467 282.094 102.186 281.832C101.908 281.566 101.564 281.434 101.154 281.434C100.604 281.434 100.176 281.633 99.8711 282.031C99.5703 282.426 99.4199 282.998 99.4199 283.748V283.953C99.4199 284.684 99.5703 285.246 99.8711 285.641C100.172 286.035 100.602 286.232 101.16 286.232ZM106.076 287H104.992V280.66H106.076V287ZM104.904 278.979C104.904 278.803 104.957 278.654 105.062 278.533C105.172 278.412 105.332 278.352 105.543 278.352C105.754 278.352 105.914 278.412 106.023 278.533C106.133 278.654 106.188 278.803 106.188 278.979C106.188 279.154 106.133 279.301 106.023 279.418C105.914 279.535 105.754 279.594 105.543 279.594C105.332 279.594 105.172 279.535 105.062 279.418C104.957 279.301 104.904 279.154 104.904 278.979ZM107.529 283.771C107.529 283.15 107.65 282.592 107.893 282.096C108.139 281.6 108.479 281.217 108.912 280.947C109.35 280.678 109.848 280.543 110.406 280.543C111.27 280.543 111.967 280.842 112.498 281.439C113.033 282.037 113.301 282.832 113.301 283.824V283.9C113.301 284.518 113.182 285.072 112.943 285.564C112.709 286.053 112.371 286.434 111.93 286.707C111.492 286.98 110.988 287.117 110.418 287.117C109.559 287.117 108.861 286.818 108.326 286.221C107.795 285.623 107.529 284.832 107.529 283.848V283.771ZM108.619 283.9C108.619 284.604 108.781 285.168 109.105 285.594C109.434 286.02 109.871 286.232 110.418 286.232C110.969 286.232 111.406 286.018 111.73 285.588C112.055 285.154 112.217 284.549 112.217 283.771C112.217 283.076 112.051 282.514 111.719 282.084C111.391 281.65 110.953 281.434 110.406 281.434C109.871 281.434 109.439 281.646 109.111 282.072C108.783 282.498 108.619 283.107 108.619 283.9ZM120.273 285.506L121.492 280.66H122.576L120.73 287H119.852L118.311 282.195L116.811 287H115.932L114.092 280.66H115.17L116.418 285.406L117.895 280.66H118.768L120.273 285.506ZM125.758 285.412L127.234 280.66H128.395L125.846 287.979C125.451 289.033 124.824 289.561 123.965 289.561L123.76 289.543L123.355 289.467V288.588L123.648 288.611C124.016 288.611 124.301 288.537 124.504 288.389C124.711 288.24 124.881 287.969 125.014 287.574L125.254 286.93L122.992 280.66H124.176L125.758 285.412ZM131.828 286.232C132.215 286.232 132.553 286.115 132.842 285.881C133.131 285.646 133.291 285.354 133.322 285.002H134.348C134.328 285.365 134.203 285.711 133.973 286.039C133.742 286.367 133.434 286.629 133.047 286.824C132.664 287.02 132.258 287.117 131.828 287.117C130.965 287.117 130.277 286.83 129.766 286.256C129.258 285.678 129.004 284.889 129.004 283.889V283.707C129.004 283.09 129.117 282.541 129.344 282.061C129.57 281.58 129.895 281.207 130.316 280.941C130.742 280.676 131.244 280.543 131.822 280.543C132.533 280.543 133.123 280.756 133.592 281.182C134.064 281.607 134.316 282.16 134.348 282.84H133.322C133.291 282.43 133.135 282.094 132.854 281.832C132.576 281.566 132.232 281.434 131.822 281.434C131.271 281.434 130.844 281.633 130.539 282.031C130.238 282.426 130.088 282.998 130.088 283.748V283.953C130.088 284.684 130.238 285.246 130.539 285.641C130.84 286.035 131.27 286.232 131.828 286.232ZM136.65 281.428C137.131 280.838 137.756 280.543 138.525 280.543C139.865 280.543 140.541 281.299 140.553 282.811V287H139.469V282.805C139.465 282.348 139.359 282.01 139.152 281.791C138.949 281.572 138.631 281.463 138.197 281.463C137.846 281.463 137.537 281.557 137.271 281.744C137.006 281.932 136.799 282.178 136.65 282.482V287H135.566V278H136.65V281.428Z" fill="#888888"/>
<path d="M40.9902 335V326.469H43.7793C44.7051 326.469 45.4004 326.66 45.8652 327.043C46.334 327.426 46.5684 327.992 46.5684 328.742C46.5684 329.141 46.4551 329.494 46.2285 329.803C46.002 330.107 45.6934 330.344 45.3027 330.512C45.7637 330.641 46.127 330.887 46.3926 331.25C46.6621 331.609 46.7969 332.039 46.7969 332.539C46.7969 333.305 46.5488 333.906 46.0527 334.344C45.5566 334.781 44.8555 335 43.9492 335H40.9902ZM42.1152 331.01V334.08H43.9727C44.4961 334.08 44.9082 333.945 45.209 333.676C45.5137 333.402 45.666 333.027 45.666 332.551C45.666 331.523 45.1074 331.01 43.9902 331.01H42.1152ZM42.1152 330.107H43.8145C44.3066 330.107 44.6992 329.984 44.9922 329.738C45.2891 329.492 45.4375 329.158 45.4375 328.736C45.4375 328.268 45.3008 327.928 45.0273 327.717C44.7539 327.502 44.3379 327.395 43.7793 327.395H42.1152V330.107ZM49.4746 335H48.3906V328.66H49.4746V335ZM48.3027 326.979C48.3027 326.803 48.3555 326.654 48.4609 326.533C48.5703 326.412 48.7305 326.352 48.9414 326.352C49.1523 326.352 49.3125 326.412 49.4219 326.533C49.5312 326.654 49.5859 326.803 49.5859 326.979C49.5859 327.154 49.5312 327.301 49.4219 327.418C49.3125 327.535 49.1523 327.594 48.9414 327.594C48.7305 327.594 48.5703 327.535 48.4609 327.418C48.3555 327.301 48.3027 327.154 48.3027 326.979ZM52.3926 335H51.3086V326H52.3926V335ZM56.7637 335.117C55.9043 335.117 55.2051 334.836 54.666 334.273C54.127 333.707 53.8574 332.951 53.8574 332.006V331.807C53.8574 331.178 53.9766 330.617 54.2148 330.125C54.457 329.629 54.793 329.242 55.2227 328.965C55.6562 328.684 56.125 328.543 56.6289 328.543C57.4531 328.543 58.0938 328.814 58.5508 329.357C59.0078 329.9 59.2363 330.678 59.2363 331.689V332.141H54.9414C54.957 332.766 55.1387 333.271 55.4863 333.658C55.8379 334.041 56.2832 334.232 56.8223 334.232C57.2051 334.232 57.5293 334.154 57.7949 333.998C58.0605 333.842 58.293 333.635 58.4922 333.377L59.1543 333.893C58.623 334.709 57.8262 335.117 56.7637 335.117ZM56.6289 329.434C56.1914 329.434 55.8242 329.594 55.5273 329.914C55.2305 330.23 55.0469 330.676 54.9766 331.25H58.1523V331.168C58.1211 330.617 57.9727 330.191 57.707 329.891C57.4414 329.586 57.082 329.434 56.6289 329.434ZM61.9668 327.125V328.66H63.1504V329.498H61.9668V333.43C61.9668 333.684 62.0195 333.875 62.125 334.004C62.2305 334.129 62.4102 334.191 62.6641 334.191C62.7891 334.191 62.9609 334.168 63.1797 334.121V335C62.8945 335.078 62.6172 335.117 62.3477 335.117C61.8633 335.117 61.498 334.971 61.252 334.678C61.0059 334.385 60.8828 333.969 60.8828 333.43V329.498H59.7285V328.66H60.8828V327.125H61.9668ZM64.0176 331.771C64.0176 331.15 64.1387 330.592 64.3809 330.096C64.627 329.6 64.9668 329.217 65.4004 328.947C65.8379 328.678 66.3359 328.543 66.8945 328.543C67.7578 328.543 68.4551 328.842 68.9863 329.439C69.5215 330.037 69.7891 330.832 69.7891 331.824V331.9C69.7891 332.518 69.6699 333.072 69.4316 333.564C69.1973 334.053 68.8594 334.434 68.418 334.707C67.9805 334.98 67.4766 335.117 66.9062 335.117C66.0469 335.117 65.3496 334.818 64.8145 334.221C64.2832 333.623 64.0176 332.832 64.0176 331.848V331.771ZM65.1074 331.9C65.1074 332.604 65.2695 333.168 65.5938 333.594C65.9219 334.02 66.3594 334.232 66.9062 334.232C67.457 334.232 67.8945 334.018 68.2188 333.588C68.543 333.154 68.7051 332.549 68.7051 331.771C68.7051 331.076 68.5391 330.514 68.207 330.084C67.8789 329.65 67.4414 329.434 66.8945 329.434C66.3594 329.434 65.9277 329.646 65.5996 330.072C65.2715 330.498 65.1074 331.107 65.1074 331.9ZM67.3867 326H68.6992L67.1289 327.723H66.2559L67.3867 326ZM76.7617 333.506L77.9805 328.66H79.0645L77.2188 335H76.3398L74.7988 330.195L73.2988 335H72.4199L70.5801 328.66H71.6582L72.9062 333.406L74.3828 328.66H75.2559L76.7617 333.506ZM84.2676 328.66V335.732C84.2676 336.951 83.7148 337.561 82.6094 337.561C82.3711 337.561 82.1504 337.525 81.9473 337.455V336.588C82.0723 336.619 82.2363 336.635 82.4395 336.635C82.6816 336.635 82.8652 336.568 82.9902 336.436C83.1191 336.307 83.1836 336.08 83.1836 335.756V328.66H84.2676ZM83.0723 326.979C83.0723 326.807 83.125 326.66 83.2305 326.539C83.3398 326.414 83.498 326.352 83.7051 326.352C83.916 326.352 84.0762 326.412 84.1855 326.533C84.2949 326.654 84.3496 326.803 84.3496 326.979C84.3496 327.154 84.2949 327.301 84.1855 327.418C84.0762 327.535 83.916 327.594 83.7051 327.594C83.4941 327.594 83.3359 327.535 83.2305 327.418C83.125 327.301 83.0723 327.154 83.0723 326.979ZM88.6504 335.117C87.791 335.117 87.0918 334.836 86.5527 334.273C86.0137 333.707 85.7441 332.951 85.7441 332.006V331.807C85.7441 331.178 85.8633 330.617 86.1016 330.125C86.3438 329.629 86.6797 329.242 87.1094 328.965C87.543 328.684 88.0117 328.543 88.5156 328.543C89.3398 328.543 89.9805 328.814 90.4375 329.357C90.8945 329.9 91.123 330.678 91.123 331.689V332.141H86.8281C86.8438 332.766 87.0254 333.271 87.373 333.658C87.7246 334.041 88.1699 334.232 88.709 334.232C89.0918 334.232 89.416 334.154 89.6816 333.998C89.9473 333.842 90.1797 333.635 90.3789 333.377L91.041 333.893C90.5098 334.709 89.7129 335.117 88.6504 335.117ZM88.5156 329.434C88.0781 329.434 87.7109 329.594 87.4141 329.914C87.1172 330.23 86.9336 330.676 86.8633 331.25H90.0391V331.168C90.0078 330.617 89.8594 330.191 89.5938 329.891C89.3281 329.586 88.9688 329.434 88.5156 329.434ZM92.1191 331.777C92.1191 330.805 92.3496 330.023 92.8105 329.434C93.2715 328.84 93.875 328.543 94.6211 328.543C95.3633 328.543 95.9512 328.797 96.3848 329.305V326H97.4688V335H96.4727L96.4199 334.32C95.9863 334.852 95.3828 335.117 94.6094 335.117C93.875 335.117 93.2754 334.816 92.8105 334.215C92.3496 333.613 92.1191 332.828 92.1191 331.859V331.777ZM93.2031 331.9C93.2031 332.619 93.3516 333.182 93.6484 333.588C93.9453 333.994 94.3555 334.197 94.8789 334.197C95.5664 334.197 96.0684 333.889 96.3848 333.271V330.359C96.0605 329.762 95.5625 329.463 94.8906 329.463C94.3594 329.463 93.9453 329.668 93.6484 330.078C93.3516 330.488 93.2031 331.096 93.2031 331.9ZM100.182 328.66L100.217 329.457C100.701 328.848 101.334 328.543 102.115 328.543C103.455 328.543 104.131 329.299 104.143 330.811V335H103.059V330.805C103.055 330.348 102.949 330.01 102.742 329.791C102.539 329.572 102.221 329.463 101.787 329.463C101.436 329.463 101.127 329.557 100.861 329.744C100.596 329.932 100.389 330.178 100.24 330.482V335H99.1562V328.66H100.182ZM105.49 331.771C105.49 331.15 105.611 330.592 105.854 330.096C106.1 329.6 106.439 329.217 106.873 328.947C107.311 328.678 107.809 328.543 108.367 328.543C109.23 328.543 109.928 328.842 110.459 329.439C110.994 330.037 111.262 330.832 111.262 331.824V331.9C111.262 332.518 111.143 333.072 110.904 333.564C110.67 334.053 110.332 334.434 109.891 334.707C109.453 334.98 108.949 335.117 108.379 335.117C107.52 335.117 106.822 334.818 106.287 334.221C105.756 333.623 105.49 332.832 105.49 331.848V331.771ZM106.58 331.9C106.58 332.604 106.742 333.168 107.066 333.594C107.395 334.02 107.832 334.232 108.379 334.232C108.93 334.232 109.367 334.018 109.691 333.588C110.016 333.154 110.178 332.549 110.178 331.771C110.178 331.076 110.012 330.514 109.68 330.084C109.352 329.65 108.914 329.434 108.367 329.434C107.832 329.434 107.4 329.646 107.072 330.072C106.744 330.498 106.58 331.107 106.58 331.9ZM115.686 329.633C115.521 329.605 115.344 329.592 115.152 329.592C114.441 329.592 113.959 329.895 113.705 330.5V335H112.621V328.66H113.676L113.693 329.393C114.049 328.826 114.553 328.543 115.205 328.543C115.416 328.543 115.576 328.57 115.686 328.625V329.633ZM120.367 335C120.305 334.875 120.254 334.652 120.215 334.332C119.711 334.855 119.109 335.117 118.41 335.117C117.785 335.117 117.271 334.941 116.869 334.59C116.471 334.234 116.271 333.785 116.271 333.242C116.271 332.582 116.521 332.07 117.021 331.707C117.525 331.34 118.232 331.156 119.143 331.156H120.197V330.658C120.197 330.279 120.084 329.979 119.857 329.756C119.631 329.529 119.297 329.416 118.855 329.416C118.469 329.416 118.145 329.514 117.883 329.709C117.621 329.904 117.49 330.141 117.49 330.418H116.4C116.4 330.102 116.512 329.797 116.734 329.504C116.961 329.207 117.266 328.973 117.648 328.801C118.035 328.629 118.459 328.543 118.92 328.543C119.65 328.543 120.223 328.727 120.637 329.094C121.051 329.457 121.266 329.959 121.281 330.6V333.518C121.281 334.1 121.355 334.562 121.504 334.906V335H120.367ZM118.568 334.174C118.908 334.174 119.23 334.086 119.535 333.91C119.84 333.734 120.061 333.506 120.197 333.225V331.924H119.348C118.02 331.924 117.355 332.312 117.355 333.09C117.355 333.43 117.469 333.695 117.695 333.887C117.922 334.078 118.213 334.174 118.568 334.174ZM124 334.115H127.709V335H122.676V334.203L126.174 329.557H122.729V328.66H127.533V329.428L124 334.115ZM128.553 331.771C128.553 331.15 128.674 330.592 128.916 330.096C129.162 329.6 129.502 329.217 129.936 328.947C130.373 328.678 130.871 328.543 131.43 328.543C132.293 328.543 132.99 328.842 133.521 329.439C134.057 330.037 134.324 330.832 134.324 331.824V331.9C134.324 332.518 134.205 333.072 133.967 333.564C133.732 334.053 133.395 334.434 132.953 334.707C132.516 334.98 132.012 335.117 131.441 335.117C130.582 335.117 129.885 334.818 129.35 334.221C128.818 333.623 128.553 332.832 128.553 331.848V331.771ZM129.643 331.9C129.643 332.604 129.805 333.168 130.129 333.594C130.457 334.02 130.895 334.232 131.441 334.232C131.992 334.232 132.43 334.018 132.754 333.588C133.078 333.154 133.24 332.549 133.24 331.771C133.24 331.076 133.074 330.514 132.742 330.084C132.414 329.65 131.977 329.434 131.43 329.434C130.895 329.434 130.463 329.646 130.135 330.072C129.807 330.498 129.643 331.107 129.643 331.9ZM141.297 333.506L142.516 328.66H143.6L141.754 335H140.875L139.334 330.195L137.834 335H136.955L135.115 328.66H136.193L137.441 333.406L138.918 328.66H139.791L141.297 333.506ZM146.781 333.412L148.258 328.66H149.418L146.869 335.979C146.475 337.033 145.848 337.561 144.988 337.561L144.783 337.543L144.379 337.467V336.588L144.672 336.611C145.039 336.611 145.324 336.537 145.527 336.389C145.734 336.24 145.904 335.969 146.037 335.574L146.277 334.93L144.016 328.66H145.199L146.781 333.412ZM152.852 334.232C153.238 334.232 153.576 334.115 153.865 333.881C154.154 333.646 154.314 333.354 154.346 333.002H155.371C155.352 333.365 155.227 333.711 154.996 334.039C154.766 334.367 154.457 334.629 154.07 334.824C153.688 335.02 153.281 335.117 152.852 335.117C151.988 335.117 151.301 334.83 150.789 334.256C150.281 333.678 150.027 332.889 150.027 331.889V331.707C150.027 331.09 150.141 330.541 150.367 330.061C150.594 329.58 150.918 329.207 151.34 328.941C151.766 328.676 152.268 328.543 152.846 328.543C153.557 328.543 154.146 328.756 154.615 329.182C155.088 329.607 155.34 330.16 155.371 330.84H154.346C154.314 330.43 154.158 330.094 153.877 329.832C153.6 329.566 153.256 329.434 152.846 329.434C152.295 329.434 151.867 329.633 151.562 330.031C151.262 330.426 151.111 330.998 151.111 331.748V331.953C151.111 332.684 151.262 333.246 151.562 333.641C151.863 334.035 152.293 334.232 152.852 334.232ZM157.674 329.428C158.154 328.838 158.779 328.543 159.549 328.543C160.889 328.543 161.564 329.299 161.576 330.811V335H160.492V330.805C160.488 330.348 160.383 330.01 160.176 329.791C159.973 329.572 159.654 329.463 159.221 329.463C158.869 329.463 158.561 329.557 158.295 329.744C158.029 329.932 157.822 330.178 157.674 330.482V335H156.59V326H157.674V329.428Z" fill="#888888"/>
<path d="M46.9961 374.469V380.27C46.9922 381.074 46.7383 381.732 46.2344 382.244C45.7344 382.756 45.0547 383.043 44.1953 383.105L43.8965 383.117C42.9629 383.117 42.2188 382.865 41.6641 382.361C41.1094 381.857 40.8281 381.164 40.8203 380.281V374.469H41.9336V380.246C41.9336 380.863 42.1035 381.344 42.4434 381.688C42.7832 382.027 43.2676 382.197 43.8965 382.197C44.5332 382.197 45.0195 382.027 45.3555 381.688C45.6953 381.348 45.8652 380.869 45.8652 380.252V374.469H46.9961ZM49.7793 383H48.6953V374H49.7793V383ZM51.2617 379.777C51.2617 378.789 51.4902 378.004 51.9473 377.422C52.4043 376.836 53.0098 376.543 53.7637 376.543C54.5371 376.543 55.1406 376.816 55.5742 377.363L55.627 376.66H56.6172V382.848C56.6172 383.668 56.373 384.314 55.8848 384.787C55.4004 385.26 54.748 385.496 53.9277 385.496C53.4707 385.496 53.0234 385.398 52.5859 385.203C52.1484 385.008 51.8145 384.74 51.584 384.4L52.1465 383.75C52.6113 384.324 53.1797 384.611 53.8516 384.611C54.3789 384.611 54.7891 384.463 55.082 384.166C55.3789 383.869 55.5273 383.451 55.5273 382.912V382.367C55.0938 382.867 54.502 383.117 53.752 383.117C53.0098 383.117 52.4082 382.818 51.9473 382.221C51.4902 381.623 51.2617 380.809 51.2617 379.777ZM52.3516 379.9C52.3516 380.615 52.498 381.178 52.791 381.588C53.084 381.994 53.4941 382.197 54.0215 382.197C54.7051 382.197 55.207 381.887 55.5273 381.266V378.371C55.1953 377.766 54.6973 377.463 54.0332 377.463C53.5059 377.463 53.0938 377.668 52.7969 378.078C52.5 378.488 52.3516 379.096 52.3516 379.9ZM57.9707 379.771C57.9707 379.15 58.0918 378.592 58.334 378.096C58.5801 377.6 58.9199 377.217 59.3535 376.947C59.791 376.678 60.2891 376.543 60.8477 376.543C61.7109 376.543 62.4082 376.842 62.9395 377.439C63.4746 378.037 63.7422 378.832 63.7422 379.824V379.9C63.7422 380.518 63.623 381.072 63.3848 381.564C63.1504 382.053 62.8125 382.434 62.3711 382.707C61.9336 382.98 61.4297 383.117 60.8594 383.117C60 383.117 59.3027 382.818 58.7676 382.221C58.2363 381.623 57.9707 380.832 57.9707 379.848V379.771ZM59.0605 379.9C59.0605 380.604 59.2227 381.168 59.5469 381.594C59.875 382.02 60.3125 382.232 60.8594 382.232C61.4102 382.232 61.8477 382.018 62.1719 381.588C62.4961 381.154 62.6582 380.549 62.6582 379.771C62.6582 379.076 62.4922 378.514 62.1602 378.084C61.832 377.65 61.3945 377.434 60.8477 377.434C60.3125 377.434 59.8809 377.646 59.5527 378.072C59.2246 378.498 59.0605 379.107 59.0605 379.9ZM70.7148 381.506L71.9336 376.66H73.0176L71.1719 383H70.293L68.752 378.195L67.252 383H66.373L64.5332 376.66H65.6113L66.8594 381.406L68.3359 376.66H69.209L70.7148 381.506ZM76.1992 381.412L77.6758 376.66H78.8359L76.2871 383.979C75.8926 385.033 75.2656 385.561 74.4062 385.561L74.2012 385.543L73.7969 385.467V384.588L74.0898 384.611C74.457 384.611 74.7422 384.537 74.9453 384.389C75.1523 384.24 75.3223 383.969 75.4551 383.574L75.6953 382.93L73.4336 376.66H74.6172L76.1992 381.412ZM82.2695 382.232C82.6562 382.232 82.9941 382.115 83.2832 381.881C83.5723 381.646 83.7324 381.354 83.7637 381.002H84.7891C84.7695 381.365 84.6445 381.711 84.4141 382.039C84.1836 382.367 83.875 382.629 83.4883 382.824C83.1055 383.02 82.6992 383.117 82.2695 383.117C81.4062 383.117 80.7188 382.83 80.207 382.256C79.6992 381.678 79.4453 380.889 79.4453 379.889V379.707C79.4453 379.09 79.5586 378.541 79.7852 378.061C80.0117 377.58 80.3359 377.207 80.7578 376.941C81.1836 376.676 81.6855 376.543 82.2637 376.543C82.9746 376.543 83.5645 376.756 84.0332 377.182C84.5059 377.607 84.7578 378.16 84.7891 378.84H83.7637C83.7324 378.43 83.5762 378.094 83.2949 377.832C83.0176 377.566 82.6738 377.434 82.2637 377.434C81.7129 377.434 81.2852 377.633 80.9805 378.031C80.6797 378.426 80.5293 378.998 80.5293 379.748V379.953C80.5293 380.684 80.6797 381.246 80.9805 381.641C81.2812 382.035 81.7109 382.232 82.2695 382.232ZM87.0918 377.428C87.5723 376.838 88.1973 376.543 88.9668 376.543C90.3066 376.543 90.9824 377.299 90.9941 378.811V383H89.9102V378.805C89.9062 378.348 89.8008 378.01 89.5938 377.791C89.3906 377.572 89.0723 377.463 88.6387 377.463C88.2871 377.463 87.9785 377.557 87.7129 377.744C87.4473 377.932 87.2402 378.178 87.0918 378.482V383H86.0078V374H87.0918V377.428Z" fill="#888888"/>
<path d="M17.1406 234H1.54688V230.906L8.90625 223.062C9.91667 221.958 10.6615 220.995 11.1406 220.172C11.6302 219.349 11.875 218.568 11.875 217.828C11.875 216.818 11.6198 216.026 11.1094 215.453C10.599 214.87 9.86979 214.578 8.92188 214.578C7.90104 214.578 7.09375 214.932 6.5 215.641C5.91667 216.339 5.625 217.26 5.625 218.406H1.09375C1.09375 217.021 1.42188 215.755 2.07812 214.609C2.74479 213.464 3.68229 212.568 4.89062 211.922C6.09896 211.266 7.46875 210.938 9 210.938C11.3438 210.938 13.1615 211.5 14.4531 212.625C15.7552 213.75 16.4062 215.339 16.4062 217.391C16.4062 218.516 16.1146 219.661 15.5312 220.828C14.9479 221.995 13.9479 223.354 12.5312 224.906L7.35938 230.359H17.1406V234ZM32.4844 220.625H34.8906C36.0365 220.625 36.8854 220.339 37.4375 219.766C37.9896 219.193 38.2656 218.432 38.2656 217.484C38.2656 216.568 37.9896 215.854 37.4375 215.344C36.8958 214.833 36.1458 214.578 35.1875 214.578C34.3229 214.578 33.599 214.818 33.0156 215.297C32.4323 215.766 32.1406 216.38 32.1406 217.141H27.625C27.625 215.953 27.9427 214.891 28.5781 213.953C29.224 213.005 30.1198 212.266 31.2656 211.734C32.4219 211.203 33.6927 210.938 35.0781 210.938C37.4844 210.938 39.3698 211.516 40.7344 212.672C42.099 213.818 42.7812 215.401 42.7812 217.422C42.7812 218.464 42.4635 219.422 41.8281 220.297C41.1927 221.172 40.3594 221.844 39.3281 222.312C40.6094 222.771 41.5625 223.458 42.1875 224.375C42.8229 225.292 43.1406 226.375 43.1406 227.625C43.1406 229.646 42.401 231.266 40.9219 232.484C39.4531 233.703 37.5052 234.312 35.0781 234.312C32.8073 234.312 30.9479 233.714 29.5 232.516C28.0625 231.318 27.3438 229.734 27.3438 227.766H31.8594C31.8594 228.62 32.1771 229.318 32.8125 229.859C33.4583 230.401 34.25 230.672 35.1875 230.672C36.2604 230.672 37.099 230.391 37.7031 229.828C38.3177 229.255 38.625 228.5 38.625 227.562C38.625 225.292 37.375 224.156 34.875 224.156H32.4844V220.625ZM58.5156 211.016V214.734H58.0781C56.0365 214.766 54.3906 215.297 53.1406 216.328C51.901 217.359 51.1562 218.792 50.9062 220.625C52.1146 219.396 53.6406 218.781 55.4844 218.781C57.4635 218.781 59.0365 219.49 60.2031 220.906C61.3698 222.323 61.9531 224.188 61.9531 226.5C61.9531 227.979 61.6302 229.318 60.9844 230.516C60.349 231.714 59.4427 232.646 58.2656 233.312C57.099 233.979 55.776 234.312 54.2969 234.312C51.901 234.312 49.9635 233.479 48.4844 231.812C47.0156 230.146 46.2812 227.922 46.2812 225.141V223.516C46.2812 221.047 46.7448 218.87 47.6719 216.984C48.6094 215.089 49.9479 213.625 51.6875 212.594C53.4375 211.552 55.4635 211.026 57.7656 211.016H58.5156ZM54.1094 222.406C53.3802 222.406 52.7188 222.599 52.125 222.984C51.5312 223.359 51.0938 223.859 50.8125 224.484V225.859C50.8125 227.37 51.1094 228.552 51.7031 229.406C52.2969 230.25 53.1302 230.672 54.2031 230.672C55.1719 230.672 55.9531 230.292 56.5469 229.531C57.151 228.76 57.4531 227.766 57.4531 226.547C57.4531 225.307 57.151 224.307 56.5469 223.547C55.9427 222.786 55.1302 222.406 54.1094 222.406ZM79.4688 217.297C79.4688 218.401 79.1927 219.38 78.6406 220.234C78.0885 221.089 77.3281 221.771 76.3594 222.281C77.4635 222.812 78.3385 223.547 78.9844 224.484C79.6302 225.411 79.9531 226.505 79.9531 227.766C79.9531 229.786 79.2656 231.385 77.8906 232.562C76.5156 233.729 74.6458 234.312 72.2812 234.312C69.9167 234.312 68.0417 233.724 66.6562 232.547C65.2708 231.37 64.5781 229.776 64.5781 227.766C64.5781 226.505 64.901 225.406 65.5469 224.469C66.1927 223.531 67.0625 222.802 68.1562 222.281C67.1875 221.771 66.4271 221.089 65.875 220.234C65.3333 219.38 65.0625 218.401 65.0625 217.297C65.0625 215.359 65.7083 213.818 67 212.672C68.2917 211.516 70.0469 210.938 72.2656 210.938C74.474 210.938 76.224 211.51 77.5156 212.656C78.8177 213.792 79.4688 215.339 79.4688 217.297ZM75.4219 227.438C75.4219 226.448 75.1354 225.656 74.5625 225.062C73.9896 224.469 73.2188 224.172 72.25 224.172C71.2917 224.172 70.526 224.469 69.9531 225.062C69.3802 225.646 69.0938 226.438 69.0938 227.438C69.0938 228.406 69.375 229.188 69.9375 229.781C70.5 230.375 71.2812 230.672 72.2812 230.672C73.2604 230.672 74.026 230.385 74.5781 229.812C75.1406 229.24 75.4219 228.448 75.4219 227.438ZM74.9531 217.516C74.9531 216.63 74.7188 215.922 74.25 215.391C73.7812 214.849 73.1198 214.578 72.2656 214.578C71.4219 214.578 70.7656 214.839 70.2969 215.359C69.8281 215.88 69.5938 216.599 69.5938 217.516C69.5938 218.422 69.8281 219.151 70.2969 219.703C70.7656 220.255 71.4271 220.531 72.2812 220.531C73.1354 220.531 73.7917 220.255 74.25 219.703C74.7188 219.151 74.9531 218.422 74.9531 217.516ZM101.953 234H97.4375V216.594L92.0469 218.266V214.594L101.469 211.219H101.953V234ZM122.719 225.438H125.297V229.078H122.719V234H118.203V229.078H108.875L108.672 226.234L118.156 211.25H122.719V225.438ZM113.172 225.438H118.203V217.406L117.906 217.922L113.172 225.438ZM143.328 234H127.734V230.906L135.094 223.062C136.104 221.958 136.849 220.995 137.328 220.172C137.818 219.349 138.062 218.568 138.062 217.828C138.062 216.818 137.807 216.026 137.297 215.453C136.786 214.87 136.057 214.578 135.109 214.578C134.089 214.578 133.281 214.932 132.688 215.641C132.104 216.339 131.812 217.26 131.812 218.406H127.281C127.281 217.021 127.609 215.755 128.266 214.609C128.932 213.464 129.87 212.568 131.078 211.922C132.286 211.266 133.656 210.938 135.188 210.938C137.531 210.938 139.349 211.5 140.641 212.625C141.943 213.75 142.594 215.339 142.594 217.391C142.594 218.516 142.302 219.661 141.719 220.828C141.135 221.995 140.135 223.354 138.719 224.906L133.547 230.359H143.328V234Z" fill="#222222"/>
<path d="M47.0547 294.461V296.531H46.9375C45.9531 296.531 45.1432 296.768 44.5078 297.242C43.8776 297.711 43.4896 298.365 43.3438 299.203C43.9375 298.62 44.6875 298.328 45.5938 298.328C46.5781 298.328 47.362 298.688 47.9453 299.406C48.5286 300.125 48.8203 301.068 48.8203 302.234C48.8203 302.958 48.6484 303.622 48.3047 304.227C47.9661 304.831 47.4896 305.305 46.875 305.648C46.2656 305.987 45.5885 306.156 44.8438 306.156C44.0365 306.156 43.3151 305.974 42.6797 305.609C42.0443 305.24 41.5495 304.714 41.1953 304.031C40.8411 303.349 40.6589 302.562 40.6484 301.672V300.617C40.6484 299.445 40.8984 298.393 41.3984 297.461C41.9036 296.523 42.6224 295.789 43.5547 295.258C44.487 294.727 45.5208 294.461 46.6562 294.461H47.0547ZM44.6797 300.344C44.3307 300.344 44.0391 300.424 43.8047 300.586C43.5703 300.747 43.3958 300.945 43.2812 301.18V301.969C43.2812 303.406 43.7786 304.125 44.7734 304.125C45.1745 304.125 45.5078 303.945 45.7734 303.586C46.0443 303.227 46.1797 302.776 46.1797 302.234C46.1797 301.677 46.0417 301.224 45.7656 300.875C45.4948 300.521 45.1328 300.344 44.6797 300.344ZM57.8984 306H49.9609V304.281L53.6172 300.438C54.5182 299.411 54.9688 298.596 54.9688 297.992C54.9688 297.503 54.862 297.13 54.6484 296.875C54.4349 296.62 54.125 296.492 53.7188 296.492C53.3177 296.492 52.9922 296.664 52.7422 297.008C52.4922 297.346 52.3672 297.771 52.3672 298.281H49.7266C49.7266 297.583 49.901 296.94 50.25 296.352C50.599 295.758 51.0833 295.294 51.7031 294.961C52.3229 294.628 53.0156 294.461 53.7812 294.461C55.0104 294.461 55.9557 294.745 56.6172 295.312C57.2839 295.88 57.6172 296.695 57.6172 297.758C57.6172 298.206 57.5339 298.643 57.3672 299.07C57.2005 299.492 56.9401 299.938 56.5859 300.406C56.237 300.87 55.6719 301.492 54.8906 302.273L53.4219 303.969H57.8984V306ZM67.125 301.352C67.125 302.888 66.7786 304.073 66.0859 304.906C65.3984 305.74 64.4271 306.156 63.1719 306.156C61.9062 306.156 60.9271 305.737 60.2344 304.898C59.5417 304.06 59.1953 302.878 59.1953 301.352V299.273C59.1953 297.737 59.5391 296.552 60.2266 295.719C60.9193 294.885 61.8958 294.469 63.1562 294.469C64.4167 294.469 65.3932 294.888 66.0859 295.727C66.7786 296.565 67.125 297.75 67.125 299.281V301.352ZM64.4922 298.938C64.4922 298.12 64.3854 297.51 64.1719 297.109C63.9583 296.703 63.6198 296.5 63.1562 296.5C62.7031 296.5 62.3724 296.688 62.1641 297.062C61.9609 297.438 61.8516 298.005 61.8359 298.766V301.672C61.8359 302.521 61.9427 303.143 62.1562 303.539C62.3698 303.93 62.7083 304.125 63.1719 304.125C63.6198 304.125 63.9505 303.935 64.1641 303.555C64.3776 303.169 64.487 302.568 64.4922 301.75V298.938ZM80.375 301.352C80.375 302.888 80.0286 304.073 79.3359 304.906C78.6484 305.74 77.6771 306.156 76.4219 306.156C75.1562 306.156 74.1771 305.737 73.4844 304.898C72.7917 304.06 72.4453 302.878 72.4453 301.352V299.273C72.4453 297.737 72.7891 296.552 73.4766 295.719C74.1693 294.885 75.1458 294.469 76.4062 294.469C77.6667 294.469 78.6432 294.888 79.3359 295.727C80.0286 296.565 80.375 297.75 80.375 299.281V301.352ZM77.7422 298.938C77.7422 298.12 77.6354 297.51 77.4219 297.109C77.2083 296.703 76.8698 296.5 76.4062 296.5C75.9531 296.5 75.6224 296.688 75.4141 297.062C75.2109 297.438 75.1016 298.005 75.0859 298.766V301.672C75.0859 302.521 75.1927 303.143 75.4062 303.539C75.6198 303.93 75.9583 304.125 76.4219 304.125C76.8698 304.125 77.2005 303.935 77.4141 303.555C77.6276 303.169 77.737 302.568 77.7422 301.75V298.938ZM89.4141 297.664C89.4141 298.216 89.276 298.703 89 299.125C88.7292 299.547 88.3542 299.885 87.875 300.141C88.4167 300.406 88.8464 300.771 89.1641 301.234C89.4818 301.693 89.6406 302.237 89.6406 302.867C89.6406 303.883 89.2891 304.685 88.5859 305.273C87.888 305.862 86.9245 306.156 85.6953 306.156C84.4609 306.156 83.487 305.862 82.7734 305.273C82.0599 304.68 81.7031 303.878 81.7031 302.867C81.7031 302.258 81.8594 301.719 82.1719 301.25C82.4844 300.781 82.9271 300.411 83.5 300.141C83.0156 299.885 82.6354 299.547 82.3594 299.125C82.0833 298.703 81.9453 298.216 81.9453 297.664C81.9453 296.674 82.2812 295.893 82.9531 295.32C83.625 294.747 84.5312 294.461 85.6719 294.461C86.8229 294.461 87.7344 294.747 88.4062 295.32C89.0781 295.893 89.4141 296.674 89.4141 297.664ZM87 302.656C87 302.188 86.8776 301.828 86.6328 301.578C86.3932 301.323 86.0755 301.195 85.6797 301.195C85.2839 301.195 84.9635 301.323 84.7188 301.578C84.474 301.828 84.3516 302.188 84.3516 302.656C84.3516 303.109 84.474 303.469 84.7188 303.734C84.9688 303.995 85.2943 304.125 85.6953 304.125C86.0859 304.125 86.401 303.995 86.6406 303.734C86.8802 303.474 87 303.115 87 302.656ZM85.6719 296.492C85.3177 296.492 85.0469 296.609 84.8594 296.844C84.6771 297.073 84.5859 297.393 84.5859 297.805C84.5859 298.211 84.6797 298.539 84.8672 298.789C85.0547 299.039 85.3307 299.164 85.6953 299.164C86.0547 299.164 86.3229 299.039 86.5 298.789C86.6823 298.539 86.7734 298.211 86.7734 297.805C86.7734 297.398 86.6797 297.078 86.4922 296.844C86.3099 296.609 86.0365 296.492 85.6719 296.492ZM96.1953 301.602C95.6276 302.112 94.9922 302.367 94.2891 302.367C93.2578 302.367 92.4401 302.018 91.8359 301.32C91.2318 300.622 90.9297 299.69 90.9297 298.523C90.9297 297.794 91.099 297.117 91.4375 296.492C91.776 295.867 92.25 295.372 92.8594 295.008C93.474 294.643 94.151 294.461 94.8906 294.461C95.6406 294.461 96.3177 294.651 96.9219 295.031C97.5312 295.406 98.0052 295.94 98.3438 296.633C98.6823 297.32 98.8568 298.115 98.8672 299.016V300.023C98.8672 301.279 98.6198 302.367 98.125 303.289C97.6354 304.211 96.9349 304.919 96.0234 305.414C95.112 305.909 94.0495 306.156 92.8359 306.156H92.6719V304.047L93.1719 304.039C94.9844 303.951 95.9922 303.138 96.1953 301.602ZM95 300.469C95.5729 300.469 95.9844 300.221 96.2344 299.727V298.633C96.2344 297.904 96.112 297.365 95.8672 297.016C95.6224 296.667 95.2917 296.492 94.875 296.492C94.5052 296.492 94.1953 296.69 93.9453 297.086C93.6953 297.482 93.5703 297.961 93.5703 298.523C93.5703 299.117 93.6979 299.591 93.9531 299.945C94.2083 300.294 94.5573 300.469 95 300.469Z" fill="#222222"/>
<path d="M45.8828 349.602C45.3151 350.112 44.6797 350.367 43.9766 350.367C42.9453 350.367 42.1276 350.018 41.5234 349.32C40.9193 348.622 40.6172 347.69 40.6172 346.523C40.6172 345.794 40.7865 345.117 41.125 344.492C41.4635 343.867 41.9375 343.372 42.5469 343.008C43.1615 342.643 43.8385 342.461 44.5781 342.461C45.3281 342.461 46.0052 342.651 46.6094 343.031C47.2188 343.406 47.6927 343.94 48.0312 344.633C48.3698 345.32 48.5443 346.115 48.5547 347.016V348.023C48.5547 349.279 48.3073 350.367 47.8125 351.289C47.3229 352.211 46.6224 352.919 45.7109 353.414C44.7995 353.909 43.737 354.156 42.5234 354.156H42.3594V352.047L42.8594 352.039C44.6719 351.951 45.6797 351.138 45.8828 349.602ZM44.6875 348.469C45.2604 348.469 45.6719 348.221 45.9219 347.727V346.633C45.9219 345.904 45.7995 345.365 45.5547 345.016C45.3099 344.667 44.9792 344.492 44.5625 344.492C44.1927 344.492 43.8828 344.69 43.6328 345.086C43.3828 345.482 43.2578 345.961 43.2578 346.523C43.2578 347.117 43.3854 347.591 43.6406 347.945C43.8958 348.294 44.2448 348.469 44.6875 348.469ZM57.6328 345.664C57.6328 346.216 57.4948 346.703 57.2188 347.125C56.9479 347.547 56.5729 347.885 56.0938 348.141C56.6354 348.406 57.0651 348.771 57.3828 349.234C57.7005 349.693 57.8594 350.237 57.8594 350.867C57.8594 351.883 57.5078 352.685 56.8047 353.273C56.1068 353.862 55.1432 354.156 53.9141 354.156C52.6797 354.156 51.7057 353.862 50.9922 353.273C50.2786 352.68 49.9219 351.878 49.9219 350.867C49.9219 350.258 50.0781 349.719 50.3906 349.25C50.7031 348.781 51.1458 348.411 51.7188 348.141C51.2344 347.885 50.8542 347.547 50.5781 347.125C50.3021 346.703 50.1641 346.216 50.1641 345.664C50.1641 344.674 50.5 343.893 51.1719 343.32C51.8438 342.747 52.75 342.461 53.8906 342.461C55.0417 342.461 55.9531 342.747 56.625 343.32C57.2969 343.893 57.6328 344.674 57.6328 345.664ZM55.2188 350.656C55.2188 350.188 55.0964 349.828 54.8516 349.578C54.612 349.323 54.2943 349.195 53.8984 349.195C53.5026 349.195 53.1823 349.323 52.9375 349.578C52.6927 349.828 52.5703 350.188 52.5703 350.656C52.5703 351.109 52.6927 351.469 52.9375 351.734C53.1875 351.995 53.513 352.125 53.9141 352.125C54.3047 352.125 54.6198 351.995 54.8594 351.734C55.099 351.474 55.2188 351.115 55.2188 350.656ZM53.8906 344.492C53.5365 344.492 53.2656 344.609 53.0781 344.844C52.8958 345.073 52.8047 345.393 52.8047 345.805C52.8047 346.211 52.8984 346.539 53.0859 346.789C53.2734 347.039 53.5495 347.164 53.9141 347.164C54.2734 347.164 54.5417 347.039 54.7188 346.789C54.901 346.539 54.9922 346.211 54.9922 345.805C54.9922 345.398 54.8984 345.078 54.7109 344.844C54.5286 344.609 54.2552 344.492 53.8906 344.492ZM67.1328 344.031L62.8828 354H60.1016L64.3594 344.656H58.9375V342.625H67.1328V344.031ZM80.4141 354H72.4766V352.281L76.1328 348.438C77.0339 347.411 77.4844 346.596 77.4844 345.992C77.4844 345.503 77.3776 345.13 77.1641 344.875C76.9505 344.62 76.6406 344.492 76.2344 344.492C75.8333 344.492 75.5078 344.664 75.2578 345.008C75.0078 345.346 74.8828 345.771 74.8828 346.281H72.2422C72.2422 345.583 72.4167 344.94 72.7656 344.352C73.1146 343.758 73.599 343.294 74.2188 342.961C74.8385 342.628 75.5312 342.461 76.2969 342.461C77.526 342.461 78.4714 342.745 79.1328 343.312C79.7995 343.88 80.1328 344.695 80.1328 345.758C80.1328 346.206 80.0495 346.643 79.8828 347.07C79.7161 347.492 79.4557 347.938 79.1016 348.406C78.7526 348.87 78.1875 349.492 77.4062 350.273L75.9375 351.969H80.4141V354ZM89.6406 349.352C89.6406 350.888 89.2943 352.073 88.6016 352.906C87.9141 353.74 86.9427 354.156 85.6875 354.156C84.4219 354.156 83.4427 353.737 82.75 352.898C82.0573 352.06 81.7109 350.878 81.7109 349.352V347.273C81.7109 345.737 82.0547 344.552 82.7422 343.719C83.4349 342.885 84.4115 342.469 85.6719 342.469C86.9323 342.469 87.9089 342.888 88.6016 343.727C89.2943 344.565 89.6406 345.75 89.6406 347.281V349.352ZM87.0078 346.938C87.0078 346.12 86.901 345.51 86.6875 345.109C86.474 344.703 86.1354 344.5 85.6719 344.5C85.2188 344.5 84.888 344.688 84.6797 345.062C84.4766 345.438 84.3672 346.005 84.3516 346.766V349.672C84.3516 350.521 84.4583 351.143 84.6719 351.539C84.8854 351.93 85.224 352.125 85.6875 352.125C86.1354 352.125 86.4661 351.935 86.6797 351.555C86.8932 351.169 87.0026 350.568 87.0078 349.75V346.938ZM97.9609 349.555H99.1172V351.586H97.9609V354H95.3281V351.586H90.9297L90.7734 349.977L95.3281 342.648V342.625H97.9609V349.555ZM93.2812 349.555H95.3281V346.055L95.1641 346.32L93.2812 349.555Z" fill="#222222"/>
<path d="M48.6016 392.031L44.3516 402H41.5703L45.8281 392.656H40.4062V390.625H48.6016V392.031ZM57.8984 402H49.9609V400.281L53.6172 396.438C54.5182 395.411 54.9688 394.596 54.9688 393.992C54.9688 393.503 54.862 393.13 54.6484 392.875C54.4349 392.62 54.125 392.492 53.7188 392.492C53.3177 392.492 52.9922 392.664 52.7422 393.008C52.4922 393.346 52.3672 393.771 52.3672 394.281H49.7266C49.7266 393.583 49.901 392.94 50.25 392.352C50.599 391.758 51.0833 391.294 51.7031 390.961C52.3229 390.628 53.0156 390.461 53.7812 390.461C55.0104 390.461 55.9557 390.745 56.6172 391.312C57.2839 391.88 57.6172 392.695 57.6172 393.758C57.6172 394.206 57.5339 394.643 57.3672 395.07C57.2005 395.492 56.9401 395.938 56.5859 396.406C56.237 396.87 55.6719 397.492 54.8906 398.273L53.4219 399.969H57.8984V402ZM67.1641 402H59.2266V400.281L62.8828 396.438C63.7839 395.411 64.2344 394.596 64.2344 393.992C64.2344 393.503 64.1276 393.13 63.9141 392.875C63.7005 392.62 63.3906 392.492 62.9844 392.492C62.5833 392.492 62.2578 392.664 62.0078 393.008C61.7578 393.346 61.6328 393.771 61.6328 394.281H58.9922C58.9922 393.583 59.1667 392.94 59.5156 392.352C59.8646 391.758 60.349 391.294 60.9688 390.961C61.5885 390.628 62.2812 390.461 63.0469 390.461C64.276 390.461 65.2214 390.745 65.8828 391.312C66.5495 391.88 66.8828 392.695 66.8828 393.758C66.8828 394.206 66.7995 394.643 66.6328 395.07C66.4661 395.492 66.2057 395.938 65.8516 396.406C65.5026 396.87 64.9375 397.492 64.1562 398.273L62.6875 399.969H67.1641V402ZM80.1484 393.664C80.1484 394.216 80.0104 394.703 79.7344 395.125C79.4635 395.547 79.0885 395.885 78.6094 396.141C79.151 396.406 79.5807 396.771 79.8984 397.234C80.2161 397.693 80.375 398.237 80.375 398.867C80.375 399.883 80.0234 400.685 79.3203 401.273C78.6224 401.862 77.6589 402.156 76.4297 402.156C75.1953 402.156 74.2214 401.862 73.5078 401.273C72.7943 400.68 72.4375 399.878 72.4375 398.867C72.4375 398.258 72.5938 397.719 72.9062 397.25C73.2188 396.781 73.6615 396.411 74.2344 396.141C73.75 395.885 73.3698 395.547 73.0938 395.125C72.8177 394.703 72.6797 394.216 72.6797 393.664C72.6797 392.674 73.0156 391.893 73.6875 391.32C74.3594 390.747 75.2656 390.461 76.4062 390.461C77.5573 390.461 78.4688 390.747 79.1406 391.32C79.8125 391.893 80.1484 392.674 80.1484 393.664ZM77.7344 398.656C77.7344 398.188 77.612 397.828 77.3672 397.578C77.1276 397.323 76.8099 397.195 76.4141 397.195C76.0182 397.195 75.6979 397.323 75.4531 397.578C75.2083 397.828 75.0859 398.188 75.0859 398.656C75.0859 399.109 75.2083 399.469 75.4531 399.734C75.7031 399.995 76.0286 400.125 76.4297 400.125C76.8203 400.125 77.1354 399.995 77.375 399.734C77.6146 399.474 77.7344 399.115 77.7344 398.656ZM76.4062 392.492C76.0521 392.492 75.7812 392.609 75.5938 392.844C75.4115 393.073 75.3203 393.393 75.3203 393.805C75.3203 394.211 75.4141 394.539 75.6016 394.789C75.7891 395.039 76.0651 395.164 76.4297 395.164C76.7891 395.164 77.0573 395.039 77.2344 394.789C77.4167 394.539 77.5078 394.211 77.5078 393.805C77.5078 393.398 77.4141 393.078 77.2266 392.844C77.0443 392.609 76.7708 392.492 76.4062 392.492ZM89.4141 393.664C89.4141 394.216 89.276 394.703 89 395.125C88.7292 395.547 88.3542 395.885 87.875 396.141C88.4167 396.406 88.8464 396.771 89.1641 397.234C89.4818 397.693 89.6406 398.237 89.6406 398.867C89.6406 399.883 89.2891 400.685 88.5859 401.273C87.888 401.862 86.9245 402.156 85.6953 402.156C84.4609 402.156 83.487 401.862 82.7734 401.273C82.0599 400.68 81.7031 399.878 81.7031 398.867C81.7031 398.258 81.8594 397.719 82.1719 397.25C82.4844 396.781 82.9271 396.411 83.5 396.141C83.0156 395.885 82.6354 395.547 82.3594 395.125C82.0833 394.703 81.9453 394.216 81.9453 393.664C81.9453 392.674 82.2812 391.893 82.9531 391.32C83.625 390.747 84.5312 390.461 85.6719 390.461C86.8229 390.461 87.7344 390.747 88.4062 391.32C89.0781 391.893 89.4141 392.674 89.4141 393.664ZM87 398.656C87 398.188 86.8776 397.828 86.6328 397.578C86.3932 397.323 86.0755 397.195 85.6797 397.195C85.2839 397.195 84.9635 397.323 84.7188 397.578C84.474 397.828 84.3516 398.188 84.3516 398.656C84.3516 399.109 84.474 399.469 84.7188 399.734C84.9688 399.995 85.2943 400.125 85.6953 400.125C86.0859 400.125 86.401 399.995 86.6406 399.734C86.8802 399.474 87 399.115 87 398.656ZM85.6719 392.492C85.3177 392.492 85.0469 392.609 84.8594 392.844C84.6771 393.073 84.5859 393.393 84.5859 393.805C84.5859 394.211 84.6797 394.539 84.8672 394.789C85.0547 395.039 85.3307 395.164 85.6953 395.164C86.0547 395.164 86.3229 395.039 86.5 394.789C86.6823 394.539 86.7734 394.211 86.7734 393.805C86.7734 393.398 86.6797 393.078 86.4922 392.844C86.3099 392.609 86.0365 392.492 85.6719 392.492ZM93.4141 395.211H94.6562C95.6406 395.211 96.1328 394.729 96.1328 393.766C96.1328 393.391 96.0156 393.086 95.7812 392.852C95.5469 392.612 95.2161 392.492 94.7891 392.492C94.4401 392.492 94.1354 392.594 93.875 392.797C93.6198 393 93.4922 393.253 93.4922 393.555H90.8594C90.8594 392.956 91.026 392.422 91.3594 391.953C91.6927 391.484 92.1536 391.12 92.7422 390.859C93.3359 390.594 93.987 390.461 94.6953 390.461C95.9609 390.461 96.9557 390.75 97.6797 391.328C98.4036 391.906 98.7656 392.701 98.7656 393.711C98.7656 394.201 98.6146 394.664 98.3125 395.102C98.0156 395.534 97.5807 395.885 97.0078 396.156C97.612 396.375 98.0859 396.708 98.4297 397.156C98.7734 397.599 98.9453 398.148 98.9453 398.805C98.9453 399.82 98.5547 400.633 97.7734 401.242C96.9922 401.852 95.9661 402.156 94.6953 402.156C93.9505 402.156 93.2578 402.016 92.6172 401.734C91.9818 401.448 91.5 401.055 91.1719 400.555C90.8438 400.049 90.6797 399.477 90.6797 398.836H93.3281C93.3281 399.185 93.4688 399.487 93.75 399.742C94.0312 399.997 94.3776 400.125 94.7891 400.125C95.2526 400.125 95.6224 399.997 95.8984 399.742C96.1745 399.482 96.3125 399.151 96.3125 398.75C96.3125 398.177 96.1693 397.771 95.8828 397.531C95.5964 397.292 95.2005 397.172 94.6953 397.172H93.4141V395.211Z" fill="#222222"/>
<path d="M5.92285 243.891V248.642C5.92285 249.397 5.68034 249.996 5.19531 250.438C4.71354 250.878 4.07064 251.098 3.2666 251.098C2.4528 251.098 1.80664 250.881 1.32812 250.448C0.849609 250.012 0.610352 249.408 0.610352 248.637V243.891H1.84082V248.646C1.84082 249.122 1.96126 249.485 2.20215 249.735C2.44303 249.986 2.79785 250.111 3.2666 250.111C4.21712 250.111 4.69238 249.61 4.69238 248.607V243.891H5.92285ZM10.8584 248.261H9.48145V251H8.24609V243.891H10.7461C11.5664 243.891 12.1995 244.075 12.6455 244.442C13.0915 244.81 13.3145 245.342 13.3145 246.039C13.3145 246.514 13.1989 246.913 12.9678 247.235C12.7399 247.554 12.4209 247.8 12.0107 247.973L13.6074 250.937V251H12.2842L10.8584 248.261ZM9.48145 247.27H10.751C11.1676 247.27 11.4932 247.165 11.7275 246.957C11.9619 246.745 12.0791 246.457 12.0791 246.093C12.0791 245.712 11.9701 245.417 11.752 245.209C11.5371 245.001 11.2148 244.893 10.7852 244.887H9.48145V247.27ZM16.6484 250.014H20.4473V251H15.1543V250.199L18.8311 244.887H15.1787V243.891H20.3301V244.672L16.6484 250.014ZM24.8311 247.26L26.4668 243.891H27.834L25.4512 248.383V251H24.2109V248.383L21.8232 243.891H23.1953L24.8311 247.26ZM34.8301 244.887H32.6133V251H31.3877V244.887H29.1904V243.891H34.8301V244.887ZM38.8086 247.929L38.0029 248.783V251H36.7676V243.891H38.0029V247.226L38.6865 246.381L40.7666 243.891H42.2607L39.6191 247.04L42.4121 251H40.9473L38.8086 247.929ZM49.5938 247.631C49.5938 248.327 49.4733 248.939 49.2324 249.467C48.9915 249.991 48.6465 250.395 48.1973 250.678C47.7513 250.958 47.237 251.098 46.6543 251.098C46.0781 251.098 45.5638 250.958 45.1113 250.678C44.6621 250.395 44.3138 249.993 44.0664 249.472C43.8223 248.951 43.6986 248.35 43.6953 247.67V247.27C43.6953 246.576 43.8174 245.964 44.0615 245.434C44.3089 244.903 44.6556 244.498 45.1016 244.218C45.5508 243.935 46.0651 243.793 46.6445 243.793C47.224 243.793 47.7367 243.933 48.1826 244.213C48.6318 244.49 48.9785 244.89 49.2227 245.414C49.4668 245.935 49.5905 246.542 49.5938 247.235V247.631ZM48.3584 247.26C48.3584 246.472 48.2087 245.868 47.9092 245.448C47.613 245.028 47.1914 244.818 46.6445 244.818C46.1107 244.818 45.6924 245.028 45.3896 245.448C45.0902 245.865 44.9372 246.456 44.9307 247.221V247.631C44.9307 248.412 45.082 249.016 45.3848 249.442C45.6908 249.869 46.1139 250.082 46.6543 250.082C47.2012 250.082 47.6211 249.874 47.9141 249.457C48.2103 249.04 48.3584 248.432 48.3584 247.631V247.26ZM57.4004 249.242L58.4941 243.891H59.7197L58.0791 251H56.8975L55.5449 245.81L54.1631 251H52.9766L51.3359 243.891H52.5615L53.665 249.232L55.0225 243.891H56.0576L57.4004 249.242ZM67.2627 251H66.0273L62.8584 245.956V251H61.623V243.891H62.8584L66.0371 248.954V243.891H67.2627V251ZM71.0264 251H69.7959V243.891H71.0264V251ZM75.5859 247.929L74.7803 248.783V251H73.5449V243.891H74.7803V247.226L75.4639 246.381L77.5439 243.891H79.0381L76.3965 247.04L79.1895 251H77.7246L75.5859 247.929ZM86.3711 247.631C86.3711 248.327 86.2507 248.939 86.0098 249.467C85.7689 249.991 85.4238 250.395 84.9746 250.678C84.5286 250.958 84.0143 251.098 83.4316 251.098C82.8555 251.098 82.3411 250.958 81.8887 250.678C81.4395 250.395 81.0911 249.993 80.8438 249.472C80.5996 248.951 80.4759 248.35 80.4727 247.67V247.27C80.4727 246.576 80.5947 245.964 80.8389 245.434C81.0863 244.903 81.4329 244.498 81.8789 244.218C82.3281 243.935 82.8424 243.793 83.4219 243.793C84.0013 243.793 84.514 243.933 84.96 244.213C85.4092 244.49 85.7559 244.89 86 245.414C86.2441 245.935 86.3678 246.542 86.3711 247.235V247.631ZM85.1357 247.26C85.1357 246.472 84.986 245.868 84.6865 245.448C84.3903 245.028 83.9688 244.818 83.4219 244.818C82.888 244.818 82.4697 245.028 82.167 245.448C81.8675 245.865 81.7145 246.456 81.708 247.221V247.631C81.708 248.412 81.8594 249.016 82.1621 249.442C82.4681 249.869 82.8913 250.082 83.4316 250.082C83.9785 250.082 84.3984 249.874 84.6914 249.457C84.9876 249.04 85.1357 248.432 85.1357 247.631V247.26ZM83.7832 241.986H85.1357L83.7832 243.466H82.8311L83.7832 241.986ZM94.1777 249.242L95.2715 243.891H96.4971L94.8564 251H93.6748L92.3223 245.81L90.9404 251H89.7539L88.1133 243.891H89.3389L90.4424 249.232L91.7998 243.891H92.835L94.1777 249.242Z" fill="#888888"/>
<rect y="276" width="32" height="32" rx="4" fill="#B875ED"/>
<rect y="324" width="32" height="32" rx="4" fill="#84C6EC"/>
<rect y="372" width="32" height="32" rx="4" fill="#CD933B"/>
<path d="M15.8516 451.438L16.5469 445.625H23.1953V447.672H18.6875L18.4297 449.93C18.6172 449.82 18.862 449.724 19.1641 449.641C19.4714 449.557 19.7708 449.516 20.0625 449.516C21.1927 449.516 22.0599 449.852 22.6641 450.523C23.2734 451.19 23.5781 452.128 23.5781 453.336C23.5781 454.065 23.4141 454.727 23.0859 455.32C22.763 455.909 22.3073 456.362 21.7188 456.68C21.1302 456.997 20.4349 457.156 19.6328 457.156C18.9193 457.156 18.25 457.01 17.625 456.719C17 456.422 16.5104 456.018 16.1562 455.508C15.8021 454.992 15.6276 454.411 15.6328 453.766H18.2734C18.2995 454.182 18.4323 454.513 18.6719 454.758C18.9115 455.003 19.2266 455.125 19.6172 455.125C20.5026 455.125 20.9453 454.469 20.9453 453.156C20.9453 451.943 20.4036 451.336 19.3203 451.336C18.7057 451.336 18.2474 451.534 17.9453 451.93L15.8516 451.438ZM31.3203 445.461V447.531H31.2031C30.2188 447.531 29.4089 447.768 28.7734 448.242C28.1432 448.711 27.7552 449.365 27.6094 450.203C28.2031 449.62 28.9531 449.328 29.8594 449.328C30.8438 449.328 31.6276 449.688 32.2109 450.406C32.7943 451.125 33.0859 452.068 33.0859 453.234C33.0859 453.958 32.9141 454.622 32.5703 455.227C32.2318 455.831 31.7552 456.305 31.1406 456.648C30.5312 456.987 29.8542 457.156 29.1094 457.156C28.3021 457.156 27.5807 456.974 26.9453 456.609C26.3099 456.24 25.8151 455.714 25.4609 455.031C25.1068 454.349 24.9245 453.562 24.9141 452.672V451.617C24.9141 450.445 25.1641 449.393 25.6641 448.461C26.1693 447.523 26.888 446.789 27.8203 446.258C28.7526 445.727 29.7865 445.461 30.9219 445.461H31.3203ZM28.9453 451.344C28.5964 451.344 28.3047 451.424 28.0703 451.586C27.8359 451.747 27.6615 451.945 27.5469 452.18V452.969C27.5469 454.406 28.0443 455.125 29.0391 455.125C29.4401 455.125 29.7734 454.945 30.0391 454.586C30.3099 454.227 30.4453 453.776 30.4453 453.234C30.4453 452.677 30.3073 452.224 30.0312 451.875C29.7604 451.521 29.3984 451.344 28.9453 451.344ZM33.8828 452.406C33.8828 452.055 33.9974 451.771 34.2266 451.555C34.4557 451.339 34.763 451.23 35.1484 451.23C35.5391 451.23 35.8477 451.339 36.0742 451.555C36.3008 451.768 36.4141 452.059 36.4141 452.426V452.707C36.4141 453.059 36.3008 453.341 36.0742 453.555C35.8477 453.768 35.5417 453.875 35.1562 453.875C34.7734 453.875 34.4648 453.77 34.2305 453.559C33.9987 453.345 33.8828 453.053 33.8828 452.684V452.406ZM34.7305 452.707C34.7305 452.842 34.7682 452.953 34.8438 453.039C34.9193 453.122 35.0234 453.164 35.1562 453.164C35.4297 453.164 35.5664 452.99 35.5664 452.641V452.406C35.5664 452.271 35.5299 452.16 35.457 452.074C35.3841 451.986 35.2812 451.941 35.1484 451.941C35.0208 451.941 34.9193 451.984 34.8438 452.07C34.7682 452.154 34.7305 452.268 34.7305 452.414V452.707ZM36.5859 455.605C36.5859 455.251 36.7005 454.967 36.9297 454.754C37.1615 454.54 37.4688 454.434 37.8516 454.434C38.2396 454.434 38.5482 454.539 38.7773 454.75C39.0065 454.961 39.1211 455.255 39.1211 455.633V455.906C39.1211 456.26 39.0078 456.544 38.7812 456.758C38.5547 456.971 38.2474 457.078 37.8594 457.078C37.4766 457.078 37.168 456.973 36.9336 456.762C36.7018 456.548 36.5859 456.257 36.5859 455.887V455.605ZM37.4297 455.906C37.4297 456.029 37.4714 456.137 37.5547 456.23C37.638 456.322 37.7396 456.367 37.8594 456.367C38.112 456.367 38.2487 456.247 38.2695 456.008L38.2734 455.605C38.2734 455.467 38.2357 455.357 38.1602 455.273C38.0846 455.188 37.9818 455.145 37.8516 455.145C37.7266 455.145 37.6263 455.185 37.5508 455.266C37.4753 455.344 37.4349 455.451 37.4297 455.586V455.906ZM35.4062 456.574L34.793 456.266L37.5703 451.82L38.1836 452.129L35.4062 456.574Z" fill="#222222"/>
<path d="M86.6016 447.031L82.3516 457H79.5703L83.8281 447.656H78.4062V445.625H86.6016V447.031ZM93.1484 452.602C92.5807 453.112 91.9453 453.367 91.2422 453.367C90.2109 453.367 89.3932 453.018 88.7891 452.32C88.1849 451.622 87.8828 450.69 87.8828 449.523C87.8828 448.794 88.0521 448.117 88.3906 447.492C88.7292 446.867 89.2031 446.372 89.8125 446.008C90.4271 445.643 91.1042 445.461 91.8438 445.461C92.5938 445.461 93.2708 445.651 93.875 446.031C94.4844 446.406 94.9583 446.94 95.2969 447.633C95.6354 448.32 95.8099 449.115 95.8203 450.016V451.023C95.8203 452.279 95.5729 453.367 95.0781 454.289C94.5885 455.211 93.888 455.919 92.9766 456.414C92.0651 456.909 91.0026 457.156 89.7891 457.156H89.625V455.047L90.125 455.039C91.9375 454.951 92.9453 454.138 93.1484 452.602ZM91.9531 451.469C92.526 451.469 92.9375 451.221 93.1875 450.727V449.633C93.1875 448.904 93.0651 448.365 92.8203 448.016C92.5755 447.667 92.2448 447.492 91.8281 447.492C91.4583 447.492 91.1484 447.69 90.8984 448.086C90.6484 448.482 90.5234 448.961 90.5234 449.523C90.5234 450.117 90.651 450.591 90.9062 450.945C91.1615 451.294 91.5104 451.469 91.9531 451.469ZM96.8828 452.406C96.8828 452.055 96.9974 451.771 97.2266 451.555C97.4557 451.339 97.763 451.23 98.1484 451.23C98.5391 451.23 98.8477 451.339 99.0742 451.555C99.3008 451.768 99.4141 452.059 99.4141 452.426V452.707C99.4141 453.059 99.3008 453.341 99.0742 453.555C98.8477 453.768 98.5417 453.875 98.1562 453.875C97.7734 453.875 97.4648 453.77 97.2305 453.559C96.9987 453.345 96.8828 453.053 96.8828 452.684V452.406ZM97.7305 452.707C97.7305 452.842 97.7682 452.953 97.8438 453.039C97.9193 453.122 98.0234 453.164 98.1562 453.164C98.4297 453.164 98.5664 452.99 98.5664 452.641V452.406C98.5664 452.271 98.5299 452.16 98.457 452.074C98.3841 451.986 98.2812 451.941 98.1484 451.941C98.0208 451.941 97.9193 451.984 97.8438 452.07C97.7682 452.154 97.7305 452.268 97.7305 452.414V452.707ZM99.5859 455.605C99.5859 455.251 99.7005 454.967 99.9297 454.754C100.161 454.54 100.469 454.434 100.852 454.434C101.24 454.434 101.548 454.539 101.777 454.75C102.007 454.961 102.121 455.255 102.121 455.633V455.906C102.121 456.26 102.008 456.544 101.781 456.758C101.555 456.971 101.247 457.078 100.859 457.078C100.477 457.078 100.168 456.973 99.9336 456.762C99.7018 456.548 99.5859 456.257 99.5859 455.887V455.605ZM100.43 455.906C100.43 456.029 100.471 456.137 100.555 456.23C100.638 456.322 100.74 456.367 100.859 456.367C101.112 456.367 101.249 456.247 101.27 456.008L101.273 455.605C101.273 455.467 101.236 455.357 101.16 455.273C101.085 455.188 100.982 455.145 100.852 455.145C100.727 455.145 100.626 455.185 100.551 455.266C100.475 455.344 100.435 455.451 100.43 455.586V455.906ZM98.4062 456.574L97.793 456.266L100.57 451.82L101.184 452.129L98.4062 456.574Z" fill="#222222"/>
<path d="M151.648 452.555H152.805V454.586H151.648V457H149.016V454.586H144.617L144.461 452.977L149.016 445.648V445.625H151.648V452.555ZM146.969 452.555H149.016V449.055L148.852 449.32L146.969 452.555ZM161.859 452.352C161.859 453.888 161.513 455.073 160.82 455.906C160.133 456.74 159.161 457.156 157.906 457.156C156.641 457.156 155.661 456.737 154.969 455.898C154.276 455.06 153.93 453.878 153.93 452.352V450.273C153.93 448.737 154.273 447.552 154.961 446.719C155.654 445.885 156.63 445.469 157.891 445.469C159.151 445.469 160.128 445.888 160.82 446.727C161.513 447.565 161.859 448.75 161.859 450.281V452.352ZM159.227 449.938C159.227 449.12 159.12 448.51 158.906 448.109C158.693 447.703 158.354 447.5 157.891 447.5C157.438 447.5 157.107 447.688 156.898 448.062C156.695 448.438 156.586 449.005 156.57 449.766V452.672C156.57 453.521 156.677 454.143 156.891 454.539C157.104 454.93 157.443 455.125 157.906 455.125C158.354 455.125 158.685 454.935 158.898 454.555C159.112 454.169 159.221 453.568 159.227 452.75V449.938ZM162.883 452.406C162.883 452.055 162.997 451.771 163.227 451.555C163.456 451.339 163.763 451.23 164.148 451.23C164.539 451.23 164.848 451.339 165.074 451.555C165.301 451.768 165.414 452.059 165.414 452.426V452.707C165.414 453.059 165.301 453.341 165.074 453.555C164.848 453.768 164.542 453.875 164.156 453.875C163.773 453.875 163.465 453.77 163.23 453.559C162.999 453.345 162.883 453.053 162.883 452.684V452.406ZM163.73 452.707C163.73 452.842 163.768 452.953 163.844 453.039C163.919 453.122 164.023 453.164 164.156 453.164C164.43 453.164 164.566 452.99 164.566 452.641V452.406C164.566 452.271 164.53 452.16 164.457 452.074C164.384 451.986 164.281 451.941 164.148 451.941C164.021 451.941 163.919 451.984 163.844 452.07C163.768 452.154 163.73 452.268 163.73 452.414V452.707ZM165.586 455.605C165.586 455.251 165.701 454.967 165.93 454.754C166.161 454.54 166.469 454.434 166.852 454.434C167.24 454.434 167.548 454.539 167.777 454.75C168.007 454.961 168.121 455.255 168.121 455.633V455.906C168.121 456.26 168.008 456.544 167.781 456.758C167.555 456.971 167.247 457.078 166.859 457.078C166.477 457.078 166.168 456.973 165.934 456.762C165.702 456.548 165.586 456.257 165.586 455.887V455.605ZM166.43 455.906C166.43 456.029 166.471 456.137 166.555 456.23C166.638 456.322 166.74 456.367 166.859 456.367C167.112 456.367 167.249 456.247 167.27 456.008L167.273 455.605C167.273 455.467 167.236 455.357 167.16 455.273C167.085 455.188 166.982 455.145 166.852 455.145C166.727 455.145 166.626 455.185 166.551 455.266C166.475 455.344 166.435 455.451 166.43 455.586V455.906ZM164.406 456.574L163.793 456.266L166.57 451.82L167.184 452.129L164.406 456.574Z" fill="#222222"/>
<path d="M1.62695 48.0234L3.0625 51.8379L4.49463 48.0234H5.6123V53H4.75098V51.3594L4.83643 49.165L3.3667 53H2.74805L1.28174 49.1685L1.36719 51.3594V53H0.505859V48.0234H1.62695ZM8.25029 53H7.38896V48.0234H8.25029V53ZM12.922 50.7783H10.878V52.3096H13.2672V53H10.0133V48.0234H13.2433V48.7207H10.878V50.0947H12.922V50.7783ZM17.2724 51.7183C17.2724 51.4995 17.1949 51.3309 17.0399 51.2124C16.8873 51.0939 16.6104 50.9743 16.2094 50.8535C15.8083 50.7327 15.4893 50.5983 15.2523 50.4502C14.7989 50.1654 14.5722 49.7939 14.5722 49.3359C14.5722 48.9349 14.7351 48.6045 15.0609 48.3447C15.3891 48.085 15.814 47.9551 16.3358 47.9551C16.6822 47.9551 16.991 48.0189 17.2621 48.1465C17.5333 48.2741 17.7463 48.4564 17.9013 48.6934C18.0562 48.9281 18.1337 49.189 18.1337 49.4761H17.2724C17.2724 49.2163 17.1903 49.0135 17.0263 48.8677C16.8645 48.7196 16.6321 48.6455 16.329 48.6455C16.0465 48.6455 15.8266 48.7059 15.6693 48.8267C15.5144 48.9474 15.4369 49.116 15.4369 49.3325C15.4369 49.5148 15.5212 49.6675 15.6898 49.7905C15.8585 49.9113 16.1365 50.0298 16.5238 50.146C16.9112 50.2599 17.2222 50.391 17.4569 50.5391C17.6916 50.6849 17.8637 50.8535 17.973 51.0449C18.0824 51.234 18.1371 51.4562 18.1371 51.7114C18.1371 52.1261 17.9776 52.4565 17.6586 52.7026C17.3419 52.9465 16.9112 53.0684 16.3666 53.0684C16.0066 53.0684 15.675 53.0023 15.372 52.8701C15.0712 52.7357 14.8365 52.5511 14.6679 52.3164C14.5015 52.0817 14.4184 51.8083 14.4184 51.4961H15.2831C15.2831 51.7786 15.3765 51.9974 15.5634 52.1523C15.7502 52.3073 16.018 52.3848 16.3666 52.3848C16.6674 52.3848 16.893 52.3244 17.0434 52.2036C17.196 52.0806 17.2724 51.9188 17.2724 51.7183ZM20.5085 53H19.6472V48.0234H20.5085V53ZM24.5444 48.0234L26.4277 53H26.2158C26.0176 53.1276 25.8763 53.245 25.792 53.3521C25.7077 53.4591 25.6655 53.5685 25.6655 53.6802C25.6655 53.8351 25.7464 53.9126 25.9082 53.9126C26.0085 53.9126 26.111 53.8864 26.2158 53.834L26.2876 54.3193C26.1213 54.4196 25.9333 54.4697 25.7236 54.4697C25.5072 54.4697 25.3328 54.4071 25.2007 54.2817C25.0685 54.1564 25.0024 53.9901 25.0024 53.7827C25.0024 53.4614 25.1722 53.1891 25.5117 52.9658L25.1187 51.8413H23.1909L22.7876 53H21.8887L23.7686 48.0234H24.5444ZM23.4336 51.144H24.876L24.1548 49.0796L23.4336 51.144ZM31.4173 51.3799C31.3672 51.9108 31.1712 52.3255 30.8294 52.624C30.4876 52.9202 30.033 53.0684 29.4656 53.0684C29.0691 53.0684 28.7194 52.9749 28.4163 52.7881C28.1155 52.599 27.8831 52.3312 27.719 51.9849C27.555 51.6385 27.4695 51.2363 27.4627 50.7783V50.3135C27.4627 49.8441 27.5459 49.4305 27.7122 49.0728C27.8785 48.715 28.1167 48.4393 28.4266 48.2456C28.7387 48.0519 29.0988 47.9551 29.5066 47.9551C30.0558 47.9551 30.4979 48.1043 30.8328 48.4028C31.1678 48.7013 31.3626 49.1229 31.4173 49.6675H30.556C30.5149 49.3097 30.4101 49.0522 30.2415 48.895C30.0752 48.7355 29.8302 48.6558 29.5066 48.6558C29.1307 48.6558 28.8413 48.7936 28.6385 49.0693C28.438 49.3428 28.3354 49.745 28.3309 50.2759V50.7168C28.3309 51.2546 28.4266 51.6647 28.618 51.9473C28.8117 52.2298 29.0942 52.3711 29.4656 52.3711C29.8051 52.3711 30.0604 52.2948 30.2313 52.1421C30.4021 51.9894 30.5104 51.7354 30.556 51.3799H31.4173Z" fill="#888888"/>
<path d="M0.505859 98V93.0234H1.97559C2.41536 93.0234 2.80501 93.1214 3.14453 93.3174C3.48633 93.5133 3.75065 93.7913 3.9375 94.1514C4.12435 94.5114 4.21777 94.9238 4.21777 95.3887V95.6382C4.21777 96.1099 4.12321 96.5246 3.93408 96.8823C3.74723 97.2401 3.47949 97.5158 3.13086 97.7095C2.78451 97.9032 2.38688 98 1.93799 98H0.505859ZM1.37061 93.7207V97.3096H1.93457C2.38802 97.3096 2.73551 97.1683 2.97705 96.8857C3.22087 96.6009 3.34505 96.193 3.34961 95.6621V95.3853C3.34961 94.8452 3.23226 94.4328 2.99756 94.1479C2.76286 93.8631 2.4222 93.7207 1.97559 93.7207H1.37061ZM6.51055 97.3096H9.16973V98H5.46465V97.4395L8.03838 93.7207H5.48174V93.0234H9.0877V93.5703L6.51055 97.3096ZM11.5274 98H10.6661V93.0234H11.5274V98ZM16.1991 95.7783H14.1552V97.3096H16.5443V98H13.2904V93.0234H16.5204V93.7207H14.1552V95.0947H16.1991V95.7783ZM21.8962 98H21.0314L18.8132 94.4692V98H17.9484V93.0234H18.8132L21.0383 96.5679V93.0234H21.8962V98ZM20.1701 91.6904H21.1169L20.1701 92.7261H19.5036L20.1701 91.6904Z" fill="#888888"/>
<path d="M2.33447 4.08252H1.37061V6H0.505859V1.02344H2.25586C2.83008 1.02344 3.27327 1.15218 3.58545 1.40967C3.89762 1.66715 4.05371 2.03971 4.05371 2.52734C4.05371 2.86003 3.97282 3.13916 3.81104 3.36475C3.65153 3.58805 3.42822 3.76009 3.14111 3.88086L4.25879 5.95557V6H3.33252L2.33447 4.08252ZM1.37061 3.38867H2.25928C2.55094 3.38867 2.77881 3.31576 2.94287 3.16992C3.10693 3.02181 3.18896 2.82015 3.18896 2.56494C3.18896 2.29834 3.11263 2.09212 2.95996 1.94629C2.80957 1.80046 2.58398 1.72526 2.2832 1.7207H1.37061V3.38867ZM9.5457 3.6416C9.5457 4.12923 9.46139 4.55762 9.29277 4.92676C9.12415 5.29362 8.88262 5.57617 8.56816 5.77441C8.25599 5.97038 7.89596 6.06836 7.48809 6.06836C7.08477 6.06836 6.72474 5.97038 6.40801 5.77441C6.09355 5.57617 5.84974 5.29476 5.67656 4.93018C5.50566 4.56559 5.41908 4.14518 5.4168 3.66895V3.38867C5.4168 2.90332 5.50225 2.47493 5.67314 2.10352C5.84632 1.7321 6.089 1.4484 6.40117 1.25244C6.71562 1.0542 7.07565 0.955078 7.48125 0.955078C7.88685 0.955078 8.24574 1.05306 8.55791 1.24902C8.87236 1.44271 9.11504 1.72298 9.28594 2.08984C9.45684 2.45443 9.54342 2.87939 9.5457 3.36475V3.6416ZM8.68096 3.38184C8.68096 2.8304 8.57614 2.40771 8.3665 2.11377C8.15915 1.81982 7.86406 1.67285 7.48125 1.67285C7.10755 1.67285 6.81475 1.81982 6.60283 2.11377C6.3932 2.40544 6.2861 2.81901 6.28154 3.35449V3.6416C6.28154 4.18848 6.3875 4.61117 6.59941 4.90967C6.81361 5.20817 7.10983 5.35742 7.48809 5.35742C7.8709 5.35742 8.16484 5.21159 8.36992 4.91992C8.57728 4.62826 8.68096 4.20215 8.68096 3.6416V3.38184ZM12.5357 3.8501L11.9718 4.44824V6H11.107V1.02344H11.9718V3.35791L12.4503 2.7666L13.9063 1.02344H14.9522L13.1031 3.22803L15.0582 6H14.0328L12.5357 3.8501Z" fill="#888888"/>
<path d="M10.0156 67.5625C9.59375 68.0677 8.9974 68.4609 8.22656 68.7422C7.45573 69.0182 6.60156 69.1562 5.66406 69.1562C4.67969 69.1562 3.8151 68.9427 3.07031 68.5156C2.33073 68.0833 1.75781 67.4583 1.35156 66.6406C0.950521 65.8229 0.744792 64.862 0.734375 63.7578V62.9844C0.734375 61.849 0.924479 60.8672 1.30469 60.0391C1.6901 59.2057 2.24219 58.5703 2.96094 58.1328C3.6849 57.6901 4.53125 57.4688 5.5 57.4688C6.84896 57.4688 7.90365 57.7917 8.66406 58.4375C9.42448 59.0781 9.875 60.013 10.0156 61.2422H7.73438C7.63021 60.5911 7.39844 60.1146 7.03906 59.8125C6.6849 59.5104 6.19531 59.3594 5.57031 59.3594C4.77344 59.3594 4.16667 59.6589 3.75 60.2578C3.33333 60.8568 3.1224 61.7474 3.11719 62.9297V63.6562C3.11719 64.849 3.34375 65.75 3.79688 66.3594C4.25 66.9688 4.91406 67.2734 5.78906 67.2734C6.66927 67.2734 7.29688 67.0859 7.67188 66.7109V64.75H5.53906V63.0234H10.0156V67.5625ZM16.5234 62.6641C16.2161 62.6224 15.9453 62.6016 15.7109 62.6016C14.8568 62.6016 14.2969 62.8906 14.0312 63.4688V69H11.7734V60.5469H13.9062L13.9688 61.5547C14.4219 60.7786 15.0495 60.3906 15.8516 60.3906C16.1016 60.3906 16.3359 60.4245 16.5547 60.4922L16.5234 62.6641ZM22.6797 68.1406C22.1224 68.8177 21.3516 69.1562 20.3672 69.1562C19.4609 69.1562 18.7682 68.8958 18.2891 68.375C17.8151 67.8542 17.5729 67.0911 17.5625 66.0859V60.5469H19.8203V66.0078C19.8203 66.888 20.2214 67.3281 21.0234 67.3281C21.7891 67.3281 22.3151 67.0625 22.6016 66.5312V60.5469H24.8672V69H22.7422L22.6797 68.1406ZM26.2188 64.7109C26.2188 63.3932 26.513 62.3438 27.1016 61.5625C27.6953 60.7812 28.5052 60.3906 29.5312 60.3906C30.3542 60.3906 31.0339 60.6979 31.5703 61.3125V57H33.8359V69H31.7969L31.6875 68.1016C31.125 68.8047 30.401 69.1562 29.5156 69.1562C28.5208 69.1562 27.7214 68.7656 27.1172 67.9844C26.5182 67.1979 26.2188 66.1068 26.2188 64.7109ZM28.4766 64.875C28.4766 65.6667 28.6146 66.2734 28.8906 66.6953C29.1667 67.1172 29.5677 67.3281 30.0938 67.3281C30.7917 67.3281 31.2839 67.0339 31.5703 66.4453V63.1094C31.2891 62.5208 30.8021 62.2266 30.1094 62.2266C29.0208 62.2266 28.4766 63.1094 28.4766 64.875ZM38.1797 67.1797H42.3125V69H35.2969V67.625L39.2734 62.375H35.4141V60.5469H42.1875V61.8828L38.1797 67.1797ZM46.1094 69H43.8438V60.5469H46.1094V69ZM43.7109 58.3594C43.7109 58.0208 43.8229 57.7422 44.0469 57.5234C44.276 57.3047 44.5859 57.1953 44.9766 57.1953C45.362 57.1953 45.6693 57.3047 45.8984 57.5234C46.1276 57.7422 46.2422 58.0208 46.2422 58.3594C46.2422 58.7031 46.125 58.9844 45.8906 59.2031C45.6615 59.4219 45.3568 59.5312 44.9766 59.5312C44.5964 59.5312 44.2891 59.4219 44.0547 59.2031C43.8255 58.9844 43.7109 58.7031 43.7109 58.3594ZM51.8672 69.1562C50.6276 69.1562 49.6172 68.776 48.8359 68.0156C48.0599 67.2552 47.6719 66.2422 47.6719 64.9766V64.7578C47.6719 63.9089 47.8359 63.151 48.1641 62.4844C48.4922 61.8125 48.9557 61.2969 49.5547 60.9375C50.1589 60.5729 50.8464 60.3906 51.6172 60.3906C52.7734 60.3906 53.6823 60.7552 54.3438 61.4844C55.0104 62.2135 55.3438 63.2474 55.3438 64.5859V65.5078H49.9609C50.0339 66.0599 50.2526 66.5026 50.6172 66.8359C50.987 67.1693 51.4531 67.3359 52.0156 67.3359C52.8854 67.3359 53.5651 67.0208 54.0547 66.3906L55.1641 67.6328C54.8255 68.112 54.3672 68.487 53.7891 68.7578C53.2109 69.0234 52.5703 69.1562 51.8672 69.1562ZM51.6094 62.2188C51.1615 62.2188 50.7969 62.3698 50.5156 62.6719C50.2396 62.974 50.0625 63.4062 49.9844 63.9688H53.125V63.7891C53.1146 63.2891 52.9792 62.9036 52.7188 62.6328C52.4583 62.3568 52.0885 62.2188 51.6094 62.2188ZM58.7109 60.5469L58.7812 61.5234C59.3854 60.7682 60.1953 60.3906 61.2109 60.3906C62.1068 60.3906 62.7734 60.6536 63.2109 61.1797C63.6484 61.7057 63.8724 62.4922 63.8828 63.5391V69H61.625V63.5938C61.625 63.1146 61.5208 62.7682 61.3125 62.5547C61.1042 62.3359 60.7578 62.2266 60.2734 62.2266C59.638 62.2266 59.1615 62.4974 58.8438 63.0391V69H56.5859V60.5469H58.7109Z" fill="#222222"/>
<path d="M8.57031 114H0.773438V112.453L4.45312 108.531C4.95833 107.979 5.33073 107.497 5.57031 107.086C5.8151 106.674 5.9375 106.284 5.9375 105.914C5.9375 105.409 5.8099 105.013 5.55469 104.727C5.29948 104.435 4.9349 104.289 4.46094 104.289C3.95052 104.289 3.54688 104.466 3.25 104.82C2.95833 105.169 2.8125 105.63 2.8125 106.203H0.546875C0.546875 105.51 0.710938 104.878 1.03906 104.305C1.3724 103.732 1.84115 103.284 2.44531 102.961C3.04948 102.633 3.73438 102.469 4.5 102.469C5.67188 102.469 6.58073 102.75 7.22656 103.312C7.8776 103.875 8.20312 104.669 8.20312 105.695C8.20312 106.258 8.05729 106.831 7.76562 107.414C7.47396 107.997 6.97396 108.677 6.26562 109.453L3.67969 112.18H8.57031V114ZM15.4453 114H13.1875V105.297L10.4922 106.133V104.297L15.2031 102.609H15.4453V114ZM23.6328 110.039H19.2344V108.219H23.6328V110.039ZM33.1484 114H25.3516V112.453L29.0312 108.531C29.5365 107.979 29.9089 107.497 30.1484 107.086C30.3932 106.674 30.5156 106.284 30.5156 105.914C30.5156 105.409 30.388 105.013 30.1328 104.727C29.8776 104.435 29.513 104.289 29.0391 104.289C28.5286 104.289 28.125 104.466 27.8281 104.82C27.5365 105.169 27.3906 105.63 27.3906 106.203H25.125C25.125 105.51 25.2891 104.878 25.6172 104.305C25.9505 103.732 26.4193 103.284 27.0234 102.961C27.6276 102.633 28.3125 102.469 29.0781 102.469C30.25 102.469 31.1589 102.75 31.8047 103.312C32.4557 103.875 32.7812 104.669 32.7812 105.695C32.7812 106.258 32.6354 106.831 32.3438 107.414C32.0521 107.997 31.5521 108.677 30.8438 109.453L28.2578 112.18H33.1484V114ZM41.2188 109.719H42.5078V111.539H41.2188V114H38.9609V111.539H34.2969L34.1953 110.117L38.9375 102.625H41.2188V109.719ZM36.4453 109.719H38.9609V105.703L38.8125 105.961L36.4453 109.719Z" fill="#222222"/>
<path d="M1.01562 24V12.625H4.51562C5.51562 12.625 6.40885 12.8516 7.19531 13.3047C7.98698 13.7526 8.60417 14.3932 9.04688 15.2266C9.48958 16.0547 9.71094 16.9974 9.71094 18.0547V18.5781C9.71094 19.6354 9.49219 20.5755 9.05469 21.3984C8.6224 22.2214 8.01042 22.8594 7.21875 23.3125C6.42708 23.7656 5.53385 23.9948 4.53906 24H1.01562ZM3.35938 14.5234V22.1172H4.49219C5.40885 22.1172 6.10938 21.8177 6.59375 21.2188C7.07812 20.6198 7.32552 19.763 7.33594 18.6484V18.0469C7.33594 16.8906 7.09635 16.0156 6.61719 15.4219C6.13802 14.8229 5.4375 14.5234 4.51562 14.5234H3.35938ZM10.9219 19.6953C10.9219 18.8568 11.0833 18.1094 11.4062 17.4531C11.7292 16.7969 12.1927 16.2891 12.7969 15.9297C13.4062 15.5703 14.112 15.3906 14.9141 15.3906C16.0547 15.3906 16.9844 15.7396 17.7031 16.4375C18.4271 17.1354 18.8307 18.0833 18.9141 19.2812L18.9297 19.8594C18.9297 21.1562 18.5677 22.1979 17.8438 22.9844C17.1198 23.7656 16.1484 24.1562 14.9297 24.1562C13.7109 24.1562 12.737 23.7656 12.0078 22.9844C11.2839 22.2031 10.9219 21.1406 10.9219 19.7969V19.6953ZM13.1797 19.8594C13.1797 20.6615 13.3307 21.276 13.6328 21.7031C13.9349 22.125 14.3672 22.3359 14.9297 22.3359C15.4766 22.3359 15.9036 22.1276 16.2109 21.7109C16.5182 21.2891 16.6719 20.6172 16.6719 19.6953C16.6719 18.9089 16.5182 18.2995 16.2109 17.8672C15.9036 17.4349 15.4714 17.2188 14.9141 17.2188C14.362 17.2188 13.9349 17.4349 13.6328 17.8672C13.3307 18.2943 13.1797 18.9583 13.1797 19.8594ZM27.6719 20.9297L28.7812 15.5469H30.9609L28.8047 24H26.9141L25.3125 18.6797L23.7109 24H21.8281L19.6719 15.5469H21.8516L22.9531 20.9219L24.5 15.5469H26.1328L27.6719 20.9297ZM31.7344 19.6953C31.7344 18.8568 31.8958 18.1094 32.2188 17.4531C32.5417 16.7969 33.0052 16.2891 33.6094 15.9297C34.2188 15.5703 34.9245 15.3906 35.7266 15.3906C36.8672 15.3906 37.7969 15.7396 38.5156 16.4375C39.2396 17.1354 39.6432 18.0833 39.7266 19.2812L39.7422 19.8594C39.7422 21.1562 39.3802 22.1979 38.6562 22.9844C37.9323 23.7656 36.9609 24.1562 35.7422 24.1562C34.5234 24.1562 33.5495 23.7656 32.8203 22.9844C32.0964 22.2031 31.7344 21.1406 31.7344 19.7969V19.6953ZM33.9922 19.8594C33.9922 20.6615 34.1432 21.276 34.4453 21.7031C34.7474 22.125 35.1797 22.3359 35.7422 22.3359C36.2891 22.3359 36.7161 22.1276 37.0234 21.7109C37.3307 21.2891 37.4844 20.6172 37.4844 19.6953C37.4844 18.9089 37.3307 18.2995 37.0234 17.8672C36.7161 17.4349 36.2839 17.2188 35.7266 17.2188C35.1745 17.2188 34.7474 17.4349 34.4453 17.8672C34.1432 18.2943 33.9922 18.9583 33.9922 19.8594ZM43.5156 24H41.25V12H43.5156V24ZM47.4609 15.5469L47.5312 16.5234C48.1354 15.7682 48.9453 15.3906 49.9609 15.3906C50.8568 15.3906 51.5234 15.6536 51.9609 16.1797C52.3984 16.7057 52.6224 17.4922 52.6328 18.5391V24H50.375V18.5938C50.375 18.1146 50.2708 17.7682 50.0625 17.5547C49.8542 17.3359 49.5078 17.2266 49.0234 17.2266C48.388 17.2266 47.9115 17.4974 47.5938 18.0391V24H45.3359V15.5469H47.4609ZM57.5078 20.8047L59.0703 15.5469H61.4922L58.0938 25.3125L57.9062 25.7578C57.401 26.862 56.5677 27.4141 55.4062 27.4141C55.0781 27.4141 54.7448 27.3646 54.4062 27.2656V25.5547L54.75 25.5625C55.1771 25.5625 55.4948 25.4974 55.7031 25.3672C55.9167 25.237 56.0833 25.0208 56.2031 24.7188L56.4688 24.0234L53.5078 15.5469H55.9375L57.5078 20.8047Z" fill="#222222"/>
<path d="M100 19L104 23L108 19" stroke="#001AFF" stroke-width="2" stroke-linecap="round" stroke-linejoin="round"/>
<path d="M100 64L104 68L108 64" stroke="#001AFF" stroke-width="2" stroke-linecap="round" stroke-linejoin="round"/>
<path d="M100 109L104 113L108 109" stroke="#001AFF" stroke-width="2" stroke-linecap="round" stroke-linejoin="round"/>
<rect x="1" y="75" width="108" height="1" fill="#E5E5E5"/>
<rect x="1" y="120" width="108" height="1" fill="#E5E5E5"/>
<rect x="1" y="30" width="108" height="1" fill="#E5E5E5"/>
<path d="M25 431C21.711 431 18.4727 431.811 15.5721 433.362C12.6714 434.912 10.1979 437.154 8.37061 439.889C6.54333 442.623 5.41869 445.766 5.09631 449.04C4.77393 452.313 5.26376 455.615 6.52241 458.654C7.78107 461.692 9.76969 464.374 12.3121 466.46C14.8546 468.547 17.8724 469.974 21.0982 470.616C24.324 471.257 27.6583 471.094 30.8057 470.139C33.9531 469.184 36.8165 467.468 39.1421 465.142" stroke="#B875ED" stroke-width="4"/>
<path d="M89 431C84.8029 431 80.7121 432.32 77.307 434.774C73.9019 437.228 71.3551 440.691 70.0273 444.673C68.6994 448.654 68.6578 452.953 69.9084 456.959C71.1589 460.966 73.6382 464.477 76.9952 466.996C80.3521 469.516 84.4166 470.915 88.6129 470.996C92.8093 471.077 96.9248 469.836 100.377 467.449C103.829 465.062 106.442 461.649 107.847 457.693C109.251 453.738 109.376 449.442 108.203 445.412" stroke="#84C6EC" stroke-width="4"/>
<path d="M153 431C149.044 431 145.178 432.173 141.889 434.371C138.6 436.568 136.036 439.692 134.522 443.346C133.009 447.001 132.613 451.022 133.384 454.902C134.156 458.781 136.061 462.345 138.858 465.142" stroke="#CD933B" stroke-width="4"/>
<path d="M10.6667 342C10.6667 342 11.3333 341.333 13.3333 341.333C15.3333 341.333 16.6667 342.667 18.6667 342.667C20.6667 342.667 21.3333 342 21.3333 342V334C21.3333 334 20.6667 334.667 18.6667 334.667C16.6667 334.667 15.3333 333.333 13.3333 333.333C11.3333 333.333 10.6667 334 10.6667 334V342Z" stroke="white" stroke-width="2" stroke-linecap="round" stroke-linejoin="round"/>
<path d="M10.6667 346.667V342" stroke="white" stroke-width="2" stroke-linecap="round" stroke-linejoin="round"/>
<g clip-path="url(#clip0_10_393)">
<path d="M23.3333 382.667V386.667H19.3333" stroke="white" stroke-width="2" stroke-linecap="round" stroke-linejoin="round"/>
<path d="M8.66666 393.333V389.333H12.6667" stroke="white" stroke-width="2" stroke-linecap="round" stroke-linejoin="round"/>
<path d="M10.34 386C10.6781 385.045 11.2527 384.19 12.0103 383.517C12.7679 382.844 13.6836 382.373 14.6722 382.15C15.6607 381.926 16.6898 381.956 17.6635 382.238C18.6371 382.52 19.5235 383.043 20.24 383.76L23.3333 386.667M8.66666 389.333L11.76 392.24C12.4765 392.957 13.3629 393.481 14.3365 393.762C15.3102 394.044 16.3393 394.074 17.3278 393.851C18.3163 393.627 19.2321 393.156 19.9897 392.483C20.7472 391.81 21.3219 390.956 21.66 390" stroke="white" stroke-width="2" stroke-linecap="round" stroke-linejoin="round"/>
</g>
<g clip-path="url(#clip1_10_393)">
<path d="M19.3333 298V296.667C19.3333 295.959 19.0524 295.281 18.5523 294.781C18.0522 294.281 17.3739 294 16.6667 294H11.3333C10.6261 294 9.9478 294.281 9.44771 294.781C8.94761 295.281 8.66666 295.959 8.66666 296.667V298" stroke="white" stroke-width="2" stroke-linecap="round" stroke-linejoin="round"/>
<path d="M14 291.333C15.4728 291.333 16.6667 290.139 16.6667 288.667C16.6667 287.194 15.4728 286 14 286C12.5273 286 11.3333 287.194 11.3333 288.667C11.3333 290.139 12.5273 291.333 14 291.333Z" stroke="white" stroke-width="2" stroke-linecap="round" stroke-linejoin="round"/>
<path d="M23.3333 298V296.667C23.3329 296.076 23.1362 295.502 22.7743 295.035C22.4123 294.568 21.9054 294.234 21.3333 294.087" stroke="white" stroke-width="2" stroke-linecap="round" stroke-linejoin="round"/>
<path d="M18.6667 286.087C19.2403 286.233 19.7487 286.567 20.1117 287.035C20.4748 287.503 20.6719 288.078 20.6719 288.67C20.6719 289.262 20.4748 289.837 20.1117 290.305C19.7487 290.773 19.2403 291.106 18.6667 291.253" stroke="white" stroke-width="2" stroke-linecap="round" stroke-linejoin="round"/>
</g>
<defs>
<clipPath id="clip0_10_393">
<rect width="16" height="16" fill="white" transform="translate(8 380)"/>
</clipPath>
<clipPath id="clip1_10_393">
<rect width="16" height="16" fill="white" transform="translate(8 284)"/>
</clipPath>
</defs>
</svg>
