<svg width="163" height="130" viewBox="0 0 163 130" fill="none" xmlns="http://www.w3.org/2000/svg">
<path d="M40.9902 11V2.46875H43.7793C44.7051 2.46875 45.4004 2.66016 45.8652 3.04297C46.334 3.42578 46.5684 3.99219 46.5684 4.74219C46.5684 5.14062 46.4551 5.49414 46.2285 5.80273C46.002 6.10742 45.6934 6.34375 45.3027 6.51172C45.7637 6.64062 46.127 6.88672 46.3926 7.25C46.6621 7.60938 46.7969 8.03906 46.7969 8.53906C46.7969 9.30469 46.5488 9.90625 46.0527 10.3438C45.5566 10.7812 44.8555 11 43.9492 11H40.9902ZM42.1152 7.00977V10.0801H43.9727C44.4961 10.0801 44.9082 9.94531 45.209 9.67578C45.5137 9.40234 45.666 9.02734 45.666 8.55078C45.666 7.52344 45.1074 7.00977 43.9902 7.00977H42.1152ZM42.1152 6.10742H43.8145C44.3066 6.10742 44.6992 5.98438 44.9922 5.73828C45.2891 5.49219 45.4375 5.1582 45.4375 4.73633C45.4375 4.26758 45.3008 3.92773 45.0273 3.7168C44.7539 3.50195 44.3379 3.39453 43.7793 3.39453H42.1152V6.10742ZM49.4746 11H48.3906V4.66016H49.4746V11ZM48.3027 2.97852C48.3027 2.80273 48.3555 2.6543 48.4609 2.5332C48.5703 2.41211 48.7305 2.35156 48.9414 2.35156C49.1523 2.35156 49.3125 2.41211 49.4219 2.5332C49.5312 2.6543 49.5859 2.80273 49.5859 2.97852C49.5859 3.1543 49.5312 3.30078 49.4219 3.41797C49.3125 3.53516 49.1523 3.59375 48.9414 3.59375C48.7305 3.59375 48.5703 3.53516 48.4609 3.41797C48.3555 3.30078 48.3027 3.1543 48.3027 2.97852ZM52.3926 11H51.3086V2H52.3926V11ZM56.7637 11.1172C55.9043 11.1172 55.2051 10.8359 54.666 10.2734C54.127 9.70703 53.8574 8.95117 53.8574 8.00586V7.80664C53.8574 7.17773 53.9766 6.61719 54.2148 6.125C54.457 5.62891 54.793 5.24219 55.2227 4.96484C55.6562 4.68359 56.125 4.54297 56.6289 4.54297C57.4531 4.54297 58.0938 4.81445 58.5508 5.35742C59.0078 5.90039 59.2363 6.67773 59.2363 7.68945V8.14062H54.9414C54.957 8.76562 55.1387 9.27148 55.4863 9.6582C55.8379 10.041 56.2832 10.2324 56.8223 10.2324C57.2051 10.2324 57.5293 10.1543 57.7949 9.99805C58.0605 9.8418 58.293 9.63477 58.4922 9.37695L59.1543 9.89258C58.623 10.709 57.8262 11.1172 56.7637 11.1172ZM56.6289 5.43359C56.1914 5.43359 55.8242 5.59375 55.5273 5.91406C55.2305 6.23047 55.0469 6.67578 54.9766 7.25H58.1523V7.16797C58.1211 6.61719 57.9727 6.19141 57.707 5.89062C57.4414 5.58594 57.082 5.43359 56.6289 5.43359ZM61.9668 3.125V4.66016H63.1504V5.49805H61.9668V9.42969C61.9668 9.68359 62.0195 9.875 62.125 10.0039C62.2305 10.1289 62.4102 10.1914 62.6641 10.1914C62.7891 10.1914 62.9609 10.168 63.1797 10.1211V11C62.8945 11.0781 62.6172 11.1172 62.3477 11.1172C61.8633 11.1172 61.498 10.9707 61.252 10.6777C61.0059 10.3848 60.8828 9.96875 60.8828 9.42969V5.49805H59.7285V4.66016H60.8828V3.125H61.9668ZM64.0176 7.77148C64.0176 7.15039 64.1387 6.5918 64.3809 6.0957C64.627 5.59961 64.9668 5.2168 65.4004 4.94727C65.8379 4.67773 66.3359 4.54297 66.8945 4.54297C67.7578 4.54297 68.4551 4.8418 68.9863 5.43945C69.5215 6.03711 69.7891 6.83203 69.7891 7.82422V7.90039C69.7891 8.51758 69.6699 9.07227 69.4316 9.56445C69.1973 10.0527 68.8594 10.4336 68.418 10.707C67.9805 10.9805 67.4766 11.1172 66.9062 11.1172C66.0469 11.1172 65.3496 10.8184 64.8145 10.2207C64.2832 9.62305 64.0176 8.83203 64.0176 7.84766V7.77148ZM65.1074 7.90039C65.1074 8.60352 65.2695 9.16797 65.5938 9.59375C65.9219 10.0195 66.3594 10.2324 66.9062 10.2324C67.457 10.2324 67.8945 10.0176 68.2188 9.58789C68.543 9.1543 68.7051 8.54883 68.7051 7.77148C68.7051 7.07617 68.5391 6.51367 68.207 6.08398C67.8789 5.65039 67.4414 5.43359 66.8945 5.43359C66.3594 5.43359 65.9277 5.64648 65.5996 6.07227C65.2715 6.49805 65.1074 7.10742 65.1074 7.90039ZM67.3867 2H68.6992L67.1289 3.72266H66.2559L67.3867 2ZM76.7617 9.50586L77.9805 4.66016H79.0645L77.2188 11H76.3398L74.7988 6.19531L73.2988 11H72.4199L70.5801 4.66016H71.6582L72.9062 9.40625L74.3828 4.66016H75.2559L76.7617 9.50586ZM86.8398 9.31836C86.8398 9.02539 86.7285 8.79883 86.5059 8.63867C86.2871 8.47461 85.9023 8.33398 85.3516 8.2168C84.8047 8.09961 84.3691 7.95898 84.0449 7.79492C83.7246 7.63086 83.4863 7.43555 83.3301 7.20898C83.1777 6.98242 83.1016 6.71289 83.1016 6.40039C83.1016 5.88086 83.3203 5.44141 83.7578 5.08203C84.1992 4.72266 84.7617 4.54297 85.4453 4.54297C86.1641 4.54297 86.7461 4.72852 87.1914 5.09961C87.6406 5.4707 87.8652 5.94531 87.8652 6.52344H86.7754C86.7754 6.22656 86.6484 5.9707 86.3945 5.75586C86.1445 5.54102 85.8281 5.43359 85.4453 5.43359C85.0508 5.43359 84.7422 5.51953 84.5195 5.69141C84.2969 5.86328 84.1855 6.08789 84.1855 6.36523C84.1855 6.62695 84.2891 6.82422 84.4961 6.95703C84.7031 7.08984 85.0762 7.2168 85.6152 7.33789C86.1582 7.45898 86.5977 7.60352 86.9336 7.77148C87.2695 7.93945 87.5176 8.14258 87.6777 8.38086C87.8418 8.61523 87.9238 8.90234 87.9238 9.24219C87.9238 9.80859 87.6973 10.2637 87.2441 10.6074C86.791 10.9473 86.2031 11.1172 85.4805 11.1172C84.9727 11.1172 84.5234 11.0273 84.1328 10.8477C83.7422 10.668 83.4355 10.418 83.2129 10.0977C82.9941 9.77344 82.8848 9.42383 82.8848 9.04883H83.9688C83.9883 9.41211 84.1328 9.70117 84.4023 9.91602C84.6758 10.127 85.0352 10.2324 85.4805 10.2324C85.8906 10.2324 86.2188 10.1504 86.4648 9.98633C86.7148 9.81836 86.8398 9.5957 86.8398 9.31836ZM90.5137 11H89.4297V4.66016H90.5137V11ZM89.3418 2.97852C89.3418 2.80273 89.3945 2.6543 89.5 2.5332C89.6094 2.41211 89.7695 2.35156 89.9805 2.35156C90.1914 2.35156 90.3516 2.41211 90.4609 2.5332C90.5703 2.6543 90.625 2.80273 90.625 2.97852C90.625 3.1543 90.5703 3.30078 90.4609 3.41797C90.3516 3.53516 90.1914 3.59375 89.9805 3.59375C89.7695 3.59375 89.6094 3.53516 89.5 3.41797C89.3945 3.30078 89.3418 3.1543 89.3418 2.97852ZM94.8848 11.1172C94.0254 11.1172 93.3262 10.8359 92.7871 10.2734C92.248 9.70703 91.9785 8.95117 91.9785 8.00586V7.80664C91.9785 7.17773 92.0977 6.61719 92.3359 6.125C92.5781 5.62891 92.9141 5.24219 93.3438 4.96484C93.7773 4.68359 94.2461 4.54297 94.75 4.54297C95.5742 4.54297 96.2148 4.81445 96.6719 5.35742C97.1289 5.90039 97.3574 6.67773 97.3574 7.68945V8.14062H93.0625C93.0781 8.76562 93.2598 9.27148 93.6074 9.6582C93.959 10.041 94.4043 10.2324 94.9434 10.2324C95.3262 10.2324 95.6504 10.1543 95.916 9.99805C96.1816 9.8418 96.4141 9.63477 96.6133 9.37695L97.2754 9.89258C96.7441 10.709 95.9473 11.1172 94.8848 11.1172ZM94.75 5.43359C94.3125 5.43359 93.9453 5.59375 93.6484 5.91406C93.3516 6.23047 93.168 6.67578 93.0977 7.25H96.2734V7.16797C96.2422 6.61719 96.0938 6.19141 95.8281 5.89062C95.5625 5.58594 95.2031 5.43359 94.75 5.43359ZM101.16 10.2324C101.547 10.2324 101.885 10.1152 102.174 9.88086C102.463 9.64648 102.623 9.35352 102.654 9.00195H103.68C103.66 9.36523 103.535 9.71094 103.305 10.0391C103.074 10.3672 102.766 10.6289 102.379 10.8242C101.996 11.0195 101.59 11.1172 101.16 11.1172C100.297 11.1172 99.6094 10.8301 99.0977 10.2559C98.5898 9.67773 98.3359 8.88867 98.3359 7.88867V7.70703C98.3359 7.08984 98.4492 6.54102 98.6758 6.06055C98.9023 5.58008 99.2266 5.20703 99.6484 4.94141C100.074 4.67578 100.576 4.54297 101.154 4.54297C101.865 4.54297 102.455 4.75586 102.924 5.18164C103.396 5.60742 103.648 6.16016 103.68 6.83984H102.654C102.623 6.42969 102.467 6.09375 102.186 5.83203C101.908 5.56641 101.564 5.43359 101.154 5.43359C100.604 5.43359 100.176 5.63281 99.8711 6.03125C99.5703 6.42578 99.4199 6.99805 99.4199 7.74805V7.95312C99.4199 8.68359 99.5703 9.24609 99.8711 9.64062C100.172 10.0352 100.602 10.2324 101.16 10.2324ZM106.076 11H104.992V4.66016H106.076V11ZM104.904 2.97852C104.904 2.80273 104.957 2.6543 105.062 2.5332C105.172 2.41211 105.332 2.35156 105.543 2.35156C105.754 2.35156 105.914 2.41211 106.023 2.5332C106.133 2.6543 106.188 2.80273 106.188 2.97852C106.188 3.1543 106.133 3.30078 106.023 3.41797C105.914 3.53516 105.754 3.59375 105.543 3.59375C105.332 3.59375 105.172 3.53516 105.062 3.41797C104.957 3.30078 104.904 3.1543 104.904 2.97852ZM107.529 7.77148C107.529 7.15039 107.65 6.5918 107.893 6.0957C108.139 5.59961 108.479 5.2168 108.912 4.94727C109.35 4.67773 109.848 4.54297 110.406 4.54297C111.27 4.54297 111.967 4.8418 112.498 5.43945C113.033 6.03711 113.301 6.83203 113.301 7.82422V7.90039C113.301 8.51758 113.182 9.07227 112.943 9.56445C112.709 10.0527 112.371 10.4336 111.93 10.707C111.492 10.9805 110.988 11.1172 110.418 11.1172C109.559 11.1172 108.861 10.8184 108.326 10.2207C107.795 9.62305 107.529 8.83203 107.529 7.84766V7.77148ZM108.619 7.90039C108.619 8.60352 108.781 9.16797 109.105 9.59375C109.434 10.0195 109.871 10.2324 110.418 10.2324C110.969 10.2324 111.406 10.0176 111.73 9.58789C112.055 9.1543 112.217 8.54883 112.217 7.77148C112.217 7.07617 112.051 6.51367 111.719 6.08398C111.391 5.65039 110.953 5.43359 110.406 5.43359C109.871 5.43359 109.439 5.64648 109.111 6.07227C108.783 6.49805 108.619 7.10742 108.619 7.90039ZM120.273 9.50586L121.492 4.66016H122.576L120.73 11H119.852L118.311 6.19531L116.811 11H115.932L114.092 4.66016H115.17L116.418 9.40625L117.895 4.66016H118.768L120.273 9.50586ZM125.758 9.41211L127.234 4.66016H128.395L125.846 11.9785C125.451 13.0332 124.824 13.5605 123.965 13.5605L123.76 13.543L123.355 13.4668V12.5879L123.648 12.6113C124.016 12.6113 124.301 12.5371 124.504 12.3887C124.711 12.2402 124.881 11.9688 125.014 11.5742L125.254 10.9297L122.992 4.66016H124.176L125.758 9.41211ZM131.828 10.2324C132.215 10.2324 132.553 10.1152 132.842 9.88086C133.131 9.64648 133.291 9.35352 133.322 9.00195H134.348C134.328 9.36523 134.203 9.71094 133.973 10.0391C133.742 10.3672 133.434 10.6289 133.047 10.8242C132.664 11.0195 132.258 11.1172 131.828 11.1172C130.965 11.1172 130.277 10.8301 129.766 10.2559C129.258 9.67773 129.004 8.88867 129.004 7.88867V7.70703C129.004 7.08984 129.117 6.54102 129.344 6.06055C129.57 5.58008 129.895 5.20703 130.316 4.94141C130.742 4.67578 131.244 4.54297 131.822 4.54297C132.533 4.54297 133.123 4.75586 133.592 5.18164C134.064 5.60742 134.316 6.16016 134.348 6.83984H133.322C133.291 6.42969 133.135 6.09375 132.854 5.83203C132.576 5.56641 132.232 5.43359 131.822 5.43359C131.271 5.43359 130.844 5.63281 130.539 6.03125C130.238 6.42578 130.088 6.99805 130.088 7.74805V7.95312C130.088 8.68359 130.238 9.24609 130.539 9.64062C130.84 10.0352 131.27 10.2324 131.828 10.2324ZM136.65 5.42773C137.131 4.83789 137.756 4.54297 138.525 4.54297C139.865 4.54297 140.541 5.29883 140.553 6.81055V11H139.469V6.80469C139.465 6.34766 139.359 6.00977 139.152 5.79102C138.949 5.57227 138.631 5.46289 138.197 5.46289C137.846 5.46289 137.537 5.55664 137.271 5.74414C137.006 5.93164 136.799 6.17773 136.65 6.48242V11H135.566V2H136.65V5.42773Z" fill="#888888"/>
<path d="M40.9902 59V50.4688H43.7793C44.7051 50.4688 45.4004 50.6602 45.8652 51.043C46.334 51.4258 46.5684 51.9922 46.5684 52.7422C46.5684 53.1406 46.4551 53.4941 46.2285 53.8027C46.002 54.1074 45.6934 54.3438 45.3027 54.5117C45.7637 54.6406 46.127 54.8867 46.3926 55.25C46.6621 55.6094 46.7969 56.0391 46.7969 56.5391C46.7969 57.3047 46.5488 57.9062 46.0527 58.3438C45.5566 58.7812 44.8555 59 43.9492 59H40.9902ZM42.1152 55.0098V58.0801H43.9727C44.4961 58.0801 44.9082 57.9453 45.209 57.6758C45.5137 57.4023 45.666 57.0273 45.666 56.5508C45.666 55.5234 45.1074 55.0098 43.9902 55.0098H42.1152ZM42.1152 54.1074H43.8145C44.3066 54.1074 44.6992 53.9844 44.9922 53.7383C45.2891 53.4922 45.4375 53.1582 45.4375 52.7363C45.4375 52.2676 45.3008 51.9277 45.0273 51.7168C44.7539 51.502 44.3379 51.3945 43.7793 51.3945H42.1152V54.1074ZM49.4746 59H48.3906V52.6602H49.4746V59ZM48.3027 50.9785C48.3027 50.8027 48.3555 50.6543 48.4609 50.5332C48.5703 50.4121 48.7305 50.3516 48.9414 50.3516C49.1523 50.3516 49.3125 50.4121 49.4219 50.5332C49.5312 50.6543 49.5859 50.8027 49.5859 50.9785C49.5859 51.1543 49.5312 51.3008 49.4219 51.418C49.3125 51.5352 49.1523 51.5938 48.9414 51.5938C48.7305 51.5938 48.5703 51.5352 48.4609 51.418C48.3555 51.3008 48.3027 51.1543 48.3027 50.9785ZM52.3926 59H51.3086V50H52.3926V59ZM56.7637 59.1172C55.9043 59.1172 55.2051 58.8359 54.666 58.2734C54.127 57.707 53.8574 56.9512 53.8574 56.0059V55.8066C53.8574 55.1777 53.9766 54.6172 54.2148 54.125C54.457 53.6289 54.793 53.2422 55.2227 52.9648C55.6562 52.6836 56.125 52.543 56.6289 52.543C57.4531 52.543 58.0938 52.8145 58.5508 53.3574C59.0078 53.9004 59.2363 54.6777 59.2363 55.6895V56.1406H54.9414C54.957 56.7656 55.1387 57.2715 55.4863 57.6582C55.8379 58.041 56.2832 58.2324 56.8223 58.2324C57.2051 58.2324 57.5293 58.1543 57.7949 57.998C58.0605 57.8418 58.293 57.6348 58.4922 57.377L59.1543 57.8926C58.623 58.709 57.8262 59.1172 56.7637 59.1172ZM56.6289 53.4336C56.1914 53.4336 55.8242 53.5938 55.5273 53.9141C55.2305 54.2305 55.0469 54.6758 54.9766 55.25H58.1523V55.168C58.1211 54.6172 57.9727 54.1914 57.707 53.8906C57.4414 53.5859 57.082 53.4336 56.6289 53.4336ZM61.9668 51.125V52.6602H63.1504V53.498H61.9668V57.4297C61.9668 57.6836 62.0195 57.875 62.125 58.0039C62.2305 58.1289 62.4102 58.1914 62.6641 58.1914C62.7891 58.1914 62.9609 58.168 63.1797 58.1211V59C62.8945 59.0781 62.6172 59.1172 62.3477 59.1172C61.8633 59.1172 61.498 58.9707 61.252 58.6777C61.0059 58.3848 60.8828 57.9688 60.8828 57.4297V53.498H59.7285V52.6602H60.8828V51.125H61.9668ZM64.0176 55.7715C64.0176 55.1504 64.1387 54.5918 64.3809 54.0957C64.627 53.5996 64.9668 53.2168 65.4004 52.9473C65.8379 52.6777 66.3359 52.543 66.8945 52.543C67.7578 52.543 68.4551 52.8418 68.9863 53.4395C69.5215 54.0371 69.7891 54.832 69.7891 55.8242V55.9004C69.7891 56.5176 69.6699 57.0723 69.4316 57.5645C69.1973 58.0527 68.8594 58.4336 68.418 58.707C67.9805 58.9805 67.4766 59.1172 66.9062 59.1172C66.0469 59.1172 65.3496 58.8184 64.8145 58.2207C64.2832 57.623 64.0176 56.832 64.0176 55.8477V55.7715ZM65.1074 55.9004C65.1074 56.6035 65.2695 57.168 65.5938 57.5938C65.9219 58.0195 66.3594 58.2324 66.9062 58.2324C67.457 58.2324 67.8945 58.0176 68.2188 57.5879C68.543 57.1543 68.7051 56.5488 68.7051 55.7715C68.7051 55.0762 68.5391 54.5137 68.207 54.084C67.8789 53.6504 67.4414 53.4336 66.8945 53.4336C66.3594 53.4336 65.9277 53.6465 65.5996 54.0723C65.2715 54.498 65.1074 55.1074 65.1074 55.9004ZM67.3867 50H68.6992L67.1289 51.7227H66.2559L67.3867 50ZM76.7617 57.5059L77.9805 52.6602H79.0645L77.2188 59H76.3398L74.7988 54.1953L73.2988 59H72.4199L70.5801 52.6602H71.6582L72.9062 57.4062L74.3828 52.6602H75.2559L76.7617 57.5059ZM84.2676 52.6602V59.7324C84.2676 60.9512 83.7148 61.5605 82.6094 61.5605C82.3711 61.5605 82.1504 61.5254 81.9473 61.4551V60.5879C82.0723 60.6191 82.2363 60.6348 82.4395 60.6348C82.6816 60.6348 82.8652 60.5684 82.9902 60.4355C83.1191 60.3066 83.1836 60.0801 83.1836 59.7559V52.6602H84.2676ZM83.0723 50.9785C83.0723 50.8066 83.125 50.6602 83.2305 50.5391C83.3398 50.4141 83.498 50.3516 83.7051 50.3516C83.916 50.3516 84.0762 50.4121 84.1855 50.5332C84.2949 50.6543 84.3496 50.8027 84.3496 50.9785C84.3496 51.1543 84.2949 51.3008 84.1855 51.418C84.0762 51.5352 83.916 51.5938 83.7051 51.5938C83.4941 51.5938 83.3359 51.5352 83.2305 51.418C83.125 51.3008 83.0723 51.1543 83.0723 50.9785ZM88.6504 59.1172C87.791 59.1172 87.0918 58.8359 86.5527 58.2734C86.0137 57.707 85.7441 56.9512 85.7441 56.0059V55.8066C85.7441 55.1777 85.8633 54.6172 86.1016 54.125C86.3438 53.6289 86.6797 53.2422 87.1094 52.9648C87.543 52.6836 88.0117 52.543 88.5156 52.543C89.3398 52.543 89.9805 52.8145 90.4375 53.3574C90.8945 53.9004 91.123 54.6777 91.123 55.6895V56.1406H86.8281C86.8438 56.7656 87.0254 57.2715 87.373 57.6582C87.7246 58.041 88.1699 58.2324 88.709 58.2324C89.0918 58.2324 89.416 58.1543 89.6816 57.998C89.9473 57.8418 90.1797 57.6348 90.3789 57.377L91.041 57.8926C90.5098 58.709 89.7129 59.1172 88.6504 59.1172ZM88.5156 53.4336C88.0781 53.4336 87.7109 53.5938 87.4141 53.9141C87.1172 54.2305 86.9336 54.6758 86.8633 55.25H90.0391V55.168C90.0078 54.6172 89.8594 54.1914 89.5938 53.8906C89.3281 53.5859 88.9688 53.4336 88.5156 53.4336ZM92.1191 55.7773C92.1191 54.8047 92.3496 54.0234 92.8105 53.4336C93.2715 52.8398 93.875 52.543 94.6211 52.543C95.3633 52.543 95.9512 52.7969 96.3848 53.3047V50H97.4688V59H96.4727L96.4199 58.3203C95.9863 58.8516 95.3828 59.1172 94.6094 59.1172C93.875 59.1172 93.2754 58.8164 92.8105 58.2148C92.3496 57.6133 92.1191 56.8281 92.1191 55.8594V55.7773ZM93.2031 55.9004C93.2031 56.6191 93.3516 57.1816 93.6484 57.5879C93.9453 57.9941 94.3555 58.1973 94.8789 58.1973C95.5664 58.1973 96.0684 57.8887 96.3848 57.2715V54.3594C96.0605 53.7617 95.5625 53.4629 94.8906 53.4629C94.3594 53.4629 93.9453 53.668 93.6484 54.0781C93.3516 54.4883 93.2031 55.0957 93.2031 55.9004ZM100.182 52.6602L100.217 53.457C100.701 52.8477 101.334 52.543 102.115 52.543C103.455 52.543 104.131 53.2988 104.143 54.8105V59H103.059V54.8047C103.055 54.3477 102.949 54.0098 102.742 53.791C102.539 53.5723 102.221 53.4629 101.787 53.4629C101.436 53.4629 101.127 53.5566 100.861 53.7441C100.596 53.9316 100.389 54.1777 100.24 54.4824V59H99.1562V52.6602H100.182ZM105.49 55.7715C105.49 55.1504 105.611 54.5918 105.854 54.0957C106.1 53.5996 106.439 53.2168 106.873 52.9473C107.311 52.6777 107.809 52.543 108.367 52.543C109.23 52.543 109.928 52.8418 110.459 53.4395C110.994 54.0371 111.262 54.832 111.262 55.8242V55.9004C111.262 56.5176 111.143 57.0723 110.904 57.5645C110.67 58.0527 110.332 58.4336 109.891 58.707C109.453 58.9805 108.949 59.1172 108.379 59.1172C107.52 59.1172 106.822 58.8184 106.287 58.2207C105.756 57.623 105.49 56.832 105.49 55.8477V55.7715ZM106.58 55.9004C106.58 56.6035 106.742 57.168 107.066 57.5938C107.395 58.0195 107.832 58.2324 108.379 58.2324C108.93 58.2324 109.367 58.0176 109.691 57.5879C110.016 57.1543 110.178 56.5488 110.178 55.7715C110.178 55.0762 110.012 54.5137 109.68 54.084C109.352 53.6504 108.914 53.4336 108.367 53.4336C107.832 53.4336 107.4 53.6465 107.072 54.0723C106.744 54.498 106.58 55.1074 106.58 55.9004ZM115.686 53.6328C115.521 53.6055 115.344 53.5918 115.152 53.5918C114.441 53.5918 113.959 53.8945 113.705 54.5V59H112.621V52.6602H113.676L113.693 53.3926C114.049 52.8262 114.553 52.543 115.205 52.543C115.416 52.543 115.576 52.5703 115.686 52.625V53.6328ZM120.367 59C120.305 58.875 120.254 58.6523 120.215 58.332C119.711 58.8555 119.109 59.1172 118.41 59.1172C117.785 59.1172 117.271 58.9414 116.869 58.5898C116.471 58.2344 116.271 57.7852 116.271 57.2422C116.271 56.582 116.521 56.0703 117.021 55.707C117.525 55.3398 118.232 55.1562 119.143 55.1562H120.197V54.6582C120.197 54.2793 120.084 53.9785 119.857 53.7559C119.631 53.5293 119.297 53.416 118.855 53.416C118.469 53.416 118.145 53.5137 117.883 53.709C117.621 53.9043 117.49 54.1406 117.49 54.418H116.4C116.4 54.1016 116.512 53.7969 116.734 53.5039C116.961 53.207 117.266 52.9727 117.648 52.8008C118.035 52.6289 118.459 52.543 118.92 52.543C119.65 52.543 120.223 52.7266 120.637 53.0938C121.051 53.457 121.266 53.959 121.281 54.5996V57.5176C121.281 58.0996 121.355 58.5625 121.504 58.9062V59H120.367ZM118.568 58.1738C118.908 58.1738 119.23 58.0859 119.535 57.9102C119.84 57.7344 120.061 57.5059 120.197 57.2246V55.9238H119.348C118.02 55.9238 117.355 56.3125 117.355 57.0898C117.355 57.4297 117.469 57.6953 117.695 57.8867C117.922 58.0781 118.213 58.1738 118.568 58.1738ZM124 58.1152H127.709V59H122.676V58.2031L126.174 53.5566H122.729V52.6602H127.533V53.4277L124 58.1152ZM128.553 55.7715C128.553 55.1504 128.674 54.5918 128.916 54.0957C129.162 53.5996 129.502 53.2168 129.936 52.9473C130.373 52.6777 130.871 52.543 131.43 52.543C132.293 52.543 132.99 52.8418 133.521 53.4395C134.057 54.0371 134.324 54.832 134.324 55.8242V55.9004C134.324 56.5176 134.205 57.0723 133.967 57.5645C133.732 58.0527 133.395 58.4336 132.953 58.707C132.516 58.9805 132.012 59.1172 131.441 59.1172C130.582 59.1172 129.885 58.8184 129.35 58.2207C128.818 57.623 128.553 56.832 128.553 55.8477V55.7715ZM129.643 55.9004C129.643 56.6035 129.805 57.168 130.129 57.5938C130.457 58.0195 130.895 58.2324 131.441 58.2324C131.992 58.2324 132.43 58.0176 132.754 57.5879C133.078 57.1543 133.24 56.5488 133.24 55.7715C133.24 55.0762 133.074 54.5137 132.742 54.084C132.414 53.6504 131.977 53.4336 131.43 53.4336C130.895 53.4336 130.463 53.6465 130.135 54.0723C129.807 54.498 129.643 55.1074 129.643 55.9004ZM141.297 57.5059L142.516 52.6602H143.6L141.754 59H140.875L139.334 54.1953L137.834 59H136.955L135.115 52.6602H136.193L137.441 57.4062L138.918 52.6602H139.791L141.297 57.5059ZM146.781 57.4121L148.258 52.6602H149.418L146.869 59.9785C146.475 61.0332 145.848 61.5605 144.988 61.5605L144.783 61.543L144.379 61.4668V60.5879L144.672 60.6113C145.039 60.6113 145.324 60.5371 145.527 60.3887C145.734 60.2402 145.904 59.9688 146.037 59.5742L146.277 58.9297L144.016 52.6602H145.199L146.781 57.4121ZM152.852 58.2324C153.238 58.2324 153.576 58.1152 153.865 57.8809C154.154 57.6465 154.314 57.3535 154.346 57.002H155.371C155.352 57.3652 155.227 57.7109 154.996 58.0391C154.766 58.3672 154.457 58.6289 154.07 58.8242C153.688 59.0195 153.281 59.1172 152.852 59.1172C151.988 59.1172 151.301 58.8301 150.789 58.2559C150.281 57.6777 150.027 56.8887 150.027 55.8887V55.707C150.027 55.0898 150.141 54.541 150.367 54.0605C150.594 53.5801 150.918 53.207 151.34 52.9414C151.766 52.6758 152.268 52.543 152.846 52.543C153.557 52.543 154.146 52.7559 154.615 53.1816C155.088 53.6074 155.34 54.1602 155.371 54.8398H154.346C154.314 54.4297 154.158 54.0938 153.877 53.832C153.6 53.5664 153.256 53.4336 152.846 53.4336C152.295 53.4336 151.867 53.6328 151.562 54.0312C151.262 54.4258 151.111 54.998 151.111 55.748V55.9531C151.111 56.6836 151.262 57.2461 151.562 57.6406C151.863 58.0352 152.293 58.2324 152.852 58.2324ZM157.674 53.4277C158.154 52.8379 158.779 52.543 159.549 52.543C160.889 52.543 161.564 53.2988 161.576 54.8105V59H160.492V54.8047C160.488 54.3477 160.383 54.0098 160.176 53.791C159.973 53.5723 159.654 53.4629 159.221 53.4629C158.869 53.4629 158.561 53.5566 158.295 53.7441C158.029 53.9316 157.822 54.1777 157.674 54.4824V59H156.59V50H157.674V53.4277Z" fill="#888888"/>
<path d="M46.9961 98.4688V104.27C46.9922 105.074 46.7383 105.732 46.2344 106.244C45.7344 106.756 45.0547 107.043 44.1953 107.105L43.8965 107.117C42.9629 107.117 42.2188 106.865 41.6641 106.361C41.1094 105.857 40.8281 105.164 40.8203 104.281V98.4688H41.9336V104.246C41.9336 104.863 42.1035 105.344 42.4434 105.688C42.7832 106.027 43.2676 106.197 43.8965 106.197C44.5332 106.197 45.0195 106.027 45.3555 105.688C45.6953 105.348 45.8652 104.869 45.8652 104.252V98.4688H46.9961ZM49.7793 107H48.6953V98H49.7793V107ZM51.2617 103.777C51.2617 102.789 51.4902 102.004 51.9473 101.422C52.4043 100.836 53.0098 100.543 53.7637 100.543C54.5371 100.543 55.1406 100.816 55.5742 101.363L55.627 100.66H56.6172V106.848C56.6172 107.668 56.373 108.314 55.8848 108.787C55.4004 109.26 54.748 109.496 53.9277 109.496C53.4707 109.496 53.0234 109.398 52.5859 109.203C52.1484 109.008 51.8145 108.74 51.584 108.4L52.1465 107.75C52.6113 108.324 53.1797 108.611 53.8516 108.611C54.3789 108.611 54.7891 108.463 55.082 108.166C55.3789 107.869 55.5273 107.451 55.5273 106.912V106.367C55.0938 106.867 54.502 107.117 53.752 107.117C53.0098 107.117 52.4082 106.818 51.9473 106.221C51.4902 105.623 51.2617 104.809 51.2617 103.777ZM52.3516 103.9C52.3516 104.615 52.498 105.178 52.791 105.588C53.084 105.994 53.4941 106.197 54.0215 106.197C54.7051 106.197 55.207 105.887 55.5273 105.266V102.371C55.1953 101.766 54.6973 101.463 54.0332 101.463C53.5059 101.463 53.0938 101.668 52.7969 102.078C52.5 102.488 52.3516 103.096 52.3516 103.9ZM57.9707 103.771C57.9707 103.15 58.0918 102.592 58.334 102.096C58.5801 101.6 58.9199 101.217 59.3535 100.947C59.791 100.678 60.2891 100.543 60.8477 100.543C61.7109 100.543 62.4082 100.842 62.9395 101.439C63.4746 102.037 63.7422 102.832 63.7422 103.824V103.9C63.7422 104.518 63.623 105.072 63.3848 105.564C63.1504 106.053 62.8125 106.434 62.3711 106.707C61.9336 106.98 61.4297 107.117 60.8594 107.117C60 107.117 59.3027 106.818 58.7676 106.221C58.2363 105.623 57.9707 104.832 57.9707 103.848V103.771ZM59.0605 103.9C59.0605 104.604 59.2227 105.168 59.5469 105.594C59.875 106.02 60.3125 106.232 60.8594 106.232C61.4102 106.232 61.8477 106.018 62.1719 105.588C62.4961 105.154 62.6582 104.549 62.6582 103.771C62.6582 103.076 62.4922 102.514 62.1602 102.084C61.832 101.65 61.3945 101.434 60.8477 101.434C60.3125 101.434 59.8809 101.646 59.5527 102.072C59.2246 102.498 59.0605 103.107 59.0605 103.9ZM70.7148 105.506L71.9336 100.66H73.0176L71.1719 107H70.293L68.752 102.195L67.252 107H66.373L64.5332 100.66H65.6113L66.8594 105.406L68.3359 100.66H69.209L70.7148 105.506ZM76.1992 105.412L77.6758 100.66H78.8359L76.2871 107.979C75.8926 109.033 75.2656 109.561 74.4062 109.561L74.2012 109.543L73.7969 109.467V108.588L74.0898 108.611C74.457 108.611 74.7422 108.537 74.9453 108.389C75.1523 108.24 75.3223 107.969 75.4551 107.574L75.6953 106.93L73.4336 100.66H74.6172L76.1992 105.412ZM82.2695 106.232C82.6562 106.232 82.9941 106.115 83.2832 105.881C83.5723 105.646 83.7324 105.354 83.7637 105.002H84.7891C84.7695 105.365 84.6445 105.711 84.4141 106.039C84.1836 106.367 83.875 106.629 83.4883 106.824C83.1055 107.02 82.6992 107.117 82.2695 107.117C81.4062 107.117 80.7188 106.83 80.207 106.256C79.6992 105.678 79.4453 104.889 79.4453 103.889V103.707C79.4453 103.09 79.5586 102.541 79.7852 102.061C80.0117 101.58 80.3359 101.207 80.7578 100.941C81.1836 100.676 81.6855 100.543 82.2637 100.543C82.9746 100.543 83.5645 100.756 84.0332 101.182C84.5059 101.607 84.7578 102.16 84.7891 102.84H83.7637C83.7324 102.43 83.5762 102.094 83.2949 101.832C83.0176 101.566 82.6738 101.434 82.2637 101.434C81.7129 101.434 81.2852 101.633 80.9805 102.031C80.6797 102.426 80.5293 102.998 80.5293 103.748V103.953C80.5293 104.684 80.6797 105.246 80.9805 105.641C81.2812 106.035 81.7109 106.232 82.2695 106.232ZM87.0918 101.428C87.5723 100.838 88.1973 100.543 88.9668 100.543C90.3066 100.543 90.9824 101.299 90.9941 102.811V107H89.9102V102.805C89.9062 102.348 89.8008 102.01 89.5938 101.791C89.3906 101.572 89.0723 101.463 88.6387 101.463C88.2871 101.463 87.9785 101.557 87.7129 101.744C87.4473 101.932 87.2402 102.178 87.0918 102.482V107H86.0078V98H87.0918V101.428Z" fill="#888888"/>
<path d="M47.0547 18.4609V20.5312H46.9375C45.9531 20.5312 45.1432 20.7682 44.5078 21.2422C43.8776 21.7109 43.4896 22.3646 43.3438 23.2031C43.9375 22.6198 44.6875 22.3281 45.5938 22.3281C46.5781 22.3281 47.362 22.6875 47.9453 23.4062C48.5286 24.125 48.8203 25.0677 48.8203 26.2344C48.8203 26.9583 48.6484 27.6224 48.3047 28.2266C47.9661 28.8307 47.4896 29.3047 46.875 29.6484C46.2656 29.987 45.5885 30.1562 44.8438 30.1562C44.0365 30.1562 43.3151 29.974 42.6797 29.6094C42.0443 29.2396 41.5495 28.7135 41.1953 28.0312C40.8411 27.349 40.6589 26.5625 40.6484 25.6719V24.6172C40.6484 23.4453 40.8984 22.3932 41.3984 21.4609C41.9036 20.5234 42.6224 19.7891 43.5547 19.2578C44.487 18.7266 45.5208 18.4609 46.6562 18.4609H47.0547ZM44.6797 24.3438C44.3307 24.3438 44.0391 24.4245 43.8047 24.5859C43.5703 24.7474 43.3958 24.9453 43.2812 25.1797V25.9688C43.2812 27.4062 43.7786 28.125 44.7734 28.125C45.1745 28.125 45.5078 27.9453 45.7734 27.5859C46.0443 27.2266 46.1797 26.776 46.1797 26.2344C46.1797 25.6771 46.0417 25.224 45.7656 24.875C45.4948 24.5208 45.1328 24.3438 44.6797 24.3438ZM57.8984 30H49.9609V28.2812L53.6172 24.4375C54.5182 23.4115 54.9688 22.5964 54.9688 21.9922C54.9688 21.5026 54.862 21.1302 54.6484 20.875C54.4349 20.6198 54.125 20.4922 53.7188 20.4922C53.3177 20.4922 52.9922 20.6641 52.7422 21.0078C52.4922 21.3464 52.3672 21.7708 52.3672 22.2812H49.7266C49.7266 21.5833 49.901 20.9401 50.25 20.3516C50.599 19.7578 51.0833 19.2943 51.7031 18.9609C52.3229 18.6276 53.0156 18.4609 53.7812 18.4609C55.0104 18.4609 55.9557 18.7448 56.6172 19.3125C57.2839 19.8802 57.6172 20.6953 57.6172 21.7578C57.6172 22.2057 57.5339 22.6432 57.3672 23.0703C57.2005 23.4922 56.9401 23.9375 56.5859 24.4062C56.237 24.8698 55.6719 25.4922 54.8906 26.2734L53.4219 27.9688H57.8984V30ZM67.125 25.3516C67.125 26.888 66.7786 28.0729 66.0859 28.9062C65.3984 29.7396 64.4271 30.1562 63.1719 30.1562C61.9062 30.1562 60.9271 29.737 60.2344 28.8984C59.5417 28.0599 59.1953 26.8776 59.1953 25.3516V23.2734C59.1953 21.737 59.5391 20.5521 60.2266 19.7188C60.9193 18.8854 61.8958 18.4688 63.1562 18.4688C64.4167 18.4688 65.3932 18.888 66.0859 19.7266C66.7786 20.5651 67.125 21.75 67.125 23.2812V25.3516ZM64.4922 22.9375C64.4922 22.1198 64.3854 21.5104 64.1719 21.1094C63.9583 20.7031 63.6198 20.5 63.1562 20.5C62.7031 20.5 62.3724 20.6875 62.1641 21.0625C61.9609 21.4375 61.8516 22.0052 61.8359 22.7656V25.6719C61.8359 26.5208 61.9427 27.1432 62.1562 27.5391C62.3698 27.9297 62.7083 28.125 63.1719 28.125C63.6198 28.125 63.9505 27.9349 64.1641 27.5547C64.3776 27.1693 64.487 26.5677 64.4922 25.75V22.9375ZM80.375 25.3516C80.375 26.888 80.0286 28.0729 79.3359 28.9062C78.6484 29.7396 77.6771 30.1562 76.4219 30.1562C75.1562 30.1562 74.1771 29.737 73.4844 28.8984C72.7917 28.0599 72.4453 26.8776 72.4453 25.3516V23.2734C72.4453 21.737 72.7891 20.5521 73.4766 19.7188C74.1693 18.8854 75.1458 18.4688 76.4062 18.4688C77.6667 18.4688 78.6432 18.888 79.3359 19.7266C80.0286 20.5651 80.375 21.75 80.375 23.2812V25.3516ZM77.7422 22.9375C77.7422 22.1198 77.6354 21.5104 77.4219 21.1094C77.2083 20.7031 76.8698 20.5 76.4062 20.5C75.9531 20.5 75.6224 20.6875 75.4141 21.0625C75.2109 21.4375 75.1016 22.0052 75.0859 22.7656V25.6719C75.0859 26.5208 75.1927 27.1432 75.4062 27.5391C75.6198 27.9297 75.9583 28.125 76.4219 28.125C76.8698 28.125 77.2005 27.9349 77.4141 27.5547C77.6276 27.1693 77.737 26.5677 77.7422 25.75V22.9375ZM89.4141 21.6641C89.4141 22.2161 89.276 22.7031 89 23.125C88.7292 23.5469 88.3542 23.8854 87.875 24.1406C88.4167 24.4062 88.8464 24.7708 89.1641 25.2344C89.4818 25.6927 89.6406 26.237 89.6406 26.8672C89.6406 27.8828 89.2891 28.6849 88.5859 29.2734C87.888 29.862 86.9245 30.1562 85.6953 30.1562C84.4609 30.1562 83.487 29.862 82.7734 29.2734C82.0599 28.6797 81.7031 27.8776 81.7031 26.8672C81.7031 26.2578 81.8594 25.7188 82.1719 25.25C82.4844 24.7812 82.9271 24.4115 83.5 24.1406C83.0156 23.8854 82.6354 23.5469 82.3594 23.125C82.0833 22.7031 81.9453 22.2161 81.9453 21.6641C81.9453 20.6745 82.2812 19.8932 82.9531 19.3203C83.625 18.7474 84.5312 18.4609 85.6719 18.4609C86.8229 18.4609 87.7344 18.7474 88.4062 19.3203C89.0781 19.8932 89.4141 20.6745 89.4141 21.6641ZM87 26.6562C87 26.1875 86.8776 25.8281 86.6328 25.5781C86.3932 25.3229 86.0755 25.1953 85.6797 25.1953C85.2839 25.1953 84.9635 25.3229 84.7188 25.5781C84.474 25.8281 84.3516 26.1875 84.3516 26.6562C84.3516 27.1094 84.474 27.4688 84.7188 27.7344C84.9688 27.9948 85.2943 28.125 85.6953 28.125C86.0859 28.125 86.401 27.9948 86.6406 27.7344C86.8802 27.474 87 27.1146 87 26.6562ZM85.6719 20.4922C85.3177 20.4922 85.0469 20.6094 84.8594 20.8438C84.6771 21.0729 84.5859 21.3932 84.5859 21.8047C84.5859 22.2109 84.6797 22.5391 84.8672 22.7891C85.0547 23.0391 85.3307 23.1641 85.6953 23.1641C86.0547 23.1641 86.3229 23.0391 86.5 22.7891C86.6823 22.5391 86.7734 22.2109 86.7734 21.8047C86.7734 21.3984 86.6797 21.0781 86.4922 20.8438C86.3099 20.6094 86.0365 20.4922 85.6719 20.4922ZM96.1953 25.6016C95.6276 26.112 94.9922 26.3672 94.2891 26.3672C93.2578 26.3672 92.4401 26.0182 91.8359 25.3203C91.2318 24.6224 90.9297 23.6901 90.9297 22.5234C90.9297 21.7943 91.099 21.1172 91.4375 20.4922C91.776 19.8672 92.25 19.3724 92.8594 19.0078C93.474 18.6432 94.151 18.4609 94.8906 18.4609C95.6406 18.4609 96.3177 18.651 96.9219 19.0312C97.5312 19.4062 98.0052 19.9401 98.3438 20.6328C98.6823 21.3203 98.8568 22.1146 98.8672 23.0156V24.0234C98.8672 25.2786 98.6198 26.3672 98.125 27.2891C97.6354 28.2109 96.9349 28.9193 96.0234 29.4141C95.112 29.9089 94.0495 30.1562 92.8359 30.1562H92.6719V28.0469L93.1719 28.0391C94.9844 27.9505 95.9922 27.138 96.1953 25.6016ZM95 24.4688C95.5729 24.4688 95.9844 24.2214 96.2344 23.7266V22.6328C96.2344 21.9036 96.112 21.3646 95.8672 21.0156C95.6224 20.6667 95.2917 20.4922 94.875 20.4922C94.5052 20.4922 94.1953 20.6901 93.9453 21.0859C93.6953 21.4818 93.5703 21.9609 93.5703 22.5234C93.5703 23.1172 93.6979 23.5911 93.9531 23.9453C94.2083 24.2943 94.5573 24.4688 95 24.4688Z" fill="#222222"/>
<path d="M45.8828 73.6016C45.3151 74.112 44.6797 74.3672 43.9766 74.3672C42.9453 74.3672 42.1276 74.0182 41.5234 73.3203C40.9193 72.6224 40.6172 71.6901 40.6172 70.5234C40.6172 69.7943 40.7865 69.1172 41.125 68.4922C41.4635 67.8672 41.9375 67.3724 42.5469 67.0078C43.1615 66.6432 43.8385 66.4609 44.5781 66.4609C45.3281 66.4609 46.0052 66.651 46.6094 67.0312C47.2188 67.4062 47.6927 67.9401 48.0312 68.6328C48.3698 69.3203 48.5443 70.1146 48.5547 71.0156V72.0234C48.5547 73.2786 48.3073 74.3672 47.8125 75.2891C47.3229 76.2109 46.6224 76.9193 45.7109 77.4141C44.7995 77.9089 43.737 78.1562 42.5234 78.1562H42.3594V76.0469L42.8594 76.0391C44.6719 75.9505 45.6797 75.138 45.8828 73.6016ZM44.6875 72.4688C45.2604 72.4688 45.6719 72.2214 45.9219 71.7266V70.6328C45.9219 69.9036 45.7995 69.3646 45.5547 69.0156C45.3099 68.6667 44.9792 68.4922 44.5625 68.4922C44.1927 68.4922 43.8828 68.6901 43.6328 69.0859C43.3828 69.4818 43.2578 69.9609 43.2578 70.5234C43.2578 71.1172 43.3854 71.5911 43.6406 71.9453C43.8958 72.2943 44.2448 72.4688 44.6875 72.4688ZM57.6328 69.6641C57.6328 70.2161 57.4948 70.7031 57.2188 71.125C56.9479 71.5469 56.5729 71.8854 56.0938 72.1406C56.6354 72.4062 57.0651 72.7708 57.3828 73.2344C57.7005 73.6927 57.8594 74.237 57.8594 74.8672C57.8594 75.8828 57.5078 76.6849 56.8047 77.2734C56.1068 77.862 55.1432 78.1562 53.9141 78.1562C52.6797 78.1562 51.7057 77.862 50.9922 77.2734C50.2786 76.6797 49.9219 75.8776 49.9219 74.8672C49.9219 74.2578 50.0781 73.7188 50.3906 73.25C50.7031 72.7812 51.1458 72.4115 51.7188 72.1406C51.2344 71.8854 50.8542 71.5469 50.5781 71.125C50.3021 70.7031 50.1641 70.2161 50.1641 69.6641C50.1641 68.6745 50.5 67.8932 51.1719 67.3203C51.8438 66.7474 52.75 66.4609 53.8906 66.4609C55.0417 66.4609 55.9531 66.7474 56.625 67.3203C57.2969 67.8932 57.6328 68.6745 57.6328 69.6641ZM55.2188 74.6562C55.2188 74.1875 55.0964 73.8281 54.8516 73.5781C54.612 73.3229 54.2943 73.1953 53.8984 73.1953C53.5026 73.1953 53.1823 73.3229 52.9375 73.5781C52.6927 73.8281 52.5703 74.1875 52.5703 74.6562C52.5703 75.1094 52.6927 75.4688 52.9375 75.7344C53.1875 75.9948 53.513 76.125 53.9141 76.125C54.3047 76.125 54.6198 75.9948 54.8594 75.7344C55.099 75.474 55.2188 75.1146 55.2188 74.6562ZM53.8906 68.4922C53.5365 68.4922 53.2656 68.6094 53.0781 68.8438C52.8958 69.0729 52.8047 69.3932 52.8047 69.8047C52.8047 70.2109 52.8984 70.5391 53.0859 70.7891C53.2734 71.0391 53.5495 71.1641 53.9141 71.1641C54.2734 71.1641 54.5417 71.0391 54.7188 70.7891C54.901 70.5391 54.9922 70.2109 54.9922 69.8047C54.9922 69.3984 54.8984 69.0781 54.7109 68.8438C54.5286 68.6094 54.2552 68.4922 53.8906 68.4922ZM67.1328 68.0312L62.8828 78H60.1016L64.3594 68.6562H58.9375V66.625H67.1328V68.0312ZM80.4141 78H72.4766V76.2812L76.1328 72.4375C77.0339 71.4115 77.4844 70.5964 77.4844 69.9922C77.4844 69.5026 77.3776 69.1302 77.1641 68.875C76.9505 68.6198 76.6406 68.4922 76.2344 68.4922C75.8333 68.4922 75.5078 68.6641 75.2578 69.0078C75.0078 69.3464 74.8828 69.7708 74.8828 70.2812H72.2422C72.2422 69.5833 72.4167 68.9401 72.7656 68.3516C73.1146 67.7578 73.599 67.2943 74.2188 66.9609C74.8385 66.6276 75.5312 66.4609 76.2969 66.4609C77.526 66.4609 78.4714 66.7448 79.1328 67.3125C79.7995 67.8802 80.1328 68.6953 80.1328 69.7578C80.1328 70.2057 80.0495 70.6432 79.8828 71.0703C79.7161 71.4922 79.4557 71.9375 79.1016 72.4062C78.7526 72.8698 78.1875 73.4922 77.4062 74.2734L75.9375 75.9688H80.4141V78ZM89.6406 73.3516C89.6406 74.888 89.2943 76.0729 88.6016 76.9062C87.9141 77.7396 86.9427 78.1562 85.6875 78.1562C84.4219 78.1562 83.4427 77.737 82.75 76.8984C82.0573 76.0599 81.7109 74.8776 81.7109 73.3516V71.2734C81.7109 69.737 82.0547 68.5521 82.7422 67.7188C83.4349 66.8854 84.4115 66.4688 85.6719 66.4688C86.9323 66.4688 87.9089 66.888 88.6016 67.7266C89.2943 68.5651 89.6406 69.75 89.6406 71.2812V73.3516ZM87.0078 70.9375C87.0078 70.1198 86.901 69.5104 86.6875 69.1094C86.474 68.7031 86.1354 68.5 85.6719 68.5C85.2188 68.5 84.888 68.6875 84.6797 69.0625C84.4766 69.4375 84.3672 70.0052 84.3516 70.7656V73.6719C84.3516 74.5208 84.4583 75.1432 84.6719 75.5391C84.8854 75.9297 85.224 76.125 85.6875 76.125C86.1354 76.125 86.4661 75.9349 86.6797 75.5547C86.8932 75.1693 87.0026 74.5677 87.0078 73.75V70.9375ZM97.9609 73.5547H99.1172V75.5859H97.9609V78H95.3281V75.5859H90.9297L90.7734 73.9766L95.3281 66.6484V66.625H97.9609V73.5547ZM93.2812 73.5547H95.3281V70.0547L95.1641 70.3203L93.2812 73.5547Z" fill="#222222"/>
<path d="M48.6016 116.031L44.3516 126H41.5703L45.8281 116.656H40.4062V114.625H48.6016V116.031ZM57.8984 126H49.9609V124.281L53.6172 120.438C54.5182 119.411 54.9688 118.596 54.9688 117.992C54.9688 117.503 54.862 117.13 54.6484 116.875C54.4349 116.62 54.125 116.492 53.7188 116.492C53.3177 116.492 52.9922 116.664 52.7422 117.008C52.4922 117.346 52.3672 117.771 52.3672 118.281H49.7266C49.7266 117.583 49.901 116.94 50.25 116.352C50.599 115.758 51.0833 115.294 51.7031 114.961C52.3229 114.628 53.0156 114.461 53.7812 114.461C55.0104 114.461 55.9557 114.745 56.6172 115.312C57.2839 115.88 57.6172 116.695 57.6172 117.758C57.6172 118.206 57.5339 118.643 57.3672 119.07C57.2005 119.492 56.9401 119.938 56.5859 120.406C56.237 120.87 55.6719 121.492 54.8906 122.273L53.4219 123.969H57.8984V126ZM67.1641 126H59.2266V124.281L62.8828 120.438C63.7839 119.411 64.2344 118.596 64.2344 117.992C64.2344 117.503 64.1276 117.13 63.9141 116.875C63.7005 116.62 63.3906 116.492 62.9844 116.492C62.5833 116.492 62.2578 116.664 62.0078 117.008C61.7578 117.346 61.6328 117.771 61.6328 118.281H58.9922C58.9922 117.583 59.1667 116.94 59.5156 116.352C59.8646 115.758 60.349 115.294 60.9688 114.961C61.5885 114.628 62.2812 114.461 63.0469 114.461C64.276 114.461 65.2214 114.745 65.8828 115.312C66.5495 115.88 66.8828 116.695 66.8828 117.758C66.8828 118.206 66.7995 118.643 66.6328 119.07C66.4661 119.492 66.2057 119.938 65.8516 120.406C65.5026 120.87 64.9375 121.492 64.1562 122.273L62.6875 123.969H67.1641V126ZM80.1484 117.664C80.1484 118.216 80.0104 118.703 79.7344 119.125C79.4635 119.547 79.0885 119.885 78.6094 120.141C79.151 120.406 79.5807 120.771 79.8984 121.234C80.2161 121.693 80.375 122.237 80.375 122.867C80.375 123.883 80.0234 124.685 79.3203 125.273C78.6224 125.862 77.6589 126.156 76.4297 126.156C75.1953 126.156 74.2214 125.862 73.5078 125.273C72.7943 124.68 72.4375 123.878 72.4375 122.867C72.4375 122.258 72.5938 121.719 72.9062 121.25C73.2188 120.781 73.6615 120.411 74.2344 120.141C73.75 119.885 73.3698 119.547 73.0938 119.125C72.8177 118.703 72.6797 118.216 72.6797 117.664C72.6797 116.674 73.0156 115.893 73.6875 115.32C74.3594 114.747 75.2656 114.461 76.4062 114.461C77.5573 114.461 78.4688 114.747 79.1406 115.32C79.8125 115.893 80.1484 116.674 80.1484 117.664ZM77.7344 122.656C77.7344 122.188 77.612 121.828 77.3672 121.578C77.1276 121.323 76.8099 121.195 76.4141 121.195C76.0182 121.195 75.6979 121.323 75.4531 121.578C75.2083 121.828 75.0859 122.188 75.0859 122.656C75.0859 123.109 75.2083 123.469 75.4531 123.734C75.7031 123.995 76.0286 124.125 76.4297 124.125C76.8203 124.125 77.1354 123.995 77.375 123.734C77.6146 123.474 77.7344 123.115 77.7344 122.656ZM76.4062 116.492C76.0521 116.492 75.7812 116.609 75.5938 116.844C75.4115 117.073 75.3203 117.393 75.3203 117.805C75.3203 118.211 75.4141 118.539 75.6016 118.789C75.7891 119.039 76.0651 119.164 76.4297 119.164C76.7891 119.164 77.0573 119.039 77.2344 118.789C77.4167 118.539 77.5078 118.211 77.5078 117.805C77.5078 117.398 77.4141 117.078 77.2266 116.844C77.0443 116.609 76.7708 116.492 76.4062 116.492ZM89.4141 117.664C89.4141 118.216 89.276 118.703 89 119.125C88.7292 119.547 88.3542 119.885 87.875 120.141C88.4167 120.406 88.8464 120.771 89.1641 121.234C89.4818 121.693 89.6406 122.237 89.6406 122.867C89.6406 123.883 89.2891 124.685 88.5859 125.273C87.888 125.862 86.9245 126.156 85.6953 126.156C84.4609 126.156 83.487 125.862 82.7734 125.273C82.0599 124.68 81.7031 123.878 81.7031 122.867C81.7031 122.258 81.8594 121.719 82.1719 121.25C82.4844 120.781 82.9271 120.411 83.5 120.141C83.0156 119.885 82.6354 119.547 82.3594 119.125C82.0833 118.703 81.9453 118.216 81.9453 117.664C81.9453 116.674 82.2812 115.893 82.9531 115.32C83.625 114.747 84.5312 114.461 85.6719 114.461C86.8229 114.461 87.7344 114.747 88.4062 115.32C89.0781 115.893 89.4141 116.674 89.4141 117.664ZM87 122.656C87 122.188 86.8776 121.828 86.6328 121.578C86.3932 121.323 86.0755 121.195 85.6797 121.195C85.2839 121.195 84.9635 121.323 84.7188 121.578C84.474 121.828 84.3516 122.188 84.3516 122.656C84.3516 123.109 84.474 123.469 84.7188 123.734C84.9688 123.995 85.2943 124.125 85.6953 124.125C86.0859 124.125 86.401 123.995 86.6406 123.734C86.8802 123.474 87 123.115 87 122.656ZM85.6719 116.492C85.3177 116.492 85.0469 116.609 84.8594 116.844C84.6771 117.073 84.5859 117.393 84.5859 117.805C84.5859 118.211 84.6797 118.539 84.8672 118.789C85.0547 119.039 85.3307 119.164 85.6953 119.164C86.0547 119.164 86.3229 119.039 86.5 118.789C86.6823 118.539 86.7734 118.211 86.7734 117.805C86.7734 117.398 86.6797 117.078 86.4922 116.844C86.3099 116.609 86.0365 116.492 85.6719 116.492ZM93.4141 119.211H94.6562C95.6406 119.211 96.1328 118.729 96.1328 117.766C96.1328 117.391 96.0156 117.086 95.7812 116.852C95.5469 116.612 95.2161 116.492 94.7891 116.492C94.4401 116.492 94.1354 116.594 93.875 116.797C93.6198 117 93.4922 117.253 93.4922 117.555H90.8594C90.8594 116.956 91.026 116.422 91.3594 115.953C91.6927 115.484 92.1536 115.12 92.7422 114.859C93.3359 114.594 93.987 114.461 94.6953 114.461C95.9609 114.461 96.9557 114.75 97.6797 115.328C98.4036 115.906 98.7656 116.701 98.7656 117.711C98.7656 118.201 98.6146 118.664 98.3125 119.102C98.0156 119.534 97.5807 119.885 97.0078 120.156C97.612 120.375 98.0859 120.708 98.4297 121.156C98.7734 121.599 98.9453 122.148 98.9453 122.805C98.9453 123.82 98.5547 124.633 97.7734 125.242C96.9922 125.852 95.9661 126.156 94.6953 126.156C93.9505 126.156 93.2578 126.016 92.6172 125.734C91.9818 125.448 91.5 125.055 91.1719 124.555C90.8438 124.049 90.6797 123.477 90.6797 122.836H93.3281C93.3281 123.185 93.4688 123.487 93.75 123.742C94.0312 123.997 94.3776 124.125 94.7891 124.125C95.2526 124.125 95.6224 123.997 95.8984 123.742C96.1745 123.482 96.3125 123.151 96.3125 122.75C96.3125 122.177 96.1693 121.771 95.8828 121.531C95.5964 121.292 95.2005 121.172 94.6953 121.172H93.4141V119.211Z" fill="#222222"/>
<rect width="32" height="32" rx="4" fill="#B875ED"/>
<rect y="48" width="32" height="32" rx="4" fill="#84C6EC"/>
<rect y="96" width="32" height="32" rx="4" fill="#CD933B"/>
<path d="M10.6667 66C10.6667 66 11.3333 65.3333 13.3333 65.3333C15.3333 65.3333 16.6667 66.6666 18.6667 66.6666C20.6667 66.6666 21.3333 66 21.3333 66V58C21.3333 58 20.6667 58.6666 18.6667 58.6666C16.6667 58.6666 15.3333 57.3333 13.3333 57.3333C11.3333 57.3333 10.6667 58 10.6667 58V66Z" stroke="white" stroke-width="2" stroke-linecap="round" stroke-linejoin="round"/>
<path d="M10.6667 70.6667V66" stroke="white" stroke-width="2" stroke-linecap="round" stroke-linejoin="round"/>
<g clip-path="url(#clip0_16_64)">
<path d="M23.3333 106.667V110.667H19.3333" stroke="white" stroke-width="2" stroke-linecap="round" stroke-linejoin="round"/>
<path d="M8.66666 117.333V113.333H12.6667" stroke="white" stroke-width="2" stroke-linecap="round" stroke-linejoin="round"/>
<path d="M10.34 110C10.6781 109.045 11.2527 108.19 12.0103 107.517C12.7679 106.844 13.6836 106.373 14.6722 106.15C15.6607 105.926 16.6898 105.956 17.6635 106.238C18.6371 106.52 19.5235 107.043 20.24 107.76L23.3333 110.667M8.66666 113.333L11.76 116.24C12.4765 116.957 13.3629 117.481 14.3365 117.762C15.3102 118.044 16.3393 118.074 17.3278 117.851C18.3163 117.627 19.2321 117.156 19.9897 116.483C20.7472 115.81 21.3219 114.956 21.66 114" stroke="white" stroke-width="2" stroke-linecap="round" stroke-linejoin="round"/>
</g>
<g clip-path="url(#clip1_16_64)">
<path d="M19.3333 22V20.6667C19.3333 19.9594 19.0524 19.2811 18.5523 18.781C18.0522 18.281 17.3739 18 16.6667 18H11.3333C10.6261 18 9.9478 18.281 9.44771 18.781C8.94761 19.2811 8.66666 19.9594 8.66666 20.6667V22" stroke="white" stroke-width="2" stroke-linecap="round" stroke-linejoin="round"/>
<path d="M14 15.3333C15.4728 15.3333 16.6667 14.1394 16.6667 12.6667C16.6667 11.1939 15.4728 10 14 10C12.5273 10 11.3333 11.1939 11.3333 12.6667C11.3333 14.1394 12.5273 15.3333 14 15.3333Z" stroke="white" stroke-width="2" stroke-linecap="round" stroke-linejoin="round"/>
<path d="M23.3333 21.9999V20.6666C23.3329 20.0758 23.1362 19.5018 22.7743 19.0348C22.4123 18.5678 21.9054 18.2343 21.3333 18.0866" stroke="white" stroke-width="2" stroke-linecap="round" stroke-linejoin="round"/>
<path d="M18.6667 10.0866C19.2403 10.2335 19.7487 10.5671 20.1117 11.0348C20.4748 11.5026 20.6719 12.0778 20.6719 12.6699C20.6719 13.2621 20.4748 13.8373 20.1117 14.3051C19.7487 14.7728 19.2403 15.1064 18.6667 15.2533" stroke="white" stroke-width="2" stroke-linecap="round" stroke-linejoin="round"/>
</g>
<defs>
<clipPath id="clip0_16_64">
<rect width="16" height="16" fill="white" transform="translate(8 104)"/>
</clipPath>
<clipPath id="clip1_16_64">
<rect width="16" height="16" fill="white" transform="translate(8 8)"/>
</clipPath>
</defs>
</svg>
