<svg width="872" height="284" viewBox="0 0 872 284" fill="none" xmlns="http://www.w3.org/2000/svg">
<path d="M44 153.5C55.3521 143.613 82.8342 123.777 101.946 123.524C125.837 123.209 123.803 107.5 151.76 107.5C179.716 107.5 200.049 117.529 223.43 119.107C246.812 120.684 261.553 95.4417 303.234 95.4417C344.914 95.4417 368.805 138.985 400.319 137.723C431.834 136.461 460.299 127.5 484.697 127.5C509.096 127.5 526.886 137.723 570.092 137.723C613.298 137.723 610.248 151.116 651.42 151.116C692.593 151.116 711.908 100 750.031 100C780.529 100 822.718 89.8301 840 75" stroke="#84C6EC" stroke-width="8" stroke-linecap="round" stroke-linejoin="round"/>
<path d="M101.946 123.524C82.8342 123.777 55.3521 143.613 44 153.5V227H840V75C822.718 89.8301 780.529 100 750.031 100C711.908 100 692.593 151.116 651.42 151.116C610.248 151.116 613.298 137.723 570.092 137.723C526.886 137.723 509.096 127.5 484.697 127.5C460.299 127.5 431.834 136.461 400.319 137.723C368.805 138.985 344.914 95.4417 303.234 95.4417C261.553 95.4417 246.812 120.684 223.43 119.107C200.049 117.529 179.716 107.5 151.76 107.5C123.803 107.5 125.837 123.209 101.946 123.524Z" fill="url(#paint0_linear_22_778)"/>
<path d="M44 222C55.3521 206.333 82.8342 174.9 101.946 174.5C125.837 174 123.803 205.5 151.76 205.5C179.716 205.5 200.049 165 223.43 167.5C246.812 170 261.553 211 303.234 211C344.914 211 368.805 199 400.319 197C431.834 195 460.299 167.5 484.697 167.5C509.096 167.5 526.886 197 570.092 197C613.298 197 610.248 130 651.42 130C692.593 130 711.908 86.5 750.031 86.5C780.529 86.5 822.718 39.5 840 16" stroke="#CD933B" stroke-width="4" stroke-linecap="round" stroke-linejoin="round"/>
<path d="M101.946 174.5C82.8342 174.9 55.3521 206.333 44 222V283.5H840V16C822.718 39.5 780.529 86.5 750.031 86.5C711.908 86.5 692.593 130 651.42 130C610.248 130 613.298 197 570.092 197C526.886 197 509.096 167.5 484.697 167.5C460.299 167.5 431.834 195 400.319 197C368.805 199 344.914 211 303.234 211C261.553 211 246.812 170 223.43 167.5C200.049 165 179.716 205.5 151.76 205.5C123.803 205.5 125.837 174 101.946 174.5Z" fill="url(#paint1_linear_22_778)"/>
<path d="M840 185C828.648 178.764 801.166 166.251 782.054 166.092C758.163 165.893 760.197 178.432 732.24 178.432C704.284 178.432 683.951 162.311 660.57 163.306C637.188 164.301 622.447 180.621 580.766 180.621C539.086 180.621 515.195 175.845 483.681 175.049C452.166 174.252 423.701 163.306 399.303 163.306C374.904 163.306 357.114 175.049 313.908 175.049C270.702 175.049 273.752 148.379 232.58 148.379C191.407 148.379 172.092 131.063 133.969 131.063C103.471 131.063 61.2823 112.354 44 103" stroke="#B875ED" stroke-width="4" stroke-linecap="round" stroke-linejoin="round"/>
<path d="M782.054 166.092C801.166 166.251 828.648 178.764 840 185V224H44.0001V103C61.2823 112.354 103.471 131.063 133.969 131.063C172.092 131.063 191.407 148.379 232.58 148.379C273.752 148.379 270.702 175.049 313.908 175.049C357.114 175.049 374.904 163.306 399.303 163.306C423.701 163.306 452.166 174.252 483.681 175.049C515.195 175.845 539.086 180.621 580.766 180.621C622.447 180.621 637.188 164.301 660.57 163.306C683.951 162.311 704.284 178.432 732.24 178.432C760.197 178.432 758.163 165.893 782.054 166.092Z" fill="url(#paint2_linear_22_778)"/>
<rect y="80" width="129" height="160" fill="url(#paint3_linear_22_778)"/>
<rect x="872" y="240" width="129" height="240" transform="rotate(-180 872 240)" fill="url(#paint4_linear_22_778)"/>
<path d="M47.627 243.905C47.627 244.62 47.4925 245.16 47.2236 245.525C46.957 245.887 46.5503 246.068 46.0034 246.068C45.4657 246.068 45.0601 245.892 44.7866 245.539C44.5155 245.183 44.3765 244.658 44.3696 243.963V243.102C44.3696 242.386 44.5029 241.849 44.7695 241.492C45.0384 241.134 45.4474 240.955 45.9966 240.955C46.5412 240.955 46.9468 241.129 47.2134 241.478C47.4823 241.827 47.6201 242.348 47.627 243.043V243.905ZM46.7964 242.975C46.7964 242.508 46.7326 242.166 46.605 241.95C46.4774 241.731 46.2746 241.622 45.9966 241.622C45.7254 241.622 45.526 241.725 45.3984 241.933C45.2708 242.138 45.2036 242.459 45.1968 242.896V244.024C45.1968 244.489 45.2617 244.836 45.3916 245.063C45.5215 245.291 45.7254 245.405 46.0034 245.405C46.27 245.405 46.4671 245.3 46.5947 245.091C46.7223 244.879 46.7896 244.549 46.7964 244.1V242.975Z" fill="#888888"/>
<path d="M80.6323 246H79.8052V242.004L78.585 242.421V241.721L80.5264 241.006H80.6323V246Z" fill="#888888"/>
<path d="M115.729 246H112.383V245.429L114.041 243.621C114.28 243.354 114.45 243.132 114.55 242.955C114.653 242.775 114.704 242.595 114.704 242.415C114.704 242.178 114.637 241.986 114.502 241.84C114.37 241.694 114.191 241.622 113.966 241.622C113.697 241.622 113.488 241.704 113.34 241.868C113.192 242.032 113.118 242.256 113.118 242.541H112.288C112.288 242.238 112.356 241.966 112.493 241.724C112.632 241.48 112.829 241.291 113.084 241.157C113.341 241.022 113.638 240.955 113.973 240.955C114.456 240.955 114.836 241.077 115.114 241.321C115.395 241.562 115.535 241.897 115.535 242.326C115.535 242.574 115.464 242.835 115.323 243.108C115.184 243.38 114.955 243.688 114.636 244.035L113.419 245.337H115.729V246Z" fill="#888888"/>
<path d="M147.344 243.132H147.85C148.105 243.13 148.306 243.064 148.455 242.934C148.605 242.804 148.68 242.616 148.68 242.37C148.68 242.133 148.618 241.95 148.492 241.82C148.369 241.688 148.18 241.622 147.925 241.622C147.701 241.622 147.518 241.687 147.375 241.816C147.231 241.944 147.159 242.111 147.159 242.319H146.329C146.329 242.064 146.396 241.831 146.53 241.622C146.667 241.412 146.856 241.249 147.098 241.133C147.341 241.014 147.614 240.955 147.915 240.955C148.411 240.955 148.801 241.08 149.083 241.331C149.368 241.579 149.511 241.926 149.511 242.37C149.511 242.593 149.439 242.804 149.295 243.002C149.154 243.198 148.971 243.347 148.745 243.447C149.019 243.54 149.226 243.687 149.367 243.888C149.511 244.088 149.583 244.327 149.583 244.605C149.583 245.052 149.429 245.408 149.121 245.672C148.816 245.936 148.414 246.068 147.915 246.068C147.436 246.068 147.044 245.941 146.739 245.686C146.433 245.43 146.281 245.091 146.281 244.667H147.111C147.111 244.886 147.184 245.063 147.33 245.2C147.478 245.337 147.676 245.405 147.925 245.405C148.182 245.405 148.385 245.337 148.533 245.2C148.681 245.063 148.755 244.865 148.755 244.605C148.755 244.343 148.678 244.142 148.523 244C148.368 243.859 148.138 243.789 147.833 243.789H147.344V243.132Z" fill="#888888"/>
<path d="M183.193 244.226H183.812V244.893H183.193V246H182.362V244.893H180.212L180.188 244.387L182.335 241.023H183.193V244.226ZM181.06 244.226H182.362V242.148L182.301 242.257L181.06 244.226Z" fill="#888888"/>
<path d="M214.605 243.532L214.875 241.023H217.548V241.741H215.566L215.429 242.931C215.659 242.799 215.919 242.732 216.208 242.732C216.682 242.732 217.05 242.884 217.312 243.187C217.577 243.49 217.709 243.898 217.709 244.411C217.709 244.917 217.563 245.32 217.271 245.621C216.98 245.919 216.58 246.068 216.072 246.068C215.616 246.068 215.238 245.94 214.937 245.682C214.639 245.422 214.477 245.081 214.452 244.657H215.255C215.287 244.898 215.373 245.084 215.515 245.214C215.656 245.341 215.84 245.405 216.068 245.405C216.324 245.405 216.522 245.314 216.663 245.132C216.807 244.95 216.878 244.701 216.878 244.387C216.878 244.084 216.8 243.844 216.643 243.669C216.485 243.491 216.269 243.402 215.993 243.402C215.843 243.402 215.715 243.423 215.61 243.464C215.506 243.503 215.392 243.58 215.269 243.696L214.605 243.532Z" fill="#888888"/>
<path d="M250.967 241V241.687H250.865C250.4 241.693 250.028 241.821 249.75 242.069C249.472 242.318 249.307 242.67 249.255 243.125C249.521 242.845 249.862 242.705 250.277 242.705C250.717 242.705 251.063 242.86 251.316 243.17C251.571 243.48 251.699 243.88 251.699 244.37C251.699 244.875 251.549 245.286 251.251 245.6C250.955 245.912 250.565 246.068 250.082 246.068C249.585 246.068 249.182 245.885 248.872 245.518C248.564 245.151 248.411 244.67 248.411 244.076V243.792C248.411 242.919 248.623 242.236 249.046 241.741C249.472 241.247 250.084 241 250.882 241H250.967ZM250.075 243.375C249.893 243.375 249.725 243.426 249.573 243.529C249.422 243.631 249.312 243.768 249.241 243.939V244.192C249.241 244.561 249.319 244.855 249.474 245.074C249.629 245.29 249.829 245.398 250.075 245.398C250.321 245.398 250.516 245.306 250.66 245.122C250.803 244.937 250.875 244.694 250.875 244.394C250.875 244.093 250.802 243.848 250.656 243.659C250.51 243.47 250.317 243.375 250.075 243.375Z" fill="#888888"/>
<path d="M285.695 241.485L283.706 246H282.834L284.82 241.69H282.247V241.023H285.695V241.485Z" fill="#888888"/>
<path d="M319.518 242.336C319.518 242.58 319.455 242.797 319.33 242.989C319.204 243.178 319.033 243.327 318.817 243.437C319.077 243.557 319.276 243.722 319.415 243.932C319.556 244.142 319.627 244.379 319.627 244.643C319.627 245.081 319.479 245.428 319.183 245.686C318.886 245.941 318.492 246.068 318 246.068C317.506 246.068 317.109 245.94 316.811 245.682C316.514 245.425 316.366 245.078 316.366 244.643C316.366 244.376 316.437 244.137 316.578 243.925C316.719 243.713 316.918 243.55 317.173 243.437C316.959 243.327 316.789 243.178 316.664 242.989C316.541 242.797 316.479 242.58 316.479 242.336C316.479 241.912 316.616 241.576 316.889 241.328C317.163 241.079 317.532 240.955 317.997 240.955C318.464 240.955 318.834 241.079 319.107 241.328C319.381 241.576 319.518 241.912 319.518 242.336ZM318.796 244.602C318.796 244.356 318.722 244.158 318.574 244.007C318.428 243.855 318.235 243.778 317.993 243.778C317.752 243.778 317.558 243.854 317.412 244.004C317.269 244.154 317.197 244.354 317.197 244.602C317.197 244.846 317.267 245.041 317.409 245.187C317.552 245.332 317.749 245.405 318 245.405C318.251 245.405 318.445 245.335 318.584 245.193C318.726 245.052 318.796 244.855 318.796 244.602ZM318.69 242.367C318.69 242.15 318.628 241.972 318.502 241.833C318.377 241.692 318.208 241.622 317.997 241.622C317.785 241.622 317.617 241.689 317.494 241.823C317.371 241.955 317.31 242.137 317.31 242.367C317.31 242.595 317.371 242.776 317.494 242.91C317.619 243.045 317.788 243.112 318 243.112C318.212 243.112 318.379 243.045 318.502 242.91C318.628 242.776 318.69 242.595 318.69 242.367Z" fill="#888888"/>
<path d="M352.738 243.918C352.46 244.212 352.136 244.359 351.764 244.359C351.327 244.359 350.978 244.207 350.718 243.901C350.458 243.594 350.329 243.19 350.329 242.691C350.329 242.363 350.395 242.066 350.527 241.799C350.659 241.533 350.847 241.325 351.091 241.177C351.335 241.029 351.617 240.955 351.938 240.955C352.44 240.955 352.837 241.142 353.131 241.516C353.425 241.889 353.572 242.389 353.572 243.016V243.249C353.572 244.146 353.369 244.831 352.964 245.303C352.558 245.774 351.953 246.014 351.149 246.021H351.05V245.333H351.169C351.659 245.327 352.035 245.209 352.297 244.981C352.559 244.751 352.706 244.397 352.738 243.918ZM351.938 243.71C352.105 243.71 352.261 243.662 352.407 243.566C352.553 243.471 352.665 243.339 352.745 243.17V242.845C352.745 242.478 352.67 242.183 352.52 241.96C352.369 241.737 352.174 241.625 351.935 241.625C351.696 241.625 351.504 241.724 351.361 241.922C351.22 242.118 351.149 242.367 351.149 242.667C351.149 242.98 351.221 243.231 351.364 243.423C351.508 243.614 351.699 243.71 351.938 243.71Z" fill="#888888"/>
<path d="M384.293 246H383.466V242.004L382.246 242.421V241.721L384.187 241.006H384.293V246ZM389.966 243.905C389.966 244.62 389.832 245.16 389.563 245.525C389.296 245.887 388.89 246.068 388.343 246.068C387.805 246.068 387.399 245.892 387.126 245.539C386.855 245.183 386.716 244.658 386.709 243.963V243.102C386.709 242.386 386.842 241.849 387.109 241.492C387.378 241.134 387.787 240.955 388.336 240.955C388.88 240.955 389.286 241.129 389.553 241.478C389.822 241.827 389.959 242.348 389.966 243.043V243.905ZM389.136 242.975C389.136 242.508 389.072 242.166 388.944 241.95C388.817 241.731 388.614 241.622 388.336 241.622C388.065 241.622 387.865 241.725 387.738 241.933C387.61 242.138 387.543 242.459 387.536 242.896V244.024C387.536 244.489 387.601 244.836 387.731 245.063C387.861 245.291 388.065 245.405 388.343 245.405C388.609 245.405 388.806 245.3 388.934 245.091C389.062 244.879 389.129 244.549 389.136 244.1V242.975Z" fill="#888888"/>
<path d="M418.293 246H417.466V242.004L416.246 242.421V241.721L418.187 241.006H418.293V246ZM422.972 246H422.144V242.004L420.924 242.421V241.721L422.866 241.006H422.972V246Z" fill="#888888"/>
<path d="M452.293 246H451.466V242.004L450.246 242.421V241.721L452.187 241.006H452.293V246ZM458.069 246H454.723V245.429L456.38 243.621C456.62 243.354 456.789 243.132 456.89 242.955C456.992 242.775 457.043 242.595 457.043 242.415C457.043 242.178 456.976 241.986 456.842 241.84C456.71 241.694 456.531 241.622 456.305 241.622C456.036 241.622 455.828 241.704 455.68 241.868C455.531 242.032 455.457 242.256 455.457 242.541H454.627C454.627 242.238 454.695 241.966 454.832 241.724C454.971 241.48 455.168 241.291 455.423 241.157C455.681 241.022 455.977 240.955 456.312 240.955C456.795 240.955 457.176 241.077 457.454 241.321C457.734 241.562 457.874 241.897 457.874 242.326C457.874 242.574 457.803 242.835 457.662 243.108C457.523 243.38 457.294 243.688 456.975 244.035L455.758 245.337H458.069V246Z" fill="#888888"/>
<path d="M486.293 246H485.466V242.004L484.246 242.421V241.721L486.187 241.006H486.293V246ZM489.683 243.132H490.189C490.444 243.13 490.646 243.064 490.794 242.934C490.944 242.804 491.019 242.616 491.019 242.37C491.019 242.133 490.957 241.95 490.831 241.82C490.708 241.688 490.519 241.622 490.264 241.622C490.041 241.622 489.857 241.687 489.714 241.816C489.57 241.944 489.498 242.111 489.498 242.319H488.668C488.668 242.064 488.735 241.831 488.87 241.622C489.006 241.412 489.195 241.249 489.437 241.133C489.681 241.014 489.953 240.955 490.254 240.955C490.751 240.955 491.14 241.08 491.423 241.331C491.708 241.579 491.85 241.926 491.85 242.37C491.85 242.593 491.778 242.804 491.635 243.002C491.493 243.198 491.31 243.347 491.084 243.447C491.358 243.54 491.565 243.687 491.706 243.888C491.85 244.088 491.922 244.327 491.922 244.605C491.922 245.052 491.768 245.408 491.46 245.672C491.155 245.936 490.753 246.068 490.254 246.068C489.775 246.068 489.383 245.941 489.078 245.686C488.773 245.43 488.62 245.091 488.62 244.667H489.451C489.451 244.886 489.524 245.063 489.669 245.2C489.817 245.337 490.016 245.405 490.264 245.405C490.522 245.405 490.724 245.337 490.872 245.2C491.021 245.063 491.095 244.865 491.095 244.605C491.095 244.343 491.017 244.142 490.862 244C490.707 243.859 490.477 243.789 490.172 243.789H489.683V243.132Z" fill="#888888"/>
<path d="M520.293 246H519.466V242.004L518.246 242.421V241.721L520.187 241.006H520.293V246ZM525.532 244.226H526.151V244.893H525.532V246H524.702V244.893H522.552L522.528 244.387L524.674 241.023H525.532V244.226ZM523.399 244.226H524.702V242.148L524.64 242.257L523.399 244.226Z" fill="#888888"/>
<path d="M554.293 246H553.466V242.004L552.246 242.421V241.721L554.187 241.006H554.293V246ZM556.945 243.532L557.215 241.023H559.888V241.741H557.905L557.768 242.931C557.999 242.799 558.258 242.732 558.548 242.732C559.022 242.732 559.39 242.884 559.652 243.187C559.916 243.49 560.048 243.898 560.048 244.411C560.048 244.917 559.902 245.32 559.611 245.621C559.319 245.919 558.919 246.068 558.411 246.068C557.955 246.068 557.577 245.94 557.276 245.682C556.978 245.422 556.816 245.081 556.791 244.657H557.594C557.626 244.898 557.713 245.084 557.854 245.214C557.995 245.341 558.18 245.405 558.408 245.405C558.663 245.405 558.861 245.314 559.002 245.132C559.146 244.95 559.218 244.701 559.218 244.387C559.218 244.084 559.139 243.844 558.982 243.669C558.825 243.491 558.608 243.402 558.332 243.402C558.182 243.402 558.054 243.423 557.95 243.464C557.845 243.503 557.731 243.58 557.608 243.696L556.945 243.532Z" fill="#888888"/>
<path d="M588.293 246H587.466V242.004L586.246 242.421V241.721L588.187 241.006H588.293V246ZM593.307 241V241.687H593.204C592.739 241.693 592.368 241.821 592.09 242.069C591.812 242.318 591.647 242.67 591.594 243.125C591.861 242.845 592.201 242.705 592.616 242.705C593.056 242.705 593.402 242.86 593.655 243.17C593.91 243.48 594.038 243.88 594.038 244.37C594.038 244.875 593.889 245.286 593.59 245.6C593.294 245.912 592.904 246.068 592.421 246.068C591.925 246.068 591.521 245.885 591.211 245.518C590.904 245.151 590.75 244.67 590.75 244.076V243.792C590.75 242.919 590.962 242.236 591.386 241.741C591.812 241.247 592.424 241 593.221 241H593.307ZM592.414 243.375C592.232 243.375 592.065 243.426 591.912 243.529C591.762 243.631 591.651 243.768 591.58 243.939V244.192C591.58 244.561 591.658 244.855 591.813 245.074C591.968 245.29 592.168 245.398 592.414 245.398C592.661 245.398 592.855 245.306 592.999 245.122C593.142 244.937 593.214 244.694 593.214 244.394C593.214 244.093 593.141 243.848 592.996 243.659C592.85 243.47 592.656 243.375 592.414 243.375Z" fill="#888888"/>
<path d="M622.293 246H621.466V242.004L620.246 242.421V241.721L622.187 241.006H622.293V246ZM628.035 241.485L626.045 246H625.174L627.16 241.69H624.586V241.023H628.035V241.485Z" fill="#888888"/>
<path d="M656.293 246H655.466V242.004L654.246 242.421V241.721L656.187 241.006H656.293V246ZM661.857 242.336C661.857 242.58 661.794 242.797 661.669 242.989C661.544 243.178 661.373 243.327 661.156 243.437C661.416 243.557 661.615 243.722 661.754 243.932C661.896 244.142 661.966 244.379 661.966 244.643C661.966 245.081 661.818 245.428 661.522 245.686C661.226 245.941 660.831 246.068 660.339 246.068C659.845 246.068 659.448 245.94 659.15 245.682C658.854 245.425 658.705 245.078 658.705 244.643C658.705 244.376 658.776 244.137 658.917 243.925C659.059 243.713 659.257 243.55 659.512 243.437C659.298 243.327 659.128 243.178 659.003 242.989C658.88 242.797 658.818 242.58 658.818 242.336C658.818 241.912 658.955 241.576 659.228 241.328C659.502 241.079 659.871 240.955 660.336 240.955C660.803 240.955 661.173 241.079 661.447 241.328C661.72 241.576 661.857 241.912 661.857 242.336ZM661.136 244.602C661.136 244.356 661.062 244.158 660.913 244.007C660.768 243.855 660.574 243.778 660.332 243.778C660.091 243.778 659.897 243.854 659.751 244.004C659.608 244.154 659.536 244.354 659.536 244.602C659.536 244.846 659.607 245.041 659.748 245.187C659.892 245.332 660.089 245.405 660.339 245.405C660.59 245.405 660.785 245.335 660.924 245.193C661.065 245.052 661.136 244.855 661.136 244.602ZM661.03 242.367C661.03 242.15 660.967 241.972 660.842 241.833C660.716 241.692 660.548 241.622 660.336 241.622C660.124 241.622 659.956 241.689 659.833 241.823C659.71 241.955 659.649 242.137 659.649 242.367C659.649 242.595 659.71 242.776 659.833 242.91C659.959 243.045 660.127 243.112 660.339 243.112C660.551 243.112 660.719 243.045 660.842 242.91C660.967 242.776 661.03 242.595 661.03 242.367Z" fill="#888888"/>
<path d="M690.293 246H689.466V242.004L688.246 242.421V241.721L690.187 241.006H690.293V246ZM695.078 243.918C694.8 244.212 694.475 244.359 694.103 244.359C693.666 244.359 693.317 244.207 693.058 243.901C692.798 243.594 692.668 243.19 692.668 242.691C692.668 242.363 692.734 242.066 692.866 241.799C692.998 241.533 693.186 241.325 693.43 241.177C693.674 241.029 693.956 240.955 694.278 240.955C694.779 240.955 695.177 241.142 695.471 241.516C695.765 241.889 695.912 242.389 695.912 243.016V243.249C695.912 244.146 695.709 244.831 695.303 245.303C694.898 245.774 694.293 246.014 693.488 246.021H693.389V245.333H693.509C693.999 245.327 694.375 245.209 694.637 244.981C694.899 244.751 695.046 244.397 695.078 243.918ZM694.278 243.71C694.444 243.71 694.6 243.662 694.746 243.566C694.892 243.471 695.005 243.339 695.084 243.17V242.845C695.084 242.478 695.009 242.183 694.859 241.96C694.708 241.737 694.514 241.625 694.274 241.625C694.035 241.625 693.844 241.724 693.7 241.922C693.559 242.118 693.488 242.367 693.488 242.667C693.488 242.98 693.56 243.231 693.704 243.423C693.847 243.614 694.038 243.71 694.278 243.71Z" fill="#888888"/>
<path d="M725.39 246H722.044V245.429L723.702 243.621C723.941 243.354 724.111 243.132 724.211 242.955C724.314 242.775 724.365 242.595 724.365 242.415C724.365 242.178 724.298 241.986 724.163 241.84C724.031 241.694 723.852 241.622 723.627 241.622C723.358 241.622 723.149 241.704 723.001 241.868C722.853 242.032 722.779 242.256 722.779 242.541H721.948C721.948 242.238 722.017 241.966 722.153 241.724C722.292 241.48 722.49 241.291 722.745 241.157C723.002 241.022 723.298 240.955 723.633 240.955C724.116 240.955 724.497 241.077 724.775 241.321C725.055 241.562 725.195 241.897 725.195 242.326C725.195 242.574 725.125 242.835 724.983 243.108C724.844 243.38 724.615 243.688 724.296 244.035L723.08 245.337H725.39V246ZM729.966 243.905C729.966 244.62 729.832 245.16 729.563 245.525C729.296 245.887 728.89 246.068 728.343 246.068C727.805 246.068 727.399 245.892 727.126 245.539C726.855 245.183 726.716 244.658 726.709 243.963V243.102C726.709 242.386 726.842 241.849 727.109 241.492C727.378 241.134 727.787 240.955 728.336 240.955C728.88 240.955 729.286 241.129 729.553 241.478C729.822 241.827 729.959 242.348 729.966 243.043V243.905ZM729.136 242.975C729.136 242.508 729.072 242.166 728.944 241.95C728.817 241.731 728.614 241.622 728.336 241.622C728.065 241.622 727.865 241.725 727.738 241.933C727.61 242.138 727.543 242.459 727.536 242.896V244.024C727.536 244.489 727.601 244.836 727.731 245.063C727.861 245.291 728.065 245.405 728.343 245.405C728.609 245.405 728.806 245.3 728.934 245.091C729.062 244.879 729.129 244.549 729.136 244.1V242.975Z" fill="#888888"/>
<path d="M759.39 246H756.044V245.429L757.702 243.621C757.941 243.354 758.111 243.132 758.211 242.955C758.314 242.775 758.365 242.595 758.365 242.415C758.365 242.178 758.298 241.986 758.163 241.84C758.031 241.694 757.852 241.622 757.627 241.622C757.358 241.622 757.149 241.704 757.001 241.868C756.853 242.032 756.779 242.256 756.779 242.541H755.948C755.948 242.238 756.017 241.966 756.153 241.724C756.292 241.48 756.49 241.291 756.745 241.157C757.002 241.022 757.298 240.955 757.633 240.955C758.116 240.955 758.497 241.077 758.775 241.321C759.055 241.562 759.195 241.897 759.195 242.326C759.195 242.574 759.125 242.835 758.983 243.108C758.844 243.38 758.615 243.688 758.296 244.035L757.08 245.337H759.39V246ZM762.972 246H762.144V242.004L760.924 242.421V241.721L762.866 241.006H762.972V246Z" fill="#888888"/>
<path d="M793.39 246H790.044V245.429L791.702 243.621C791.941 243.354 792.111 243.132 792.211 242.955C792.314 242.775 792.365 242.595 792.365 242.415C792.365 242.178 792.298 241.986 792.163 241.84C792.031 241.694 791.852 241.622 791.627 241.622C791.358 241.622 791.149 241.704 791.001 241.868C790.853 242.032 790.779 242.256 790.779 242.541H789.948C789.948 242.238 790.017 241.966 790.153 241.724C790.292 241.48 790.49 241.291 790.745 241.157C791.002 241.022 791.298 240.955 791.633 240.955C792.116 240.955 792.497 241.077 792.775 241.321C793.055 241.562 793.195 241.897 793.195 242.326C793.195 242.574 793.125 242.835 792.983 243.108C792.844 243.38 792.615 243.688 792.296 244.035L791.08 245.337H793.39V246ZM798.069 246H794.723V245.429L796.38 243.621C796.62 243.354 796.789 243.132 796.89 242.955C796.992 242.775 797.043 242.595 797.043 242.415C797.043 242.178 796.976 241.986 796.842 241.84C796.71 241.694 796.531 241.622 796.305 241.622C796.036 241.622 795.828 241.704 795.68 241.868C795.531 242.032 795.457 242.256 795.457 242.541H794.627C794.627 242.238 794.695 241.966 794.832 241.724C794.971 241.48 795.168 241.291 795.423 241.157C795.681 241.022 795.977 240.955 796.312 240.955C796.795 240.955 797.176 241.077 797.454 241.321C797.734 241.562 797.874 241.897 797.874 242.326C797.874 242.574 797.803 242.835 797.662 243.108C797.523 243.38 797.294 243.688 796.975 244.035L795.758 245.337H798.069V246Z" fill="#888888"/>
<path d="M827.39 246H824.044V245.429L825.702 243.621C825.941 243.354 826.111 243.132 826.211 242.955C826.314 242.775 826.365 242.595 826.365 242.415C826.365 242.178 826.298 241.986 826.163 241.84C826.031 241.694 825.852 241.622 825.627 241.622C825.358 241.622 825.149 241.704 825.001 241.868C824.853 242.032 824.779 242.256 824.779 242.541H823.948C823.948 242.238 824.017 241.966 824.153 241.724C824.292 241.48 824.49 241.291 824.745 241.157C825.002 241.022 825.298 240.955 825.633 240.955C826.116 240.955 826.497 241.077 826.775 241.321C827.055 241.562 827.195 241.897 827.195 242.326C827.195 242.574 827.125 242.835 826.983 243.108C826.844 243.38 826.615 243.688 826.296 244.035L825.08 245.337H827.39V246ZM829.683 243.132H830.189C830.444 243.13 830.646 243.064 830.794 242.934C830.944 242.804 831.019 242.616 831.019 242.37C831.019 242.133 830.957 241.95 830.831 241.82C830.708 241.688 830.519 241.622 830.264 241.622C830.041 241.622 829.857 241.687 829.714 241.816C829.57 241.944 829.498 242.111 829.498 242.319H828.668C828.668 242.064 828.735 241.831 828.87 241.622C829.006 241.412 829.195 241.249 829.437 241.133C829.681 241.014 829.953 240.955 830.254 240.955C830.751 240.955 831.14 241.08 831.423 241.331C831.708 241.579 831.85 241.926 831.85 242.37C831.85 242.593 831.778 242.804 831.635 243.002C831.493 243.198 831.31 243.347 831.084 243.447C831.358 243.54 831.565 243.687 831.706 243.888C831.85 244.088 831.922 244.327 831.922 244.605C831.922 245.052 831.768 245.408 831.46 245.672C831.155 245.936 830.753 246.068 830.254 246.068C829.775 246.068 829.383 245.941 829.078 245.686C828.773 245.43 828.62 245.091 828.62 244.667H829.451C829.451 244.886 829.524 245.063 829.669 245.2C829.817 245.337 830.016 245.405 830.264 245.405C830.522 245.405 830.724 245.337 830.872 245.2C831.021 245.063 831.095 244.865 831.095 244.605C831.095 244.343 831.017 244.142 830.862 244C830.707 243.859 830.477 243.789 830.172 243.789H829.683V243.132Z" fill="#888888"/>
<rect x="27" y="41" width="258" height="187" fill="#FCFCFC" fill-opacity="0.75"/>
<rect x="557" y="31" width="292" height="197" fill="#FCFCFC" fill-opacity="0.75"/>
<rect x="112" y="228" width="679" height="2" rx="1" fill="#E5E5E5"/>
<path d="M285 229V74" stroke="#E5E5E5" stroke-linecap="round" stroke-linejoin="round"/>
<path d="M398 229V74" stroke="#E5E5E5" stroke-linecap="round" stroke-linejoin="round"/>
<path d="M557 229V74" stroke="#E5E5E5" stroke-linecap="round" stroke-linejoin="round"/>
<rect x="283" y="228" width="274" height="2" rx="1" fill="#222222"/>
<circle cx="285" cy="229" r="5" fill="white" stroke="#888888" stroke-width="2"/>
<circle cx="398" cy="162" r="6" fill="#222222"/>
<circle cx="557" cy="229" r="5" fill="white" stroke="#888888" stroke-width="2"/>
<g filter="url(#filter0_d_22_778)">
<rect x="318" y="111" width="160" height="40" rx="6" fill="white"/>
<rect x="398" y="137" width="16" height="16" rx="4" transform="rotate(45 398 137)" fill="white"/>
<path d="M372.055 129.461V131.531H371.938C370.953 131.531 370.143 131.768 369.508 132.242C368.878 132.711 368.49 133.365 368.344 134.203C368.938 133.62 369.688 133.328 370.594 133.328C371.578 133.328 372.362 133.688 372.945 134.406C373.529 135.125 373.82 136.068 373.82 137.234C373.82 137.958 373.648 138.622 373.305 139.227C372.966 139.831 372.49 140.305 371.875 140.648C371.266 140.987 370.589 141.156 369.844 141.156C369.036 141.156 368.315 140.974 367.68 140.609C367.044 140.24 366.549 139.714 366.195 139.031C365.841 138.349 365.659 137.562 365.648 136.672V135.617C365.648 134.445 365.898 133.393 366.398 132.461C366.904 131.523 367.622 130.789 368.555 130.258C369.487 129.727 370.521 129.461 371.656 129.461H372.055ZM369.68 135.344C369.331 135.344 369.039 135.424 368.805 135.586C368.57 135.747 368.396 135.945 368.281 136.18V136.969C368.281 138.406 368.779 139.125 369.773 139.125C370.174 139.125 370.508 138.945 370.773 138.586C371.044 138.227 371.18 137.776 371.18 137.234C371.18 136.677 371.042 136.224 370.766 135.875C370.495 135.521 370.133 135.344 369.68 135.344ZM382.898 141H374.961V139.281L378.617 135.438C379.518 134.411 379.969 133.596 379.969 132.992C379.969 132.503 379.862 132.13 379.648 131.875C379.435 131.62 379.125 131.492 378.719 131.492C378.318 131.492 377.992 131.664 377.742 132.008C377.492 132.346 377.367 132.771 377.367 133.281H374.727C374.727 132.583 374.901 131.94 375.25 131.352C375.599 130.758 376.083 130.294 376.703 129.961C377.323 129.628 378.016 129.461 378.781 129.461C380.01 129.461 380.956 129.745 381.617 130.312C382.284 130.88 382.617 131.695 382.617 132.758C382.617 133.206 382.534 133.643 382.367 134.07C382.201 134.492 381.94 134.938 381.586 135.406C381.237 135.87 380.672 136.492 379.891 137.273L378.422 138.969H382.898V141ZM392.125 136.352C392.125 137.888 391.779 139.073 391.086 139.906C390.398 140.74 389.427 141.156 388.172 141.156C386.906 141.156 385.927 140.737 385.234 139.898C384.542 139.06 384.195 137.878 384.195 136.352V134.273C384.195 132.737 384.539 131.552 385.227 130.719C385.919 129.885 386.896 129.469 388.156 129.469C389.417 129.469 390.393 129.888 391.086 130.727C391.779 131.565 392.125 132.75 392.125 134.281V136.352ZM389.492 133.938C389.492 133.12 389.385 132.51 389.172 132.109C388.958 131.703 388.62 131.5 388.156 131.5C387.703 131.5 387.372 131.688 387.164 132.062C386.961 132.438 386.852 133.005 386.836 133.766V136.672C386.836 137.521 386.943 138.143 387.156 138.539C387.37 138.93 387.708 139.125 388.172 139.125C388.62 139.125 388.951 138.935 389.164 138.555C389.378 138.169 389.487 137.568 389.492 136.75V133.938Z" fill="#222222"/>
<path d="M423.648 136.555H424.805V138.586H423.648V141H421.016V138.586H416.617L416.461 136.977L421.016 129.648V129.625H423.648V136.555ZM418.969 136.555H421.016V133.055L420.852 133.32L418.969 136.555ZM433.898 141H425.961V139.281L429.617 135.438C430.518 134.411 430.969 133.596 430.969 132.992C430.969 132.503 430.862 132.13 430.648 131.875C430.435 131.62 430.125 131.492 429.719 131.492C429.318 131.492 428.992 131.664 428.742 132.008C428.492 132.346 428.367 132.771 428.367 133.281H425.727C425.727 132.583 425.901 131.94 426.25 131.352C426.599 130.758 427.083 130.294 427.703 129.961C428.323 129.628 429.016 129.461 429.781 129.461C431.01 129.461 431.956 129.745 432.617 130.312C433.284 130.88 433.617 131.695 433.617 132.758C433.617 133.206 433.534 133.643 433.367 134.07C433.201 134.492 432.94 134.938 432.586 135.406C432.237 135.87 431.672 136.492 430.891 137.273L429.422 138.969H433.898V141ZM440.414 136.602C439.846 137.112 439.211 137.367 438.508 137.367C437.477 137.367 436.659 137.018 436.055 136.32C435.451 135.622 435.148 134.69 435.148 133.523C435.148 132.794 435.318 132.117 435.656 131.492C435.995 130.867 436.469 130.372 437.078 130.008C437.693 129.643 438.37 129.461 439.109 129.461C439.859 129.461 440.536 129.651 441.141 130.031C441.75 130.406 442.224 130.94 442.562 131.633C442.901 132.32 443.076 133.115 443.086 134.016V135.023C443.086 136.279 442.839 137.367 442.344 138.289C441.854 139.211 441.154 139.919 440.242 140.414C439.331 140.909 438.268 141.156 437.055 141.156H436.891V139.047L437.391 139.039C439.203 138.951 440.211 138.138 440.414 136.602ZM439.219 135.469C439.792 135.469 440.203 135.221 440.453 134.727V133.633C440.453 132.904 440.331 132.365 440.086 132.016C439.841 131.667 439.51 131.492 439.094 131.492C438.724 131.492 438.414 131.69 438.164 132.086C437.914 132.482 437.789 132.961 437.789 133.523C437.789 134.117 437.917 134.591 438.172 134.945C438.427 135.294 438.776 135.469 439.219 135.469Z" fill="#222222"/>
<path d="M369.409 122.77L370.175 119.023H371.033L369.884 124H369.057L368.11 120.367L367.143 124H366.312L365.164 119.023H366.022L366.794 122.763L367.745 119.023H368.469L369.409 122.77ZM374.966 122.718C374.966 122.5 374.889 122.331 374.734 122.212C374.581 122.094 374.304 121.974 373.903 121.854C373.502 121.733 373.183 121.598 372.946 121.45C372.493 121.165 372.266 120.794 372.266 120.336C372.266 119.935 372.429 119.604 372.755 119.345C373.083 119.085 373.508 118.955 374.03 118.955C374.376 118.955 374.685 119.019 374.956 119.146C375.227 119.274 375.44 119.456 375.595 119.693C375.75 119.928 375.827 120.189 375.827 120.476H374.966C374.966 120.216 374.884 120.014 374.72 119.868C374.558 119.72 374.326 119.646 374.023 119.646C373.74 119.646 373.52 119.706 373.363 119.827C373.208 119.947 373.131 120.116 373.131 120.333C373.131 120.515 373.215 120.667 373.384 120.791C373.552 120.911 373.83 121.03 374.218 121.146C374.605 121.26 374.916 121.391 375.151 121.539C375.385 121.685 375.557 121.854 375.667 122.045C375.776 122.234 375.831 122.456 375.831 122.711C375.831 123.126 375.671 123.457 375.352 123.703C375.036 123.946 374.605 124.068 374.06 124.068C373.7 124.068 373.369 124.002 373.066 123.87C372.765 123.736 372.53 123.551 372.362 123.316C372.195 123.082 372.112 122.808 372.112 122.496H372.977C372.977 122.779 373.07 122.997 373.257 123.152C373.444 123.307 373.712 123.385 374.06 123.385C374.361 123.385 374.587 123.324 374.737 123.204C374.89 123.081 374.966 122.919 374.966 122.718ZM378.202 124H377.341V119.023H378.202V124ZM382.812 122.841H380.885L380.481 124H379.582L381.462 119.023H382.238L384.121 124H383.219L382.812 122.841ZM381.127 122.144H382.57L381.849 120.08L381.127 122.144ZM385.389 124V119.023H386.859C387.298 119.023 387.688 119.121 388.028 119.317C388.369 119.513 388.634 119.791 388.821 120.151C389.007 120.511 389.101 120.924 389.101 121.389V121.638C389.101 122.11 389.006 122.525 388.817 122.882C388.63 123.24 388.362 123.516 388.014 123.709C387.668 123.903 387.27 124 386.821 124H385.389ZM386.254 119.721V123.31H386.818C387.271 123.31 387.619 123.168 387.86 122.886C388.104 122.601 388.228 122.193 388.233 121.662V121.385C388.233 120.845 388.115 120.433 387.881 120.148C387.646 119.863 387.305 119.721 386.859 119.721H386.254ZM391.582 121.023L392.381 120.78V121.283L391.582 121.525V123.31H393.841V124H390.717V121.789L390.272 121.922V121.419L390.717 121.286V119.023H391.582V121.023ZM399.176 121.642C399.176 122.129 399.091 122.558 398.923 122.927C398.754 123.294 398.513 123.576 398.198 123.774C397.886 123.97 397.526 124.068 397.118 124.068C396.715 124.068 396.355 123.97 396.038 123.774C395.723 123.576 395.48 123.295 395.306 122.93C395.136 122.566 395.049 122.145 395.047 121.669V121.389C395.047 120.903 395.132 120.475 395.303 120.104C395.476 119.732 395.719 119.448 396.031 119.252C396.346 119.054 396.706 118.955 397.111 118.955C397.517 118.955 397.876 119.053 398.188 119.249C398.502 119.443 398.745 119.723 398.916 120.09C399.087 120.454 399.173 120.879 399.176 121.365V121.642ZM398.311 121.382C398.311 120.83 398.206 120.408 397.996 120.114C397.789 119.82 397.494 119.673 397.111 119.673C396.737 119.673 396.445 119.82 396.233 120.114C396.023 120.405 395.916 120.819 395.911 121.354V121.642C395.911 122.188 396.017 122.611 396.229 122.91C396.443 123.208 396.74 123.357 397.118 123.357C397.501 123.357 397.795 123.212 398 122.92C398.207 122.628 398.311 122.202 398.311 121.642V121.382Z" fill="#888888"/>
<path d="M420.409 122.77L421.175 119.023H422.033L420.884 124H420.057L419.11 120.367L418.143 124H417.312L416.164 119.023H417.022L417.794 122.763L418.745 119.023H419.469L420.409 122.77ZM424.989 121.382L426.134 119.023H427.091L425.423 122.168V124H424.554V122.168L422.883 119.023H423.844L424.989 121.382ZM430.877 122.718C430.877 122.5 430.8 122.331 430.645 122.212C430.492 122.094 430.215 121.974 429.814 121.854C429.413 121.733 429.094 121.598 428.857 121.45C428.404 121.165 428.177 120.794 428.177 120.336C428.177 119.935 428.34 119.604 428.666 119.345C428.994 119.085 429.419 118.955 429.941 118.955C430.287 118.955 430.596 119.019 430.867 119.146C431.138 119.274 431.351 119.456 431.506 119.693C431.661 119.928 431.738 120.189 431.738 120.476H430.877C430.877 120.216 430.795 120.014 430.631 119.868C430.469 119.72 430.237 119.646 429.934 119.646C429.651 119.646 429.431 119.706 429.274 119.827C429.119 119.947 429.042 120.116 429.042 120.333C429.042 120.515 429.126 120.667 429.295 120.791C429.463 120.911 429.741 121.03 430.129 121.146C430.516 121.26 430.827 121.391 431.062 121.539C431.296 121.685 431.468 121.854 431.578 122.045C431.687 122.234 431.742 122.456 431.742 122.711C431.742 123.126 431.582 123.457 431.263 123.703C430.947 123.946 430.516 124.068 429.971 124.068C429.611 124.068 429.28 124.002 428.977 123.87C428.676 123.736 428.441 123.551 428.273 123.316C428.106 123.082 428.023 122.808 428.023 122.496H428.888C428.888 122.779 428.981 122.997 429.168 123.152C429.355 123.307 429.623 123.385 429.971 123.385C430.272 123.385 430.498 123.324 430.648 123.204C430.801 123.081 430.877 122.919 430.877 122.718ZM434.113 124H433.252V119.023H434.113V124ZM438.723 122.841H436.796L436.392 124H435.493L437.373 119.023H438.149L440.032 124H439.13L438.723 122.841ZM437.038 122.144H438.481L437.759 120.08L437.038 122.144ZM441.3 124V119.023H442.77C443.209 119.023 443.599 119.121 443.938 119.317C444.28 119.513 444.545 119.791 444.731 120.151C444.918 120.511 445.012 120.924 445.012 121.389V121.638C445.012 122.11 444.917 122.525 444.728 122.882C444.541 123.24 444.273 123.516 443.925 123.709C443.578 123.903 443.181 124 442.732 124H441.3ZM442.165 119.721V123.31H442.729C443.182 123.31 443.529 123.168 443.771 122.886C444.015 122.601 444.139 122.193 444.144 121.662V121.385C444.144 120.845 444.026 120.433 443.792 120.148C443.557 119.863 443.216 119.721 442.77 119.721H442.165ZM447.492 121.023L448.292 120.78V121.283L447.492 121.525V123.31H449.752V124H446.628V121.789L446.183 121.922V121.419L446.628 121.286V119.023H447.492V121.023ZM455.087 121.642C455.087 122.129 455.002 122.558 454.834 122.927C454.665 123.294 454.423 123.576 454.109 123.774C453.797 123.97 453.437 124.068 453.029 124.068C452.626 124.068 452.266 123.97 451.949 123.774C451.634 123.576 451.391 123.295 451.217 122.93C451.046 122.566 450.96 122.145 450.958 121.669V121.389C450.958 120.903 451.043 120.475 451.214 120.104C451.387 119.732 451.63 119.448 451.942 119.252C452.256 119.054 452.616 118.955 453.022 118.955C453.428 118.955 453.787 119.053 454.099 119.249C454.413 119.443 454.656 119.723 454.827 120.09C454.998 120.454 455.084 120.879 455.087 121.365V121.642ZM454.222 121.382C454.222 120.83 454.117 120.408 453.907 120.114C453.7 119.82 453.405 119.673 453.022 119.673C452.648 119.673 452.356 119.82 452.144 120.114C451.934 120.405 451.827 120.819 451.822 121.354V121.642C451.822 122.188 451.928 122.611 452.14 122.91C452.354 123.208 452.651 123.357 453.029 123.357C453.412 123.357 453.706 123.212 453.911 122.92C454.118 122.628 454.222 122.202 454.222 121.642V121.382Z" fill="#888888"/>
<rect x="407" y="119" width="1" height="24" fill="#E5E5E5"/>
<rect x="322" y="115" width="32" height="32" rx="4" fill="#C21E07"/>
<path d="M334.667 136.667H332.667C332.313 136.667 331.974 136.526 331.724 136.276C331.474 136.026 331.333 135.687 331.333 135.333V130.667C331.333 130.313 331.474 129.974 331.724 129.724C331.974 129.474 332.313 129.333 332.667 129.333H334.667M339.333 128V125.333C339.333 124.803 339.123 124.294 338.748 123.919C338.372 123.544 337.864 123.333 337.333 123.333L334.667 129.333V136.667H342.187C342.508 136.67 342.82 136.558 343.065 136.349C343.31 136.141 343.472 135.851 343.52 135.533L344.44 129.533C344.469 129.342 344.456 129.147 344.402 128.961C344.348 128.776 344.255 128.604 344.128 128.458C344.001 128.312 343.844 128.196 343.668 128.117C343.491 128.038 343.3 127.998 343.107 128H339.333Z" stroke="white" stroke-width="2" stroke-linecap="round" stroke-linejoin="round"/>
</g>
<path d="M53.1562 28.875L50.7188 31.5V38H46.0312V15.25H50.7188V25.5625L52.7812 22.7344L58.5781 15.25H64.3438L56.2656 25.3594L64.5781 38H59L53.1562 28.875ZM75.8438 38C75.6354 37.5938 75.4844 37.0885 75.3906 36.4844C74.2969 37.7031 72.875 38.3125 71.125 38.3125C69.4688 38.3125 68.0938 37.8333 67 36.875C65.9167 35.9167 65.375 34.7083 65.375 33.25C65.375 31.4583 66.0365 30.0833 67.3594 29.125C68.6927 28.1667 70.6146 27.6823 73.125 27.6719H75.2031V26.7031C75.2031 25.9219 75 25.2969 74.5938 24.8281C74.1979 24.3594 73.5677 24.125 72.7031 24.125C71.9427 24.125 71.3438 24.3073 70.9062 24.6719C70.4792 25.0365 70.2656 25.5365 70.2656 26.1719H65.75C65.75 25.1927 66.0521 24.2865 66.6562 23.4531C67.2604 22.6198 68.1146 21.9688 69.2188 21.5C70.3229 21.0208 71.5625 20.7812 72.9375 20.7812C75.0208 20.7812 76.6719 21.3073 77.8906 22.3594C79.1198 23.401 79.7344 24.8698 79.7344 26.7656V34.0938C79.7448 35.6979 79.9688 36.9115 80.4062 37.7344V38H75.8438ZM72.1094 34.8594C72.776 34.8594 73.3906 34.7135 73.9531 34.4219C74.5156 34.1198 74.9323 33.7188 75.2031 33.2188V30.3125H73.5156C71.2552 30.3125 70.0521 31.0938 69.9062 32.6562L69.8906 32.9219C69.8906 33.4844 70.0885 33.9479 70.4844 34.3125C70.8802 34.6771 71.4219 34.8594 72.1094 34.8594ZM88.6094 16.9375V21.0938H91.5V24.4062H88.6094V32.8438C88.6094 33.4688 88.7292 33.9167 88.9688 34.1875C89.2083 34.4583 89.6667 34.5938 90.3438 34.5938C90.8438 34.5938 91.2865 34.5573 91.6719 34.4844V37.9062C90.7865 38.1771 89.875 38.3125 88.9375 38.3125C85.7708 38.3125 84.1562 36.7135 84.0938 33.5156V24.4062H81.625V21.0938H84.0938V16.9375H88.6094ZM101.797 38.3125C99.3177 38.3125 97.2969 37.5521 95.7344 36.0312C94.1823 34.5104 93.4062 32.4844 93.4062 29.9531V29.5156C93.4062 27.8177 93.7344 26.3021 94.3906 24.9688C95.0469 23.625 95.974 22.5938 97.1719 21.875C98.3802 21.1458 99.7552 20.7812 101.297 20.7812C103.609 20.7812 105.427 21.5104 106.75 22.9688C108.083 24.4271 108.75 26.4948 108.75 29.1719V31.0156H97.9844C98.1302 32.1198 98.5677 33.0052 99.2969 33.6719C100.036 34.3385 100.969 34.6719 102.094 34.6719C103.833 34.6719 105.193 34.0417 106.172 32.7812L108.391 35.2656C107.714 36.224 106.797 36.974 105.641 37.5156C104.484 38.0469 103.203 38.3125 101.797 38.3125ZM101.281 24.4375C100.385 24.4375 99.6562 24.7396 99.0938 25.3438C98.5417 25.9479 98.1875 26.8125 98.0312 27.9375H104.312V27.5781C104.292 26.5781 104.021 25.8073 103.5 25.2656C102.979 24.7135 102.24 24.4375 101.281 24.4375ZM110.672 29.4219C110.672 26.8281 111.286 24.7396 112.516 23.1562C113.755 21.5729 115.422 20.7812 117.516 20.7812C119.37 20.7812 120.812 21.4167 121.844 22.6875L122.031 21.0938H126.125V37.4375C126.125 38.9167 125.786 40.2031 125.109 41.2969C124.443 42.3906 123.5 43.224 122.281 43.7969C121.062 44.3698 119.635 44.6562 118 44.6562C116.76 44.6562 115.552 44.4062 114.375 43.9062C113.198 43.4167 112.307 42.7812 111.703 42L113.703 39.25C114.828 40.5104 116.193 41.1406 117.797 41.1406C118.995 41.1406 119.927 40.8177 120.594 40.1719C121.26 39.5365 121.594 38.6302 121.594 37.4531V36.5469C120.552 37.724 119.182 38.3125 117.484 38.3125C115.453 38.3125 113.807 37.5208 112.547 35.9375C111.297 34.3438 110.672 32.2344 110.672 29.6094V29.4219ZM115.188 29.75C115.188 31.2812 115.495 32.4844 116.109 33.3594C116.724 34.224 117.568 34.6562 118.641 34.6562C120.016 34.6562 121 34.1406 121.594 33.1094V26C120.99 24.9688 120.016 24.4531 118.672 24.4531C117.589 24.4531 116.734 24.8958 116.109 25.7812C115.495 26.6667 115.188 27.9896 115.188 29.75ZM128.906 29.3906C128.906 27.7135 129.229 26.2188 129.875 24.9062C130.521 23.5938 131.448 22.5781 132.656 21.8594C133.875 21.1406 135.286 20.7812 136.891 20.7812C139.172 20.7812 141.031 21.4792 142.469 22.875C143.917 24.2708 144.724 26.1667 144.891 28.5625L144.922 29.7188C144.922 32.3125 144.198 34.3958 142.75 35.9688C141.302 37.5312 139.359 38.3125 136.922 38.3125C134.484 38.3125 132.536 37.5312 131.078 35.9688C129.63 34.4062 128.906 32.2812 128.906 29.5938V29.3906ZM133.422 29.7188C133.422 31.3229 133.724 32.5521 134.328 33.4062C134.932 34.25 135.797 34.6719 136.922 34.6719C138.016 34.6719 138.87 34.2552 139.484 33.4219C140.099 32.5781 140.406 31.2344 140.406 29.3906C140.406 27.8177 140.099 26.599 139.484 25.7344C138.87 24.8698 138.005 24.4375 136.891 24.4375C135.786 24.4375 134.932 24.8698 134.328 25.7344C133.724 26.5885 133.422 27.9167 133.422 29.7188ZM157.203 25.3281C156.589 25.2448 156.047 25.2031 155.578 25.2031C153.87 25.2031 152.75 25.7812 152.219 26.9375V38H147.703V21.0938H151.969L152.094 23.1094C153 21.5573 154.255 20.7812 155.859 20.7812C156.359 20.7812 156.828 20.849 157.266 20.9844L157.203 25.3281ZM164.156 38H159.625V21.0938H164.156V38ZM159.359 16.7188C159.359 16.0417 159.583 15.4844 160.031 15.0469C160.49 14.6094 161.109 14.3906 161.891 14.3906C162.661 14.3906 163.276 14.6094 163.734 15.0469C164.193 15.4844 164.422 16.0417 164.422 16.7188C164.422 17.4062 164.188 17.9688 163.719 18.4062C163.26 18.8438 162.651 19.0625 161.891 19.0625C161.13 19.0625 160.516 18.8438 160.047 18.4062C159.589 17.9688 159.359 17.4062 159.359 16.7188ZM175.672 38.3125C173.193 38.3125 171.172 37.5521 169.609 36.0312C168.057 34.5104 167.281 32.4844 167.281 29.9531V29.5156C167.281 27.8177 167.609 26.3021 168.266 24.9688C168.922 23.625 169.849 22.5938 171.047 21.875C172.255 21.1458 173.63 20.7812 175.172 20.7812C177.484 20.7812 179.302 21.5104 180.625 22.9688C181.958 24.4271 182.625 26.4948 182.625 29.1719V31.0156H171.859C172.005 32.1198 172.443 33.0052 173.172 33.6719C173.911 34.3385 174.844 34.6719 175.969 34.6719C177.708 34.6719 179.068 34.0417 180.047 32.7812L182.266 35.2656C181.589 36.224 180.672 36.974 179.516 37.5156C178.359 38.0469 177.078 38.3125 175.672 38.3125ZM175.156 24.4375C174.26 24.4375 173.531 24.7396 172.969 25.3438C172.417 25.9479 172.062 26.8125 171.906 27.9375H178.188V27.5781C178.167 26.5781 177.896 25.8073 177.375 25.2656C176.854 24.7135 176.115 24.4375 175.156 24.4375ZM208.406 29.7031C208.406 32.4115 207.828 34.526 206.672 36.0469C205.516 37.5573 203.901 38.3125 201.828 38.3125C199.995 38.3125 198.531 37.6094 197.438 36.2031L197.234 38H193.172V14H197.688V22.6094C198.729 21.3906 200.099 20.7812 201.797 20.7812C203.859 20.7812 205.474 21.5417 206.641 23.0625C207.818 24.5729 208.406 26.7031 208.406 29.4531V29.7031ZM203.891 29.375C203.891 27.6667 203.62 26.4219 203.078 25.6406C202.536 24.849 201.729 24.4531 200.656 24.4531C199.219 24.4531 198.229 25.0417 197.688 26.2188V32.8906C198.24 34.0781 199.24 34.6719 200.688 34.6719C202.146 34.6719 203.104 33.9531 203.562 32.5156C203.781 31.8281 203.891 30.7812 203.891 29.375ZM215.969 38H211.438V21.0938H215.969V38ZM211.172 16.7188C211.172 16.0417 211.396 15.4844 211.844 15.0469C212.302 14.6094 212.922 14.3906 213.703 14.3906C214.474 14.3906 215.089 14.6094 215.547 15.0469C216.005 15.4844 216.234 16.0417 216.234 16.7188C216.234 17.4062 216 17.9688 215.531 18.4062C215.073 18.8438 214.464 19.0625 213.703 19.0625C212.943 19.0625 212.328 18.8438 211.859 18.4062C211.401 17.9688 211.172 17.4062 211.172 16.7188ZM224.469 38H219.938V14H224.469V38ZM235.984 38.3125C233.505 38.3125 231.484 37.5521 229.922 36.0312C228.37 34.5104 227.594 32.4844 227.594 29.9531V29.5156C227.594 27.8177 227.922 26.3021 228.578 24.9688C229.234 23.625 230.161 22.5938 231.359 21.875C232.568 21.1458 233.943 20.7812 235.484 20.7812C237.797 20.7812 239.615 21.5104 240.938 22.9688C242.271 24.4271 242.938 26.4948 242.938 29.1719V31.0156H232.172C232.318 32.1198 232.755 33.0052 233.484 33.6719C234.224 34.3385 235.156 34.6719 236.281 34.6719C238.021 34.6719 239.38 34.0417 240.359 32.7812L242.578 35.2656C241.901 36.224 240.984 36.974 239.828 37.5156C238.672 38.0469 237.391 38.3125 235.984 38.3125ZM235.469 24.4375C234.573 24.4375 233.844 24.7396 233.281 25.3438C232.729 25.9479 232.375 26.8125 232.219 27.9375H238.5V27.5781C238.479 26.5781 238.208 25.8073 237.688 25.2656C237.167 24.7135 236.427 24.4375 235.469 24.4375ZM250.922 16.9375V21.0938H253.812V24.4062H250.922V32.8438C250.922 33.4688 251.042 33.9167 251.281 34.1875C251.521 34.4583 251.979 34.5938 252.656 34.5938C253.156 34.5938 253.599 34.5573 253.984 34.4844V37.9062C253.099 38.1771 252.188 38.3125 251.25 38.3125C248.083 38.3125 246.469 36.7135 246.406 33.5156V24.4062H243.938V21.0938H246.406V16.9375H250.922ZM255.156 29.3906C255.156 27.7135 255.479 26.2188 256.125 24.9062C256.771 23.5938 257.698 22.5781 258.906 21.8594C260.125 21.1406 261.536 20.7812 263.141 20.7812C265.422 20.7812 267.281 21.4792 268.719 22.875C270.167 24.2708 270.974 26.1667 271.141 28.5625L271.172 29.7188C271.172 32.3125 270.448 34.3958 269 35.9688C267.552 37.5312 265.609 38.3125 263.172 38.3125C260.734 38.3125 258.786 37.5312 257.328 35.9688C255.88 34.4062 255.156 32.2812 255.156 29.5938V29.3906ZM259.672 29.7188C259.672 31.3229 259.974 32.5521 260.578 33.4062C261.182 34.25 262.047 34.6719 263.172 34.6719C264.266 34.6719 265.12 34.2552 265.734 33.4219C266.349 32.5781 266.656 31.2344 266.656 29.3906C266.656 27.8177 266.349 26.599 265.734 25.7344C265.12 24.8698 264.255 24.4375 263.141 24.4375C262.036 24.4375 261.182 24.8698 260.578 25.7344C259.974 26.5885 259.672 27.9167 259.672 29.7188ZM264.031 14H268.953L264.625 18.8438H260.953L264.031 14ZM288.656 31.8594L290.875 21.0938H295.234L290.922 38H287.141L283.938 27.3594L280.734 38H276.969L272.656 21.0938H277.016L279.219 31.8438L282.312 21.0938H285.578L288.656 31.8594Z" fill="#222222"/>
<path d="M50.2988 53.2422L51.3926 47.8906H52.6182L50.9775 55H49.7959L48.4434 49.8096L47.0615 55H45.875L44.2344 47.8906H45.46L46.5635 53.2324L47.9209 47.8906H48.9561L50.2988 53.2422ZM56.8408 51.2598L58.4766 47.8906H59.8438L57.4609 52.3828V55H56.2207V52.3828L53.833 47.8906H55.2051L56.8408 51.2598ZM63.6562 51.9287L62.8506 52.7832V55H61.6152V47.8906H62.8506V51.2256L63.5342 50.3809L65.6143 47.8906H67.1084L64.4668 51.04L67.2598 55H65.7949L63.6562 51.9287ZM71.5361 52.2607H70.1592V55H68.9238V47.8906H71.4238C72.2441 47.8906 72.8773 48.0745 73.3232 48.4424C73.7692 48.8102 73.9922 49.3424 73.9922 50.0391C73.9922 50.5143 73.8766 50.9131 73.6455 51.2354C73.4176 51.5544 73.0986 51.8001 72.6885 51.9727L74.2852 54.9365V55H72.9619L71.5361 52.2607ZM70.1592 51.2695H71.4287C71.8454 51.2695 72.1709 51.1654 72.4053 50.957C72.6396 50.7454 72.7568 50.4574 72.7568 50.0928C72.7568 49.7119 72.6478 49.4173 72.4297 49.209C72.2148 49.0007 71.8926 48.8932 71.4629 48.8867H70.1592V51.2695ZM80.3193 51.8262H77.3994V54.0137H80.8125V55H76.1641V47.8906H80.7783V48.8867H77.3994V50.8496H80.3193V51.8262ZM86.5342 53.1689C86.5342 52.8564 86.4235 52.6156 86.2021 52.4463C85.984 52.277 85.5885 52.1061 85.0156 51.9336C84.4427 51.7611 83.987 51.569 83.6484 51.3574C83.0007 50.9505 82.6768 50.4199 82.6768 49.7656C82.6768 49.1927 82.9095 48.7207 83.375 48.3496C83.8438 47.9785 84.4508 47.793 85.1963 47.793C85.6911 47.793 86.1322 47.8841 86.5195 48.0664C86.9069 48.2487 87.2113 48.5091 87.4326 48.8477C87.654 49.1829 87.7646 49.5557 87.7646 49.9658H86.5342C86.5342 49.5947 86.417 49.305 86.1826 49.0967C85.9515 48.8851 85.6195 48.7793 85.1865 48.7793C84.7829 48.7793 84.4688 48.8656 84.2441 49.0381C84.0228 49.2106 83.9121 49.4515 83.9121 49.7607C83.9121 50.0212 84.0326 50.2393 84.2734 50.415C84.5143 50.5876 84.9115 50.7568 85.4648 50.9229C86.0182 51.0856 86.4626 51.2728 86.7979 51.4844C87.1331 51.6927 87.3789 51.9336 87.5352 52.207C87.6914 52.4772 87.7695 52.7946 87.7695 53.1592C87.7695 53.7516 87.5417 54.2236 87.0859 54.5752C86.6335 54.9235 86.0182 55.0977 85.2402 55.0977C84.7259 55.0977 84.2523 55.0033 83.8193 54.8145C83.3896 54.6224 83.0544 54.3587 82.8135 54.0234C82.5758 53.6882 82.457 53.2975 82.457 52.8516H83.6924C83.6924 53.2552 83.8258 53.5677 84.0928 53.7891C84.3597 54.0104 84.7422 54.1211 85.2402 54.1211C85.6699 54.1211 85.9922 54.0348 86.207 53.8623C86.4251 53.6865 86.5342 53.4554 86.5342 53.1689ZM93.3438 55V47.8906H95.4434C96.0716 47.8906 96.6283 48.0306 97.1133 48.3105C97.6016 48.5905 97.9792 48.9876 98.2461 49.502C98.513 50.0163 98.6465 50.6055 98.6465 51.2695V51.626C98.6465 52.2998 98.5114 52.8923 98.2412 53.4033C97.9743 53.9144 97.5918 54.3083 97.0938 54.585C96.599 54.8617 96.0309 55 95.3896 55H93.3438ZM94.5791 48.8867V54.0137H95.3848C96.0326 54.0137 96.529 53.8118 96.874 53.4082C97.2223 53.0013 97.3997 52.4186 97.4062 51.6602V51.2646C97.4062 50.4932 97.2386 49.904 96.9033 49.4971C96.568 49.0902 96.0814 48.8867 95.4434 48.8867H94.5791ZM106.551 51.6309C106.551 52.3275 106.43 52.9395 106.189 53.4668C105.949 53.9909 105.604 54.3945 105.154 54.6777C104.708 54.9577 104.194 55.0977 103.611 55.0977C103.035 55.0977 102.521 54.9577 102.068 54.6777C101.619 54.3945 101.271 53.9925 101.023 53.4717C100.779 52.9508 100.656 52.3503 100.652 51.6699V51.2695C100.652 50.5762 100.774 49.9642 101.019 49.4336C101.266 48.903 101.613 48.4977 102.059 48.2178C102.508 47.9346 103.022 47.793 103.602 47.793C104.181 47.793 104.694 47.9329 105.14 48.2129C105.589 48.4896 105.936 48.89 106.18 49.4141C106.424 49.9349 106.548 50.542 106.551 51.2354V51.6309ZM105.315 51.2598C105.315 50.472 105.166 49.8682 104.866 49.4482C104.57 49.0283 104.148 48.8184 103.602 48.8184C103.068 48.8184 102.649 49.0283 102.347 49.4482C102.047 49.8649 101.894 50.4557 101.888 51.2207V51.6309C101.888 52.4121 102.039 53.016 102.342 53.4424C102.648 53.8688 103.071 54.082 103.611 54.082C104.158 54.082 104.578 53.8737 104.871 53.457C105.167 53.0404 105.315 52.4316 105.315 51.6309V51.2598ZM108.781 55V47.8906H111.218C112.022 47.8906 112.634 48.0518 113.054 48.374C113.474 48.6963 113.684 49.1764 113.684 49.8145C113.684 50.14 113.596 50.4329 113.42 50.6934C113.244 50.9538 112.987 51.1556 112.648 51.2988C113.033 51.403 113.329 51.5999 113.537 51.8896C113.749 52.1761 113.854 52.5212 113.854 52.9248C113.854 53.5921 113.64 54.1048 113.21 54.4629C112.784 54.821 112.172 55 111.374 55H108.781ZM110.017 51.792V54.0137H111.389C111.776 54.0137 112.079 53.9176 112.297 53.7256C112.515 53.5335 112.624 53.2666 112.624 52.9248C112.624 52.1859 112.246 51.8083 111.491 51.792H110.017ZM110.017 50.8838H111.228C111.612 50.8838 111.911 50.7975 112.126 50.625C112.344 50.4492 112.453 50.2018 112.453 49.8828C112.453 49.5312 112.352 49.2773 112.15 49.1211C111.952 48.9648 111.641 48.8867 111.218 48.8867H110.017V50.8838ZM121.764 51.6309C121.764 52.3275 121.643 52.9395 121.402 53.4668C121.161 53.9909 120.816 54.3945 120.367 54.6777C119.921 54.9577 119.407 55.0977 118.824 55.0977C118.248 55.0977 117.734 54.9577 117.281 54.6777C116.832 54.3945 116.484 53.9925 116.236 53.4717C115.992 52.9508 115.868 52.3503 115.865 51.6699V51.2695C115.865 50.5762 115.987 49.9642 116.231 49.4336C116.479 48.903 116.826 48.4977 117.271 48.2178C117.721 47.9346 118.235 47.793 118.814 47.793C119.394 47.793 119.907 47.9329 120.353 48.2129C120.802 48.4896 121.148 48.89 121.393 49.4141C121.637 49.9349 121.76 50.542 121.764 51.2354V51.6309ZM120.528 51.2598C120.528 50.472 120.379 49.8682 120.079 49.4482C119.783 49.0283 119.361 48.8184 118.814 48.8184C118.281 48.8184 117.862 49.0283 117.56 49.4482C117.26 49.8649 117.107 50.4557 117.101 51.2207V51.6309C117.101 52.4121 117.252 53.016 117.555 53.4424C117.861 53.8688 118.284 54.082 118.824 54.082C119.371 54.082 119.791 53.8737 120.084 53.457C120.38 53.0404 120.528 52.4316 120.528 51.6309V51.2598ZM129.57 53.2422L130.664 47.8906H131.89L130.249 55H129.067L127.715 49.8096L126.333 55H125.146L123.506 47.8906H124.731L125.835 53.2324L127.192 47.8906H128.228L129.57 53.2422ZM136.112 51.2598L137.748 47.8906H139.115L136.732 52.3828V55H135.492V52.3828L133.104 47.8906H134.477L136.112 51.2598Z" fill="#888888"/>
<circle cx="559" cy="51" r="6" fill="#84C6EC"/>
<path d="M577.438 52.1689C577.438 51.8564 577.328 51.6156 577.106 51.4463C576.888 51.277 576.493 51.1061 575.92 50.9336C575.347 50.7611 574.891 50.569 574.553 50.3574C573.905 49.9505 573.581 49.4199 573.581 48.7656C573.581 48.1927 573.814 47.7207 574.279 47.3496C574.748 46.9785 575.355 46.793 576.101 46.793C576.595 46.793 577.036 46.8841 577.424 47.0664C577.811 47.2487 578.116 47.5091 578.337 47.8477C578.558 48.1829 578.669 48.5557 578.669 48.9658H577.438C577.438 48.5947 577.321 48.305 577.087 48.0967C576.856 47.8851 576.524 47.7793 576.091 47.7793C575.687 47.7793 575.373 47.8656 575.148 48.0381C574.927 48.2106 574.816 48.4515 574.816 48.7607C574.816 49.0212 574.937 49.2393 575.178 49.415C575.419 49.5876 575.816 49.7568 576.369 49.9229C576.923 50.0856 577.367 50.2728 577.702 50.4844C578.037 50.6927 578.283 50.9336 578.439 51.207C578.596 51.4772 578.674 51.7946 578.674 52.1592C578.674 52.7516 578.446 53.2236 577.99 53.5752C577.538 53.9235 576.923 54.0977 576.145 54.0977C575.63 54.0977 575.157 54.0033 574.724 53.8145C574.294 53.6224 573.959 53.3587 573.718 53.0234C573.48 52.6882 573.361 52.2975 573.361 51.8516H574.597C574.597 52.2552 574.73 52.5677 574.997 52.7891C575.264 53.0104 575.646 53.1211 576.145 53.1211C576.574 53.1211 576.896 53.0348 577.111 52.8623C577.329 52.6865 577.438 52.4554 577.438 52.1689ZM582.062 54H580.831V46.8906H582.062V54ZM588.735 50.8262H585.815V53.0137H589.229V54H584.58V46.8906H589.194V47.8867H585.815V49.8496H588.735V50.8262ZM596.659 51.6855C596.588 52.444 596.308 53.0365 595.819 53.4629C595.331 53.8861 594.682 54.0977 593.871 54.0977C593.305 54.0977 592.805 53.9642 592.372 53.6973C591.942 53.4271 591.61 53.0446 591.376 52.5498C591.142 52.055 591.02 51.4805 591.01 50.8262V50.1621C591.01 49.4915 591.129 48.9007 591.366 48.3896C591.604 47.8786 591.944 47.4847 592.387 47.208C592.833 46.9313 593.347 46.793 593.93 46.793C594.714 46.793 595.346 47.0062 595.824 47.4326C596.303 47.859 596.581 48.4613 596.659 49.2393H595.429C595.37 48.7282 595.22 48.3604 594.979 48.1357C594.742 47.9079 594.392 47.7939 593.93 47.7939C593.393 47.7939 592.979 47.9909 592.689 48.3848C592.403 48.7754 592.257 49.3499 592.25 50.1084V50.7383C592.25 51.5065 592.387 52.0924 592.66 52.4961C592.937 52.8997 593.34 53.1016 593.871 53.1016C594.356 53.1016 594.721 52.9925 594.965 52.7744C595.209 52.5563 595.364 52.1934 595.429 51.6855H596.659ZM600.071 54H598.841V46.8906H600.071V54ZM608.264 50.6309C608.264 51.3275 608.143 51.9395 607.902 52.4668C607.661 52.9909 607.316 53.3945 606.867 53.6777C606.421 53.9577 605.907 54.0977 605.324 54.0977C604.748 54.0977 604.234 53.9577 603.781 53.6777C603.332 53.3945 602.984 52.9925 602.736 52.4717C602.492 51.9508 602.368 51.3503 602.365 50.6699V50.2695C602.365 49.5762 602.487 48.9642 602.731 48.4336C602.979 47.903 603.326 47.4977 603.771 47.2178C604.221 46.9346 604.735 46.793 605.314 46.793C605.894 46.793 606.407 46.9329 606.853 47.2129C607.302 47.4896 607.648 47.89 607.893 48.4141C608.137 48.9349 608.26 49.542 608.264 50.2354V50.6309ZM607.028 50.2598C607.028 49.472 606.879 48.8682 606.579 48.4482C606.283 48.0283 605.861 47.8184 605.314 47.8184C604.781 47.8184 604.362 48.0283 604.06 48.4482C603.76 48.8649 603.607 49.4557 603.601 50.2207V50.6309C603.601 51.4121 603.752 52.016 604.055 52.4424C604.361 52.8688 604.784 53.082 605.324 53.082C605.871 53.082 606.291 52.8737 606.584 52.457C606.88 52.0404 607.028 51.4316 607.028 50.6309V50.2598ZM616.07 52.2422L617.164 46.8906H618.39L616.749 54H615.567L614.215 48.8096L612.833 54H611.646L610.006 46.8906H611.231L612.335 52.2324L613.692 46.8906H614.728L616.07 52.2422ZM624.448 50.8262H621.528V53.0137H624.941V54H620.293V46.8906H624.907V47.8867H621.528V49.8496H624.448V50.8262Z" fill="#888888"/>
<circle cx="656" cy="51" r="6" fill="#B875ED"/>
<path d="M673.633 46.8906H674.863V51.876C674.863 52.5563 674.65 53.0967 674.224 53.4971C673.8 53.8975 673.241 54.0977 672.544 54.0977C671.802 54.0977 671.229 53.9105 670.825 53.5361C670.422 53.1618 670.22 52.641 670.22 51.9736H671.45C671.45 52.3512 671.543 52.6361 671.729 52.8281C671.917 53.0169 672.189 53.1113 672.544 53.1113C672.876 53.1113 673.14 53.0023 673.335 52.7842C673.534 52.5628 673.633 52.2585 673.633 51.8711V46.8906ZM681.435 50.8262H678.515V53.0137H681.928V54H677.279V46.8906H681.894V47.8867H678.515V49.8496H681.435V50.8262ZM683.934 54V46.8906H686.033C686.661 46.8906 687.218 47.0306 687.703 47.3105C688.191 47.5905 688.569 47.9876 688.836 48.502C689.103 49.0163 689.236 49.6055 689.236 50.2695V50.626C689.236 51.2998 689.101 51.8923 688.831 52.4033C688.564 52.9144 688.182 53.3083 687.684 53.585C687.189 53.8617 686.621 54 685.979 54H683.934ZM685.169 47.8867V53.0137H685.975C686.622 53.0137 687.119 52.8118 687.464 52.4082C687.812 52.0013 687.99 51.4186 687.996 50.6602V50.2646C687.996 49.4932 687.828 48.904 687.493 48.4971C687.158 48.0902 686.671 47.8867 686.033 47.8867H685.169ZM697.106 54H695.871L692.702 48.9561V54H691.467V46.8906H692.702L695.881 51.9541V46.8906H697.106V54ZM705.24 50.6309C705.24 51.3275 705.12 51.9395 704.879 52.4668C704.638 52.9909 704.293 53.3945 703.844 53.6777C703.398 53.9577 702.883 54.0977 702.301 54.0977C701.725 54.0977 701.21 53.9577 700.758 53.6777C700.309 53.3945 699.96 52.9925 699.713 52.4717C699.469 51.9508 699.345 51.3503 699.342 50.6699V50.2695C699.342 49.5762 699.464 48.9642 699.708 48.4336C699.955 47.903 700.302 47.4977 700.748 47.2178C701.197 46.9346 701.712 46.793 702.291 46.793C702.87 46.793 703.383 46.9329 703.829 47.2129C704.278 47.4896 704.625 47.89 704.869 48.4141C705.113 48.9349 705.237 49.542 705.24 50.2354V50.6309ZM704.005 50.2598C704.005 49.472 703.855 48.8682 703.556 48.4482C703.259 48.0283 702.838 47.8184 702.291 47.8184C701.757 47.8184 701.339 48.0283 701.036 48.4482C700.737 48.8649 700.584 49.4557 700.577 50.2207V50.6309C700.577 51.4121 700.729 52.016 701.031 52.4424C701.337 52.8688 701.76 53.082 702.301 53.082C702.848 53.082 703.268 52.8737 703.561 52.457C703.857 52.0404 704.005 51.4316 704.005 50.6309V50.2598ZM710.083 51.2607H708.706V54H707.471V46.8906H709.971C710.791 46.8906 711.424 47.0745 711.87 47.4424C712.316 47.8102 712.539 48.3424 712.539 49.0391C712.539 49.5143 712.424 49.9131 712.192 50.2354C711.965 50.5544 711.646 50.8001 711.235 50.9727L712.832 53.9365V54H711.509L710.083 51.2607ZM708.706 50.2695H709.976C710.392 50.2695 710.718 50.1654 710.952 49.957C711.187 49.7454 711.304 49.4574 711.304 49.0928C711.304 48.7119 711.195 48.4173 710.977 48.209C710.762 48.0007 710.439 47.8932 710.01 47.8867H708.706V50.2695ZM718.69 52.3447H715.937L715.36 54H714.076L716.762 46.8906H717.87L720.561 54H719.271L718.69 52.3447ZM716.283 51.3486H718.344L717.313 48.3994L716.283 51.3486ZM723.533 53.0137H727.332V54H722.039V53.1992L725.716 47.8867H722.063V46.8906H727.215V47.6719L723.533 53.0137ZM734.943 50.6309C734.943 51.3275 734.823 51.9395 734.582 52.4668C734.341 52.9909 733.996 53.3945 733.547 53.6777C733.101 53.9577 732.587 54.0977 732.004 54.0977C731.428 54.0977 730.913 53.9577 730.461 53.6777C730.012 53.3945 729.663 52.9925 729.416 52.4717C729.172 51.9508 729.048 51.3503 729.045 50.6699V50.2695C729.045 49.5762 729.167 48.9642 729.411 48.4336C729.659 47.903 730.005 47.4977 730.451 47.2178C730.9 46.9346 731.415 46.793 731.994 46.793C732.574 46.793 733.086 46.9329 733.532 47.2129C733.981 47.4896 734.328 47.89 734.572 48.4141C734.816 48.9349 734.94 49.542 734.943 50.2354V50.6309ZM733.708 50.2598C733.708 49.472 733.558 48.8682 733.259 48.4482C732.963 48.0283 732.541 47.8184 731.994 47.8184C731.46 47.8184 731.042 48.0283 730.739 48.4482C730.44 48.8649 730.287 49.4557 730.28 50.2207V50.6309C730.28 51.4121 730.432 52.016 730.734 52.4424C731.04 52.8688 731.464 53.082 732.004 53.082C732.551 53.082 732.971 52.8737 733.264 52.457C733.56 52.0404 733.708 51.4316 733.708 50.6309V50.2598ZM742.75 52.2422L743.844 46.8906H745.069L743.429 54H742.247L740.895 48.8096L739.513 54H738.326L736.686 46.8906H737.911L739.015 52.2324L740.372 46.8906H741.407L742.75 52.2422ZM751.128 50.8262H748.208V53.0137H751.621V54H746.973V46.8906H751.587V47.8867H748.208V49.8496H751.128V50.8262Z" fill="#888888"/>
<circle cx="781" cy="51" r="6" fill="#CD933B"/>
<path d="M800.923 46.8906V51.6416C800.923 52.3968 800.68 52.9958 800.195 53.4385C799.714 53.8779 799.071 54.0977 798.267 54.0977C797.453 54.0977 796.807 53.8812 796.328 53.4482C795.85 53.012 795.61 52.4082 795.61 51.6367V46.8906H796.841V51.6465C796.841 52.1217 796.961 52.4847 797.202 52.7354C797.443 52.986 797.798 53.1113 798.267 53.1113C799.217 53.1113 799.692 52.61 799.692 51.6074V46.8906H800.923ZM804.481 53.0137H807.709V54H803.246V46.8906H804.481V53.0137ZM814.793 53.0771C814.536 53.4124 814.179 53.6663 813.724 53.8389C813.268 54.0114 812.75 54.0977 812.171 54.0977C811.575 54.0977 811.048 53.9626 810.589 53.6924C810.13 53.4222 809.775 53.0365 809.524 52.5352C809.277 52.0306 809.148 51.443 809.139 50.7725V50.2158C809.139 49.1416 809.396 48.3034 809.91 47.7012C810.424 47.0957 811.142 46.793 812.063 46.793C812.854 46.793 813.483 46.9883 813.948 47.3789C814.414 47.7695 814.694 48.3327 814.788 49.0684H813.577C813.44 48.2122 812.944 47.7842 812.088 47.7842C811.535 47.7842 811.113 47.9844 810.823 48.3848C810.537 48.7819 810.389 49.3662 810.379 50.1377V50.6846C810.379 51.4528 810.54 52.0501 810.862 52.4766C811.188 52.8997 811.639 53.1113 812.215 53.1113C812.846 53.1113 813.296 52.9681 813.562 52.6816V51.29H812.098V50.3525H814.793V53.0771ZM822.824 50.6309C822.824 51.3275 822.704 51.9395 822.463 52.4668C822.222 52.9909 821.877 53.3945 821.428 53.6777C820.982 53.9577 820.467 54.0977 819.885 54.0977C819.309 54.0977 818.794 53.9577 818.342 53.6777C817.893 53.3945 817.544 52.9925 817.297 52.4717C817.053 51.9508 816.929 51.3503 816.926 50.6699V50.2695C816.926 49.5762 817.048 48.9642 817.292 48.4336C817.539 47.903 817.886 47.4977 818.332 47.2178C818.781 46.9346 819.296 46.793 819.875 46.793C820.454 46.793 820.967 46.9329 821.413 47.2129C821.862 47.4896 822.209 47.89 822.453 48.4141C822.697 48.9349 822.821 49.542 822.824 50.2354V50.6309ZM821.589 50.2598C821.589 49.472 821.439 48.8682 821.14 48.4482C820.843 48.0283 820.422 47.8184 819.875 47.8184C819.341 47.8184 818.923 48.0283 818.62 48.4482C818.321 48.8649 818.168 49.4557 818.161 50.2207V50.6309C818.161 51.4121 818.312 52.016 818.615 52.4424C818.921 52.8688 819.344 53.082 819.885 53.082C820.432 53.082 820.852 52.8737 821.145 52.457C821.441 52.0404 821.589 51.4316 821.589 50.6309V50.2598ZM830.631 52.2422L831.725 46.8906H832.95L831.31 54H830.128L828.775 48.8096L827.394 54H826.207L824.566 46.8906H825.792L826.896 52.2324L828.253 46.8906H829.288L830.631 52.2422ZM839.009 50.8262H836.089V53.0137H839.502V54H834.854V46.8906H839.468V47.8867H836.089V49.8496H839.009V50.8262Z" fill="#888888"/>
<path d="M840 230L840 70" stroke="#E5E5E5" stroke-linecap="round" stroke-linejoin="round"/>
<path d="M44 230L44 70" stroke="#E5E5E5" stroke-linecap="round" stroke-linejoin="round"/>
<defs>
<filter id="filter0_d_22_778" x="310" y="103" width="176" height="65" filterUnits="userSpaceOnUse" color-interpolation-filters="sRGB">
<feFlood flood-opacity="0" result="BackgroundImageFix"/>
<feColorMatrix in="SourceAlpha" type="matrix" values="0 0 0 0 0 0 0 0 0 0 0 0 0 0 0 0 0 0 127 0" result="hardAlpha"/>
<feOffset/>
<feGaussianBlur stdDeviation="4"/>
<feComposite in2="hardAlpha" operator="out"/>
<feColorMatrix type="matrix" values="0 0 0 0 0 0 0 0 0 0 0 0 0 0 0 0 0 0 0.1 0"/>
<feBlend mode="normal" in2="BackgroundImageFix" result="effect1_dropShadow_22_778"/>
<feBlend mode="normal" in="SourceGraphic" in2="effect1_dropShadow_22_778" result="shape"/>
</filter>
<linearGradient id="paint0_linear_22_778" x1="442" y1="75" x2="437.5" y2="177.5" gradientUnits="userSpaceOnUse">
<stop stop-color="#84C6EC"/>
<stop offset="1" stop-color="#84C6EC" stop-opacity="0"/>
</linearGradient>
<linearGradient id="paint1_linear_22_778" x1="442" y1="16" x2="442" y2="215" gradientUnits="userSpaceOnUse">
<stop stop-color="#CD933B"/>
<stop offset="1" stop-color="#CD933B" stop-opacity="0"/>
</linearGradient>
<linearGradient id="paint2_linear_22_778" x1="442" y1="103" x2="435" y2="189" gradientUnits="userSpaceOnUse">
<stop stop-color="#A975ED"/>
<stop offset="1" stop-color="#A975ED" stop-opacity="0"/>
</linearGradient>
<linearGradient id="paint3_linear_22_778" x1="41.1702" y1="153" x2="128.86" y2="156.761" gradientUnits="userSpaceOnUse">
<stop stop-color="#FCFCFC"/>
<stop offset="1" stop-color="#FCFCFC" stop-opacity="0"/>
</linearGradient>
<linearGradient id="paint4_linear_22_778" x1="913.17" y1="349.5" x2="1000.95" y2="352.01" gradientUnits="userSpaceOnUse">
<stop stop-color="#FCFCFC"/>
<stop offset="1" stop-color="#FCFCFC" stop-opacity="0"/>
</linearGradient>
</defs>
</svg>
