<svg width="141" height="370" viewBox="0 0 141 370" fill="none" xmlns="http://www.w3.org/2000/svg">
<path d="M40.9902 11V2.46875H43.3984C44.1406 2.46875 44.7969 2.63281 45.3672 2.96094C45.9375 3.28906 46.377 3.75586 46.6855 4.36133C46.998 4.9668 47.1562 5.66211 47.1602 6.44727V6.99219C47.1602 7.79688 47.0039 8.50195 46.6914 9.10742C46.3828 9.71289 45.9395 10.1777 45.3613 10.502C44.7871 10.8262 44.1172 10.9922 43.3516 11H40.9902ZM42.1152 3.39453V10.0801H43.2988C44.166 10.0801 44.8398 9.81055 45.3203 9.27148C45.8047 8.73242 46.0469 7.96484 46.0469 6.96875V6.4707C46.0469 5.50195 45.8184 4.75 45.3613 4.21484C44.9082 3.67578 44.2637 3.40234 43.4277 3.39453H42.1152ZM52.6094 10.373C52.1875 10.8691 51.5684 11.1172 50.752 11.1172C50.0762 11.1172 49.5605 10.9219 49.2051 10.5312C48.8535 10.1367 48.6758 9.55469 48.6719 8.78516V4.66016H49.7559V8.75586C49.7559 9.7168 50.1465 10.1973 50.9277 10.1973C51.7559 10.1973 52.3066 9.88867 52.5801 9.27148V4.66016H53.6641V11H52.6328L52.6094 10.373ZM56.3359 10.1152H60.0449V11H55.0117V10.2031L58.5098 5.55664H55.0645V4.66016H59.8691V5.42773L56.3359 10.1152ZM56.8691 2.99023C56.8691 2.81445 56.9219 2.66602 57.0273 2.54492C57.1367 2.42383 57.2969 2.36328 57.5078 2.36328C57.7188 2.36328 57.8789 2.42383 57.9883 2.54492C58.0977 2.66602 58.1523 2.81445 58.1523 2.99023C58.1523 3.16602 58.0977 3.3125 57.9883 3.42969C57.8789 3.54688 57.7188 3.60547 57.5078 3.60547C57.2969 3.60547 57.1367 3.54688 57.0273 3.42969C56.9219 3.3125 56.8691 3.16602 56.8691 2.99023ZM63.3438 9.41211L64.8203 4.66016H65.9805L63.4316 11.9785C63.0371 13.0332 62.4102 13.5605 61.5508 13.5605L61.3457 13.543L60.9414 13.4668V12.5879L61.2344 12.6113C61.6016 12.6113 61.8867 12.5371 62.0898 12.3887C62.2969 12.2402 62.4668 11.9688 62.5996 11.5742L62.8398 10.9297L60.5781 4.66016H61.7617L63.3438 9.41211ZM72.9941 5.63281C72.8301 5.60547 72.6523 5.5918 72.4609 5.5918C71.75 5.5918 71.2676 5.89453 71.0137 6.5V11H69.9297V4.66016H70.9844L71.002 5.39258C71.3574 4.82617 71.8613 4.54297 72.5137 4.54297C72.7246 4.54297 72.8848 4.57031 72.9941 4.625V5.63281ZM77.9102 10.373C77.4883 10.8691 76.8691 11.1172 76.0527 11.1172C75.377 11.1172 74.8613 10.9219 74.5059 10.5312C74.1543 10.1367 73.9766 9.55469 73.9727 8.78516V4.66016H75.0566V8.75586C75.0566 9.7168 75.4473 10.1973 76.2285 10.1973C77.0566 10.1973 77.6074 9.88867 77.8809 9.27148V4.66016H78.9648V11H77.9336L77.9102 10.373ZM83.1602 10.2324C83.5469 10.2324 83.8848 10.1152 84.1738 9.88086C84.4629 9.64648 84.623 9.35352 84.6543 9.00195H85.6797C85.6602 9.36523 85.5352 9.71094 85.3047 10.0391C85.0742 10.3672 84.7656 10.6289 84.3789 10.8242C83.9961 11.0195 83.5898 11.1172 83.1602 11.1172C82.2969 11.1172 81.6094 10.8301 81.0977 10.2559C80.5898 9.67773 80.3359 8.88867 80.3359 7.88867V7.70703C80.3359 7.08984 80.4492 6.54102 80.6758 6.06055C80.9023 5.58008 81.2266 5.20703 81.6484 4.94141C82.0742 4.67578 82.5762 4.54297 83.1543 4.54297C83.8652 4.54297 84.4551 4.75586 84.9238 5.18164C85.3965 5.60742 85.6484 6.16016 85.6797 6.83984H84.6543C84.623 6.42969 84.4668 6.09375 84.1855 5.83203C83.9082 5.56641 83.5645 5.43359 83.1543 5.43359C82.6035 5.43359 82.1758 5.63281 81.8711 6.03125C81.5703 6.42578 81.4199 6.99805 81.4199 7.74805V7.95312C81.4199 8.68359 81.5703 9.24609 81.8711 9.64062C82.1719 10.0352 82.6016 10.2324 83.1602 10.2324ZM87.9824 5.42773C88.4629 4.83789 89.0879 4.54297 89.8574 4.54297C91.1973 4.54297 91.873 5.29883 91.8848 6.81055V11H90.8008V6.80469C90.7969 6.34766 90.6914 6.00977 90.4844 5.79102C90.2812 5.57227 89.9629 5.46289 89.5293 5.46289C89.1777 5.46289 88.8691 5.55664 88.6035 5.74414C88.3379 5.93164 88.1309 6.17773 87.9824 6.48242V11H86.8984V2H87.9824V5.42773Z" fill="#C21E07"/>
<path d="M43.9375 27.8906H49.375V30H40.5156V28.5547L45.9375 20.7422H40.4844V18.625H49.3203V20.0312L43.9375 27.8906ZM43.6641 16.6328C43.6641 16.2943 43.7865 16.0182 44.0312 15.8047C44.276 15.5911 44.5859 15.4844 44.9609 15.4844C45.3307 15.4844 45.638 15.5911 45.8828 15.8047C46.1276 16.0182 46.25 16.2943 46.25 16.6328C46.25 16.9661 46.1276 17.2396 45.8828 17.4531C45.638 17.6667 45.3307 17.7734 44.9609 17.7734C44.5859 17.7734 44.276 17.6667 44.0312 17.4531C43.7865 17.2396 43.6641 16.9661 43.6641 16.6328ZM50 25.6953C50 24.8516 50.1641 24.1016 50.4922 23.4453C50.8203 22.7839 51.2917 22.276 51.9062 21.9219C52.5208 21.5677 53.2422 21.3906 54.0703 21.3906C55.3359 21.3906 56.3333 21.7839 57.0625 22.5703C57.7917 23.3516 58.1562 24.4167 58.1562 25.7656V25.8594C58.1562 27.1771 57.7891 28.224 57.0547 29C56.3255 29.7708 55.3359 30.1562 54.0859 30.1562C52.8828 30.1562 51.9167 29.7969 51.1875 29.0781C50.4583 28.3542 50.0651 27.375 50.0078 26.1406L50 25.6953ZM52.6328 25.8594C52.6328 26.6406 52.7552 27.2135 53 27.5781C53.2448 27.9427 53.6068 28.125 54.0859 28.125C55.0234 28.125 55.5026 27.4036 55.5234 25.9609V25.6953C55.5234 24.1797 55.0391 23.4219 54.0703 23.4219C53.1901 23.4219 52.7135 24.0755 52.6406 25.3828L52.6328 25.8594ZM64.4297 23.9297L63.5625 23.8672C62.7344 23.8672 62.2031 24.1276 61.9688 24.6484V30H59.3359V21.5469H61.8047L61.8906 22.6328C62.3333 21.8047 62.9505 21.3906 63.7422 21.3906C64.0234 21.3906 64.2682 21.4219 64.4766 21.4844L64.4297 23.9297ZM69.8047 27.625C69.8047 27.401 69.6875 27.2214 69.4531 27.0859C69.2188 26.9505 68.7734 26.8099 68.1172 26.6641C67.4609 26.5182 66.9193 26.3281 66.4922 26.0938C66.0651 25.8542 65.7396 25.5651 65.5156 25.2266C65.2917 24.888 65.1797 24.5 65.1797 24.0625C65.1797 23.2865 65.5 22.6484 66.1406 22.1484C66.7812 21.6432 67.6198 21.3906 68.6562 21.3906C69.7708 21.3906 70.6667 21.6432 71.3438 22.1484C72.0208 22.6536 72.3594 23.3177 72.3594 24.1406H69.7188C69.7188 23.4635 69.362 23.125 68.6484 23.125C68.3724 23.125 68.1406 23.2031 67.9531 23.3594C67.7656 23.5104 67.6719 23.7005 67.6719 23.9297C67.6719 24.1641 67.7865 24.3542 68.0156 24.5C68.2448 24.6458 68.6094 24.7656 69.1094 24.8594C69.6146 24.9531 70.0573 25.0651 70.4375 25.1953C71.7083 25.6328 72.3438 26.4167 72.3438 27.5469C72.3438 28.3177 72 28.9453 71.3125 29.4297C70.6302 29.9141 69.7448 30.1562 68.6562 30.1562C67.9323 30.1562 67.2865 30.026 66.7188 29.7656C66.151 29.5052 65.7083 29.151 65.3906 28.7031C65.0729 28.2552 64.9141 27.7839 64.9141 27.2891H67.375C67.3854 27.6797 67.5156 27.9661 67.7656 28.1484C68.0156 28.3255 68.3359 28.4141 68.7266 28.4141C69.0859 28.4141 69.3542 28.3411 69.5312 28.1953C69.7135 28.0495 69.8047 27.8594 69.8047 27.625ZM76.9766 26.8516L76.2344 27.5938V30H73.6016V17.9922H76.2344V24.3672L76.5 24.0156L78.4844 21.5469H81.6406L78.6797 25.0234L81.8359 30H78.8203L76.9766 26.8516ZM87.0938 30C87 29.8281 86.9167 29.5755 86.8438 29.2422C86.3594 29.8516 85.6823 30.1562 84.8125 30.1562C84.0156 30.1562 83.3385 29.9167 82.7812 29.4375C82.224 28.9531 81.9453 28.3464 81.9453 27.6172C81.9453 26.7005 82.2839 26.0078 82.9609 25.5391C83.638 25.0703 84.6224 24.8359 85.9141 24.8359H86.7266V24.3906C86.7266 23.6146 86.3906 23.2266 85.7188 23.2266C85.0938 23.2266 84.7812 23.5339 84.7812 24.1484H82.1484C82.1484 23.3307 82.4948 22.6667 83.1875 22.1562C83.8854 21.6458 84.7734 21.3906 85.8516 21.3906C86.9297 21.3906 87.7812 21.6536 88.4062 22.1797C89.0312 22.7057 89.3516 23.4271 89.3672 24.3438V28.0859C89.3776 28.862 89.4974 29.4557 89.7266 29.8672V30H87.0938ZM85.4453 28.2812C85.7734 28.2812 86.0443 28.2109 86.2578 28.0703C86.4766 27.9297 86.6328 27.7708 86.7266 27.5938V26.2422H85.9609C85.0443 26.2422 84.5859 26.6536 84.5859 27.4766C84.5859 27.7161 84.6667 27.9115 84.8281 28.0625C84.9896 28.2083 85.1953 28.2812 85.4453 28.2812ZM100.609 30H97.9688V21.5938L95.375 22.3516V20.3516L100.367 18.625H100.609V30ZM111.977 30H104.039V28.2812L107.695 24.4375C108.596 23.4115 109.047 22.5964 109.047 21.9922C109.047 21.5026 108.94 21.1302 108.727 20.875C108.513 20.6198 108.203 20.4922 107.797 20.4922C107.396 20.4922 107.07 20.6641 106.82 21.0078C106.57 21.3464 106.445 21.7708 106.445 22.2812H103.805C103.805 21.5833 103.979 20.9401 104.328 20.3516C104.677 19.7578 105.161 19.2943 105.781 18.9609C106.401 18.6276 107.094 18.4609 107.859 18.4609C109.089 18.4609 110.034 18.7448 110.695 19.3125C111.362 19.8802 111.695 20.6953 111.695 21.7578C111.695 22.2057 111.612 22.6432 111.445 23.0703C111.279 23.4922 111.018 23.9375 110.664 24.4062C110.315 24.8698 109.75 25.4922 108.969 26.2734L107.5 27.9688H111.977V30Z" fill="#222222"/>
<rect width="32" height="32" rx="4" fill="#888888"/>
<path d="M12.6667 21.6666H10.6667C10.3131 21.6666 9.97392 21.5262 9.72387 21.2761C9.47382 21.0261 9.33334 20.6869 9.33334 20.3333V15.6666C9.33334 15.313 9.47382 14.9739 9.72387 14.7238C9.97392 14.4738 10.3131 14.3333 10.6667 14.3333H12.6667M17.3333 13V10.3333C17.3333 9.80288 17.1226 9.29417 16.7476 8.9191C16.3725 8.54403 15.8638 8.33331 15.3333 8.33331L12.6667 14.3333V21.6666H20.1867C20.5082 21.6703 20.8203 21.5576 21.0653 21.3493C21.3103 21.141 21.4718 20.8512 21.52 20.5333L22.44 14.5333C22.469 14.3422 22.4561 14.1471 22.4022 13.9615C22.3483 13.7759 22.2547 13.6042 22.1279 13.4583C22.0011 13.3125 21.8441 13.1959 21.6677 13.1168C21.4914 13.0376 21.2999 12.9978 21.1067 13H17.3333Z" stroke="white" stroke-width="2" stroke-linecap="round" stroke-linejoin="round"/>
<path d="M40.9902 59V50.4688H43.3984C44.1406 50.4688 44.7969 50.6328 45.3672 50.9609C45.9375 51.2891 46.377 51.7559 46.6855 52.3613C46.998 52.9668 47.1562 53.6621 47.1602 54.4473V54.9922C47.1602 55.7969 47.0039 56.502 46.6914 57.1074C46.3828 57.7129 45.9395 58.1777 45.3613 58.502C44.7871 58.8262 44.1172 58.9922 43.3516 59H40.9902ZM42.1152 51.3945V58.0801H43.2988C44.166 58.0801 44.8398 57.8105 45.3203 57.2715C45.8047 56.7324 46.0469 55.9648 46.0469 54.9688V54.4707C46.0469 53.502 45.8184 52.75 45.3613 52.2148C44.9082 51.6758 44.2637 51.4023 43.4277 51.3945H42.1152ZM52.6094 58.373C52.1875 58.8691 51.5684 59.1172 50.752 59.1172C50.0762 59.1172 49.5605 58.9219 49.2051 58.5312C48.8535 58.1367 48.6758 57.5547 48.6719 56.7852V52.6602H49.7559V56.7559C49.7559 57.7168 50.1465 58.1973 50.9277 58.1973C51.7559 58.1973 52.3066 57.8887 52.5801 57.2715V52.6602H53.6641V59H52.6328L52.6094 58.373ZM56.3359 58.1152H60.0449V59H55.0117V58.2031L58.5098 53.5566H55.0645V52.6602H59.8691V53.4277L56.3359 58.1152ZM56.8691 50.9902C56.8691 50.8145 56.9219 50.666 57.0273 50.5449C57.1367 50.4238 57.2969 50.3633 57.5078 50.3633C57.7188 50.3633 57.8789 50.4238 57.9883 50.5449C58.0977 50.666 58.1523 50.8145 58.1523 50.9902C58.1523 51.166 58.0977 51.3125 57.9883 51.4297C57.8789 51.5469 57.7188 51.6055 57.5078 51.6055C57.2969 51.6055 57.1367 51.5469 57.0273 51.4297C56.9219 51.3125 56.8691 51.166 56.8691 50.9902ZM63.3438 57.4121L64.8203 52.6602H65.9805L63.4316 59.9785C63.0371 61.0332 62.4102 61.5605 61.5508 61.5605L61.3457 61.543L60.9414 61.4668V60.5879L61.2344 60.6113C61.6016 60.6113 61.8867 60.5371 62.0898 60.3887C62.2969 60.2402 62.4668 59.9688 62.5996 59.5742L62.8398 58.9297L60.5781 52.6602H61.7617L63.3438 57.4121ZM72.9941 53.6328C72.8301 53.6055 72.6523 53.5918 72.4609 53.5918C71.75 53.5918 71.2676 53.8945 71.0137 54.5V59H69.9297V52.6602H70.9844L71.002 53.3926C71.3574 52.8262 71.8613 52.543 72.5137 52.543C72.7246 52.543 72.8848 52.5703 72.9941 52.625V53.6328ZM77.9102 58.373C77.4883 58.8691 76.8691 59.1172 76.0527 59.1172C75.377 59.1172 74.8613 58.9219 74.5059 58.5312C74.1543 58.1367 73.9766 57.5547 73.9727 56.7852V52.6602H75.0566V56.7559C75.0566 57.7168 75.4473 58.1973 76.2285 58.1973C77.0566 58.1973 77.6074 57.8887 77.8809 57.2715V52.6602H78.9648V59H77.9336L77.9102 58.373ZM83.1602 58.2324C83.5469 58.2324 83.8848 58.1152 84.1738 57.8809C84.4629 57.6465 84.623 57.3535 84.6543 57.002H85.6797C85.6602 57.3652 85.5352 57.7109 85.3047 58.0391C85.0742 58.3672 84.7656 58.6289 84.3789 58.8242C83.9961 59.0195 83.5898 59.1172 83.1602 59.1172C82.2969 59.1172 81.6094 58.8301 81.0977 58.2559C80.5898 57.6777 80.3359 56.8887 80.3359 55.8887V55.707C80.3359 55.0898 80.4492 54.541 80.6758 54.0605C80.9023 53.5801 81.2266 53.207 81.6484 52.9414C82.0742 52.6758 82.5762 52.543 83.1543 52.543C83.8652 52.543 84.4551 52.7559 84.9238 53.1816C85.3965 53.6074 85.6484 54.1602 85.6797 54.8398H84.6543C84.623 54.4297 84.4668 54.0938 84.1855 53.832C83.9082 53.5664 83.5645 53.4336 83.1543 53.4336C82.6035 53.4336 82.1758 53.6328 81.8711 54.0312C81.5703 54.4258 81.4199 54.998 81.4199 55.748V55.9531C81.4199 56.6836 81.5703 57.2461 81.8711 57.6406C82.1719 58.0352 82.6016 58.2324 83.1602 58.2324ZM87.9824 53.4277C88.4629 52.8379 89.0879 52.543 89.8574 52.543C91.1973 52.543 91.873 53.2988 91.8848 54.8105V59H90.8008V54.8047C90.7969 54.3477 90.6914 54.0098 90.4844 53.791C90.2812 53.5723 89.9629 53.4629 89.5293 53.4629C89.1777 53.4629 88.8691 53.5566 88.6035 53.7441C88.3379 53.9316 88.1309 54.1777 87.9824 54.4824V59H86.8984V50H87.9824V53.4277Z" fill="#C21E07"/>
<path d="M45.0859 73.9844H43.6016V78H40.8594V66.625H45.3359C46.6849 66.625 47.7396 66.9245 48.5 67.5234C49.2604 68.1224 49.6406 68.9688 49.6406 70.0625C49.6406 70.8542 49.4792 71.5104 49.1562 72.0312C48.8385 72.5521 48.3385 72.974 47.6562 73.2969L50.0312 77.8828V78H47.0938L45.0859 73.9844ZM43.6016 71.8672H45.3359C45.8568 71.8672 46.2474 71.7318 46.5078 71.4609C46.7734 71.1849 46.9062 70.8021 46.9062 70.3125C46.9062 69.8229 46.7734 69.4401 46.5078 69.1641C46.2422 68.8828 45.8516 68.7422 45.3359 68.7422H43.6016V71.8672ZM55.9375 78C55.8438 77.8281 55.7604 77.5755 55.6875 77.2422C55.2031 77.8516 54.526 78.1562 53.6562 78.1562C52.8594 78.1562 52.1823 77.9167 51.625 77.4375C51.0677 76.9531 50.7891 76.3464 50.7891 75.6172C50.7891 74.7005 51.1276 74.0078 51.8047 73.5391C52.4818 73.0703 53.4661 72.8359 54.7578 72.8359H55.5703V72.3906C55.5703 71.6146 55.2344 71.2266 54.5625 71.2266C53.9375 71.2266 53.625 71.5339 53.625 72.1484H50.9922C50.9922 71.3307 51.3385 70.6667 52.0312 70.1562C52.7292 69.6458 53.6172 69.3906 54.6953 69.3906C55.7734 69.3906 56.625 69.6536 57.25 70.1797C57.875 70.7057 58.1953 71.4271 58.2109 72.3438V76.0859C58.2214 76.862 58.3411 77.4557 58.5703 77.8672V78H55.9375ZM54.2891 76.2812C54.6172 76.2812 54.888 76.2109 55.1016 76.0703C55.3203 75.9297 55.4766 75.7708 55.5703 75.5938V74.2422H54.8047C53.888 74.2422 53.4297 74.6536 53.4297 75.4766C53.4297 75.7161 53.5104 75.9115 53.6719 76.0625C53.8333 76.2083 54.0391 76.2812 54.2891 76.2812ZM63.25 76.125C63.6198 76.125 63.9062 76.026 64.1094 75.8281C64.3125 75.625 64.4115 75.3438 64.4062 74.9844H66.875C66.875 75.9115 66.5417 76.6719 65.875 77.2656C65.2135 77.8594 64.3594 78.1562 63.3125 78.1562C62.0833 78.1562 61.1146 77.7708 60.4062 77C59.6979 76.2292 59.3438 75.1615 59.3438 73.7969V73.6875C59.3438 72.8333 59.5 72.0807 59.8125 71.4297C60.1302 70.7734 60.5859 70.2708 61.1797 69.9219C61.7734 69.5677 62.4766 69.3906 63.2891 69.3906C64.388 69.3906 65.2604 69.6953 65.9062 70.3047C66.5521 70.9141 66.875 71.7396 66.875 72.7812H64.4062C64.4062 72.3438 64.2995 72.0078 64.0859 71.7734C63.8724 71.5391 63.5859 71.4219 63.2266 71.4219C62.5443 71.4219 62.1458 71.8568 62.0312 72.7266C61.9948 73.0026 61.9766 73.3828 61.9766 73.8672C61.9766 74.7161 62.0781 75.3047 62.2812 75.6328C62.4844 75.9609 62.8073 76.125 63.25 76.125ZM70.7656 78H68.125V69.5469H70.7656V78ZM67.9688 67.3672C67.9688 66.9922 68.1042 66.6849 68.375 66.4453C68.6458 66.2057 68.9974 66.0859 69.4297 66.0859C69.862 66.0859 70.2135 66.2057 70.4844 66.4453C70.7552 66.6849 70.8906 66.9922 70.8906 67.3672C70.8906 67.7422 70.7552 68.0495 70.4844 68.2891C70.2135 68.5286 69.862 68.6484 69.4297 68.6484C68.9974 68.6484 68.6458 68.5286 68.375 68.2891C68.1042 68.0495 67.9688 67.7422 67.9688 67.3672ZM80.2422 73.8438C80.2422 75.2292 79.9557 76.2943 79.3828 77.0391C78.8099 77.7839 78.0026 78.1562 76.9609 78.1562C76.1016 78.1562 75.4089 77.8151 74.8828 77.1328L74.7734 78H72.4141V66H75.0469V70.2266C75.5365 69.6693 76.1693 69.3906 76.9453 69.3906C77.9974 69.3906 78.8099 69.7682 79.3828 70.5234C79.9557 71.2786 80.2422 72.3411 80.2422 73.7109V73.8438ZM77.6016 73.6797C77.6016 72.8672 77.4922 72.2891 77.2734 71.9453C77.0599 71.5964 76.7292 71.4219 76.2812 71.4219C75.6875 71.4219 75.276 71.6484 75.0469 72.1016V75.4609C75.2708 75.9089 75.6875 76.1328 76.2969 76.1328C76.9167 76.1328 77.3099 75.8307 77.4766 75.2266C77.5599 74.9297 77.6016 74.4141 77.6016 73.6797ZM81.0781 73.6953C81.0781 72.8516 81.2422 72.1016 81.5703 71.4453C81.8984 70.7839 82.3698 70.276 82.9844 69.9219C83.599 69.5677 84.3203 69.3906 85.1484 69.3906C86.4141 69.3906 87.4115 69.7839 88.1406 70.5703C88.8698 71.3516 89.2344 72.4167 89.2344 73.7656V73.8594C89.2344 75.1771 88.8672 76.224 88.1328 77C87.4036 77.7708 86.4141 78.1562 85.1641 78.1562C83.9609 78.1562 82.9948 77.7969 82.2656 77.0781C81.5365 76.3542 81.1432 75.375 81.0859 74.1406L81.0781 73.6953ZM83.7109 73.8594C83.7109 74.6406 83.8333 75.2135 84.0781 75.5781C84.3229 75.9427 84.6849 76.125 85.1641 76.125C86.1016 76.125 86.5807 75.4036 86.6016 73.9609V73.6953C86.6016 72.1797 86.1172 71.4219 85.1484 71.4219C84.2682 71.4219 83.7917 72.0755 83.7188 73.3828L83.7109 73.8594ZM95.5078 71.9297L94.6406 71.8672C93.8125 71.8672 93.2812 72.1276 93.0469 72.6484V78H90.4141V69.5469H92.8828L92.9688 70.6328C93.4115 69.8047 94.0286 69.3906 94.8203 69.3906C95.1016 69.3906 95.3464 69.4219 95.5547 69.4844L95.5078 71.9297ZM100.883 75.625C100.883 75.401 100.766 75.2214 100.531 75.0859C100.297 74.9505 99.8516 74.8099 99.1953 74.6641C98.5391 74.5182 97.9974 74.3281 97.5703 74.0938C97.1432 73.8542 96.8177 73.5651 96.5938 73.2266C96.3698 72.888 96.2578 72.5 96.2578 72.0625C96.2578 71.2865 96.5781 70.6484 97.2188 70.1484C97.8594 69.6432 98.6979 69.3906 99.7344 69.3906C100.849 69.3906 101.745 69.6432 102.422 70.1484C103.099 70.6536 103.438 71.3177 103.438 72.1406H100.797C100.797 71.4635 100.44 71.125 99.7266 71.125C99.4505 71.125 99.2188 71.2031 99.0312 71.3594C98.8438 71.5104 98.75 71.7005 98.75 71.9297C98.75 72.1641 98.8646 72.3542 99.0938 72.5C99.3229 72.6458 99.6875 72.7656 100.188 72.8594C100.693 72.9531 101.135 73.0651 101.516 73.1953C102.786 73.6328 103.422 74.4167 103.422 75.5469C103.422 76.3177 103.078 76.9453 102.391 77.4297C101.708 77.9141 100.823 78.1562 99.7344 78.1562C99.0104 78.1562 98.3646 78.026 97.7969 77.7656C97.2292 77.5052 96.7865 77.151 96.4688 76.7031C96.151 76.2552 95.9922 75.7839 95.9922 75.2891H98.4531C98.4635 75.6797 98.5938 75.9661 98.8438 76.1484C99.0938 76.3255 99.4141 76.4141 99.8047 76.4141C100.164 76.4141 100.432 76.3411 100.609 76.1953C100.792 76.0495 100.883 75.8594 100.883 75.625ZM108.055 74.8516L107.312 75.5938V78H104.68V65.9922H107.312V72.3672L107.578 72.0156L109.562 69.5469H112.719L109.758 73.0234L112.914 78H109.898L108.055 74.8516ZM118.172 78C118.078 77.8281 117.995 77.5755 117.922 77.2422C117.438 77.8516 116.76 78.1562 115.891 78.1562C115.094 78.1562 114.417 77.9167 113.859 77.4375C113.302 76.9531 113.023 76.3464 113.023 75.6172C113.023 74.7005 113.362 74.0078 114.039 73.5391C114.716 73.0703 115.701 72.8359 116.992 72.8359H117.805V72.3906C117.805 71.6146 117.469 71.2266 116.797 71.2266C116.172 71.2266 115.859 71.5339 115.859 72.1484H113.227C113.227 71.3307 113.573 70.6667 114.266 70.1562C114.964 69.6458 115.852 69.3906 116.93 69.3906C118.008 69.3906 118.859 69.6536 119.484 70.1797C120.109 70.7057 120.43 71.4271 120.445 72.3438V76.0859C120.456 76.862 120.576 77.4557 120.805 77.8672V78H118.172ZM116.523 76.2812C116.852 76.2812 117.122 76.2109 117.336 76.0703C117.555 75.9297 117.711 75.7708 117.805 75.5938V74.2422H117.039C116.122 74.2422 115.664 74.6536 115.664 75.4766C115.664 75.7161 115.745 75.9115 115.906 76.0625C116.068 76.2083 116.273 76.2812 116.523 76.2812ZM133.75 73.3516C133.75 74.888 133.404 76.0729 132.711 76.9062C132.023 77.7396 131.052 78.1562 129.797 78.1562C128.531 78.1562 127.552 77.737 126.859 76.8984C126.167 76.0599 125.82 74.8776 125.82 73.3516V71.2734C125.82 69.737 126.164 68.5521 126.852 67.7188C127.544 66.8854 128.521 66.4688 129.781 66.4688C131.042 66.4688 132.018 66.888 132.711 67.7266C133.404 68.5651 133.75 69.75 133.75 71.2812V73.3516ZM131.117 70.9375C131.117 70.1198 131.01 69.5104 130.797 69.1094C130.583 68.7031 130.245 68.5 129.781 68.5C129.328 68.5 128.997 68.6875 128.789 69.0625C128.586 69.4375 128.477 70.0052 128.461 70.7656V73.6719C128.461 74.5208 128.568 75.1432 128.781 75.5391C128.995 75.9297 129.333 76.125 129.797 76.125C130.245 76.125 130.576 75.9349 130.789 75.5547C131.003 75.1693 131.112 74.5677 131.117 73.75V70.9375ZM140.953 78H138.312V69.5938L135.719 70.3516V68.3516L140.711 66.625H140.953V78Z" fill="#222222"/>
<rect y="48" width="32" height="32" rx="4" fill="#888888"/>
<path d="M12.6667 69.6666H10.6667C10.3131 69.6666 9.97392 69.5262 9.72387 69.2761C9.47382 69.0261 9.33334 68.6869 9.33334 68.3333V63.6666C9.33334 63.313 9.47382 62.9739 9.72387 62.7238C9.97392 62.4738 10.3131 62.3333 10.6667 62.3333H12.6667M17.3333 61V58.3333C17.3333 57.8029 17.1226 57.2942 16.7476 56.9191C16.3725 56.544 15.8638 56.3333 15.3333 56.3333L12.6667 62.3333V69.6666H20.1867C20.5082 69.6703 20.8203 69.5576 21.0653 69.3493C21.3103 69.141 21.4718 68.8512 21.52 68.5333L22.44 62.5333C22.469 62.3422 22.4561 62.1471 22.4022 61.9615C22.3483 61.7759 22.2547 61.6042 22.1279 61.4583C22.0011 61.3125 21.8441 61.1959 21.6677 61.1168C21.4914 61.0376 21.2999 60.9978 21.1067 61H17.3333Z" stroke="white" stroke-width="2" stroke-linecap="round" stroke-linejoin="round"/>
<path d="M40.9902 107V98.4688H43.3984C44.1406 98.4688 44.7969 98.6328 45.3672 98.9609C45.9375 99.2891 46.377 99.7559 46.6855 100.361C46.998 100.967 47.1562 101.662 47.1602 102.447V102.992C47.1602 103.797 47.0039 104.502 46.6914 105.107C46.3828 105.713 45.9395 106.178 45.3613 106.502C44.7871 106.826 44.1172 106.992 43.3516 107H40.9902ZM42.1152 99.3945V106.08H43.2988C44.166 106.08 44.8398 105.811 45.3203 105.271C45.8047 104.732 46.0469 103.965 46.0469 102.969V102.471C46.0469 101.502 45.8184 100.75 45.3613 100.215C44.9082 99.6758 44.2637 99.4023 43.4277 99.3945H42.1152ZM52.6094 106.373C52.1875 106.869 51.5684 107.117 50.752 107.117C50.0762 107.117 49.5605 106.922 49.2051 106.531C48.8535 106.137 48.6758 105.555 48.6719 104.785V100.66H49.7559V104.756C49.7559 105.717 50.1465 106.197 50.9277 106.197C51.7559 106.197 52.3066 105.889 52.5801 105.271V100.66H53.6641V107H52.6328L52.6094 106.373ZM56.3359 106.115H60.0449V107H55.0117V106.203L58.5098 101.557H55.0645V100.66H59.8691V101.428L56.3359 106.115ZM56.8691 98.9902C56.8691 98.8145 56.9219 98.666 57.0273 98.5449C57.1367 98.4238 57.2969 98.3633 57.5078 98.3633C57.7188 98.3633 57.8789 98.4238 57.9883 98.5449C58.0977 98.666 58.1523 98.8145 58.1523 98.9902C58.1523 99.166 58.0977 99.3125 57.9883 99.4297C57.8789 99.5469 57.7188 99.6055 57.5078 99.6055C57.2969 99.6055 57.1367 99.5469 57.0273 99.4297C56.9219 99.3125 56.8691 99.166 56.8691 98.9902ZM63.3438 105.412L64.8203 100.66H65.9805L63.4316 107.979C63.0371 109.033 62.4102 109.561 61.5508 109.561L61.3457 109.543L60.9414 109.467V108.588L61.2344 108.611C61.6016 108.611 61.8867 108.537 62.0898 108.389C62.2969 108.24 62.4668 107.969 62.5996 107.574L62.8398 106.93L60.5781 100.66H61.7617L63.3438 105.412ZM72.9941 101.633C72.8301 101.605 72.6523 101.592 72.4609 101.592C71.75 101.592 71.2676 101.895 71.0137 102.5V107H69.9297V100.66H70.9844L71.002 101.393C71.3574 100.826 71.8613 100.543 72.5137 100.543C72.7246 100.543 72.8848 100.57 72.9941 100.625V101.633ZM77.9102 106.373C77.4883 106.869 76.8691 107.117 76.0527 107.117C75.377 107.117 74.8613 106.922 74.5059 106.531C74.1543 106.137 73.9766 105.555 73.9727 104.785V100.66H75.0566V104.756C75.0566 105.717 75.4473 106.197 76.2285 106.197C77.0566 106.197 77.6074 105.889 77.8809 105.271V100.66H78.9648V107H77.9336L77.9102 106.373ZM83.1602 106.232C83.5469 106.232 83.8848 106.115 84.1738 105.881C84.4629 105.646 84.623 105.354 84.6543 105.002H85.6797C85.6602 105.365 85.5352 105.711 85.3047 106.039C85.0742 106.367 84.7656 106.629 84.3789 106.824C83.9961 107.02 83.5898 107.117 83.1602 107.117C82.2969 107.117 81.6094 106.83 81.0977 106.256C80.5898 105.678 80.3359 104.889 80.3359 103.889V103.707C80.3359 103.09 80.4492 102.541 80.6758 102.061C80.9023 101.58 81.2266 101.207 81.6484 100.941C82.0742 100.676 82.5762 100.543 83.1543 100.543C83.8652 100.543 84.4551 100.756 84.9238 101.182C85.3965 101.607 85.6484 102.16 85.6797 102.84H84.6543C84.623 102.43 84.4668 102.094 84.1855 101.832C83.9082 101.566 83.5645 101.434 83.1543 101.434C82.6035 101.434 82.1758 101.633 81.8711 102.031C81.5703 102.426 81.4199 102.998 81.4199 103.748V103.953C81.4199 104.684 81.5703 105.246 81.8711 105.641C82.1719 106.035 82.6016 106.232 83.1602 106.232ZM87.9824 101.428C88.4629 100.838 89.0879 100.543 89.8574 100.543C91.1973 100.543 91.873 101.299 91.8848 102.811V107H90.8008V102.805C90.7969 102.348 90.6914 102.01 90.4844 101.791C90.2812 101.572 89.9629 101.463 89.5293 101.463C89.1777 101.463 88.8691 101.557 88.6035 101.744C88.3379 101.932 88.1309 102.178 87.9824 102.482V107H86.8984V98H87.9824V101.428Z" fill="#C21E07"/>
<path d="M50.3594 126H47.6328L43.6016 118.922V126H40.8594V114.625H43.6016L47.625 121.703V114.625H50.3594V126ZM59.8672 126H51.9297V124.281L55.5859 120.438C56.487 119.411 56.9375 118.596 56.9375 117.992C56.9375 117.503 56.8307 117.13 56.6172 116.875C56.4036 116.62 56.0938 116.492 55.6875 116.492C55.2865 116.492 54.9609 116.664 54.7109 117.008C54.4609 117.346 54.3359 117.771 54.3359 118.281H51.6953C51.6953 117.583 51.8698 116.94 52.2188 116.352C52.5677 115.758 53.0521 115.294 53.6719 114.961C54.2917 114.628 54.9844 114.461 55.75 114.461C56.9792 114.461 57.9245 114.745 58.5859 115.312C59.2526 115.88 59.5859 116.695 59.5859 117.758C59.5859 118.206 59.5026 118.643 59.3359 119.07C59.1693 119.492 58.9089 119.938 58.5547 120.406C58.2057 120.87 57.6406 121.492 56.8594 122.273L55.3906 123.969H59.8672V126ZM69.0938 121.352C69.0938 122.888 68.7474 124.073 68.0547 124.906C67.3672 125.74 66.3958 126.156 65.1406 126.156C63.875 126.156 62.8958 125.737 62.2031 124.898C61.5104 124.06 61.1641 122.878 61.1641 121.352V119.273C61.1641 117.737 61.5078 116.552 62.1953 115.719C62.888 114.885 63.8646 114.469 65.125 114.469C66.3854 114.469 67.362 114.888 68.0547 115.727C68.7474 116.565 69.0938 117.75 69.0938 119.281V121.352ZM66.4609 118.938C66.4609 118.12 66.3542 117.51 66.1406 117.109C65.9271 116.703 65.5885 116.5 65.125 116.5C64.6719 116.5 64.3411 116.688 64.1328 117.062C63.9297 117.438 63.8203 118.005 63.8047 118.766V121.672C63.8047 122.521 63.9115 123.143 64.125 123.539C64.3385 123.93 64.6771 124.125 65.1406 124.125C65.5885 124.125 65.9193 123.935 66.1328 123.555C66.3464 123.169 66.4557 122.568 66.4609 121.75V118.938Z" fill="#222222"/>
<rect y="96" width="32" height="32" rx="4" fill="#888888"/>
<g clip-path="url(#clip0_22_783)">
<path d="M19.3333 104.667L22 107.333L19.3333 110" stroke="white" stroke-width="2" stroke-linecap="round" stroke-linejoin="round"/>
<path d="M10 111.333V110C10 109.293 10.281 108.614 10.781 108.114C11.2811 107.614 11.9594 107.333 12.6667 107.333H22" stroke="white" stroke-width="2" stroke-linecap="round" stroke-linejoin="round"/>
<path d="M12.6667 119.333L10 116.667L12.6667 114" stroke="white" stroke-width="2" stroke-linecap="round" stroke-linejoin="round"/>
<path d="M22 112.667V114C22 114.707 21.719 115.386 21.219 115.886C20.7189 116.386 20.0406 116.667 19.3333 116.667H10" stroke="white" stroke-width="2" stroke-linecap="round" stroke-linejoin="round"/>
</g>
<path d="M40.9902 155V146.469H43.3984C44.1406 146.469 44.7969 146.633 45.3672 146.961C45.9375 147.289 46.377 147.756 46.6855 148.361C46.998 148.967 47.1562 149.662 47.1602 150.447V150.992C47.1602 151.797 47.0039 152.502 46.6914 153.107C46.3828 153.713 45.9395 154.178 45.3613 154.502C44.7871 154.826 44.1172 154.992 43.3516 155H40.9902ZM42.1152 147.395V154.08H43.2988C44.166 154.08 44.8398 153.811 45.3203 153.271C45.8047 152.732 46.0469 151.965 46.0469 150.969V150.471C46.0469 149.502 45.8184 148.75 45.3613 148.215C44.9082 147.676 44.2637 147.402 43.4277 147.395H42.1152ZM52.6094 154.373C52.1875 154.869 51.5684 155.117 50.752 155.117C50.0762 155.117 49.5605 154.922 49.2051 154.531C48.8535 154.137 48.6758 153.555 48.6719 152.785V148.66H49.7559V152.756C49.7559 153.717 50.1465 154.197 50.9277 154.197C51.7559 154.197 52.3066 153.889 52.5801 153.271V148.66H53.6641V155H52.6328L52.6094 154.373ZM56.3359 154.115H60.0449V155H55.0117V154.203L58.5098 149.557H55.0645V148.66H59.8691V149.428L56.3359 154.115ZM56.8691 146.99C56.8691 146.814 56.9219 146.666 57.0273 146.545C57.1367 146.424 57.2969 146.363 57.5078 146.363C57.7188 146.363 57.8789 146.424 57.9883 146.545C58.0977 146.666 58.1523 146.814 58.1523 146.99C58.1523 147.166 58.0977 147.312 57.9883 147.43C57.8789 147.547 57.7188 147.605 57.5078 147.605C57.2969 147.605 57.1367 147.547 57.0273 147.43C56.9219 147.312 56.8691 147.166 56.8691 146.99ZM63.3438 153.412L64.8203 148.66H65.9805L63.4316 155.979C63.0371 157.033 62.4102 157.561 61.5508 157.561L61.3457 157.543L60.9414 157.467V156.588L61.2344 156.611C61.6016 156.611 61.8867 156.537 62.0898 156.389C62.2969 156.24 62.4668 155.969 62.5996 155.574L62.8398 154.93L60.5781 148.66H61.7617L63.3438 153.412ZM72.9941 149.633C72.8301 149.605 72.6523 149.592 72.4609 149.592C71.75 149.592 71.2676 149.895 71.0137 150.5V155H69.9297V148.66H70.9844L71.002 149.393C71.3574 148.826 71.8613 148.543 72.5137 148.543C72.7246 148.543 72.8848 148.57 72.9941 148.625V149.633ZM77.9102 154.373C77.4883 154.869 76.8691 155.117 76.0527 155.117C75.377 155.117 74.8613 154.922 74.5059 154.531C74.1543 154.137 73.9766 153.555 73.9727 152.785V148.66H75.0566V152.756C75.0566 153.717 75.4473 154.197 76.2285 154.197C77.0566 154.197 77.6074 153.889 77.8809 153.271V148.66H78.9648V155H77.9336L77.9102 154.373ZM83.1602 154.232C83.5469 154.232 83.8848 154.115 84.1738 153.881C84.4629 153.646 84.623 153.354 84.6543 153.002H85.6797C85.6602 153.365 85.5352 153.711 85.3047 154.039C85.0742 154.367 84.7656 154.629 84.3789 154.824C83.9961 155.02 83.5898 155.117 83.1602 155.117C82.2969 155.117 81.6094 154.83 81.0977 154.256C80.5898 153.678 80.3359 152.889 80.3359 151.889V151.707C80.3359 151.09 80.4492 150.541 80.6758 150.061C80.9023 149.58 81.2266 149.207 81.6484 148.941C82.0742 148.676 82.5762 148.543 83.1543 148.543C83.8652 148.543 84.4551 148.756 84.9238 149.182C85.3965 149.607 85.6484 150.16 85.6797 150.84H84.6543C84.623 150.43 84.4668 150.094 84.1855 149.832C83.9082 149.566 83.5645 149.434 83.1543 149.434C82.6035 149.434 82.1758 149.633 81.8711 150.031C81.5703 150.426 81.4199 150.998 81.4199 151.748V151.953C81.4199 152.684 81.5703 153.246 81.8711 153.641C82.1719 154.035 82.6016 154.232 83.1602 154.232ZM87.9824 149.428C88.4629 148.838 89.0879 148.543 89.8574 148.543C91.1973 148.543 91.873 149.299 91.8848 150.811V155H90.8008V150.805C90.7969 150.348 90.6914 150.01 90.4844 149.791C90.2812 149.572 89.9629 149.463 89.5293 149.463C89.1777 149.463 88.8691 149.557 88.6035 149.744C88.3379 149.932 88.1309 150.178 87.9824 150.482V155H86.8984V146H87.9824V149.428Z" fill="#C21E07"/>
<path d="M43.9375 171.891H49.375V174H40.5156V172.555L45.9375 164.742H40.4844V162.625H49.3203V164.031L43.9375 171.891ZM43.6641 160.633C43.6641 160.294 43.7865 160.018 44.0312 159.805C44.276 159.591 44.5859 159.484 44.9609 159.484C45.3307 159.484 45.638 159.591 45.8828 159.805C46.1276 160.018 46.25 160.294 46.25 160.633C46.25 160.966 46.1276 161.24 45.8828 161.453C45.638 161.667 45.3307 161.773 44.9609 161.773C44.5859 161.773 44.276 161.667 44.0312 161.453C43.7865 161.24 43.6641 160.966 43.6641 160.633ZM50 169.695C50 168.852 50.1641 168.102 50.4922 167.445C50.8203 166.784 51.2917 166.276 51.9062 165.922C52.5208 165.568 53.2422 165.391 54.0703 165.391C55.3359 165.391 56.3333 165.784 57.0625 166.57C57.7917 167.352 58.1562 168.417 58.1562 169.766V169.859C58.1562 171.177 57.7891 172.224 57.0547 173C56.3255 173.771 55.3359 174.156 54.0859 174.156C52.8828 174.156 51.9167 173.797 51.1875 173.078C50.4583 172.354 50.0651 171.375 50.0078 170.141L50 169.695ZM52.6328 169.859C52.6328 170.641 52.7552 171.214 53 171.578C53.2448 171.943 53.6068 172.125 54.0859 172.125C55.0234 172.125 55.5026 171.404 55.5234 169.961V169.695C55.5234 168.18 55.0391 167.422 54.0703 167.422C53.1901 167.422 52.7135 168.076 52.6406 169.383L52.6328 169.859ZM64.4297 167.93L63.5625 167.867C62.7344 167.867 62.2031 168.128 61.9688 168.648V174H59.3359V165.547H61.8047L61.8906 166.633C62.3333 165.805 62.9505 165.391 63.7422 165.391C64.0234 165.391 64.2682 165.422 64.4766 165.484L64.4297 167.93ZM69.8047 171.625C69.8047 171.401 69.6875 171.221 69.4531 171.086C69.2188 170.951 68.7734 170.81 68.1172 170.664C67.4609 170.518 66.9193 170.328 66.4922 170.094C66.0651 169.854 65.7396 169.565 65.5156 169.227C65.2917 168.888 65.1797 168.5 65.1797 168.062C65.1797 167.286 65.5 166.648 66.1406 166.148C66.7812 165.643 67.6198 165.391 68.6562 165.391C69.7708 165.391 70.6667 165.643 71.3438 166.148C72.0208 166.654 72.3594 167.318 72.3594 168.141H69.7188C69.7188 167.464 69.362 167.125 68.6484 167.125C68.3724 167.125 68.1406 167.203 67.9531 167.359C67.7656 167.51 67.6719 167.701 67.6719 167.93C67.6719 168.164 67.7865 168.354 68.0156 168.5C68.2448 168.646 68.6094 168.766 69.1094 168.859C69.6146 168.953 70.0573 169.065 70.4375 169.195C71.7083 169.633 72.3438 170.417 72.3438 171.547C72.3438 172.318 72 172.945 71.3125 173.43C70.6302 173.914 69.7448 174.156 68.6562 174.156C67.9323 174.156 67.2865 174.026 66.7188 173.766C66.151 173.505 65.7083 173.151 65.3906 172.703C65.0729 172.255 64.9141 171.784 64.9141 171.289H67.375C67.3854 171.68 67.5156 171.966 67.7656 172.148C68.0156 172.326 68.3359 172.414 68.7266 172.414C69.0859 172.414 69.3542 172.341 69.5312 172.195C69.7135 172.049 69.8047 171.859 69.8047 171.625ZM76.9766 170.852L76.2344 171.594V174H73.6016V161.992H76.2344V168.367L76.5 168.016L78.4844 165.547H81.6406L78.6797 169.023L81.8359 174H78.8203L76.9766 170.852ZM87.0938 174C87 173.828 86.9167 173.576 86.8438 173.242C86.3594 173.852 85.6823 174.156 84.8125 174.156C84.0156 174.156 83.3385 173.917 82.7812 173.438C82.224 172.953 81.9453 172.346 81.9453 171.617C81.9453 170.701 82.2839 170.008 82.9609 169.539C83.638 169.07 84.6224 168.836 85.9141 168.836H86.7266V168.391C86.7266 167.615 86.3906 167.227 85.7188 167.227C85.0938 167.227 84.7812 167.534 84.7812 168.148H82.1484C82.1484 167.331 82.4948 166.667 83.1875 166.156C83.8854 165.646 84.7734 165.391 85.8516 165.391C86.9297 165.391 87.7812 165.654 88.4062 166.18C89.0312 166.706 89.3516 167.427 89.3672 168.344V172.086C89.3776 172.862 89.4974 173.456 89.7266 173.867V174H87.0938ZM85.4453 172.281C85.7734 172.281 86.0443 172.211 86.2578 172.07C86.4766 171.93 86.6328 171.771 86.7266 171.594V170.242H85.9609C85.0443 170.242 84.5859 170.654 84.5859 171.477C84.5859 171.716 84.6667 171.911 84.8281 172.062C84.9896 172.208 85.1953 172.281 85.4453 172.281ZM100.609 174H97.9688V165.594L95.375 166.352V164.352L100.367 162.625H100.609V174ZM111.977 174H104.039V172.281L107.695 168.438C108.596 167.411 109.047 166.596 109.047 165.992C109.047 165.503 108.94 165.13 108.727 164.875C108.513 164.62 108.203 164.492 107.797 164.492C107.396 164.492 107.07 164.664 106.82 165.008C106.57 165.346 106.445 165.771 106.445 166.281H103.805C103.805 165.583 103.979 164.94 104.328 164.352C104.677 163.758 105.161 163.294 105.781 162.961C106.401 162.628 107.094 162.461 107.859 162.461C109.089 162.461 110.034 162.745 110.695 163.312C111.362 163.88 111.695 164.695 111.695 165.758C111.695 166.206 111.612 166.643 111.445 167.07C111.279 167.492 111.018 167.938 110.664 168.406C110.315 168.87 109.75 169.492 108.969 170.273L107.5 171.969H111.977V174Z" fill="#222222"/>
<rect y="144" width="32" height="32" rx="4" fill="#888888"/>
<path d="M12.6667 165.667H10.6667C10.3131 165.667 9.97392 165.526 9.72387 165.276C9.47382 165.026 9.33334 164.687 9.33334 164.333V159.667C9.33334 159.313 9.47382 158.974 9.72387 158.724C9.97392 158.474 10.3131 158.333 10.6667 158.333H12.6667M17.3333 157V154.333C17.3333 153.803 17.1226 153.294 16.7476 152.919C16.3725 152.544 15.8638 152.333 15.3333 152.333L12.6667 158.333V165.667H20.1867C20.5082 165.67 20.8203 165.558 21.0653 165.349C21.3103 165.141 21.4718 164.851 21.52 164.533L22.44 158.533C22.469 158.342 22.4561 158.147 22.4022 157.961C22.3483 157.776 22.2547 157.604 22.1279 157.458C22.0011 157.312 21.8441 157.196 21.6677 157.117C21.4914 157.038 21.2999 156.998 21.1067 157H17.3333Z" stroke="white" stroke-width="2" stroke-linecap="round" stroke-linejoin="round"/>
<path d="M40.9902 203V194.469H43.3984C44.1406 194.469 44.7969 194.633 45.3672 194.961C45.9375 195.289 46.377 195.756 46.6855 196.361C46.998 196.967 47.1562 197.662 47.1602 198.447V198.992C47.1602 199.797 47.0039 200.502 46.6914 201.107C46.3828 201.713 45.9395 202.178 45.3613 202.502C44.7871 202.826 44.1172 202.992 43.3516 203H40.9902ZM42.1152 195.395V202.08H43.2988C44.166 202.08 44.8398 201.811 45.3203 201.271C45.8047 200.732 46.0469 199.965 46.0469 198.969V198.471C46.0469 197.502 45.8184 196.75 45.3613 196.215C44.9082 195.676 44.2637 195.402 43.4277 195.395H42.1152ZM52.6094 202.373C52.1875 202.869 51.5684 203.117 50.752 203.117C50.0762 203.117 49.5605 202.922 49.2051 202.531C48.8535 202.137 48.6758 201.555 48.6719 200.785V196.66H49.7559V200.756C49.7559 201.717 50.1465 202.197 50.9277 202.197C51.7559 202.197 52.3066 201.889 52.5801 201.271V196.66H53.6641V203H52.6328L52.6094 202.373ZM56.3359 202.115H60.0449V203H55.0117V202.203L58.5098 197.557H55.0645V196.66H59.8691V197.428L56.3359 202.115ZM56.8691 194.99C56.8691 194.814 56.9219 194.666 57.0273 194.545C57.1367 194.424 57.2969 194.363 57.5078 194.363C57.7188 194.363 57.8789 194.424 57.9883 194.545C58.0977 194.666 58.1523 194.814 58.1523 194.99C58.1523 195.166 58.0977 195.312 57.9883 195.43C57.8789 195.547 57.7188 195.605 57.5078 195.605C57.2969 195.605 57.1367 195.547 57.0273 195.43C56.9219 195.312 56.8691 195.166 56.8691 194.99ZM63.3438 201.412L64.8203 196.66H65.9805L63.4316 203.979C63.0371 205.033 62.4102 205.561 61.5508 205.561L61.3457 205.543L60.9414 205.467V204.588L61.2344 204.611C61.6016 204.611 61.8867 204.537 62.0898 204.389C62.2969 204.24 62.4668 203.969 62.5996 203.574L62.8398 202.93L60.5781 196.66H61.7617L63.3438 201.412ZM72.9941 197.633C72.8301 197.605 72.6523 197.592 72.4609 197.592C71.75 197.592 71.2676 197.895 71.0137 198.5V203H69.9297V196.66H70.9844L71.002 197.393C71.3574 196.826 71.8613 196.543 72.5137 196.543C72.7246 196.543 72.8848 196.57 72.9941 196.625V197.633ZM77.9102 202.373C77.4883 202.869 76.8691 203.117 76.0527 203.117C75.377 203.117 74.8613 202.922 74.5059 202.531C74.1543 202.137 73.9766 201.555 73.9727 200.785V196.66H75.0566V200.756C75.0566 201.717 75.4473 202.197 76.2285 202.197C77.0566 202.197 77.6074 201.889 77.8809 201.271V196.66H78.9648V203H77.9336L77.9102 202.373ZM83.1602 202.232C83.5469 202.232 83.8848 202.115 84.1738 201.881C84.4629 201.646 84.623 201.354 84.6543 201.002H85.6797C85.6602 201.365 85.5352 201.711 85.3047 202.039C85.0742 202.367 84.7656 202.629 84.3789 202.824C83.9961 203.02 83.5898 203.117 83.1602 203.117C82.2969 203.117 81.6094 202.83 81.0977 202.256C80.5898 201.678 80.3359 200.889 80.3359 199.889V199.707C80.3359 199.09 80.4492 198.541 80.6758 198.061C80.9023 197.58 81.2266 197.207 81.6484 196.941C82.0742 196.676 82.5762 196.543 83.1543 196.543C83.8652 196.543 84.4551 196.756 84.9238 197.182C85.3965 197.607 85.6484 198.16 85.6797 198.84H84.6543C84.623 198.43 84.4668 198.094 84.1855 197.832C83.9082 197.566 83.5645 197.434 83.1543 197.434C82.6035 197.434 82.1758 197.633 81.8711 198.031C81.5703 198.426 81.4199 198.998 81.4199 199.748V199.953C81.4199 200.684 81.5703 201.246 81.8711 201.641C82.1719 202.035 82.6016 202.232 83.1602 202.232ZM87.9824 197.428C88.4629 196.838 89.0879 196.543 89.8574 196.543C91.1973 196.543 91.873 197.299 91.8848 198.811V203H90.8008V198.805C90.7969 198.348 90.6914 198.01 90.4844 197.791C90.2812 197.572 89.9629 197.463 89.5293 197.463C89.1777 197.463 88.8691 197.557 88.6035 197.744C88.3379 197.932 88.1309 198.178 87.9824 198.482V203H86.8984V194H87.9824V197.428Z" fill="#C21E07"/>
<path d="M45.0859 217.984H43.6016V222H40.8594V210.625H45.3359C46.6849 210.625 47.7396 210.924 48.5 211.523C49.2604 212.122 49.6406 212.969 49.6406 214.062C49.6406 214.854 49.4792 215.51 49.1562 216.031C48.8385 216.552 48.3385 216.974 47.6562 217.297L50.0312 221.883V222H47.0938L45.0859 217.984ZM43.6016 215.867H45.3359C45.8568 215.867 46.2474 215.732 46.5078 215.461C46.7734 215.185 46.9062 214.802 46.9062 214.312C46.9062 213.823 46.7734 213.44 46.5078 213.164C46.2422 212.883 45.8516 212.742 45.3359 212.742H43.6016V215.867ZM55.9375 222C55.8438 221.828 55.7604 221.576 55.6875 221.242C55.2031 221.852 54.526 222.156 53.6562 222.156C52.8594 222.156 52.1823 221.917 51.625 221.438C51.0677 220.953 50.7891 220.346 50.7891 219.617C50.7891 218.701 51.1276 218.008 51.8047 217.539C52.4818 217.07 53.4661 216.836 54.7578 216.836H55.5703V216.391C55.5703 215.615 55.2344 215.227 54.5625 215.227C53.9375 215.227 53.625 215.534 53.625 216.148H50.9922C50.9922 215.331 51.3385 214.667 52.0312 214.156C52.7292 213.646 53.6172 213.391 54.6953 213.391C55.7734 213.391 56.625 213.654 57.25 214.18C57.875 214.706 58.1953 215.427 58.2109 216.344V220.086C58.2214 220.862 58.3411 221.456 58.5703 221.867V222H55.9375ZM54.2891 220.281C54.6172 220.281 54.888 220.211 55.1016 220.07C55.3203 219.93 55.4766 219.771 55.5703 219.594V218.242H54.8047C53.888 218.242 53.4297 218.654 53.4297 219.477C53.4297 219.716 53.5104 219.911 53.6719 220.062C53.8333 220.208 54.0391 220.281 54.2891 220.281ZM63.25 220.125C63.6198 220.125 63.9062 220.026 64.1094 219.828C64.3125 219.625 64.4115 219.344 64.4062 218.984H66.875C66.875 219.911 66.5417 220.672 65.875 221.266C65.2135 221.859 64.3594 222.156 63.3125 222.156C62.0833 222.156 61.1146 221.771 60.4062 221C59.6979 220.229 59.3438 219.161 59.3438 217.797V217.688C59.3438 216.833 59.5 216.081 59.8125 215.43C60.1302 214.773 60.5859 214.271 61.1797 213.922C61.7734 213.568 62.4766 213.391 63.2891 213.391C64.388 213.391 65.2604 213.695 65.9062 214.305C66.5521 214.914 66.875 215.74 66.875 216.781H64.4062C64.4062 216.344 64.2995 216.008 64.0859 215.773C63.8724 215.539 63.5859 215.422 63.2266 215.422C62.5443 215.422 62.1458 215.857 62.0312 216.727C61.9948 217.003 61.9766 217.383 61.9766 217.867C61.9766 218.716 62.0781 219.305 62.2812 219.633C62.4844 219.961 62.8073 220.125 63.25 220.125ZM70.7656 222H68.125V213.547H70.7656V222ZM67.9688 211.367C67.9688 210.992 68.1042 210.685 68.375 210.445C68.6458 210.206 68.9974 210.086 69.4297 210.086C69.862 210.086 70.2135 210.206 70.4844 210.445C70.7552 210.685 70.8906 210.992 70.8906 211.367C70.8906 211.742 70.7552 212.049 70.4844 212.289C70.2135 212.529 69.862 212.648 69.4297 212.648C68.9974 212.648 68.6458 212.529 68.375 212.289C68.1042 212.049 67.9688 211.742 67.9688 211.367ZM80.2422 217.844C80.2422 219.229 79.9557 220.294 79.3828 221.039C78.8099 221.784 78.0026 222.156 76.9609 222.156C76.1016 222.156 75.4089 221.815 74.8828 221.133L74.7734 222H72.4141V210H75.0469V214.227C75.5365 213.669 76.1693 213.391 76.9453 213.391C77.9974 213.391 78.8099 213.768 79.3828 214.523C79.9557 215.279 80.2422 216.341 80.2422 217.711V217.844ZM77.6016 217.68C77.6016 216.867 77.4922 216.289 77.2734 215.945C77.0599 215.596 76.7292 215.422 76.2812 215.422C75.6875 215.422 75.276 215.648 75.0469 216.102V219.461C75.2708 219.909 75.6875 220.133 76.2969 220.133C76.9167 220.133 77.3099 219.831 77.4766 219.227C77.5599 218.93 77.6016 218.414 77.6016 217.68ZM81.0781 217.695C81.0781 216.852 81.2422 216.102 81.5703 215.445C81.8984 214.784 82.3698 214.276 82.9844 213.922C83.599 213.568 84.3203 213.391 85.1484 213.391C86.4141 213.391 87.4115 213.784 88.1406 214.57C88.8698 215.352 89.2344 216.417 89.2344 217.766V217.859C89.2344 219.177 88.8672 220.224 88.1328 221C87.4036 221.771 86.4141 222.156 85.1641 222.156C83.9609 222.156 82.9948 221.797 82.2656 221.078C81.5365 220.354 81.1432 219.375 81.0859 218.141L81.0781 217.695ZM83.7109 217.859C83.7109 218.641 83.8333 219.214 84.0781 219.578C84.3229 219.943 84.6849 220.125 85.1641 220.125C86.1016 220.125 86.5807 219.404 86.6016 217.961V217.695C86.6016 216.18 86.1172 215.422 85.1484 215.422C84.2682 215.422 83.7917 216.076 83.7188 217.383L83.7109 217.859ZM95.5078 215.93L94.6406 215.867C93.8125 215.867 93.2812 216.128 93.0469 216.648V222H90.4141V213.547H92.8828L92.9688 214.633C93.4115 213.805 94.0286 213.391 94.8203 213.391C95.1016 213.391 95.3464 213.422 95.5547 213.484L95.5078 215.93ZM100.883 219.625C100.883 219.401 100.766 219.221 100.531 219.086C100.297 218.951 99.8516 218.81 99.1953 218.664C98.5391 218.518 97.9974 218.328 97.5703 218.094C97.1432 217.854 96.8177 217.565 96.5938 217.227C96.3698 216.888 96.2578 216.5 96.2578 216.062C96.2578 215.286 96.5781 214.648 97.2188 214.148C97.8594 213.643 98.6979 213.391 99.7344 213.391C100.849 213.391 101.745 213.643 102.422 214.148C103.099 214.654 103.438 215.318 103.438 216.141H100.797C100.797 215.464 100.44 215.125 99.7266 215.125C99.4505 215.125 99.2188 215.203 99.0312 215.359C98.8438 215.51 98.75 215.701 98.75 215.93C98.75 216.164 98.8646 216.354 99.0938 216.5C99.3229 216.646 99.6875 216.766 100.188 216.859C100.693 216.953 101.135 217.065 101.516 217.195C102.786 217.633 103.422 218.417 103.422 219.547C103.422 220.318 103.078 220.945 102.391 221.43C101.708 221.914 100.823 222.156 99.7344 222.156C99.0104 222.156 98.3646 222.026 97.7969 221.766C97.2292 221.505 96.7865 221.151 96.4688 220.703C96.151 220.255 95.9922 219.784 95.9922 219.289H98.4531C98.4635 219.68 98.5938 219.966 98.8438 220.148C99.0938 220.326 99.4141 220.414 99.8047 220.414C100.164 220.414 100.432 220.341 100.609 220.195C100.792 220.049 100.883 219.859 100.883 219.625ZM108.055 218.852L107.312 219.594V222H104.68V209.992H107.312V216.367L107.578 216.016L109.562 213.547H112.719L109.758 217.023L112.914 222H109.898L108.055 218.852ZM118.172 222C118.078 221.828 117.995 221.576 117.922 221.242C117.438 221.852 116.76 222.156 115.891 222.156C115.094 222.156 114.417 221.917 113.859 221.438C113.302 220.953 113.023 220.346 113.023 219.617C113.023 218.701 113.362 218.008 114.039 217.539C114.716 217.07 115.701 216.836 116.992 216.836H117.805V216.391C117.805 215.615 117.469 215.227 116.797 215.227C116.172 215.227 115.859 215.534 115.859 216.148H113.227C113.227 215.331 113.573 214.667 114.266 214.156C114.964 213.646 115.852 213.391 116.93 213.391C118.008 213.391 118.859 213.654 119.484 214.18C120.109 214.706 120.43 215.427 120.445 216.344V220.086C120.456 220.862 120.576 221.456 120.805 221.867V222H118.172ZM116.523 220.281C116.852 220.281 117.122 220.211 117.336 220.07C117.555 219.93 117.711 219.771 117.805 219.594V218.242H117.039C116.122 218.242 115.664 218.654 115.664 219.477C115.664 219.716 115.745 219.911 115.906 220.062C116.068 220.208 116.273 220.281 116.523 220.281ZM133.75 217.352C133.75 218.888 133.404 220.073 132.711 220.906C132.023 221.74 131.052 222.156 129.797 222.156C128.531 222.156 127.552 221.737 126.859 220.898C126.167 220.06 125.82 218.878 125.82 217.352V215.273C125.82 213.737 126.164 212.552 126.852 211.719C127.544 210.885 128.521 210.469 129.781 210.469C131.042 210.469 132.018 210.888 132.711 211.727C133.404 212.565 133.75 213.75 133.75 215.281V217.352ZM131.117 214.938C131.117 214.12 131.01 213.51 130.797 213.109C130.583 212.703 130.245 212.5 129.781 212.5C129.328 212.5 128.997 212.688 128.789 213.062C128.586 213.438 128.477 214.005 128.461 214.766V217.672C128.461 218.521 128.568 219.143 128.781 219.539C128.995 219.93 129.333 220.125 129.797 220.125C130.245 220.125 130.576 219.935 130.789 219.555C131.003 219.169 131.112 218.568 131.117 217.75V214.938ZM140.953 222H138.312V213.594L135.719 214.352V212.352L140.711 210.625H140.953V222Z" fill="#222222"/>
<rect y="192" width="32" height="32" rx="4" fill="#888888"/>
<path d="M12.6667 213.667H10.6667C10.3131 213.667 9.97392 213.526 9.72387 213.276C9.47382 213.026 9.33334 212.687 9.33334 212.333V207.667C9.33334 207.313 9.47382 206.974 9.72387 206.724C9.97392 206.474 10.3131 206.333 10.6667 206.333H12.6667M17.3333 205V202.333C17.3333 201.803 17.1226 201.294 16.7476 200.919C16.3725 200.544 15.8638 200.333 15.3333 200.333L12.6667 206.333V213.667H20.1867C20.5082 213.67 20.8203 213.558 21.0653 213.349C21.3103 213.141 21.4718 212.851 21.52 212.533L22.44 206.533C22.469 206.342 22.4561 206.147 22.4022 205.961C22.3483 205.776 22.2547 205.604 22.1279 205.458C22.0011 205.312 21.8441 205.196 21.6677 205.117C21.4914 205.038 21.2999 204.998 21.1067 205H17.3333Z" stroke="white" stroke-width="2" stroke-linecap="round" stroke-linejoin="round"/>
<path d="M40.9902 251V242.469H43.3984C44.1406 242.469 44.7969 242.633 45.3672 242.961C45.9375 243.289 46.377 243.756 46.6855 244.361C46.998 244.967 47.1562 245.662 47.1602 246.447V246.992C47.1602 247.797 47.0039 248.502 46.6914 249.107C46.3828 249.713 45.9395 250.178 45.3613 250.502C44.7871 250.826 44.1172 250.992 43.3516 251H40.9902ZM42.1152 243.395V250.08H43.2988C44.166 250.08 44.8398 249.811 45.3203 249.271C45.8047 248.732 46.0469 247.965 46.0469 246.969V246.471C46.0469 245.502 45.8184 244.75 45.3613 244.215C44.9082 243.676 44.2637 243.402 43.4277 243.395H42.1152ZM52.6094 250.373C52.1875 250.869 51.5684 251.117 50.752 251.117C50.0762 251.117 49.5605 250.922 49.2051 250.531C48.8535 250.137 48.6758 249.555 48.6719 248.785V244.66H49.7559V248.756C49.7559 249.717 50.1465 250.197 50.9277 250.197C51.7559 250.197 52.3066 249.889 52.5801 249.271V244.66H53.6641V251H52.6328L52.6094 250.373ZM56.3359 250.115H60.0449V251H55.0117V250.203L58.5098 245.557H55.0645V244.66H59.8691V245.428L56.3359 250.115ZM56.8691 242.99C56.8691 242.814 56.9219 242.666 57.0273 242.545C57.1367 242.424 57.2969 242.363 57.5078 242.363C57.7188 242.363 57.8789 242.424 57.9883 242.545C58.0977 242.666 58.1523 242.814 58.1523 242.99C58.1523 243.166 58.0977 243.312 57.9883 243.43C57.8789 243.547 57.7188 243.605 57.5078 243.605C57.2969 243.605 57.1367 243.547 57.0273 243.43C56.9219 243.312 56.8691 243.166 56.8691 242.99ZM63.3438 249.412L64.8203 244.66H65.9805L63.4316 251.979C63.0371 253.033 62.4102 253.561 61.5508 253.561L61.3457 253.543L60.9414 253.467V252.588L61.2344 252.611C61.6016 252.611 61.8867 252.537 62.0898 252.389C62.2969 252.24 62.4668 251.969 62.5996 251.574L62.8398 250.93L60.5781 244.66H61.7617L63.3438 249.412ZM72.9941 245.633C72.8301 245.605 72.6523 245.592 72.4609 245.592C71.75 245.592 71.2676 245.895 71.0137 246.5V251H69.9297V244.66H70.9844L71.002 245.393C71.3574 244.826 71.8613 244.543 72.5137 244.543C72.7246 244.543 72.8848 244.57 72.9941 244.625V245.633ZM77.9102 250.373C77.4883 250.869 76.8691 251.117 76.0527 251.117C75.377 251.117 74.8613 250.922 74.5059 250.531C74.1543 250.137 73.9766 249.555 73.9727 248.785V244.66H75.0566V248.756C75.0566 249.717 75.4473 250.197 76.2285 250.197C77.0566 250.197 77.6074 249.889 77.8809 249.271V244.66H78.9648V251H77.9336L77.9102 250.373ZM83.1602 250.232C83.5469 250.232 83.8848 250.115 84.1738 249.881C84.4629 249.646 84.623 249.354 84.6543 249.002H85.6797C85.6602 249.365 85.5352 249.711 85.3047 250.039C85.0742 250.367 84.7656 250.629 84.3789 250.824C83.9961 251.02 83.5898 251.117 83.1602 251.117C82.2969 251.117 81.6094 250.83 81.0977 250.256C80.5898 249.678 80.3359 248.889 80.3359 247.889V247.707C80.3359 247.09 80.4492 246.541 80.6758 246.061C80.9023 245.58 81.2266 245.207 81.6484 244.941C82.0742 244.676 82.5762 244.543 83.1543 244.543C83.8652 244.543 84.4551 244.756 84.9238 245.182C85.3965 245.607 85.6484 246.16 85.6797 246.84H84.6543C84.623 246.43 84.4668 246.094 84.1855 245.832C83.9082 245.566 83.5645 245.434 83.1543 245.434C82.6035 245.434 82.1758 245.633 81.8711 246.031C81.5703 246.426 81.4199 246.998 81.4199 247.748V247.953C81.4199 248.684 81.5703 249.246 81.8711 249.641C82.1719 250.035 82.6016 250.232 83.1602 250.232ZM87.9824 245.428C88.4629 244.838 89.0879 244.543 89.8574 244.543C91.1973 244.543 91.873 245.299 91.8848 246.811V251H90.8008V246.805C90.7969 246.348 90.6914 246.01 90.4844 245.791C90.2812 245.572 89.9629 245.463 89.5293 245.463C89.1777 245.463 88.8691 245.557 88.6035 245.744C88.3379 245.932 88.1309 246.178 87.9824 246.482V251H86.8984V242H87.9824V245.428Z" fill="#C21E07"/>
<path d="M50.3594 270H47.6328L43.6016 262.922V270H40.8594V258.625H43.6016L47.625 265.703V258.625H50.3594V270ZM59.8672 270H51.9297V268.281L55.5859 264.438C56.487 263.411 56.9375 262.596 56.9375 261.992C56.9375 261.503 56.8307 261.13 56.6172 260.875C56.4036 260.62 56.0938 260.492 55.6875 260.492C55.2865 260.492 54.9609 260.664 54.7109 261.008C54.4609 261.346 54.3359 261.771 54.3359 262.281H51.6953C51.6953 261.583 51.8698 260.94 52.2188 260.352C52.5677 259.758 53.0521 259.294 53.6719 258.961C54.2917 258.628 54.9844 258.461 55.75 258.461C56.9792 258.461 57.9245 258.745 58.5859 259.312C59.2526 259.88 59.5859 260.695 59.5859 261.758C59.5859 262.206 59.5026 262.643 59.3359 263.07C59.1693 263.492 58.9089 263.938 58.5547 264.406C58.2057 264.87 57.6406 265.492 56.8594 266.273L55.3906 267.969H59.8672V270ZM69.0938 265.352C69.0938 266.888 68.7474 268.073 68.0547 268.906C67.3672 269.74 66.3958 270.156 65.1406 270.156C63.875 270.156 62.8958 269.737 62.2031 268.898C61.5104 268.06 61.1641 266.878 61.1641 265.352V263.273C61.1641 261.737 61.5078 260.552 62.1953 259.719C62.888 258.885 63.8646 258.469 65.125 258.469C66.3854 258.469 67.362 258.888 68.0547 259.727C68.7474 260.565 69.0938 261.75 69.0938 263.281V265.352ZM66.4609 262.938C66.4609 262.12 66.3542 261.51 66.1406 261.109C65.9271 260.703 65.5885 260.5 65.125 260.5C64.6719 260.5 64.3411 260.688 64.1328 261.062C63.9297 261.438 63.8203 262.005 63.8047 262.766V265.672C63.8047 266.521 63.9115 267.143 64.125 267.539C64.3385 267.93 64.6771 268.125 65.1406 268.125C65.5885 268.125 65.9193 267.935 66.1328 267.555C66.3464 267.169 66.4557 266.568 66.4609 265.75V262.938Z" fill="#222222"/>
<rect y="240" width="32" height="32" rx="4" fill="#888888"/>
<g clip-path="url(#clip1_22_783)">
<path d="M19.3333 248.667L22 251.333L19.3333 254" stroke="white" stroke-width="2" stroke-linecap="round" stroke-linejoin="round"/>
<path d="M10 255.333V254C10 253.293 10.281 252.614 10.781 252.114C11.2811 251.614 11.9594 251.333 12.6667 251.333H22" stroke="white" stroke-width="2" stroke-linecap="round" stroke-linejoin="round"/>
<path d="M12.6667 263.333L10 260.667L12.6667 258" stroke="white" stroke-width="2" stroke-linecap="round" stroke-linejoin="round"/>
<path d="M22 256.667V258C22 258.707 21.719 259.386 21.219 259.886C20.7189 260.386 20.0406 260.667 19.3333 260.667H10" stroke="white" stroke-width="2" stroke-linecap="round" stroke-linejoin="round"/>
</g>
<path d="M42.4434 290.469L45.2324 297.43L48.0215 290.469H49.4805V299H48.3555V295.678L48.4609 292.092L45.6602 299H44.7988L42.0039 292.109L42.1152 295.678V299H40.9902V290.469H42.4434ZM55.2109 299C55.1484 298.875 55.0977 298.652 55.0586 298.332C54.5547 298.855 53.9531 299.117 53.2539 299.117C52.6289 299.117 52.1152 298.941 51.7129 298.59C51.3145 298.234 51.1152 297.785 51.1152 297.242C51.1152 296.582 51.3652 296.07 51.8652 295.707C52.3691 295.34 53.0762 295.156 53.9863 295.156H55.041V294.658C55.041 294.279 54.9277 293.979 54.7012 293.756C54.4746 293.529 54.1406 293.416 53.6992 293.416C53.3125 293.416 52.9883 293.514 52.7266 293.709C52.4648 293.904 52.334 294.141 52.334 294.418H51.2441C51.2441 294.102 51.3555 293.797 51.5781 293.504C51.8047 293.207 52.1094 292.973 52.4922 292.801C52.8789 292.629 53.3027 292.543 53.7637 292.543C54.4941 292.543 55.0664 292.727 55.4805 293.094C55.8945 293.457 56.1094 293.959 56.125 294.6V297.518C56.125 298.1 56.1992 298.562 56.3477 298.906V299H55.2109ZM53.4121 298.174C53.752 298.174 54.0742 298.086 54.3789 297.91C54.6836 297.734 54.9043 297.506 55.041 297.225V295.924H54.1914C52.8633 295.924 52.1992 296.312 52.1992 297.09C52.1992 297.43 52.3125 297.695 52.5391 297.887C52.7656 298.078 53.0566 298.174 53.4121 298.174ZM59.1367 293.908L60.0625 293.551V294.271L59.1367 294.629V299H58.0469V295.045L57.2031 295.367V294.646L58.0469 294.324V290H59.1367V293.908ZM63.1445 297.412L64.6211 292.66H65.7812L63.2324 299.979C62.8379 301.033 62.2109 301.561 61.3516 301.561L61.1465 301.543L60.7422 301.467V300.588L61.0352 300.611C61.4023 300.611 61.6875 300.537 61.8906 300.389C62.0977 300.24 62.2676 299.969 62.4004 299.574L62.6406 298.93L60.3789 292.66H61.5625L63.1445 297.412ZM72.7949 293.633C72.6309 293.605 72.4531 293.592 72.2617 293.592C71.5508 293.592 71.0684 293.895 70.8145 294.5V299H69.7305V292.66H70.7852L70.8027 293.393C71.1582 292.826 71.6621 292.543 72.3145 292.543C72.5254 292.543 72.6855 292.57 72.7949 292.625V293.633ZM77.7109 298.373C77.2891 298.869 76.6699 299.117 75.8535 299.117C75.1777 299.117 74.6621 298.922 74.3066 298.531C73.9551 298.137 73.7773 297.555 73.7734 296.785V292.66H74.8574V296.756C74.8574 297.717 75.248 298.197 76.0293 298.197C76.8574 298.197 77.4082 297.889 77.6816 297.271V292.66H78.7656V299H77.7344L77.7109 298.373ZM82.9609 298.232C83.3477 298.232 83.6855 298.115 83.9746 297.881C84.2637 297.646 84.4238 297.354 84.4551 297.002H85.4805C85.4609 297.365 85.3359 297.711 85.1055 298.039C84.875 298.367 84.5664 298.629 84.1797 298.824C83.7969 299.02 83.3906 299.117 82.9609 299.117C82.0977 299.117 81.4102 298.83 80.8984 298.256C80.3906 297.678 80.1367 296.889 80.1367 295.889V295.707C80.1367 295.09 80.25 294.541 80.4766 294.061C80.7031 293.58 81.0273 293.207 81.4492 292.941C81.875 292.676 82.377 292.543 82.9551 292.543C83.666 292.543 84.2559 292.756 84.7246 293.182C85.1973 293.607 85.4492 294.16 85.4805 294.84H84.4551C84.4238 294.43 84.2676 294.094 83.9863 293.832C83.709 293.566 83.3652 293.434 82.9551 293.434C82.4043 293.434 81.9766 293.633 81.6719 294.031C81.3711 294.426 81.2207 294.998 81.2207 295.748V295.953C81.2207 296.684 81.3711 297.246 81.6719 297.641C81.9727 298.035 82.4023 298.232 82.9609 298.232ZM87.7832 293.428C88.2637 292.838 88.8887 292.543 89.6582 292.543C90.998 292.543 91.6738 293.299 91.6855 294.811V299H90.6016V294.805C90.5977 294.348 90.4922 294.01 90.2852 293.791C90.082 293.572 89.7637 293.463 89.3301 293.463C88.9785 293.463 88.6699 293.557 88.4043 293.744C88.1387 293.932 87.9316 294.178 87.7832 294.482V299H86.6992V290H87.7832V293.428Z" fill="#84C6EC"/>
<path d="M47.3203 315.875H43.5625L42.9062 318H39.9766L44.1484 306.625H46.7266L50.9297 318H47.9844L47.3203 315.875ZM44.2188 313.758H46.6641L45.4375 309.812L44.2188 313.758ZM57.4375 318H54.7969V309.594L52.2031 310.352V308.352L57.1953 306.625H57.4375V318ZM66.7031 318H64.0625V309.594L61.4688 310.352V308.352L66.4609 306.625H66.7031V318Z" fill="#222222"/>
<rect y="288" width="32" height="32" rx="4" fill="#888888"/>
<g clip-path="url(#clip2_22_783)">
<path d="M19.3333 296.667L22 299.333L19.3333 302" stroke="white" stroke-width="2" stroke-linecap="round" stroke-linejoin="round"/>
<path d="M10 303.333V302C10 301.293 10.281 300.615 10.781 300.114C11.2811 299.614 11.9594 299.333 12.6667 299.333H22" stroke="white" stroke-width="2" stroke-linecap="round" stroke-linejoin="round"/>
<path d="M12.6667 311.333L10 308.667L12.6667 306" stroke="white" stroke-width="2" stroke-linecap="round" stroke-linejoin="round"/>
<path d="M22 304.667V306C22 306.707 21.719 307.385 21.219 307.886C20.7189 308.386 20.0406 308.667 19.3333 308.667H10" stroke="white" stroke-width="2" stroke-linecap="round" stroke-linejoin="round"/>
</g>
<path d="M42.4434 338.469L45.2324 345.43L48.0215 338.469H49.4805V347H48.3555V343.678L48.4609 340.092L45.6602 347H44.7988L42.0039 340.109L42.1152 343.678V347H40.9902V338.469H42.4434ZM55.2109 347C55.1484 346.875 55.0977 346.652 55.0586 346.332C54.5547 346.855 53.9531 347.117 53.2539 347.117C52.6289 347.117 52.1152 346.941 51.7129 346.59C51.3145 346.234 51.1152 345.785 51.1152 345.242C51.1152 344.582 51.3652 344.07 51.8652 343.707C52.3691 343.34 53.0762 343.156 53.9863 343.156H55.041V342.658C55.041 342.279 54.9277 341.979 54.7012 341.756C54.4746 341.529 54.1406 341.416 53.6992 341.416C53.3125 341.416 52.9883 341.514 52.7266 341.709C52.4648 341.904 52.334 342.141 52.334 342.418H51.2441C51.2441 342.102 51.3555 341.797 51.5781 341.504C51.8047 341.207 52.1094 340.973 52.4922 340.801C52.8789 340.629 53.3027 340.543 53.7637 340.543C54.4941 340.543 55.0664 340.727 55.4805 341.094C55.8945 341.457 56.1094 341.959 56.125 342.6V345.518C56.125 346.1 56.1992 346.562 56.3477 346.906V347H55.2109ZM53.4121 346.174C53.752 346.174 54.0742 346.086 54.3789 345.91C54.6836 345.734 54.9043 345.506 55.041 345.225V343.924H54.1914C52.8633 343.924 52.1992 344.312 52.1992 345.09C52.1992 345.43 52.3125 345.695 52.5391 345.887C52.7656 346.078 53.0566 346.174 53.4121 346.174ZM59.1367 341.908L60.0625 341.551V342.271L59.1367 342.629V347H58.0469V343.045L57.2031 343.367V342.646L58.0469 342.324V338H59.1367V341.908ZM63.1445 345.412L64.6211 340.66H65.7812L63.2324 347.979C62.8379 349.033 62.2109 349.561 61.3516 349.561L61.1465 349.543L60.7422 349.467V348.588L61.0352 348.611C61.4023 348.611 61.6875 348.537 61.8906 348.389C62.0977 348.24 62.2676 347.969 62.4004 347.574L62.6406 346.93L60.3789 340.66H61.5625L63.1445 345.412ZM72.7949 341.633C72.6309 341.605 72.4531 341.592 72.2617 341.592C71.5508 341.592 71.0684 341.895 70.8145 342.5V347H69.7305V340.66H70.7852L70.8027 341.393C71.1582 340.826 71.6621 340.543 72.3145 340.543C72.5254 340.543 72.6855 340.57 72.7949 340.625V341.633ZM77.7109 346.373C77.2891 346.869 76.6699 347.117 75.8535 347.117C75.1777 347.117 74.6621 346.922 74.3066 346.531C73.9551 346.137 73.7773 345.555 73.7734 344.785V340.66H74.8574V344.756C74.8574 345.717 75.248 346.197 76.0293 346.197C76.8574 346.197 77.4082 345.889 77.6816 345.271V340.66H78.7656V347H77.7344L77.7109 346.373ZM82.9609 346.232C83.3477 346.232 83.6855 346.115 83.9746 345.881C84.2637 345.646 84.4238 345.354 84.4551 345.002H85.4805C85.4609 345.365 85.3359 345.711 85.1055 346.039C84.875 346.367 84.5664 346.629 84.1797 346.824C83.7969 347.02 83.3906 347.117 82.9609 347.117C82.0977 347.117 81.4102 346.83 80.8984 346.256C80.3906 345.678 80.1367 344.889 80.1367 343.889V343.707C80.1367 343.09 80.25 342.541 80.4766 342.061C80.7031 341.58 81.0273 341.207 81.4492 340.941C81.875 340.676 82.377 340.543 82.9551 340.543C83.666 340.543 84.2559 340.756 84.7246 341.182C85.1973 341.607 85.4492 342.16 85.4805 342.84H84.4551C84.4238 342.43 84.2676 342.094 83.9863 341.832C83.709 341.566 83.3652 341.434 82.9551 341.434C82.4043 341.434 81.9766 341.633 81.6719 342.031C81.3711 342.426 81.2207 342.998 81.2207 343.748V343.953C81.2207 344.684 81.3711 345.246 81.6719 345.641C81.9727 346.035 82.4023 346.232 82.9609 346.232ZM87.7832 341.428C88.2637 340.838 88.8887 340.543 89.6582 340.543C90.998 340.543 91.6738 341.299 91.6855 342.811V347H90.6016V342.805C90.5977 342.348 90.4922 342.01 90.2852 341.791C90.082 341.572 89.7637 341.463 89.3301 341.463C88.9785 341.463 88.6699 341.557 88.4043 341.744C88.1387 341.932 87.9316 342.178 87.7832 342.482V347H86.6992V338H87.7832V341.428Z" fill="#84C6EC"/>
<path d="M47.3203 363.875H43.5625L42.9062 366H39.9766L44.1484 354.625H46.7266L50.9297 366H47.9844L47.3203 363.875ZM44.2188 361.758H46.6641L45.4375 357.812L44.2188 361.758ZM59.5 361.352C59.5 362.888 59.1536 364.073 58.4609 364.906C57.7734 365.74 56.8021 366.156 55.5469 366.156C54.2812 366.156 53.3021 365.737 52.6094 364.898C51.9167 364.06 51.5703 362.878 51.5703 361.352V359.273C51.5703 357.737 51.9141 356.552 52.6016 355.719C53.2943 354.885 54.2708 354.469 55.5312 354.469C56.7917 354.469 57.7682 354.888 58.4609 355.727C59.1536 356.565 59.5 357.75 59.5 359.281V361.352ZM56.8672 358.938C56.8672 358.12 56.7604 357.51 56.5469 357.109C56.3333 356.703 55.9948 356.5 55.5312 356.5C55.0781 356.5 54.7474 356.688 54.5391 357.062C54.3359 357.438 54.2266 358.005 54.2109 358.766V361.672C54.2109 362.521 54.3177 363.143 54.5312 363.539C54.7448 363.93 55.0833 364.125 55.5469 364.125C55.9948 364.125 56.3255 363.935 56.5391 363.555C56.7526 363.169 56.862 362.568 56.8672 361.75V358.938ZM67.2266 354.461V356.531H67.1094C66.125 356.531 65.3151 356.768 64.6797 357.242C64.0495 357.711 63.6615 358.365 63.5156 359.203C64.1094 358.62 64.8594 358.328 65.7656 358.328C66.75 358.328 67.5339 358.688 68.1172 359.406C68.7005 360.125 68.9922 361.068 68.9922 362.234C68.9922 362.958 68.8203 363.622 68.4766 364.227C68.138 364.831 67.6615 365.305 67.0469 365.648C66.4375 365.987 65.7604 366.156 65.0156 366.156C64.2083 366.156 63.487 365.974 62.8516 365.609C62.2161 365.24 61.7214 364.714 61.3672 364.031C61.013 363.349 60.8307 362.562 60.8203 361.672V360.617C60.8203 359.445 61.0703 358.393 61.5703 357.461C62.0755 356.523 62.7943 355.789 63.7266 355.258C64.6589 354.727 65.6927 354.461 66.8281 354.461H67.2266ZM64.8516 360.344C64.5026 360.344 64.2109 360.424 63.9766 360.586C63.7422 360.747 63.5677 360.945 63.4531 361.18V361.969C63.4531 363.406 63.9505 364.125 64.9453 364.125C65.3464 364.125 65.6797 363.945 65.9453 363.586C66.2161 363.227 66.3516 362.776 66.3516 362.234C66.3516 361.677 66.2135 361.224 65.9375 360.875C65.6667 360.521 65.3047 360.344 64.8516 360.344Z" fill="#222222"/>
<rect y="336" width="32" height="32" rx="4" fill="#888888"/>
<g clip-path="url(#clip3_22_783)">
<path d="M19.3333 344.667L22 347.333L19.3333 350" stroke="white" stroke-width="2" stroke-linecap="round" stroke-linejoin="round"/>
<path d="M10 351.333V350C10 349.293 10.281 348.615 10.781 348.114C11.2811 347.614 11.9594 347.333 12.6667 347.333H22" stroke="white" stroke-width="2" stroke-linecap="round" stroke-linejoin="round"/>
<path d="M12.6667 359.333L10 356.667L12.6667 354" stroke="white" stroke-width="2" stroke-linecap="round" stroke-linejoin="round"/>
<path d="M22 352.667V354C22 354.707 21.719 355.385 21.219 355.886C20.7189 356.386 20.0406 356.667 19.3333 356.667H10" stroke="white" stroke-width="2" stroke-linecap="round" stroke-linejoin="round"/>
</g>
<defs>
<clipPath id="clip0_22_783">
<rect width="16" height="16" fill="white" transform="translate(8 104)"/>
</clipPath>
<clipPath id="clip1_22_783">
<rect width="16" height="16" fill="white" transform="translate(8 248)"/>
</clipPath>
<clipPath id="clip2_22_783">
<rect width="16" height="16" fill="white" transform="translate(8 296)"/>
</clipPath>
<clipPath id="clip3_22_783">
<rect width="16" height="16" fill="white" transform="translate(8 344)"/>
</clipPath>
</defs>
</svg>
