<svg width="332" height="67" viewBox="0 0 332 67" fill="none" xmlns="http://www.w3.org/2000/svg">
<path d="M14.8283 44.7183C14.8283 44.4995 14.7508 44.3309 14.5959 44.2124C14.4432 44.0939 14.1664 43.9743 13.7653 43.8535C13.3643 43.7327 13.0453 43.5983 12.8083 43.4502C12.3548 43.1654 12.1281 42.7939 12.1281 42.3359C12.1281 41.9349 12.291 41.6045 12.6169 41.3447C12.945 41.085 13.37 40.9551 13.8918 40.9551C14.2382 40.9551 14.5469 41.0189 14.8181 41.1465C15.0892 41.2741 15.3023 41.4564 15.4572 41.6934C15.6122 41.9281 15.6896 42.189 15.6896 42.4761H14.8283C14.8283 42.2163 14.7463 42.0135 14.5822 41.8677C14.4204 41.7196 14.188 41.6455 13.885 41.6455C13.6024 41.6455 13.3825 41.7059 13.2253 41.8267C13.0703 41.9474 12.9929 42.116 12.9929 42.3325C12.9929 42.5148 13.0772 42.6675 13.2458 42.7905C13.4144 42.9113 13.6924 43.0298 14.0798 43.146C14.4672 43.2599 14.7782 43.391 15.0129 43.5391C15.2476 43.6849 15.4196 43.8535 15.529 44.0449C15.6384 44.234 15.6931 44.4562 15.6931 44.7114C15.6931 45.1261 15.5336 45.4565 15.2146 45.7026C14.8978 45.9465 14.4672 46.0684 13.9226 46.0684C13.5625 46.0684 13.231 46.0023 12.9279 45.8701C12.6271 45.7357 12.3924 45.5511 12.2238 45.3164C12.0575 45.0817 11.9743 44.8083 11.9743 44.4961H12.8391C12.8391 44.7786 12.9325 44.9974 13.1193 45.1523C13.3062 45.3073 13.5739 45.3848 13.9226 45.3848C14.2233 45.3848 14.4489 45.3244 14.5993 45.2036C14.752 45.0806 14.8283 44.9188 14.8283 44.7183ZM18.0645 46H17.2031V41.0234H18.0645V46ZM22.7361 43.7783H20.6922V45.3096H23.0813V46H19.8274V41.0234H23.0574V41.7207H20.6922V43.0947H22.7361V43.7783ZM28.2828 44.3799C28.2327 44.9108 28.0367 45.3255 27.6949 45.624C27.3531 45.9202 26.8985 46.0684 26.3312 46.0684C25.9347 46.0684 25.5849 45.9749 25.2818 45.7881C24.9811 45.599 24.7486 45.3312 24.5846 44.9849C24.4205 44.6385 24.3351 44.2363 24.3282 43.7783V43.3135C24.3282 42.8441 24.4114 42.4305 24.5777 42.0728C24.7441 41.715 24.9822 41.4393 25.2921 41.2456C25.6043 41.0519 25.9643 40.9551 26.3722 40.9551C26.9213 40.9551 27.3634 41.1043 27.6983 41.4028C28.0333 41.7013 28.2281 42.1229 28.2828 42.6675H27.4215C27.3805 42.3097 27.2757 42.0522 27.107 41.895C26.9407 41.7355 26.6957 41.6558 26.3722 41.6558C25.9962 41.6558 25.7068 41.7936 25.504 42.0693C25.3035 42.3428 25.2009 42.745 25.1964 43.2759V43.7168C25.1964 44.2546 25.2921 44.6647 25.4835 44.9473C25.6772 45.2298 25.9597 45.3711 26.3312 45.3711C26.6707 45.3711 26.9259 45.2948 27.0968 45.1421C27.2677 44.9894 27.3759 44.7354 27.4215 44.3799H28.2828ZM30.6713 46H29.81V41.0234H30.6713V46ZM36.406 43.6416C36.406 44.1292 36.3216 44.5576 36.153 44.9268C35.9844 45.2936 35.7429 45.5762 35.4284 45.7744C35.1162 45.9704 34.7562 46.0684 34.3483 46.0684C33.945 46.0684 33.585 45.9704 33.2683 45.7744C32.9538 45.5762 32.71 45.2948 32.5368 44.9302C32.3659 44.5656 32.2793 44.1452 32.2771 43.6689V43.3887C32.2771 42.9033 32.3625 42.4749 32.5334 42.1035C32.7066 41.7321 32.9493 41.4484 33.2614 41.2524C33.5759 41.0542 33.9359 40.9551 34.3415 40.9551C34.7471 40.9551 35.106 41.0531 35.4182 41.249C35.7326 41.4427 35.9753 41.723 36.1462 42.0898C36.3171 42.4544 36.4037 42.8794 36.406 43.3647V43.6416ZM35.5412 43.3818C35.5412 42.8304 35.4364 42.4077 35.2268 42.1138C35.0194 41.8198 34.7243 41.6729 34.3415 41.6729C33.9678 41.6729 33.675 41.8198 33.4631 42.1138C33.2534 42.4054 33.1464 42.819 33.1418 43.3545V43.6416C33.1418 44.1885 33.2478 44.6112 33.4597 44.9097C33.6739 45.2082 33.9701 45.3574 34.3483 45.3574C34.7312 45.3574 35.0251 45.2116 35.2302 44.9199C35.4375 44.6283 35.5412 44.2021 35.5412 43.6416V43.3818ZM41.8706 44.7695L42.6362 41.0234H43.4941L42.3457 46H41.5186L40.5718 42.3667L39.6045 46H38.7739L37.6255 41.0234H38.4834L39.2559 44.7627L40.2061 41.0234H40.9307L41.8706 44.7695ZM47.7352 43.7783H45.6912V45.3096H48.0804V46H44.8265V41.0234H48.0564V41.7207H45.6912V43.0947H47.7352V43.7783Z" fill="#888888"/>
<path d="M71.6714 41.0234H72.5327V44.5132C72.5327 44.9894 72.3835 45.3677 72.085 45.6479C71.7887 45.9282 71.3968 46.0684 70.9092 46.0684C70.3896 46.0684 69.9886 45.9373 69.7061 45.6753C69.4235 45.4132 69.2822 45.0487 69.2822 44.5815H70.1436C70.1436 44.8459 70.2085 45.0452 70.3384 45.1797C70.4705 45.3118 70.6608 45.3779 70.9092 45.3779C71.1416 45.3779 71.3262 45.3016 71.4629 45.1489C71.6019 44.994 71.6714 44.7809 71.6714 44.5098V41.0234ZM77.1326 43.7783H75.0887V45.3096H77.4778V46H74.2239V41.0234H77.4539V41.7207H75.0887V43.0947H77.1326V43.7783ZM78.8819 46V41.0234H80.3517C80.7914 41.0234 81.1811 41.1214 81.5206 41.3174C81.8624 41.5133 82.1267 41.7913 82.3136 42.1514C82.5004 42.5114 82.5938 42.9238 82.5938 43.3887V43.6382C82.5938 44.1099 82.4993 44.5246 82.3102 44.8823C82.1233 45.2401 81.8556 45.5158 81.5069 45.7095C81.1606 45.9032 80.763 46 80.3141 46H78.8819ZM79.7467 41.7207V45.3096H80.3106C80.7641 45.3096 81.1116 45.1683 81.3531 44.8857C81.5969 44.6009 81.7211 44.193 81.7257 43.6621V43.3853C81.7257 42.8452 81.6083 42.4328 81.3736 42.1479C81.1389 41.8631 80.7983 41.7207 80.3517 41.7207H79.7467ZM88.1029 46H87.2382L85.0199 42.4692V46H84.1552V41.0234H85.0199L87.245 44.5679V41.0234H88.1029V46ZM93.7966 43.6416C93.7966 44.1292 93.7123 44.5576 93.5437 44.9268C93.375 45.2936 93.1335 45.5762 92.819 45.7744C92.5069 45.9704 92.1468 46.0684 91.739 46.0684C91.3356 46.0684 90.9756 45.9704 90.6589 45.7744C90.3444 45.5762 90.1006 45.2948 89.9274 44.9302C89.7565 44.5656 89.67 44.1452 89.6677 43.6689V43.3887C89.6677 42.9033 89.7531 42.4749 89.924 42.1035C90.0972 41.7321 90.3399 41.4484 90.6521 41.2524C90.9665 41.0542 91.3265 40.9551 91.7321 40.9551C92.1377 40.9551 92.4966 41.0531 92.8088 41.249C93.1232 41.4427 93.3659 41.723 93.5368 42.0898C93.7077 42.4544 93.7943 42.8794 93.7966 43.3647V43.6416ZM92.9318 43.3818C92.9318 42.8304 92.827 42.4077 92.6174 42.1138C92.41 41.8198 92.1149 41.6729 91.7321 41.6729C91.3584 41.6729 91.0656 41.8198 90.8537 42.1138C90.6441 42.4054 90.537 42.819 90.5324 43.3545V43.6416C90.5324 44.1885 90.6384 44.6112 90.8503 44.9097C91.0645 45.2082 91.3607 45.3574 91.739 45.3574C92.1218 45.3574 92.4157 45.2116 92.6208 44.9199C92.8282 44.6283 92.9318 44.2021 92.9318 43.6416V43.3818ZM97.1865 44.0825H96.2227V46H95.3579V41.0234H97.1079C97.6821 41.0234 98.1253 41.1522 98.4375 41.4097C98.7497 41.6672 98.9058 42.0397 98.9058 42.5273C98.9058 42.86 98.8249 43.1392 98.6631 43.3647C98.5036 43.5881 98.2803 43.7601 97.9932 43.8809L99.1108 45.9556V46H98.1846L97.1865 44.0825ZM96.2227 43.3887H97.1113C97.403 43.3887 97.6309 43.3158 97.7949 43.1699C97.959 43.0218 98.041 42.8201 98.041 42.5649C98.041 42.2983 97.9647 42.0921 97.812 41.9463C97.6616 41.8005 97.436 41.7253 97.1353 41.7207H96.2227V43.3887ZM103.212 44.8413H101.284L100.881 46H99.9817L101.862 41.0234H102.638L104.521 46H103.618L103.212 44.8413ZM101.527 44.144H102.969L102.248 42.0796L101.527 44.144ZM106.602 45.3096H109.261V46H105.556V45.4395L108.129 41.7207H105.573V41.0234H109.179V41.5703L106.602 45.3096ZM114.589 43.6416C114.589 44.1292 114.504 44.5576 114.336 44.9268C114.167 45.2936 113.926 45.5762 113.611 45.7744C113.299 45.9704 112.939 46.0684 112.531 46.0684C112.128 46.0684 111.768 45.9704 111.451 45.7744C111.137 45.5762 110.893 45.2948 110.72 44.9302C110.549 44.5656 110.462 44.1452 110.46 43.6689V43.3887C110.46 42.9033 110.545 42.4749 110.716 42.1035C110.889 41.7321 111.132 41.4484 111.444 41.2524C111.759 41.0542 112.119 40.9551 112.524 40.9551C112.93 40.9551 113.289 41.0531 113.601 41.249C113.915 41.4427 114.158 41.723 114.329 42.0898C114.5 42.4544 114.586 42.8794 114.589 43.3647V43.6416ZM113.724 43.3818C113.724 42.8304 113.619 42.4077 113.41 42.1138C113.202 41.8198 112.907 41.6729 112.524 41.6729C112.151 41.6729 111.858 41.8198 111.646 42.1138C111.436 42.4054 111.329 42.819 111.325 43.3545V43.6416C111.325 44.1885 111.431 44.6112 111.642 44.9097C111.857 45.2082 112.153 45.3574 112.531 45.3574C112.914 45.3574 113.208 45.2116 113.413 44.9199C113.62 44.6283 113.724 44.2021 113.724 43.6416V43.3818ZM120.053 44.7695L120.819 41.0234H121.677L120.529 46H119.701L118.755 42.3667L117.787 46H116.957L115.808 41.0234H116.666L117.439 44.7627L118.389 41.0234H119.113L120.053 44.7695ZM124.838 44.0825H123.874V46H123.009V41.0234H124.759C125.333 41.0234 125.777 41.1522 126.089 41.4097C126.401 41.6672 126.557 42.0397 126.557 42.5273C126.557 42.86 126.476 43.1392 126.314 43.3647C126.155 43.5881 125.932 43.7601 125.645 43.8809L126.762 45.9556V46H125.836L124.838 44.0825ZM123.874 43.3887H124.763C125.054 43.3887 125.282 43.3158 125.446 43.1699C125.61 43.0218 125.692 42.8201 125.692 42.5649C125.692 42.2983 125.616 42.0921 125.463 41.9463C125.313 41.8005 125.087 41.7253 124.787 41.7207H123.874V43.3887Z" fill="#888888"/>
<path d="M154.471 41.0234V44.3491C154.471 44.8778 154.301 45.297 153.962 45.6069C153.625 45.9146 153.175 46.0684 152.612 46.0684C152.042 46.0684 151.59 45.9168 151.255 45.6138C150.92 45.3084 150.752 44.8857 150.752 44.3457V41.0234H151.614V44.3525C151.614 44.6852 151.698 44.9393 151.867 45.1147C152.035 45.2902 152.284 45.3779 152.612 45.3779C153.277 45.3779 153.61 45.027 153.61 44.3252V41.0234H154.471ZM156.962 45.3096H159.221V46H156.097V41.0234H156.962V45.3096ZM164.18 45.354C164 45.5887 163.751 45.7664 163.432 45.8872C163.113 46.008 162.75 46.0684 162.345 46.0684C161.928 46.0684 161.559 45.9738 161.237 45.7847C160.916 45.5955 160.668 45.3255 160.492 44.9746C160.319 44.6214 160.229 44.2101 160.222 43.7407V43.3511C160.222 42.5991 160.402 42.0124 160.762 41.5908C161.122 41.167 161.625 40.9551 162.27 40.9551C162.823 40.9551 163.263 41.0918 163.589 41.3652C163.915 41.6387 164.111 42.0329 164.177 42.5479H163.329C163.233 41.9486 162.886 41.6489 162.287 41.6489C161.899 41.6489 161.604 41.7891 161.401 42.0693C161.201 42.3473 161.097 42.7563 161.09 43.2964V43.6792C161.09 44.217 161.203 44.6351 161.429 44.9336C161.657 45.2298 161.972 45.3779 162.376 45.3779C162.818 45.3779 163.132 45.2777 163.319 45.0771V44.103H162.294V43.4468H164.18V45.354ZM169.802 43.6416C169.802 44.1292 169.718 44.5576 169.549 44.9268C169.381 45.2936 169.139 45.5762 168.825 45.7744C168.512 45.9704 168.152 46.0684 167.745 46.0684C167.341 46.0684 166.981 45.9704 166.664 45.7744C166.35 45.5762 166.106 45.2948 165.933 44.9302C165.762 44.5656 165.676 44.1452 165.673 43.6689V43.3887C165.673 42.9033 165.759 42.4749 165.93 42.1035C166.103 41.7321 166.345 41.4484 166.658 41.2524C166.972 41.0542 167.332 40.9551 167.738 40.9551C168.143 40.9551 168.502 41.0531 168.814 41.249C169.129 41.4427 169.371 41.723 169.542 42.0898C169.713 42.4544 169.8 42.8794 169.802 43.3647V43.6416ZM168.937 43.3818C168.937 42.8304 168.833 42.4077 168.623 42.1138C168.416 41.8198 168.121 41.6729 167.738 41.6729C167.364 41.6729 167.071 41.8198 166.859 42.1138C166.65 42.4054 166.543 42.819 166.538 43.3545V43.6416C166.538 44.1885 166.644 44.6112 166.856 44.9097C167.07 45.2082 167.366 45.3574 167.745 45.3574C168.127 45.3574 168.421 45.2116 168.626 44.9199C168.834 44.6283 168.937 44.2021 168.937 43.6416V43.3818ZM175.267 44.7695L176.032 41.0234H176.89L175.742 46H174.915L173.968 42.3667L173.001 46H172.17L171.022 41.0234H171.88L172.652 44.7627L173.602 41.0234H174.327L175.267 44.7695ZM181.131 43.7783H179.087V45.3096H181.477V46H178.223V41.0234H181.453V41.7207H179.087V43.0947H181.131V43.7783Z" fill="#888888"/>
<path d="M211.538 44.1509V46H210.674V41.0234H212.578C213.134 41.0234 213.574 41.1681 213.9 41.4575C214.228 41.7469 214.392 42.1297 214.392 42.606C214.392 43.0936 214.232 43.473 213.911 43.7441C213.592 44.0153 213.144 44.1509 212.567 44.1509H211.538ZM211.538 43.457H212.578C212.885 43.457 213.12 43.3853 213.282 43.2417C213.443 43.0959 213.524 42.8862 213.524 42.6128C213.524 42.3439 213.442 42.1297 213.278 41.9702C213.114 41.8084 212.889 41.7253 212.601 41.7207H211.538V43.457ZM217.68 44.0825H216.716V46H215.851V41.0234H217.601C218.175 41.0234 218.619 41.1522 218.931 41.4097C219.243 41.6672 219.399 42.0397 219.399 42.5273C219.399 42.86 219.318 43.1392 219.156 43.3647C218.997 43.5881 218.774 43.7601 218.487 43.8809L219.604 45.9556V46H218.678L217.68 44.0825ZM216.716 43.3887H217.605C217.896 43.3887 218.124 43.3158 218.288 43.1699C218.452 43.0218 218.534 42.8201 218.534 42.5649C218.534 42.2983 218.458 42.0921 218.305 41.9463C218.155 41.8005 217.929 41.7253 217.629 41.7207H216.716V43.3887ZM221.733 45.3096H224.392V46H220.687V45.4395L223.261 41.7207H220.704V41.0234H224.31V41.5703L221.733 45.3096ZM227.461 43.3818L228.606 41.0234H229.563L227.895 44.168V46H227.027V44.168L225.355 41.0234H226.316L227.461 43.3818ZM233.349 44.7183C233.349 44.4995 233.272 44.3309 233.117 44.2124C232.964 44.0939 232.687 43.9743 232.286 43.8535C231.885 43.7327 231.566 43.5983 231.329 43.4502C230.876 43.1654 230.649 42.7939 230.649 42.3359C230.649 41.9349 230.812 41.6045 231.138 41.3447C231.466 41.085 231.891 40.9551 232.413 40.9551C232.759 40.9551 233.068 41.0189 233.339 41.1465C233.61 41.2741 233.823 41.4564 233.978 41.6934C234.133 41.9281 234.211 42.189 234.211 42.4761H233.349C233.349 42.2163 233.267 42.0135 233.103 41.8677C232.941 41.7196 232.709 41.6455 232.406 41.6455C232.123 41.6455 231.903 41.7059 231.746 41.8267C231.591 41.9474 231.514 42.116 231.514 42.3325C231.514 42.5148 231.598 42.6675 231.767 42.7905C231.935 42.9113 232.213 43.0298 232.601 43.146C232.988 43.2599 233.299 43.391 233.534 43.5391C233.768 43.6849 233.941 43.8535 234.05 44.0449C234.159 44.234 234.214 44.4562 234.214 44.7114C234.214 45.1261 234.054 45.4565 233.735 45.7026C233.419 45.9465 232.988 46.0684 232.443 46.0684C232.083 46.0684 231.752 46.0023 231.449 45.8701C231.148 45.7357 230.913 45.5511 230.745 45.3164C230.578 45.0817 230.495 44.8083 230.495 44.4961H231.36C231.36 44.7786 231.453 44.9974 231.64 45.1523C231.827 45.3073 232.095 45.3848 232.443 45.3848C232.744 45.3848 232.97 45.3244 233.12 45.2036C233.273 45.0806 233.349 44.9188 233.349 44.7183ZM239.268 41.7207H237.717V46H236.859V41.7207H235.321V41.0234H239.268V41.7207ZM243 44.8413H241.072L240.669 46H239.77L241.65 41.0234H242.426L244.309 46H243.407L243 44.8413ZM241.315 44.144H242.758L242.036 42.0796L241.315 44.144ZM249.524 46H248.66L246.441 42.4692V46H245.577V41.0234H246.441L248.667 44.5679V41.0234H249.524V46ZM252.675 43.8501L252.111 44.4482V46H251.246V41.0234H252.111V43.3579L252.59 42.7666L254.046 41.0234H255.092L253.242 43.228L255.198 46H254.172L252.675 43.8501ZM257.275 46H256.414V41.0234H257.275V46Z" fill="#888888"/>
<path d="M293.815 41.7207H292.264V46H291.406V41.7207H289.868V41.0234H293.815V41.7207ZM297 44.0825H296.036V46H295.172V41.0234H296.922C297.496 41.0234 297.939 41.1522 298.251 41.4097C298.563 41.6672 298.719 42.0397 298.719 42.5273C298.719 42.86 298.639 43.1392 298.477 43.3647C298.317 43.5881 298.094 43.7601 297.807 43.8809L298.925 45.9556V46H297.998L297 44.0825ZM296.036 43.3887H296.925C297.217 43.3887 297.445 43.3158 297.609 43.1699C297.773 43.0218 297.855 42.8201 297.855 42.5649C297.855 42.2983 297.778 42.0921 297.626 41.9463C297.475 41.8005 297.25 41.7253 296.949 41.7207H296.036V43.3887ZM303.025 44.8413H301.098L300.694 46H299.795L301.675 41.0234H302.451L304.334 46H303.432L303.025 44.8413ZM301.34 44.144H302.783L302.062 42.0796L301.34 44.144ZM308.203 44.7183C308.203 44.4995 308.125 44.3309 307.971 44.2124C307.818 44.0939 307.541 43.9743 307.14 43.8535C306.739 43.7327 306.42 43.5983 306.183 43.4502C305.729 43.1654 305.503 42.7939 305.503 42.3359C305.503 41.9349 305.666 41.6045 305.992 41.3447C306.32 41.085 306.745 40.9551 307.266 40.9551C307.613 40.9551 307.922 41.0189 308.193 41.1465C308.464 41.2741 308.677 41.4564 308.832 41.6934C308.987 41.9281 309.064 42.189 309.064 42.4761H308.203C308.203 42.2163 308.121 42.0135 307.957 41.8677C307.795 41.7196 307.563 41.6455 307.26 41.6455C306.977 41.6455 306.757 41.7059 306.6 41.8267C306.445 41.9474 306.367 42.116 306.367 42.3325C306.367 42.5148 306.452 42.6675 306.62 42.7905C306.789 42.9113 307.067 43.0298 307.454 43.146C307.842 43.2599 308.153 43.391 308.388 43.5391C308.622 43.6849 308.794 43.8535 308.904 44.0449C309.013 44.234 309.068 44.4562 309.068 44.7114C309.068 45.1261 308.908 45.4565 308.589 45.7026C308.272 45.9465 307.842 46.0684 307.297 46.0684C306.937 46.0684 306.606 46.0023 306.303 45.8701C306.002 45.7357 305.767 45.5511 305.598 45.3164C305.432 45.0817 305.349 44.8083 305.349 44.4961H306.214C306.214 44.7786 306.307 44.9974 306.494 45.1523C306.681 45.3073 306.949 45.3848 307.297 45.3848C307.598 45.3848 307.824 45.3244 307.974 45.2036C308.127 45.0806 308.203 44.9188 308.203 44.7183ZM312.15 43.3818L313.295 41.0234H314.252L312.584 44.168V46H311.716V44.168L310.045 41.0234H311.005L312.15 43.3818Z" fill="#888888"/>
<circle cx="30" cy="61" r="5" fill="white" stroke="#888888" stroke-width="2"/>
<circle cx="98" cy="61" r="5" fill="white" stroke="#888888" stroke-width="2"/>
<circle cx="166" cy="61" r="5" fill="white" stroke="#888888" stroke-width="2"/>
<circle cx="30" cy="61" r="3" fill="#001AFF"/>
<circle cx="98" cy="61" r="3" fill="#001AFF"/>
<circle cx="166" cy="61" r="3" fill="#001AFF"/>
<circle cx="234" cy="61" r="5" fill="white" stroke="#888888" stroke-width="2"/>
<circle cx="302" cy="61" r="5" fill="white" stroke="#888888" stroke-width="2"/>
<circle cx="234" cy="61" r="3" fill="#001AFF"/>
<path d="M41 4V10H35" stroke="#888888" stroke-width="2" stroke-linecap="round" stroke-linejoin="round"/>
<path d="M19 20V14H25" stroke="#888888" stroke-width="2" stroke-linecap="round" stroke-linejoin="round"/>
<path d="M21.51 9.00008C22.0172 7.56686 22.8791 6.28548 24.0155 5.2755C25.1518 4.26551 26.5255 3.55984 28.0083 3.22434C29.4911 2.88883 31.0348 2.93442 32.4952 3.35685C33.9556 3.77929 35.2853 4.56479 36.36 5.64008L41 10.0001M19 14.0001L23.64 18.3601C24.7147 19.4354 26.0444 20.2209 27.5048 20.6433C28.9652 21.0657 30.5089 21.1113 31.9917 20.7758C33.4745 20.4403 34.8482 19.7346 35.9845 18.7247C37.1209 17.7147 37.9828 16.4333 38.49 15.0001" stroke="#888888" stroke-width="2" stroke-linecap="round" stroke-linejoin="round"/>
<path d="M90 15C90 15 91 14 94 14C97 14 99 16 102 16C105 16 106 15 106 15V3C106 3 105 4 102 4C99 4 97 2 94 2C91 2 90 3 90 3V15Z" stroke="#888888" stroke-width="2" stroke-linecap="round" stroke-linejoin="round"/>
<path d="M90 22V15" stroke="#888888" stroke-width="2" stroke-linecap="round" stroke-linejoin="round"/>
<path d="M171 21V19C171 17.9391 170.579 16.9217 169.828 16.1716C169.078 15.4214 168.061 15 167 15H159C157.939 15 156.922 15.4214 156.172 16.1716C155.421 16.9217 155 17.9391 155 19V21" stroke="#888888" stroke-width="2" stroke-linecap="round" stroke-linejoin="round"/>
<path d="M163 11C165.209 11 167 9.20914 167 7C167 4.79086 165.209 3 163 3C160.791 3 159 4.79086 159 7C159 9.20914 160.791 11 163 11Z" stroke="#888888" stroke-width="2" stroke-linecap="round" stroke-linejoin="round"/>
<path d="M177 20.9999V18.9999C176.999 18.1136 176.704 17.2527 176.161 16.5522C175.618 15.8517 174.858 15.3515 174 15.1299" stroke="#888888" stroke-width="2" stroke-linecap="round" stroke-linejoin="round"/>
<path d="M170 3.12989C170.86 3.35019 171.623 3.85059 172.168 4.5522C172.712 5.25381 173.008 6.11672 173.008 7.00489C173.008 7.89306 172.712 8.75597 172.168 9.45758C171.623 10.1592 170.86 10.6596 170 10.8799" stroke="#888888" stroke-width="2" stroke-linecap="round" stroke-linejoin="round"/>
<path d="M239 1L243 5L239 9" stroke="#888888" stroke-width="2" stroke-linecap="round" stroke-linejoin="round"/>
<path d="M225 11V9C225 7.93913 225.421 6.92171 226.172 6.17157C226.922 5.42142 227.939 5 229 5H243" stroke="#888888" stroke-width="2" stroke-linecap="round" stroke-linejoin="round"/>
<path d="M229 23L225 19L229 15" stroke="#888888" stroke-width="2" stroke-linecap="round" stroke-linejoin="round"/>
<path d="M243 13V15C243 16.0609 242.579 17.0783 241.828 17.8284C241.078 18.5786 240.061 19 239 19H225" stroke="#888888" stroke-width="2" stroke-linecap="round" stroke-linejoin="round"/>
<path d="M297 22H294C293.47 22 292.961 21.7893 292.586 21.4142C292.211 21.0391 292 20.5304 292 20V13C292 12.4696 292.211 11.9609 292.586 11.5858C292.961 11.2107 293.47 11 294 11H297M304 9V5C304 4.20435 303.684 3.44129 303.121 2.87868C302.559 2.31607 301.796 2 301 2L297 11V22H308.28C308.762 22.0054 309.23 21.8364 309.598 21.524C309.965 21.2116 310.208 20.7769 310.28 20.3L311.66 11.3C311.704 11.0134 311.684 10.7207 311.603 10.4422C311.523 10.1638 311.382 9.90629 311.192 9.68751C311.002 9.46873 310.766 9.29393 310.502 9.17521C310.237 9.0565 309.95 8.99671 309.66 9H304Z" stroke="#888888" stroke-width="2" stroke-linecap="round" stroke-linejoin="round"/>
</svg>
