<svg width="170px" viewBox="0 0 103 21" fill="none" xmlns="http://www.w3.org/2000/svg">
<circle cx="8" cy="9.51471" r="8" fill="#C4C4C4"/>
<circle cx="8" cy="9.51471" r="8" fill="url(#paint0_linear_3_179)"/>
<path d="M13.4853 9.5C13.4853 8.57999 13.2545 7.67468 12.8141 6.86695C12.3736 6.05922 11.7376 5.37488 10.9642 4.87658C10.1908 4.37828 9.30482 4.08195 8.38727 4.01471C7.46972 3.94747 6.54996 4.11147 5.7122 4.4917C4.87444 4.87193 4.14545 5.45624 3.59196 6.19113C3.03847 6.92602 2.67817 7.78801 2.54405 8.69819C2.40993 9.60837 2.50627 10.5377 2.82425 11.401C3.14223 12.2643 3.6717 13.034 4.36417 13.6397L7.98529 9.5H13.4853Z" fill="#222222"/>
<circle cx="7.98529" cy="9.5" r="4.5" fill="white"/>
<path d="M11.3119 12.5304C11.8037 11.9906 12.1567 11.3392 12.3404 10.6325C12.5242 9.9258 12.5332 9.18498 12.3667 8.47399C12.2003 7.763 11.8632 7.1032 11.3848 6.55156C10.9063 5.99991 10.3008 5.57299 9.62051 5.30764L7.98528 9.50001L11.3119 12.5304Z" fill="#E5E5E5"/>
<path d="M29.3271 11.7705H24.2646V17H21.6279V4.20312H29.9599V6.33887H24.2646V9.64355H29.3271V11.7705ZM36.8242 16.0332C36.1972 16.7949 35.33 17.1758 34.2226 17.1758C33.2031 17.1758 32.4238 16.8828 31.8847 16.2969C31.3515 15.7109 31.079 14.8525 31.0673 13.7217V7.49023H33.6074V13.6338C33.6074 14.624 34.0585 15.1191 34.9609 15.1191C35.8222 15.1191 36.414 14.8203 36.7363 14.2227V7.49023H39.2851V17H36.8945L36.8242 16.0332ZM43.539 7.49023L43.6181 8.58887C44.2978 7.73926 45.2089 7.31445 46.3515 7.31445C47.3593 7.31445 48.1093 7.61035 48.6015 8.20215C49.0937 8.79395 49.3456 9.67871 49.3574 10.8564V17H46.8173V10.918C46.8173 10.3789 46.7001 9.98926 46.4658 9.74902C46.2314 9.50293 45.8417 9.37988 45.2968 9.37988C44.582 9.37988 44.0458 9.68457 43.6884 10.2939V17H41.1484V7.49023H43.539ZM50.9218 12.1748C50.9218 10.7158 51.2675 9.54102 51.9589 8.65039C52.6562 7.75977 53.5937 7.31445 54.7714 7.31445C55.8144 7.31445 56.6259 7.67188 57.206 8.38672L57.3115 7.49023H59.6142V16.6836C59.6142 17.5156 59.4238 18.2393 59.0429 18.8545C58.6679 19.4697 58.1376 19.9385 57.4521 20.2607C56.7665 20.583 55.9638 20.7441 55.0439 20.7441C54.3466 20.7441 53.6669 20.6035 53.0048 20.3223C52.3427 20.0469 51.8417 19.6895 51.5019 19.25L52.6269 17.7031C53.2597 18.4121 54.0273 18.7666 54.9296 18.7666C55.6035 18.7666 56.1279 18.585 56.5029 18.2217C56.8779 17.8643 57.0654 17.3545 57.0654 16.6924V16.1826C56.4794 16.8447 55.7089 17.1758 54.7538 17.1758C53.6113 17.1758 52.6855 16.7305 51.9765 15.8398C51.2734 14.9434 50.9218 13.7568 50.9218 12.2803V12.1748ZM53.4619 12.3594C53.4619 13.2207 53.6347 13.8975 53.9804 14.3896C54.3261 14.876 54.8007 15.1191 55.4042 15.1191C56.1777 15.1191 56.7314 14.8291 57.0654 14.249V10.25C56.7255 9.66992 56.1777 9.37988 55.4218 9.37988C54.8124 9.37988 54.332 9.62891 53.9804 10.127C53.6347 10.625 53.4619 11.3691 53.4619 12.3594ZM65.1249 13.4053L66.8828 7.49023H69.6074L65.7841 18.4766L65.5732 18.9775C65.0048 20.2197 64.0673 20.8408 62.7607 20.8408C62.3915 20.8408 62.0165 20.7852 61.6357 20.6738V18.749L62.0224 18.7578C62.5029 18.7578 62.8603 18.6846 63.0947 18.5381C63.3349 18.3916 63.5224 18.1484 63.6572 17.8086L63.956 17.0264L60.6249 7.49023H63.3583L65.1249 13.4053Z" fill="#222222"/>
<path d="M80.9628 11.0146C80.9628 12.2686 80.7519 13.3643 80.33 14.3018C79.9081 15.2334 79.3105 15.9453 78.537 16.4375C77.7636 16.9297 76.8613 17.1758 75.83 17.1758C74.8222 17.1758 73.9286 16.9297 73.1494 16.4375C72.3701 15.9395 71.7636 15.2334 71.33 14.3193C70.9023 13.3994 70.6826 12.3359 70.6708 11.1289V10.2061C70.6708 8.97559 70.8847 7.88867 71.3124 6.94531C71.7402 6.00195 72.3437 5.28125 73.123 4.7832C73.9081 4.2793 74.8046 4.02734 75.8124 4.02734C76.8378 4.02734 77.7402 4.27637 78.5195 4.77441C79.3046 5.2666 79.9081 5.98438 80.33 6.92773C80.7519 7.86523 80.9628 8.95801 80.9628 10.2061V11.0146ZM79.2841 10.1885C79.2841 8.6709 78.9794 7.50781 78.3701 6.69922C77.7607 5.88477 76.9081 5.47754 75.8124 5.47754C74.746 5.47754 73.9052 5.88477 73.29 6.69922C72.6806 7.50781 72.3671 8.63281 72.3495 10.0742V11.0146C72.3495 12.4854 72.6572 13.6426 73.2724 14.4863C73.8935 15.3242 74.746 15.7432 75.83 15.7432C76.9199 15.7432 77.7636 15.3477 78.3613 14.5566C78.9589 13.7598 79.2665 12.6201 79.2841 11.1377V10.1885ZM91.2724 12.3506C91.2724 13.7979 90.9413 14.9639 90.2792 15.8486C89.6171 16.7334 88.7206 17.1758 87.5898 17.1758C86.4355 17.1758 85.5273 16.8096 84.8652 16.0771V20.6562H83.2392V7.49023H84.7245L84.8036 8.54492C85.4658 7.72461 86.3857 7.31445 87.5634 7.31445C88.706 7.31445 89.6083 7.74512 90.2704 8.60645C90.9384 9.46777 91.2724 10.666 91.2724 12.2012V12.3506ZM89.6464 12.166C89.6464 11.0938 89.4179 10.2471 88.9609 9.62598C88.5038 9.00488 87.8769 8.69434 87.08 8.69434C86.0956 8.69434 85.3574 9.13086 84.8652 10.0039V14.5479C85.3515 15.415 86.0956 15.8486 87.0976 15.8486C87.8769 15.8486 88.4951 15.541 88.9521 14.9258C89.415 14.3047 89.6464 13.3848 89.6464 12.166ZM95.5527 5.1875V7.49023H97.3281V8.74707H95.5527V14.6445C95.5527 15.0254 95.6318 15.3125 95.79 15.5059C95.9482 15.6934 96.2177 15.7871 96.5986 15.7871C96.7861 15.7871 97.0439 15.752 97.372 15.6816V17C96.9443 17.1172 96.5283 17.1758 96.124 17.1758C95.3974 17.1758 94.8495 16.9561 94.4804 16.5166C94.1113 16.0771 93.9267 15.4531 93.9267 14.6445V8.74707H92.1953V7.49023H93.9267V5.1875H95.5527ZM101.002 17H99.3759V7.49023H101.002V17ZM99.2441 4.96777C99.2441 4.7041 99.3232 4.48145 99.4814 4.2998C99.6454 4.11816 99.8857 4.02734 100.202 4.02734C100.518 4.02734 100.759 4.11816 100.923 4.2998C101.087 4.48145 101.169 4.7041 101.169 4.96777C101.169 5.23145 101.087 5.45117 100.923 5.62695C100.759 5.80273 100.518 5.89062 100.202 5.89062C99.8857 5.89062 99.6454 5.80273 99.4814 5.62695C99.3232 5.45117 99.2441 5.23145 99.2441 4.96777Z" fill="#C4C4C4"/>
<defs>
<linearGradient id="paint0_linear_3_179" x1="0" y1="1.51471" x2="-6.31108e-08" y2="17.5147" gradientUnits="userSpaceOnUse">
<stop offset="0.0131243" stop-color="#001AFF"/>
<stop offset="0.890625" stop-color="#7BC700"/>
</linearGradient>
</defs>
</svg>
